<svg xmlns="http://www.w3.org/2000/svg" xmlns:rdkit="http://www.rdkit.org/xml" xmlns:xlink="http://www.w3.org/1999/xlink" version="1.1" baseProfile="full" xml:space="preserve" width="800px" height="600px" viewBox="0 0 800 600">
<!-- END OF HEADER -->
<rect style="opacity:1.0;fill:#FFFFFF;stroke:none" width="800.0" height="600.0" x="0.0" y="0.0"> </rect>
<path class="bond-0 atom-0 atom-1" d="M 117.7,78.3 L 86.6,101.7" style="fill:none;fill-rule:evenodd;stroke:#000000;stroke-width:2.0px;stroke-linecap:butt;stroke-linejoin:miter;stroke-opacity:1"/>
<path class="bond-1 atom-1 atom-2" d="M 86.6,101.7 L 70.5,94.8" style="fill:none;fill-rule:evenodd;stroke:#000000;stroke-width:2.0px;stroke-linecap:butt;stroke-linejoin:miter;stroke-opacity:1"/>
<path class="bond-1 atom-1 atom-2" d="M 70.5,94.8 L 54.3,88.0" style="fill:none;fill-rule:evenodd;stroke:#7F4C19;stroke-width:2.0px;stroke-linecap:butt;stroke-linejoin:miter;stroke-opacity:1"/>
<path class="bond-2 atom-0 atom-3" d="M 117.7,78.3 L 132.9,84.7" style="fill:none;fill-rule:evenodd;stroke:#000000;stroke-width:2.0px;stroke-linecap:butt;stroke-linejoin:miter;stroke-opacity:1"/>
<path class="bond-2 atom-0 atom-3" d="M 132.9,84.7 L 148.0,91.2" style="fill:none;fill-rule:evenodd;stroke:#00CC00;stroke-width:2.0px;stroke-linecap:butt;stroke-linejoin:miter;stroke-opacity:1"/>
<path d="M 116.2,79.5 L 117.7,78.3 L 118.5,78.6" style="fill:none;stroke:#000000;stroke-width:2.0px;stroke-linecap:butt;stroke-linejoin:miter;stroke-opacity:1;"/>
<path d="M 88.1,100.5 L 86.6,101.7 L 85.8,101.4" style="fill:none;stroke:#000000;stroke-width:2.0px;stroke-linecap:butt;stroke-linejoin:miter;stroke-opacity:1;"/>
<path class="atom-2" d="M 45.0 86.2 Q 46.0 86.5, 46.6 87.1 Q 47.1 87.8, 47.1 88.7 Q 47.1 90.2, 46.1 91.1 Q 45.2 92.0, 43.3 92.0 L 39.6 92.0 L 39.6 80.9 L 42.9 80.9 Q 44.8 80.9, 45.7 81.7 Q 46.7 82.5, 46.7 83.9 Q 46.7 85.5, 45.0 86.2 M 41.1 82.2 L 41.1 85.6 L 42.9 85.6 Q 44.0 85.6, 44.5 85.2 Q 45.1 84.8, 45.1 83.9 Q 45.1 82.2, 42.9 82.2 L 41.1 82.2 M 43.3 90.7 Q 44.4 90.7, 45.0 90.2 Q 45.6 89.7, 45.6 88.7 Q 45.6 87.8, 44.9 87.4 Q 44.3 86.9, 43.1 86.9 L 41.1 86.9 L 41.1 90.7 L 43.3 90.7 " fill="#7F4C19"/>
<path class="atom-2" d="M 49.6 84.0 L 49.8 85.1 Q 50.6 83.8, 52.0 83.8 Q 52.4 83.8, 53.0 84.0 L 52.8 85.3 Q 52.1 85.1, 51.8 85.1 Q 51.1 85.1, 50.7 85.4 Q 50.2 85.6, 49.9 86.3 L 49.9 92.0 L 48.4 92.0 L 48.4 84.0 L 49.6 84.0 " fill="#7F4C19"/>
<path class="atom-3" d="M 149.3 93.9 Q 149.3 91.2, 150.6 89.8 Q 151.9 88.3, 154.3 88.3 Q 156.6 88.3, 157.8 89.9 L 156.8 90.7 Q 155.9 89.6, 154.3 89.6 Q 152.7 89.6, 151.8 90.7 Q 150.9 91.8, 150.9 93.9 Q 150.9 96.1, 151.8 97.2 Q 152.7 98.4, 154.5 98.4 Q 155.7 98.4, 157.1 97.6 L 157.6 98.8 Q 157.0 99.2, 156.1 99.4 Q 155.3 99.6, 154.3 99.6 Q 151.9 99.6, 150.6 98.1 Q 149.3 96.7, 149.3 93.9 " fill="#00CC00"/>
<path class="atom-3" d="M 158.9 87.6 L 160.4 87.6 L 160.4 99.5 L 158.9 99.5 L 158.9 87.6 " fill="#00CC00"/>
<path class="legend" d="M 30.6 189.1 L 36.4 189.1 L 36.4 190.4 L 30.6 190.4 L 30.6 189.1 " fill="#000000"/>
<path class="legend" d="M 38.4 193.6 L 40.9 193.6 L 40.9 185.1 L 38.2 185.9 L 37.8 185.0 L 41.3 183.4 L 42.4 183.6 L 42.4 193.6 L 44.6 193.6 L 44.6 194.8 L 38.4 194.8 L 38.4 193.6 " fill="#000000"/>
<path class="legend" d="M 45.9 193.2 L 47.5 193.2 L 47.5 194.8 L 45.9 194.8 L 45.9 193.2 " fill="#000000"/>
<path class="legend" d="M 52.9 183.4 Q 54.9 183.4, 56.0 184.8 Q 57.0 186.1, 57.0 188.8 Q 57.0 191.8, 55.7 193.4 Q 54.5 195.0, 52.0 195.0 Q 51.3 195.0, 50.7 194.8 Q 50.1 194.6, 49.6 194.3 L 50.2 193.2 Q 51.0 193.7, 52.0 193.7 Q 53.6 193.7, 54.4 192.7 Q 55.3 191.6, 55.4 189.5 Q 54.8 190.0, 54.0 190.3 Q 53.3 190.6, 52.5 190.6 Q 51.6 190.6, 50.8 190.2 Q 50.0 189.7, 49.6 188.9 Q 49.1 188.2, 49.1 187.2 Q 49.1 186.1, 49.6 185.2 Q 50.1 184.3, 51.0 183.9 Q 51.8 183.4, 52.9 183.4 M 50.7 187.1 Q 50.7 188.2, 51.3 188.7 Q 51.8 189.3, 52.8 189.3 Q 53.5 189.3, 54.2 189.0 Q 54.9 188.7, 55.4 188.3 Q 55.3 186.4, 54.7 185.5 Q 54.1 184.7, 52.9 184.7 Q 52.3 184.7, 51.8 185.0 Q 51.3 185.3, 51.0 185.9 Q 50.7 186.5, 50.7 187.1 " fill="#000000"/>
<path class="legend" d="M 62.8 187.8 Q 63.7 187.8, 64.6 188.2 Q 65.4 188.6, 65.8 189.4 Q 66.3 190.2, 66.3 191.3 Q 66.3 192.4, 65.7 193.3 Q 65.2 194.1, 64.2 194.5 Q 63.3 195.0, 62.3 195.0 Q 61.2 195.0, 60.3 194.6 Q 59.3 194.2, 58.6 193.5 L 59.6 192.5 Q 60.1 193.0, 60.9 193.4 Q 61.6 193.7, 62.3 193.7 Q 63.3 193.7, 64.0 193.0 Q 64.7 192.4, 64.7 191.3 Q 64.7 190.1, 64.0 189.5 Q 63.3 189.0, 62.2 189.0 Q 61.2 189.0, 60.1 189.4 L 59.2 189.0 L 59.8 183.5 L 65.6 183.5 L 65.4 184.8 L 61.1 184.8 L 60.8 188.2 Q 61.8 187.8, 62.8 187.8 " fill="#000000"/>
<path class="legend" d="" fill="#000000"/>
<path class="legend" d="M 83.8 194.8 L 82.0 194.8 L 78.7 190.2 L 75.3 194.8 L 73.6 194.8 L 77.8 188.9 L 73.9 183.5 L 75.7 183.5 L 78.7 187.8 L 81.8 183.5 L 83.5 183.5 L 79.6 189.0 L 83.8 194.8 " fill="#000000"/>
<path class="legend" d="" fill="#000000"/>
<path class="legend" d="M 94.5 195.0 Q 92.4 195.0, 91.4 193.4 Q 90.3 191.9, 90.3 189.2 Q 90.3 186.4, 91.4 184.9 Q 92.4 183.4, 94.5 183.4 Q 96.6 183.4, 97.6 184.9 Q 98.6 186.4, 98.6 189.2 Q 98.6 191.9, 97.6 193.4 Q 96.6 195.0, 94.5 195.0 M 94.5 193.7 Q 95.7 193.7, 96.4 192.6 Q 97.0 191.4, 97.0 189.2 Q 97.0 186.9, 96.4 185.8 Q 95.7 184.7, 94.5 184.7 Q 93.3 184.7, 92.6 185.8 Q 91.9 186.9, 91.9 189.2 Q 91.9 191.4, 92.6 192.6 Q 93.3 193.7, 94.5 193.7 " fill="#000000"/>
<path class="legend" d="M 100.3 193.2 L 101.9 193.2 L 101.9 194.8 L 100.3 194.8 L 100.3 193.2 " fill="#000000"/>
<path class="legend" d="M 108.9 188.9 Q 110.0 189.2, 110.6 189.9 Q 111.1 190.6, 111.1 191.7 Q 111.1 192.7, 110.6 193.4 Q 110.1 194.2, 109.3 194.6 Q 108.4 195.0, 107.2 195.0 Q 106.0 195.0, 105.1 194.6 Q 104.2 194.2, 103.5 193.3 L 104.4 192.4 Q 105.1 193.1, 105.7 193.4 Q 106.3 193.7, 107.2 193.7 Q 108.2 193.7, 108.9 193.2 Q 109.5 192.6, 109.5 191.7 Q 109.5 190.6, 108.8 190.1 Q 108.2 189.5, 106.8 189.5 L 106.0 189.5 L 106.0 188.4 L 106.7 188.4 Q 107.9 188.4, 108.6 187.8 Q 109.3 187.3, 109.3 186.3 Q 109.3 185.5, 108.7 185.1 Q 108.2 184.7, 107.2 184.7 Q 106.3 184.7, 105.7 185.0 Q 105.1 185.3, 104.7 186.2 L 103.6 185.6 Q 104.0 184.6, 104.9 184.0 Q 105.9 183.4, 107.2 183.4 Q 108.9 183.4, 109.9 184.2 Q 110.9 185.0, 110.9 186.3 Q 110.9 187.2, 110.4 187.8 Q 109.9 188.5, 108.9 188.9 " fill="#000000"/>
<path class="legend" d="M 120.0 191.0 L 121.3 191.0 L 121.3 192.2 L 120.0 192.2 L 120.0 194.8 L 118.5 194.8 L 118.5 192.2 L 112.6 192.2 L 112.6 191.2 L 117.6 183.5 L 120.0 183.5 L 120.0 191.0 M 114.5 191.0 L 118.5 191.0 L 118.5 184.5 L 114.5 191.0 " fill="#000000"/>
<path class="legend" d="M 122.7 187.9 L 130.0 187.9 L 130.0 189.0 L 122.7 189.0 L 122.7 187.9 M 122.7 191.3 L 130.0 191.3 L 130.0 192.5 L 122.7 192.5 L 122.7 191.3 " fill="#000000"/>
<path class="legend" d="M 132.1 189.1 L 137.9 189.1 L 137.9 190.4 L 132.1 190.4 L 132.1 189.1 " fill="#000000"/>
<path class="legend" d="M 143.5 195.0 Q 141.4 195.0, 140.4 193.4 Q 139.3 191.9, 139.3 189.2 Q 139.3 186.4, 140.4 184.9 Q 141.4 183.4, 143.5 183.4 Q 145.6 183.4, 146.6 184.9 Q 147.6 186.4, 147.6 189.2 Q 147.6 191.9, 146.6 193.4 Q 145.6 195.0, 143.5 195.0 M 143.5 193.7 Q 144.7 193.7, 145.4 192.6 Q 146.0 191.4, 146.0 189.2 Q 146.0 186.9, 145.4 185.8 Q 144.7 184.7, 143.5 184.7 Q 142.3 184.7, 141.6 185.8 Q 140.9 186.9, 140.9 189.2 Q 140.9 191.4, 141.6 192.6 Q 142.3 193.7, 143.5 193.7 " fill="#000000"/>
<path class="legend" d="M 149.2 193.2 L 150.8 193.2 L 150.8 194.8 L 149.2 194.8 L 149.2 193.2 " fill="#000000"/>
<path class="legend" d="M 156.9 187.8 Q 157.9 187.8, 158.7 188.2 Q 159.5 188.6, 159.9 189.4 Q 160.3 190.2, 160.3 191.2 Q 160.3 192.3, 159.8 193.2 Q 159.3 194.0, 158.5 194.5 Q 157.6 195.0, 156.5 195.0 Q 154.5 195.0, 153.5 193.6 Q 152.5 192.2, 152.5 189.5 Q 152.5 186.5, 153.7 185.0 Q 155.0 183.4, 157.4 183.4 Q 158.1 183.4, 158.7 183.5 Q 159.3 183.7, 159.9 184.0 L 159.2 185.1 Q 158.4 184.7, 157.4 184.7 Q 155.8 184.7, 155.0 185.7 Q 154.2 186.7, 154.1 188.9 Q 154.7 188.3, 155.4 188.1 Q 156.1 187.8, 156.9 187.8 M 156.5 193.7 Q 157.1 193.7, 157.6 193.3 Q 158.1 193.0, 158.4 192.5 Q 158.7 191.9, 158.7 191.2 Q 158.7 190.2, 158.2 189.6 Q 157.6 189.0, 156.6 189.0 Q 155.9 189.0, 155.2 189.3 Q 154.6 189.6, 154.1 190.1 Q 154.1 192.0, 154.7 192.8 Q 155.3 193.7, 156.5 193.7 " fill="#000000"/>
<path class="legend" d="M 165.9 187.8 Q 166.9 187.8, 167.7 188.2 Q 168.5 188.6, 169.0 189.4 Q 169.4 190.2, 169.4 191.3 Q 169.4 192.4, 168.9 193.3 Q 168.3 194.1, 167.4 194.5 Q 166.5 195.0, 165.4 195.0 Q 164.4 195.0, 163.4 194.6 Q 162.4 194.2, 161.8 193.5 L 162.7 192.5 Q 163.3 193.0, 164.0 193.4 Q 164.7 193.7, 165.4 193.7 Q 166.5 193.7, 167.1 193.0 Q 167.8 192.4, 167.8 191.3 Q 167.8 190.1, 167.1 189.5 Q 166.5 189.0, 165.3 189.0 Q 164.4 189.0, 163.3 189.4 L 162.4 189.0 L 162.9 183.5 L 168.7 183.5 L 168.6 184.8 L 164.2 184.8 L 163.9 188.2 Q 164.9 187.8, 165.9 187.8 " fill="#000000"/>
<path class="bond-0 atom-0 atom-1" d="M 232.5,60.7 L 266.3,80.2" style="fill:none;fill-rule:evenodd;stroke:#000000;stroke-width:2.0px;stroke-linecap:butt;stroke-linejoin:miter;stroke-opacity:1"/>
<path class="bond-1 atom-1 atom-2" d="M 266.3,80.2 L 266.3,119.1" style="fill:none;fill-rule:evenodd;stroke:#000000;stroke-width:2.0px;stroke-linecap:butt;stroke-linejoin:miter;stroke-opacity:1"/>
<path class="bond-2 atom-1 atom-3" d="M 266.3,80.2 L 280.0,72.3" style="fill:none;fill-rule:evenodd;stroke:#000000;stroke-width:2.0px;stroke-linecap:butt;stroke-linejoin:miter;stroke-opacity:1"/>
<path class="bond-2 atom-1 atom-3" d="M 280.0,72.3 L 293.6,64.4" style="fill:none;fill-rule:evenodd;stroke:#FF0000;stroke-width:2.0px;stroke-linecap:butt;stroke-linejoin:miter;stroke-opacity:1"/>
<path class="bond-3 atom-3 atom-4" d="M 306.4,64.4 L 320.0,72.3" style="fill:none;fill-rule:evenodd;stroke:#FF0000;stroke-width:2.0px;stroke-linecap:butt;stroke-linejoin:miter;stroke-opacity:1"/>
<path class="bond-3 atom-3 atom-4" d="M 320.0,72.3 L 333.7,80.2" style="fill:none;fill-rule:evenodd;stroke:#000000;stroke-width:2.0px;stroke-linecap:butt;stroke-linejoin:miter;stroke-opacity:1"/>
<path class="bond-4 atom-4 atom-5" d="M 330.8,78.5 L 330.8,95.4" style="fill:none;fill-rule:evenodd;stroke:#000000;stroke-width:2.0px;stroke-linecap:butt;stroke-linejoin:miter;stroke-opacity:1"/>
<path class="bond-4 atom-4 atom-5" d="M 330.8,95.4 L 330.8,112.3" style="fill:none;fill-rule:evenodd;stroke:#FF0000;stroke-width:2.0px;stroke-linecap:butt;stroke-linejoin:miter;stroke-opacity:1"/>
<path class="bond-4 atom-4 atom-5" d="M 336.7,78.5 L 336.7,95.4" style="fill:none;fill-rule:evenodd;stroke:#000000;stroke-width:2.0px;stroke-linecap:butt;stroke-linejoin:miter;stroke-opacity:1"/>
<path class="bond-4 atom-4 atom-5" d="M 336.7,95.4 L 336.7,112.3" style="fill:none;fill-rule:evenodd;stroke:#FF0000;stroke-width:2.0px;stroke-linecap:butt;stroke-linejoin:miter;stroke-opacity:1"/>
<path class="bond-5 atom-4 atom-6" d="M 333.7,80.2 L 367.5,60.7" style="fill:none;fill-rule:evenodd;stroke:#000000;stroke-width:2.0px;stroke-linecap:butt;stroke-linejoin:miter;stroke-opacity:1"/>
<path d="M 333.1,79.8 L 333.7,80.2 L 335.4,79.2" style="fill:none;stroke:#000000;stroke-width:2.0px;stroke-linecap:butt;stroke-linejoin:miter;stroke-opacity:1;"/>
<path class="atom-3" d="M 294.9 60.7 Q 294.9 58.1, 296.2 56.6 Q 297.6 55.1, 300.0 55.1 Q 302.4 55.1, 303.8 56.6 Q 305.1 58.1, 305.1 60.7 Q 305.1 63.4, 303.7 64.9 Q 302.4 66.4, 300.0 66.4 Q 297.6 66.4, 296.2 64.9 Q 294.9 63.4, 294.9 60.7 M 300.0 65.2 Q 301.7 65.2, 302.6 64.1 Q 303.5 62.9, 303.5 60.7 Q 303.5 58.6, 302.6 57.5 Q 301.7 56.4, 300.0 56.4 Q 298.3 56.4, 297.4 57.5 Q 296.5 58.5, 296.5 60.7 Q 296.5 63.0, 297.4 64.1 Q 298.3 65.2, 300.0 65.2 " fill="#FF0000"/>
<path class="atom-5" d="M 328.7 119.2 Q 328.7 116.5, 330.0 115.0 Q 331.3 113.6, 333.7 113.6 Q 336.2 113.6, 337.5 115.0 Q 338.8 116.5, 338.8 119.2 Q 338.8 121.8, 337.5 123.4 Q 336.2 124.9, 333.7 124.9 Q 331.3 124.9, 330.0 123.4 Q 328.7 121.9, 328.7 119.2 M 333.7 123.6 Q 335.4 123.6, 336.3 122.5 Q 337.2 121.4, 337.2 119.2 Q 337.2 117.0, 336.3 115.9 Q 335.4 114.8, 333.7 114.8 Q 332.1 114.8, 331.1 115.9 Q 330.2 117.0, 330.2 119.2 Q 330.2 121.4, 331.1 122.5 Q 332.1 123.6, 333.7 123.6 " fill="#FF0000"/>
<path class="legend" d="M 230.2 189.1 L 236.1 189.1 L 236.1 190.4 L 230.2 190.4 L 230.2 189.1 " fill="#000000"/>
<path class="legend" d="M 237.5 185.7 Q 237.9 184.6, 238.9 184.0 Q 239.9 183.4, 241.3 183.4 Q 243.0 183.4, 243.9 184.3 Q 244.9 185.3, 244.9 186.9 Q 244.9 188.6, 243.6 190.2 Q 242.4 191.7, 239.9 193.6 L 245.1 193.6 L 245.1 194.9 L 237.5 194.9 L 237.5 193.8 Q 239.6 192.3, 240.8 191.2 Q 242.1 190.1, 242.7 189.0 Q 243.3 188.0, 243.3 187.0 Q 243.3 185.9, 242.8 185.3 Q 242.2 184.7, 241.3 184.7 Q 240.4 184.7, 239.7 185.1 Q 239.1 185.4, 238.7 186.2 L 237.5 185.7 " fill="#000000"/>
<path class="legend" d="M 246.6 193.3 L 248.2 193.3 L 248.2 194.9 L 246.6 194.9 L 246.6 193.3 " fill="#000000"/>
<path class="legend" d="M 254.3 187.8 Q 255.3 187.8, 256.1 188.2 Q 256.9 188.7, 257.3 189.4 Q 257.7 190.2, 257.7 191.2 Q 257.7 192.3, 257.2 193.2 Q 256.7 194.0, 255.9 194.5 Q 255.0 195.0, 253.9 195.0 Q 251.9 195.0, 250.9 193.6 Q 249.9 192.3, 249.9 189.5 Q 249.9 186.5, 251.1 185.0 Q 252.4 183.4, 254.8 183.4 Q 255.5 183.4, 256.1 183.6 Q 256.7 183.7, 257.3 184.1 L 256.6 185.1 Q 255.8 184.7, 254.8 184.7 Q 253.2 184.7, 252.4 185.7 Q 251.6 186.8, 251.5 188.9 Q 252.1 188.4, 252.8 188.1 Q 253.5 187.8, 254.3 187.8 M 253.9 193.7 Q 254.5 193.7, 255.0 193.4 Q 255.5 193.0, 255.8 192.5 Q 256.1 191.9, 256.1 191.2 Q 256.1 190.2, 255.6 189.7 Q 255.0 189.1, 254.0 189.1 Q 253.3 189.1, 252.6 189.4 Q 252.0 189.6, 251.5 190.1 Q 251.5 192.0, 252.1 192.8 Q 252.7 193.7, 253.9 193.7 " fill="#000000"/>
<path class="legend" d="M 266.5 191.0 L 267.9 191.0 L 267.9 192.3 L 266.5 192.3 L 266.5 194.9 L 265.0 194.9 L 265.0 192.3 L 259.2 192.3 L 259.2 191.3 L 264.1 183.5 L 266.5 183.5 L 266.5 191.0 M 261.0 191.0 L 265.0 191.0 L 265.0 184.6 L 261.0 191.0 " fill="#000000"/>
<path class="legend" d="" fill="#000000"/>
<path class="legend" d="M 285.4 194.9 L 283.6 194.9 L 280.3 190.2 L 276.9 194.9 L 275.2 194.9 L 279.4 189.0 L 275.5 183.5 L 277.3 183.5 L 280.3 187.8 L 283.4 183.5 L 285.2 183.5 L 281.2 189.1 L 285.4 194.9 " fill="#000000"/>
<path class="legend" d="" fill="#000000"/>
<path class="legend" d="M 296.1 195.0 Q 294.0 195.0, 293.0 193.5 Q 292.0 191.9, 292.0 189.2 Q 292.0 186.5, 293.0 184.9 Q 294.0 183.4, 296.1 183.4 Q 298.2 183.4, 299.2 184.9 Q 300.3 186.5, 300.3 189.2 Q 300.3 191.9, 299.2 193.5 Q 298.2 195.0, 296.1 195.0 M 296.1 193.7 Q 297.3 193.7, 298.0 192.6 Q 298.7 191.4, 298.7 189.2 Q 298.7 187.0, 298.0 185.8 Q 297.3 184.7, 296.1 184.7 Q 294.9 184.7, 294.2 185.8 Q 293.6 187.0, 293.6 189.2 Q 293.6 191.4, 294.2 192.6 Q 294.9 193.7, 296.1 193.7 " fill="#000000"/>
<path class="legend" d="M 301.9 193.3 L 303.5 193.3 L 303.5 194.9 L 301.9 194.9 L 301.9 193.3 " fill="#000000"/>
<path class="legend" d="M 305.7 193.6 L 308.2 193.6 L 308.2 185.1 L 305.5 186.0 L 305.1 185.0 L 308.6 183.5 L 309.7 183.7 L 309.7 193.6 L 311.9 193.6 L 311.9 194.9 L 305.7 194.9 L 305.7 193.6 " fill="#000000"/>
<path class="legend" d="M 317.0 183.4 Q 319.0 183.4, 320.0 184.8 Q 321.1 186.2, 321.1 188.9 Q 321.1 191.9, 319.8 193.4 Q 318.5 195.0, 316.1 195.0 Q 315.4 195.0, 314.8 194.8 Q 314.2 194.7, 313.6 194.3 L 314.3 193.3 Q 315.1 193.7, 316.1 193.7 Q 317.7 193.7, 318.5 192.7 Q 319.3 191.7, 319.4 189.5 Q 318.9 190.1, 318.1 190.3 Q 317.4 190.6, 316.6 190.6 Q 315.6 190.6, 314.8 190.2 Q 314.1 189.8, 313.6 189.0 Q 313.2 188.2, 313.2 187.2 Q 313.2 186.1, 313.7 185.2 Q 314.2 184.4, 315.0 183.9 Q 315.9 183.4, 317.0 183.4 M 314.8 187.2 Q 314.8 188.2, 315.4 188.8 Q 315.9 189.3, 316.9 189.3 Q 317.6 189.3, 318.3 189.1 Q 319.0 188.8, 319.4 188.3 Q 319.4 186.4, 318.8 185.6 Q 318.2 184.7, 317.0 184.7 Q 316.4 184.7, 315.9 185.0 Q 315.4 185.4, 315.1 185.9 Q 314.8 186.5, 314.8 187.2 " fill="#000000"/>
<path class="legend" d="M 322.7 187.9 L 330.1 187.9 L 330.1 189.1 L 322.7 189.1 L 322.7 187.9 M 322.7 191.3 L 330.1 191.3 L 330.1 192.5 L 322.7 192.5 L 322.7 191.3 " fill="#000000"/>
<path class="legend" d="M 332.1 189.1 L 338.0 189.1 L 338.0 190.4 L 332.1 190.4 L 332.1 189.1 " fill="#000000"/>
<path class="legend" d="M 343.5 195.0 Q 341.4 195.0, 340.4 193.5 Q 339.4 191.9, 339.4 189.2 Q 339.4 186.5, 340.4 184.9 Q 341.4 183.4, 343.5 183.4 Q 345.6 183.4, 346.6 184.9 Q 347.6 186.5, 347.6 189.2 Q 347.6 191.9, 346.6 193.5 Q 345.6 195.0, 343.5 195.0 M 343.5 193.7 Q 344.7 193.7, 345.4 192.6 Q 346.0 191.4, 346.0 189.2 Q 346.0 187.0, 345.4 185.8 Q 344.7 184.7, 343.5 184.7 Q 342.3 184.7, 341.6 185.8 Q 341.0 187.0, 341.0 189.2 Q 341.0 191.4, 341.6 192.6 Q 342.3 193.7, 343.5 193.7 " fill="#000000"/>
<path class="legend" d="M 349.3 193.3 L 350.9 193.3 L 350.9 194.9 L 349.3 194.9 L 349.3 193.3 " fill="#000000"/>
<path class="legend" d="M 356.6 187.8 Q 357.6 187.8, 358.4 188.2 Q 359.2 188.6, 359.7 189.4 Q 360.2 190.2, 360.2 191.3 Q 360.2 192.5, 359.6 193.3 Q 359.0 194.1, 358.1 194.6 Q 357.2 195.0, 356.1 195.0 Q 355.1 195.0, 354.1 194.6 Q 353.2 194.2, 352.5 193.5 L 353.5 192.5 Q 354.0 193.1, 354.7 193.4 Q 355.4 193.7, 356.2 193.7 Q 357.2 193.7, 357.9 193.1 Q 358.6 192.5, 358.6 191.3 Q 358.6 190.1, 357.9 189.6 Q 357.2 189.0, 356.1 189.0 Q 355.1 189.0, 354.0 189.4 L 353.1 189.0 L 353.6 183.5 L 359.5 183.5 L 359.3 184.8 L 354.9 184.8 L 354.6 188.2 Q 355.6 187.8, 356.6 187.8 " fill="#000000"/>
<path class="legend" d="M 365.7 195.0 Q 363.6 195.0, 362.5 193.5 Q 361.5 191.9, 361.5 189.2 Q 361.5 186.5, 362.5 184.9 Q 363.6 183.4, 365.7 183.4 Q 367.8 183.4, 368.8 184.9 Q 369.8 186.5, 369.8 189.2 Q 369.8 191.9, 368.8 193.5 Q 367.7 195.0, 365.7 195.0 M 365.7 193.7 Q 366.9 193.7, 367.5 192.6 Q 368.2 191.4, 368.2 189.2 Q 368.2 187.0, 367.5 185.8 Q 366.9 184.7, 365.7 184.7 Q 364.4 184.7, 363.8 185.8 Q 363.1 187.0, 363.1 189.2 Q 363.1 191.4, 363.8 192.6 Q 364.4 193.7, 365.7 193.7 " fill="#000000"/>
<path class="bond-0 atom-0 atom-1" d="M 449.4,80.3 L 483.1,60.8" style="fill:none;fill-rule:evenodd;stroke:#000000;stroke-width:2.0px;stroke-linecap:butt;stroke-linejoin:miter;stroke-opacity:1"/>
<path class="bond-1 atom-1 atom-2" d="M 483.1,60.8 L 516.9,80.3" style="fill:none;fill-rule:evenodd;stroke:#000000;stroke-width:2.0px;stroke-linecap:butt;stroke-linejoin:miter;stroke-opacity:1"/>
<path class="bond-1 atom-1 atom-2" d="M 483.1,67.5 L 511.0,83.6" style="fill:none;fill-rule:evenodd;stroke:#000000;stroke-width:2.0px;stroke-linecap:butt;stroke-linejoin:miter;stroke-opacity:1"/>
<path class="bond-2 atom-2 atom-3" d="M 516.9,80.3 L 550.6,60.8" style="fill:none;fill-rule:evenodd;stroke:#000000;stroke-width:2.0px;stroke-linecap:butt;stroke-linejoin:miter;stroke-opacity:1"/>
<path class="bond-3 atom-2 atom-4" d="M 516.9,80.3 L 516.9,119.2" style="fill:none;fill-rule:evenodd;stroke:#000000;stroke-width:2.0px;stroke-linecap:butt;stroke-linejoin:miter;stroke-opacity:1"/>
<path d="M 481.4,61.8 L 483.1,60.8 L 484.8,61.8" style="fill:none;stroke:#000000;stroke-width:2.0px;stroke-linecap:butt;stroke-linejoin:miter;stroke-opacity:1;"/>
<path class="legend" d="M 440.1 193.6 L 442.6 193.6 L 442.6 185.1 L 439.9 185.9 L 439.5 185.0 L 443.0 183.4 L 444.1 183.6 L 444.1 193.6 L 446.3 193.6 L 446.3 194.8 L 440.1 194.8 L 440.1 193.6 " fill="#000000"/>
<path class="legend" d="M 447.6 193.2 L 449.2 193.2 L 449.2 194.8 L 447.6 194.8 L 447.6 193.2 " fill="#000000"/>
<path class="legend" d="M 456.2 188.9 Q 457.3 189.2, 457.8 189.9 Q 458.4 190.6, 458.4 191.7 Q 458.4 192.7, 457.9 193.4 Q 457.4 194.2, 456.5 194.6 Q 455.7 195.0, 454.5 195.0 Q 453.3 195.0, 452.4 194.6 Q 451.5 194.2, 450.8 193.3 L 451.7 192.4 Q 452.4 193.1, 453.0 193.4 Q 453.6 193.7, 454.5 193.7 Q 455.5 193.7, 456.2 193.2 Q 456.8 192.6, 456.8 191.7 Q 456.8 190.6, 456.1 190.1 Q 455.5 189.5, 454.1 189.5 L 453.3 189.5 L 453.3 188.4 L 454.0 188.4 Q 455.2 188.4, 455.9 187.8 Q 456.5 187.3, 456.5 186.3 Q 456.5 185.5, 456.0 185.1 Q 455.4 184.7, 454.5 184.7 Q 453.6 184.7, 453.0 185.0 Q 452.4 185.3, 452.0 186.2 L 450.9 185.6 Q 451.3 184.6, 452.2 184.0 Q 453.2 183.4, 454.5 183.4 Q 456.2 183.4, 457.2 184.2 Q 458.1 185.0, 458.1 186.3 Q 458.1 187.2, 457.6 187.8 Q 457.1 188.5, 456.2 188.9 " fill="#000000"/>
<path class="legend" d="M 460.5 193.6 L 463.0 193.6 L 463.0 185.1 L 460.3 185.9 L 459.9 185.0 L 463.4 183.4 L 464.5 183.6 L 464.5 193.6 L 466.7 193.6 L 466.7 194.8 L 460.5 194.8 L 460.5 193.6 " fill="#000000"/>
<path class="legend" d="" fill="#000000"/>
<path class="legend" d="M 484.1 194.8 L 482.3 194.8 L 478.9 190.2 L 475.6 194.8 L 473.8 194.8 L 478.1 188.9 L 474.2 183.5 L 475.9 183.5 L 479.0 187.8 L 482.1 183.5 L 483.8 183.5 L 479.9 189.0 L 484.1 194.8 " fill="#000000"/>
<path class="legend" d="" fill="#000000"/>
<path class="legend" d="M 494.7 195.0 Q 492.6 195.0, 491.6 193.4 Q 490.6 191.9, 490.6 189.2 Q 490.6 186.4, 491.6 184.9 Q 492.6 183.4, 494.7 183.4 Q 496.8 183.4, 497.8 184.9 Q 498.9 186.4, 498.9 189.2 Q 498.9 191.9, 497.8 193.4 Q 496.8 195.0, 494.7 195.0 M 494.7 193.7 Q 496.0 193.7, 496.6 192.6 Q 497.3 191.4, 497.3 189.2 Q 497.3 186.9, 496.6 185.8 Q 496.0 184.7, 494.7 184.7 Q 493.5 184.7, 492.8 185.8 Q 492.2 186.9, 492.2 189.2 Q 492.2 191.4, 492.8 192.6 Q 493.5 193.7, 494.7 193.7 " fill="#000000"/>
<path class="legend" d="M 500.5 193.2 L 502.1 193.2 L 502.1 194.8 L 500.5 194.8 L 500.5 193.2 " fill="#000000"/>
<path class="legend" d="M 504.3 193.6 L 506.8 193.6 L 506.8 185.1 L 504.0 185.9 L 503.7 185.0 L 507.1 183.4 L 508.3 183.6 L 508.3 193.6 L 510.5 193.6 L 510.5 194.8 L 504.3 194.8 L 504.3 193.6 " fill="#000000"/>
<path class="legend" d="M 515.6 183.4 Q 517.6 183.4, 518.6 184.8 Q 519.6 186.1, 519.6 188.8 Q 519.6 191.8, 518.3 193.4 Q 517.1 195.0, 514.7 195.0 Q 514.0 195.0, 513.4 194.8 Q 512.8 194.6, 512.2 194.3 L 512.8 193.2 Q 513.6 193.7, 514.7 193.7 Q 516.3 193.7, 517.1 192.7 Q 517.9 191.6, 518.0 189.5 Q 517.4 190.0, 516.7 190.3 Q 516.0 190.6, 515.2 190.6 Q 514.2 190.6, 513.4 190.2 Q 512.6 189.7, 512.2 188.9 Q 511.7 188.2, 511.7 187.2 Q 511.7 186.1, 512.2 185.2 Q 512.7 184.3, 513.6 183.9 Q 514.4 183.4, 515.6 183.4 M 513.3 187.1 Q 513.3 188.2, 513.9 188.7 Q 514.5 189.3, 515.5 189.3 Q 516.1 189.3, 516.8 189.0 Q 517.5 188.7, 518.0 188.3 Q 517.9 186.4, 517.3 185.5 Q 516.7 184.7, 515.5 184.7 Q 514.9 184.7, 514.4 185.0 Q 513.9 185.3, 513.6 185.9 Q 513.3 186.5, 513.3 187.1 " fill="#000000"/>
<path class="legend" d="M 521.2 187.9 L 528.6 187.9 L 528.6 189.0 L 521.2 189.0 L 521.2 187.9 M 521.2 191.3 L 528.6 191.3 L 528.6 192.5 L 521.2 192.5 L 521.2 191.3 " fill="#000000"/>
<path class="legend" d="M 534.7 195.0 Q 532.7 195.0, 531.6 193.4 Q 530.6 191.9, 530.6 189.2 Q 530.6 186.4, 531.6 184.9 Q 532.6 183.4, 534.7 183.4 Q 536.8 183.4, 537.9 184.9 Q 538.9 186.4, 538.9 189.2 Q 538.9 191.9, 537.8 193.4 Q 536.8 195.0, 534.7 195.0 M 534.7 193.7 Q 536.0 193.7, 536.6 192.6 Q 537.3 191.4, 537.3 189.2 Q 537.3 186.9, 536.6 185.8 Q 536.0 184.7, 534.7 184.7 Q 533.5 184.7, 532.9 185.8 Q 532.2 186.9, 532.2 189.2 Q 532.2 191.4, 532.9 192.6 Q 533.5 193.7, 534.7 193.7 " fill="#000000"/>
<path class="legend" d="M 540.5 193.2 L 542.1 193.2 L 542.1 194.8 L 540.5 194.8 L 540.5 193.2 " fill="#000000"/>
<path class="legend" d="M 543.7 185.7 Q 544.1 184.6, 545.1 184.0 Q 546.1 183.4, 547.5 183.4 Q 549.2 183.4, 550.2 184.3 Q 551.1 185.2, 551.1 186.9 Q 551.1 188.6, 549.9 190.1 Q 548.7 191.7, 546.1 193.6 L 551.3 193.6 L 551.3 194.8 L 543.7 194.8 L 543.7 193.8 Q 545.8 192.3, 547.1 191.1 Q 548.3 190.0, 548.9 189.0 Q 549.5 188.0, 549.5 187.0 Q 549.5 185.9, 549.0 185.3 Q 548.4 184.7, 547.5 184.7 Q 546.6 184.7, 546.0 185.0 Q 545.4 185.4, 544.9 186.2 L 543.7 185.7 " fill="#000000"/>
<path class="legend" d="M 557.0 187.8 Q 558.0 187.8, 558.8 188.2 Q 559.6 188.6, 560.0 189.4 Q 560.5 190.2, 560.5 191.3 Q 560.5 192.4, 559.9 193.3 Q 559.4 194.1, 558.4 194.5 Q 557.5 195.0, 556.5 195.0 Q 555.4 195.0, 554.5 194.6 Q 553.5 194.2, 552.8 193.5 L 553.8 192.5 Q 554.3 193.0, 555.1 193.4 Q 555.8 193.7, 556.5 193.7 Q 557.5 193.7, 558.2 193.0 Q 558.9 192.4, 558.9 191.3 Q 558.9 190.1, 558.2 189.5 Q 557.5 189.0, 556.4 189.0 Q 555.4 189.0, 554.3 189.4 L 553.4 189.0 L 554.0 183.5 L 559.8 183.5 L 559.6 184.8 L 555.3 184.8 L 555.0 188.2 Q 556.0 187.8, 557.0 187.8 " fill="#000000"/>
<path class="bond-0 atom-0 atom-1" d="M 633.2,102.4 L 669.4,87.9" style="fill:none;fill-rule:evenodd;stroke:#000000;stroke-width:2.0px;stroke-linecap:butt;stroke-linejoin:miter;stroke-opacity:1"/>
<path class="bond-1 atom-1 atom-2" d="M 669.4,87.9 L 700.0,112.0" style="fill:none;fill-rule:evenodd;stroke:#000000;stroke-width:2.0px;stroke-linecap:butt;stroke-linejoin:miter;stroke-opacity:1"/>
<path class="bond-2 atom-2 atom-3" d="M 700.0,112.0 L 736.2,97.5" style="fill:none;fill-rule:evenodd;stroke:#000000;stroke-width:2.0px;stroke-linecap:butt;stroke-linejoin:miter;stroke-opacity:1"/>
<path class="bond-3 atom-3 atom-4" d="M 738.8,99.5 L 744.6,59.3" style="fill:none;fill-rule:evenodd;stroke:#000000;stroke-width:2.0px;stroke-linecap:butt;stroke-linejoin:miter;stroke-opacity:1"/>
<path class="bond-3 atom-3 atom-4" d="M 733.0,98.7 L 738.8,58.5" style="fill:none;fill-rule:evenodd;stroke:#000000;stroke-width:2.0px;stroke-linecap:butt;stroke-linejoin:miter;stroke-opacity:1"/>
<path class="bond-4 atom-3 atom-5" d="M 736.2,97.5 L 766.8,121.5" style="fill:none;fill-rule:evenodd;stroke:#000000;stroke-width:2.0px;stroke-linecap:butt;stroke-linejoin:miter;stroke-opacity:1"/>
<path d="M 667.6,88.6 L 669.4,87.9 L 670.9,89.1" style="fill:none;stroke:#000000;stroke-width:2.0px;stroke-linecap:butt;stroke-linejoin:miter;stroke-opacity:1;"/>
<path d="M 698.5,110.8 L 700.0,112.0 L 701.8,111.2" style="fill:none;stroke:#000000;stroke-width:2.0px;stroke-linecap:butt;stroke-linejoin:miter;stroke-opacity:1;"/>
<path d="M 734.4,98.2 L 736.2,97.5 L 737.7,98.7" style="fill:none;stroke:#000000;stroke-width:2.0px;stroke-linecap:butt;stroke-linejoin:miter;stroke-opacity:1;"/>
<path class="legend" d="M 639.2 193.6 L 641.7 193.6 L 641.7 185.1 L 638.9 185.9 L 638.5 185.0 L 642.0 183.4 L 643.2 183.6 L 643.2 193.6 L 645.4 193.6 L 645.4 194.8 L 639.2 194.8 L 639.2 193.6 " fill="#000000"/>
<path class="legend" d="M 646.6 193.2 L 648.2 193.2 L 648.2 194.8 L 646.6 194.8 L 646.6 193.2 " fill="#000000"/>
<path class="legend" d="M 657.2 191.0 L 658.6 191.0 L 658.6 192.2 L 657.2 192.2 L 657.2 194.8 L 655.7 194.8 L 655.7 192.2 L 649.8 192.2 L 649.8 191.2 L 654.8 183.5 L 657.2 183.5 L 657.2 191.0 M 651.7 191.0 L 655.7 191.0 L 655.7 184.5 L 651.7 191.0 " fill="#000000"/>
<path class="legend" d="M 665.9 184.8 L 659.9 184.8 L 659.9 183.5 L 667.4 183.5 L 667.4 184.6 L 662.9 194.8 L 661.3 194.8 L 665.9 184.8 " fill="#000000"/>
<path class="legend" d="" fill="#000000"/>
<path class="legend" d="M 684.6 194.8 L 682.8 194.8 L 679.5 190.2 L 676.1 194.8 L 674.4 194.8 L 678.6 188.9 L 674.7 183.5 L 676.5 183.5 L 679.5 187.8 L 682.6 183.5 L 684.4 183.5 L 680.4 189.0 L 684.6 194.8 " fill="#000000"/>
<path class="legend" d="" fill="#000000"/>
<path class="legend" d="M 695.3 195.0 Q 693.2 195.0, 692.2 193.4 Q 691.2 191.9, 691.2 189.2 Q 691.2 186.4, 692.2 184.9 Q 693.2 183.4, 695.3 183.4 Q 697.4 183.4, 698.4 184.9 Q 699.4 186.4, 699.4 189.2 Q 699.4 191.9, 698.4 193.4 Q 697.4 195.0, 695.3 195.0 M 695.3 193.7 Q 696.5 193.7, 697.2 192.6 Q 697.8 191.4, 697.8 189.2 Q 697.8 186.9, 697.2 185.8 Q 696.5 184.7, 695.3 184.7 Q 694.1 184.7, 693.4 185.8 Q 692.8 186.9, 692.8 189.2 Q 692.8 191.4, 693.4 192.6 Q 694.1 193.7, 695.3 193.7 " fill="#000000"/>
<path class="legend" d="M 701.1 193.2 L 702.7 193.2 L 702.7 194.8 L 701.1 194.8 L 701.1 193.2 " fill="#000000"/>
<path class="legend" d="M 704.9 193.6 L 707.4 193.6 L 707.4 185.1 L 704.6 185.9 L 704.3 185.0 L 707.8 183.4 L 708.9 183.6 L 708.9 193.6 L 711.1 193.6 L 711.1 194.8 L 704.9 194.8 L 704.9 193.6 " fill="#000000"/>
<path class="legend" d="M 718.1 188.8 Q 719.2 189.3, 719.8 190.0 Q 720.4 190.6, 720.4 191.7 Q 720.4 192.7, 719.9 193.4 Q 719.4 194.2, 718.5 194.6 Q 717.6 195.0, 716.4 195.0 Q 714.5 195.0, 713.4 194.1 Q 712.4 193.3, 712.4 191.7 Q 712.4 190.8, 712.8 190.1 Q 713.3 189.4, 714.3 188.9 Q 713.6 188.5, 713.2 187.9 Q 712.8 187.2, 712.8 186.3 Q 712.8 185.0, 713.7 184.2 Q 714.7 183.4, 716.4 183.4 Q 718.0 183.4, 719.0 184.2 Q 719.9 185.0, 719.9 186.3 Q 719.9 187.1, 719.5 187.7 Q 719.0 188.3, 718.1 188.8 M 716.4 184.6 Q 715.4 184.6, 714.9 185.0 Q 714.4 185.5, 714.4 186.3 Q 714.4 186.9, 714.7 187.3 Q 715.1 187.7, 715.6 187.9 Q 716.1 188.1, 717.1 188.4 Q 717.8 188.0, 718.0 187.4 Q 718.3 186.9, 718.3 186.3 Q 718.3 185.5, 717.8 185.0 Q 717.3 184.6, 716.4 184.6 M 716.4 193.8 Q 717.5 193.8, 718.1 193.2 Q 718.8 192.7, 718.8 191.7 Q 718.8 191.1, 718.4 190.7 Q 718.1 190.3, 717.6 190.1 Q 717.1 189.9, 716.2 189.6 L 715.5 189.4 Q 714.7 189.8, 714.3 190.4 Q 714.0 191.0, 714.0 191.7 Q 714.0 192.7, 714.6 193.2 Q 715.3 193.8, 716.4 193.8 " fill="#000000"/>
<path class="legend" d="M 721.9 187.9 L 729.3 187.9 L 729.3 189.0 L 721.9 189.0 L 721.9 187.9 M 721.9 191.3 L 729.3 191.3 L 729.3 192.5 L 721.9 192.5 L 721.9 191.3 " fill="#000000"/>
<path class="legend" d="M 735.4 195.0 Q 733.4 195.0, 732.3 193.4 Q 731.3 191.9, 731.3 189.2 Q 731.3 186.4, 732.3 184.9 Q 733.4 183.4, 735.4 183.4 Q 737.5 183.4, 738.6 184.9 Q 739.6 186.4, 739.6 189.2 Q 739.6 191.9, 738.6 193.4 Q 737.5 195.0, 735.4 195.0 M 735.4 193.7 Q 736.7 193.7, 737.3 192.6 Q 738.0 191.4, 738.0 189.2 Q 738.0 186.9, 737.3 185.8 Q 736.7 184.7, 735.4 184.7 Q 734.2 184.7, 733.6 185.8 Q 732.9 186.9, 732.9 189.2 Q 732.9 191.4, 733.6 192.6 Q 734.2 193.7, 735.4 193.7 " fill="#000000"/>
<path class="legend" d="M 741.2 193.2 L 742.8 193.2 L 742.8 194.8 L 741.2 194.8 L 741.2 193.2 " fill="#000000"/>
<path class="legend" d="M 744.5 185.7 Q 744.9 184.6, 745.9 184.0 Q 746.9 183.4, 748.2 183.4 Q 749.9 183.4, 750.9 184.3 Q 751.9 185.2, 751.9 186.9 Q 751.9 188.6, 750.6 190.1 Q 749.4 191.7, 746.8 193.6 L 752.1 193.6 L 752.1 194.8 L 744.4 194.8 L 744.4 193.8 Q 746.5 192.3, 747.8 191.1 Q 749.1 190.0, 749.7 189.0 Q 750.3 188.0, 750.3 187.0 Q 750.3 185.9, 749.7 185.3 Q 749.2 184.7, 748.2 184.7 Q 747.3 184.7, 746.7 185.0 Q 746.1 185.4, 745.7 186.2 L 744.5 185.7 " fill="#000000"/>
<path class="legend" d="M 758.0 187.8 Q 759.0 187.8, 759.8 188.2 Q 760.6 188.6, 761.0 189.4 Q 761.5 190.2, 761.5 191.2 Q 761.5 192.3, 761.0 193.2 Q 760.5 194.0, 759.6 194.5 Q 758.7 195.0, 757.6 195.0 Q 755.6 195.0, 754.6 193.6 Q 753.6 192.2, 753.6 189.5 Q 753.6 186.5, 754.8 185.0 Q 756.1 183.4, 758.5 183.4 Q 759.2 183.4, 759.8 183.5 Q 760.4 183.7, 761.0 184.0 L 760.4 185.1 Q 759.5 184.7, 758.5 184.7 Q 756.9 184.7, 756.1 185.7 Q 755.3 186.7, 755.2 188.9 Q 755.8 188.3, 756.5 188.1 Q 757.2 187.8, 758.0 187.8 M 757.7 193.7 Q 758.3 193.7, 758.8 193.3 Q 759.3 193.0, 759.6 192.5 Q 759.9 191.9, 759.9 191.2 Q 759.9 190.2, 759.3 189.6 Q 758.7 189.0, 757.7 189.0 Q 757.1 189.0, 756.4 189.3 Q 755.7 189.6, 755.2 190.1 Q 755.3 192.0, 755.9 192.8 Q 756.5 193.7, 757.7 193.7 " fill="#000000"/>
<path class="bond-0 atom-0 atom-1" d="M 58.6,296.9 L 92.3,277.4" style="fill:none;fill-rule:evenodd;stroke:#000000;stroke-width:2.0px;stroke-linecap:butt;stroke-linejoin:miter;stroke-opacity:1"/>
<path class="bond-1 atom-1 atom-2" d="M 92.3,277.4 L 106.0,285.3" style="fill:none;fill-rule:evenodd;stroke:#000000;stroke-width:2.0px;stroke-linecap:butt;stroke-linejoin:miter;stroke-opacity:1"/>
<path class="bond-1 atom-1 atom-2" d="M 106.0,285.3 L 119.7,293.2" style="fill:none;fill-rule:evenodd;stroke:#FF0000;stroke-width:2.0px;stroke-linecap:butt;stroke-linejoin:miter;stroke-opacity:1"/>
<path d="M 90.6,278.4 L 92.3,277.4 L 93.0,277.8" style="fill:none;stroke:#000000;stroke-width:2.0px;stroke-linecap:butt;stroke-linejoin:miter;stroke-opacity:1;"/>
<path class="atom-2" d="M 121.0 296.9 Q 121.0 294.2, 122.3 292.8 Q 123.6 291.3, 126.0 291.3 Q 128.5 291.3, 129.8 292.8 Q 131.1 294.2, 131.1 296.9 Q 131.1 299.6, 129.8 301.1 Q 128.4 302.6, 126.0 302.6 Q 123.6 302.6, 122.3 301.1 Q 121.0 299.6, 121.0 296.9 M 126.0 301.4 Q 127.7 301.4, 128.6 300.2 Q 129.5 299.1, 129.5 296.9 Q 129.5 294.7, 128.6 293.6 Q 127.7 292.5, 126.0 292.5 Q 124.4 292.5, 123.4 293.6 Q 122.5 294.7, 122.5 296.9 Q 122.5 299.1, 123.4 300.2 Q 124.4 301.4, 126.0 301.4 " fill="#FF0000"/>
<path class="atom-2" d="M 132.8 291.4 L 134.3 291.4 L 134.3 296.1 L 140.0 296.1 L 140.0 291.4 L 141.4 291.4 L 141.4 302.4 L 140.0 302.4 L 140.0 297.3 L 134.3 297.3 L 134.3 302.4 L 132.8 302.4 L 132.8 291.4 " fill="#FF0000"/>
<path class="legend" d="M 30.3 389.1 L 36.2 389.1 L 36.2 390.4 L 30.3 390.4 L 30.3 389.1 " fill="#000000"/>
<path class="legend" d="M 41.7 387.8 Q 42.7 387.8, 43.5 388.2 Q 44.3 388.6, 44.8 389.4 Q 45.2 390.2, 45.2 391.3 Q 45.2 392.5, 44.7 393.3 Q 44.1 394.1, 43.2 394.6 Q 42.3 395.0, 41.2 395.0 Q 40.2 395.0, 39.2 394.6 Q 38.2 394.2, 37.6 393.5 L 38.5 392.5 Q 39.1 393.1, 39.8 393.4 Q 40.5 393.7, 41.2 393.7 Q 42.3 393.7, 42.9 393.1 Q 43.6 392.5, 43.6 391.3 Q 43.6 390.1, 42.9 389.6 Q 42.3 389.0, 41.2 389.0 Q 40.2 389.0, 39.1 389.4 L 38.2 389.0 L 38.7 383.5 L 44.5 383.5 L 44.4 384.8 L 40.0 384.8 L 39.7 388.2 Q 40.7 387.8, 41.7 387.8 " fill="#000000"/>
<path class="legend" d="M 46.6 393.3 L 48.2 393.3 L 48.2 394.9 L 46.6 394.9 L 46.6 393.3 " fill="#000000"/>
<path class="legend" d="M 54.0 395.0 Q 51.9 395.0, 50.9 393.5 Q 49.8 391.9, 49.8 389.2 Q 49.8 386.5, 50.9 384.9 Q 51.9 383.4, 54.0 383.4 Q 56.1 383.4, 57.1 384.9 Q 58.1 386.5, 58.1 389.2 Q 58.1 391.9, 57.1 393.5 Q 56.1 395.0, 54.0 395.0 M 54.0 393.7 Q 55.2 393.7, 55.9 392.6 Q 56.5 391.4, 56.5 389.2 Q 56.5 387.0, 55.9 385.8 Q 55.2 384.7, 54.0 384.7 Q 52.8 384.7, 52.1 385.8 Q 51.4 387.0, 51.4 389.2 Q 51.4 391.4, 52.1 392.6 Q 52.8 393.7, 54.0 393.7 " fill="#000000"/>
<path class="legend" d="M 63.9 395.0 Q 61.8 395.0, 60.8 393.5 Q 59.7 391.9, 59.7 389.2 Q 59.7 386.5, 60.8 384.9 Q 61.8 383.4, 63.9 383.4 Q 66.0 383.4, 67.0 384.9 Q 68.0 386.5, 68.0 389.2 Q 68.0 391.9, 67.0 393.5 Q 66.0 395.0, 63.9 395.0 M 63.9 393.7 Q 65.1 393.7, 65.8 392.6 Q 66.4 391.4, 66.4 389.2 Q 66.4 387.0, 65.8 385.8 Q 65.1 384.7, 63.9 384.7 Q 62.7 384.7, 62.0 385.8 Q 61.3 387.0, 61.3 389.2 Q 61.3 391.4, 62.0 392.6 Q 62.7 393.7, 63.9 393.7 " fill="#000000"/>
<path class="legend" d="" fill="#000000"/>
<path class="legend" d="M 85.8 394.9 L 84.0 394.9 L 80.7 390.2 L 77.3 394.9 L 75.6 394.9 L 79.8 389.0 L 75.9 383.5 L 77.7 383.5 L 80.7 387.8 L 83.8 383.5 L 85.5 383.5 L 81.6 389.1 L 85.8 394.9 " fill="#000000"/>
<path class="legend" d="" fill="#000000"/>
<path class="legend" d="M 96.5 395.0 Q 94.4 395.0, 93.4 393.5 Q 92.4 391.9, 92.4 389.2 Q 92.4 386.5, 93.4 384.9 Q 94.4 383.4, 96.5 383.4 Q 98.6 383.4, 99.6 384.9 Q 100.6 386.5, 100.6 389.2 Q 100.6 391.9, 99.6 393.5 Q 98.6 395.0, 96.5 395.0 M 96.5 393.7 Q 97.7 393.7, 98.4 392.6 Q 99.0 391.4, 99.0 389.2 Q 99.0 387.0, 98.4 385.8 Q 97.7 384.7, 96.5 384.7 Q 95.3 384.7, 94.6 385.8 Q 94.0 387.0, 94.0 389.2 Q 94.0 391.4, 94.6 392.6 Q 95.3 393.7, 96.5 393.7 " fill="#000000"/>
<path class="legend" d="M 102.3 393.3 L 103.9 393.3 L 103.9 394.9 L 102.3 394.9 L 102.3 393.3 " fill="#000000"/>
<path class="legend" d="M 106.1 393.6 L 108.6 393.6 L 108.6 385.1 L 105.9 386.0 L 105.5 385.0 L 109.0 383.5 L 110.1 383.7 L 110.1 393.6 L 112.3 393.6 L 112.3 394.9 L 106.1 394.9 L 106.1 393.6 " fill="#000000"/>
<path class="legend" d="M 117.7 387.8 Q 118.7 387.8, 119.5 388.2 Q 120.3 388.6, 120.8 389.4 Q 121.3 390.2, 121.3 391.3 Q 121.3 392.5, 120.7 393.3 Q 120.1 394.1, 119.2 394.6 Q 118.3 395.0, 117.2 395.0 Q 116.2 395.0, 115.2 394.6 Q 114.2 394.2, 113.6 393.5 L 114.6 392.5 Q 115.1 393.1, 115.8 393.4 Q 116.5 393.7, 117.3 393.7 Q 118.3 393.7, 119.0 393.1 Q 119.7 392.5, 119.7 391.3 Q 119.7 390.1, 119.0 389.6 Q 118.3 389.0, 117.2 389.0 Q 116.2 389.0, 115.1 389.4 L 114.2 389.0 L 114.7 383.5 L 120.6 383.5 L 120.4 384.8 L 116.0 384.8 L 115.7 388.2 Q 116.7 387.8, 117.7 387.8 " fill="#000000"/>
<path class="legend" d="M 122.6 387.9 L 129.9 387.9 L 129.9 389.1 L 122.6 389.1 L 122.6 387.9 M 122.6 391.3 L 129.9 391.3 L 129.9 392.5 L 122.6 392.5 L 122.6 391.3 " fill="#000000"/>
<path class="legend" d="M 132.0 389.1 L 137.9 389.1 L 137.9 390.4 L 132.0 390.4 L 132.0 389.1 " fill="#000000"/>
<path class="legend" d="M 143.4 395.0 Q 141.3 395.0, 140.3 393.5 Q 139.2 391.9, 139.2 389.2 Q 139.2 386.5, 140.3 384.9 Q 141.3 383.4, 143.4 383.4 Q 145.5 383.4, 146.5 384.9 Q 147.5 386.5, 147.5 389.2 Q 147.5 391.9, 146.5 393.5 Q 145.5 395.0, 143.4 395.0 M 143.4 393.7 Q 144.6 393.7, 145.3 392.6 Q 145.9 391.4, 145.9 389.2 Q 145.9 387.0, 145.3 385.8 Q 144.6 384.7, 143.4 384.7 Q 142.2 384.7, 141.5 385.8 Q 140.8 387.0, 140.8 389.2 Q 140.8 391.4, 141.5 392.6 Q 142.2 393.7, 143.4 393.7 " fill="#000000"/>
<path class="legend" d="M 149.2 393.3 L 150.8 393.3 L 150.8 394.9 L 149.2 394.9 L 149.2 393.3 " fill="#000000"/>
<path class="legend" d="M 158.3 384.8 L 152.4 384.8 L 152.4 383.5 L 159.9 383.5 L 159.9 384.7 L 155.3 394.9 L 153.8 394.9 L 158.3 384.8 " fill="#000000"/>
<path class="legend" d="M 168.3 391.0 L 169.7 391.0 L 169.7 392.3 L 168.3 392.3 L 168.3 394.9 L 166.8 394.9 L 166.8 392.3 L 161.0 392.3 L 161.0 391.3 L 165.9 383.5 L 168.3 383.5 L 168.3 391.0 M 162.8 391.0 L 166.8 391.0 L 166.8 384.6 L 162.8 391.0 " fill="#000000"/>
<path class="bond-0 atom-0 atom-1" d="M 266.3,319.2 L 300.0,299.7" style="fill:none;fill-rule:evenodd;stroke:#000000;stroke-width:2.0px;stroke-linecap:butt;stroke-linejoin:miter;stroke-opacity:1"/>
<path class="bond-1 atom-1 atom-2" d="M 302.9,301.4 L 302.9,260.8" style="fill:none;fill-rule:evenodd;stroke:#000000;stroke-width:2.0px;stroke-linecap:butt;stroke-linejoin:miter;stroke-opacity:1"/>
<path class="bond-1 atom-1 atom-2" d="M 297.1,301.4 L 297.1,260.8" style="fill:none;fill-rule:evenodd;stroke:#000000;stroke-width:2.0px;stroke-linecap:butt;stroke-linejoin:miter;stroke-opacity:1"/>
<path class="bond-2 atom-1 atom-3" d="M 300.0,299.7 L 333.7,319.2" style="fill:none;fill-rule:evenodd;stroke:#000000;stroke-width:2.0px;stroke-linecap:butt;stroke-linejoin:miter;stroke-opacity:1"/>
<path d="M 298.3,300.7 L 300.0,299.7 L 301.7,300.7" style="fill:none;stroke:#000000;stroke-width:2.0px;stroke-linecap:butt;stroke-linejoin:miter;stroke-opacity:1;"/>
<path class="legend" d="M 233.1 393.6 L 235.6 393.6 L 235.6 385.1 L 232.8 386.0 L 232.5 385.0 L 235.9 383.5 L 237.1 383.7 L 237.1 393.6 L 239.3 393.6 L 239.3 394.9 L 233.1 394.9 L 233.1 393.6 " fill="#000000"/>
<path class="legend" d="M 240.5 393.3 L 242.1 393.3 L 242.1 394.9 L 240.5 394.9 L 240.5 393.3 " fill="#000000"/>
<path class="legend" d="M 244.4 393.6 L 246.9 393.6 L 246.9 385.1 L 244.1 386.0 L 243.7 385.0 L 247.2 383.5 L 248.4 383.7 L 248.4 393.6 L 250.6 393.6 L 250.6 394.9 L 244.4 394.9 L 244.4 393.6 " fill="#000000"/>
<path class="legend" d="M 256.3 387.8 Q 257.2 387.8, 258.0 388.2 Q 258.8 388.7, 259.2 389.4 Q 259.7 390.2, 259.7 391.2 Q 259.7 392.3, 259.2 393.2 Q 258.7 394.0, 257.8 394.5 Q 257.0 395.0, 255.9 395.0 Q 253.9 395.0, 252.8 393.6 Q 251.8 392.3, 251.8 389.5 Q 251.8 386.5, 253.1 385.0 Q 254.3 383.4, 256.7 383.4 Q 257.5 383.4, 258.0 383.6 Q 258.7 383.7, 259.2 384.1 L 258.6 385.1 Q 257.8 384.7, 256.8 384.7 Q 255.2 384.7, 254.3 385.7 Q 253.5 386.8, 253.4 388.9 Q 254.0 388.4, 254.7 388.1 Q 255.5 387.8, 256.3 387.8 M 255.9 393.7 Q 256.5 393.7, 257.0 393.4 Q 257.5 393.0, 257.8 392.5 Q 258.1 391.9, 258.1 391.2 Q 258.1 390.2, 257.5 389.7 Q 257.0 389.1, 256.0 389.1 Q 255.3 389.1, 254.6 389.4 Q 253.9 389.6, 253.4 390.1 Q 253.5 392.0, 254.1 392.8 Q 254.7 393.7, 255.9 393.7 " fill="#000000"/>
<path class="legend" d="" fill="#000000"/>
<path class="legend" d="M 277.2 394.9 L 275.5 394.9 L 272.1 390.2 L 268.8 394.9 L 267.0 394.9 L 271.2 389.0 L 267.3 383.5 L 269.1 383.5 L 272.2 387.8 L 275.2 383.5 L 277.0 383.5 L 273.1 389.1 L 277.2 394.9 " fill="#000000"/>
<path class="legend" d="" fill="#000000"/>
<path class="legend" d="M 283.8 389.1 L 289.6 389.1 L 289.6 390.4 L 283.8 390.4 L 283.8 389.1 " fill="#000000"/>
<path class="legend" d="M 295.1 395.0 Q 293.1 395.0, 292.0 393.5 Q 291.0 391.9, 291.0 389.2 Q 291.0 386.5, 292.0 384.9 Q 293.0 383.4, 295.1 383.4 Q 297.2 383.4, 298.3 384.9 Q 299.3 386.5, 299.3 389.2 Q 299.3 391.9, 298.2 393.5 Q 297.2 395.0, 295.1 395.0 M 295.1 393.7 Q 296.4 393.7, 297.0 392.6 Q 297.7 391.4, 297.7 389.2 Q 297.7 387.0, 297.0 385.8 Q 296.4 384.7, 295.1 384.7 Q 293.9 384.7, 293.3 385.8 Q 292.6 387.0, 292.6 389.2 Q 292.6 391.4, 293.3 392.6 Q 293.9 393.7, 295.1 393.7 " fill="#000000"/>
<path class="legend" d="M 300.9 393.3 L 302.5 393.3 L 302.5 394.9 L 300.9 394.9 L 300.9 393.3 " fill="#000000"/>
<path class="legend" d="M 304.7 393.6 L 307.2 393.6 L 307.2 385.1 L 304.5 386.0 L 304.1 385.0 L 307.6 383.5 L 308.7 383.7 L 308.7 393.6 L 310.9 393.6 L 310.9 394.9 L 304.7 394.9 L 304.7 393.6 " fill="#000000"/>
<path class="legend" d="M 319.5 391.0 L 320.9 391.0 L 320.9 392.3 L 319.5 392.3 L 319.5 394.9 L 318.0 394.9 L 318.0 392.3 L 312.2 392.3 L 312.2 391.3 L 317.1 383.5 L 319.5 383.5 L 319.5 391.0 M 314.0 391.0 L 318.0 391.0 L 318.0 384.6 L 314.0 391.0 " fill="#000000"/>
<path class="legend" d="M 322.2 387.9 L 329.6 387.9 L 329.6 389.1 L 322.2 389.1 L 322.2 387.9 M 322.2 391.3 L 329.6 391.3 L 329.6 392.5 L 322.2 392.5 L 322.2 391.3 " fill="#000000"/>
<path class="legend" d="M 331.6 389.1 L 337.5 389.1 L 337.5 390.4 L 331.6 390.4 L 331.6 389.1 " fill="#000000"/>
<path class="legend" d="M 343.0 395.0 Q 340.9 395.0, 339.9 393.5 Q 338.8 391.9, 338.8 389.2 Q 338.8 386.5, 339.9 384.9 Q 340.9 383.4, 343.0 383.4 Q 345.1 383.4, 346.1 384.9 Q 347.1 386.5, 347.1 389.2 Q 347.1 391.9, 346.1 393.5 Q 345.1 395.0, 343.0 395.0 M 343.0 393.7 Q 344.2 393.7, 344.9 392.6 Q 345.5 391.4, 345.5 389.2 Q 345.5 387.0, 344.9 385.8 Q 344.2 384.7, 343.0 384.7 Q 341.8 384.7, 341.1 385.8 Q 340.4 387.0, 340.4 389.2 Q 340.4 391.4, 341.1 392.6 Q 341.8 393.7, 343.0 393.7 " fill="#000000"/>
<path class="legend" d="M 348.7 393.3 L 350.3 393.3 L 350.3 394.9 L 348.7 394.9 L 348.7 393.3 " fill="#000000"/>
<path class="legend" d="M 352.6 393.6 L 355.0 393.6 L 355.0 385.1 L 352.3 386.0 L 351.9 385.0 L 355.4 383.5 L 356.5 383.7 L 356.5 393.6 L 358.8 393.6 L 358.8 394.9 L 352.6 394.9 L 352.6 393.6 " fill="#000000"/>
<path class="legend" d="M 365.9 384.8 L 360.0 384.8 L 360.0 383.5 L 367.5 383.5 L 367.5 384.7 L 363.0 394.9 L 361.4 394.9 L 365.9 384.8 " fill="#000000"/>
<path class="bond-0 atom-0 atom-1" d="M 410.9,254.3 L 449.5,259.4" style="fill:none;fill-rule:evenodd;stroke:#000000;stroke-width:2.0px;stroke-linecap:butt;stroke-linejoin:miter;stroke-opacity:1"/>
<path class="bond-1 atom-1 atom-2" d="M 449.5,259.4 L 455.6,274.0" style="fill:none;fill-rule:evenodd;stroke:#000000;stroke-width:2.0px;stroke-linecap:butt;stroke-linejoin:miter;stroke-opacity:1"/>
<path class="bond-1 atom-1 atom-2" d="M 455.6,274.0 L 461.6,288.5" style="fill:none;fill-rule:evenodd;stroke:#FF0000;stroke-width:2.0px;stroke-linecap:butt;stroke-linejoin:miter;stroke-opacity:1"/>
<path class="bond-2 atom-2 atom-3" d="M 470.8,296.2 L 487.0,298.3" style="fill:none;fill-rule:evenodd;stroke:#FF0000;stroke-width:2.0px;stroke-linecap:butt;stroke-linejoin:miter;stroke-opacity:1"/>
<path class="bond-2 atom-2 atom-3" d="M 487.0,298.3 L 503.1,300.4" style="fill:none;fill-rule:evenodd;stroke:#000000;stroke-width:2.0px;stroke-linecap:butt;stroke-linejoin:miter;stroke-opacity:1"/>
<path class="bond-3 atom-3 atom-4" d="M 503.1,300.4 L 518.0,336.4" style="fill:none;fill-rule:evenodd;stroke:#000000;stroke-width:2.0px;stroke-linecap:butt;stroke-linejoin:miter;stroke-opacity:1"/>
<path class="bond-4 atom-3 atom-5" d="M 503.1,300.4 L 512.3,288.5" style="fill:none;fill-rule:evenodd;stroke:#000000;stroke-width:2.0px;stroke-linecap:butt;stroke-linejoin:miter;stroke-opacity:1"/>
<path class="bond-4 atom-3 atom-5" d="M 512.3,288.5 L 521.4,276.5" style="fill:none;fill-rule:evenodd;stroke:#FF0000;stroke-width:2.0px;stroke-linecap:butt;stroke-linejoin:miter;stroke-opacity:1"/>
<path class="bond-5 atom-5 atom-6" d="M 533.1,270.3 L 549.3,272.4" style="fill:none;fill-rule:evenodd;stroke:#FF0000;stroke-width:2.0px;stroke-linecap:butt;stroke-linejoin:miter;stroke-opacity:1"/>
<path class="bond-5 atom-5 atom-6" d="M 549.3,272.4 L 565.4,274.5" style="fill:none;fill-rule:evenodd;stroke:#000000;stroke-width:2.0px;stroke-linecap:butt;stroke-linejoin:miter;stroke-opacity:1"/>
<path class="bond-6 atom-6 atom-7" d="M 565.4,274.5 L 589.1,243.6" style="fill:none;fill-rule:evenodd;stroke:#000000;stroke-width:2.0px;stroke-linecap:butt;stroke-linejoin:miter;stroke-opacity:1"/>
<path d="M 447.6,259.1 L 449.5,259.4 L 449.8,260.1" style="fill:none;stroke:#000000;stroke-width:2.0px;stroke-linecap:butt;stroke-linejoin:miter;stroke-opacity:1;"/>
<path d="M 564.6,274.4 L 565.4,274.5 L 566.6,273.0" style="fill:none;stroke:#000000;stroke-width:2.0px;stroke-linecap:butt;stroke-linejoin:miter;stroke-opacity:1;"/>
<path class="atom-2" d="M 459.4 295.4 Q 459.4 292.8, 460.7 291.3 Q 462.0 289.8, 464.5 289.8 Q 466.9 289.8, 468.2 291.3 Q 469.5 292.8, 469.5 295.4 Q 469.5 298.1, 468.2 299.6 Q 466.9 301.1, 464.5 301.1 Q 462.0 301.1, 460.7 299.6 Q 459.4 298.1, 459.4 295.4 M 464.5 299.9 Q 466.2 299.9, 467.1 298.8 Q 468.0 297.6, 468.0 295.4 Q 468.0 293.2, 467.1 292.1 Q 466.2 291.0, 464.5 291.0 Q 462.8 291.0, 461.9 292.1 Q 461.0 293.2, 461.0 295.4 Q 461.0 297.6, 461.9 298.8 Q 462.8 299.9, 464.5 299.9 " fill="#FF0000"/>
<path class="atom-5" d="M 521.7 269.5 Q 521.7 266.9, 523.0 265.4 Q 524.3 263.9, 526.8 263.9 Q 529.2 263.9, 530.5 265.4 Q 531.9 266.9, 531.9 269.5 Q 531.9 272.2, 530.5 273.7 Q 529.2 275.2, 526.8 275.2 Q 524.4 275.2, 523.0 273.7 Q 521.7 272.2, 521.7 269.5 M 526.8 274.0 Q 528.5 274.0, 529.4 272.9 Q 530.3 271.7, 530.3 269.5 Q 530.3 267.4, 529.4 266.3 Q 528.5 265.2, 526.8 265.2 Q 525.1 265.2, 524.2 266.2 Q 523.3 267.3, 523.3 269.5 Q 523.3 271.7, 524.2 272.9 Q 525.1 274.0, 526.8 274.0 " fill="#FF0000"/>
<path class="legend" d="M 430.9 389.1 L 436.7 389.1 L 436.7 390.4 L 430.9 390.4 L 430.9 389.1 " fill="#000000"/>
<path class="legend" d="M 443.6 388.9 Q 444.7 389.2, 445.2 389.9 Q 445.7 390.6, 445.7 391.7 Q 445.7 392.7, 445.2 393.4 Q 444.8 394.2, 443.9 394.6 Q 443.0 395.0, 441.9 395.0 Q 440.6 395.0, 439.7 394.6 Q 438.8 394.2, 438.1 393.3 L 439.0 392.4 Q 439.7 393.1, 440.3 393.4 Q 440.9 393.7, 441.9 393.7 Q 442.9 393.7, 443.5 393.2 Q 444.1 392.6, 444.1 391.7 Q 444.1 390.6, 443.5 390.1 Q 442.8 389.5, 441.4 389.5 L 440.6 389.5 L 440.6 388.4 L 441.3 388.4 Q 442.6 388.4, 443.2 387.8 Q 443.9 387.3, 443.9 386.3 Q 443.9 385.5, 443.3 385.1 Q 442.8 384.7, 441.9 384.7 Q 440.9 384.7, 440.3 385.0 Q 439.8 385.3, 439.3 386.2 L 438.2 385.6 Q 438.6 384.6, 439.6 384.0 Q 440.5 383.4, 441.9 383.4 Q 443.5 383.4, 444.5 384.2 Q 445.5 385.0, 445.5 386.3 Q 445.5 387.2, 445.0 387.8 Q 444.5 388.5, 443.6 388.9 " fill="#000000"/>
<path class="legend" d="M 447.2 393.2 L 448.8 393.2 L 448.8 394.8 L 447.2 394.8 L 447.2 393.2 " fill="#000000"/>
<path class="legend" d="M 450.5 385.7 Q 450.9 384.6, 451.9 384.0 Q 452.9 383.4, 454.3 383.4 Q 456.0 383.4, 456.9 384.3 Q 457.9 385.2, 457.9 386.9 Q 457.9 388.6, 456.7 390.1 Q 455.4 391.7, 452.9 393.6 L 458.1 393.6 L 458.1 394.8 L 450.5 394.8 L 450.5 393.8 Q 452.6 392.3, 453.8 391.1 Q 455.1 390.0, 455.7 389.0 Q 456.3 388.0, 456.3 387.0 Q 456.3 385.9, 455.8 385.3 Q 455.2 384.7, 454.3 384.7 Q 453.4 384.7, 452.8 385.0 Q 452.1 385.4, 451.7 386.2 L 450.5 385.7 " fill="#000000"/>
<path class="legend" d="M 465.4 388.8 Q 466.5 389.3, 467.0 390.0 Q 467.6 390.6, 467.6 391.7 Q 467.6 392.7, 467.1 393.4 Q 466.6 394.2, 465.7 394.6 Q 464.9 395.0, 463.7 395.0 Q 461.8 395.0, 460.7 394.1 Q 459.6 393.3, 459.6 391.7 Q 459.6 390.8, 460.1 390.1 Q 460.6 389.4, 461.6 388.9 Q 460.9 388.5, 460.5 387.9 Q 460.1 387.2, 460.1 386.3 Q 460.1 385.0, 461.0 384.2 Q 462.0 383.4, 463.6 383.4 Q 465.3 383.4, 466.2 384.2 Q 467.2 385.0, 467.2 386.3 Q 467.2 387.1, 466.8 387.7 Q 466.3 388.3, 465.4 388.8 M 463.6 384.6 Q 462.7 384.6, 462.2 385.0 Q 461.7 385.5, 461.7 386.3 Q 461.7 386.9, 462.0 387.3 Q 462.4 387.7, 462.9 387.9 Q 463.4 388.1, 464.3 388.4 Q 465.0 388.0, 465.3 387.4 Q 465.6 386.9, 465.6 386.3 Q 465.6 385.5, 465.1 385.0 Q 464.6 384.6, 463.6 384.6 M 463.7 393.8 Q 464.8 393.8, 465.4 393.2 Q 466.0 392.7, 466.0 391.7 Q 466.0 391.1, 465.7 390.7 Q 465.4 390.3, 464.9 390.1 Q 464.4 389.9, 463.5 389.6 L 462.7 389.4 Q 461.9 389.8, 461.6 390.4 Q 461.2 391.0, 461.2 391.7 Q 461.2 392.7, 461.9 393.2 Q 462.6 393.8, 463.7 393.8 " fill="#000000"/>
<path class="legend" d="" fill="#000000"/>
<path class="legend" d="M 485.3 394.8 L 483.6 394.8 L 480.2 390.2 L 476.9 394.8 L 475.1 394.8 L 479.3 388.9 L 475.5 383.5 L 477.2 383.5 L 480.3 387.8 L 483.4 383.5 L 485.1 383.5 L 481.2 389.0 L 485.3 394.8 " fill="#000000"/>
<path class="legend" d="" fill="#000000"/>
<path class="legend" d="M 496.0 395.0 Q 494.0 395.0, 492.9 393.4 Q 491.9 391.9, 491.9 389.2 Q 491.9 386.4, 492.9 384.9 Q 493.9 383.4, 496.0 383.4 Q 498.1 383.4, 499.2 384.9 Q 500.2 386.4, 500.2 389.2 Q 500.2 391.9, 499.1 393.4 Q 498.1 395.0, 496.0 395.0 M 496.0 393.7 Q 497.3 393.7, 497.9 392.6 Q 498.6 391.4, 498.6 389.2 Q 498.6 386.9, 497.9 385.8 Q 497.3 384.7, 496.0 384.7 Q 494.8 384.7, 494.1 385.8 Q 493.5 386.9, 493.5 389.2 Q 493.5 391.4, 494.1 392.6 Q 494.8 393.7, 496.0 393.7 " fill="#000000"/>
<path class="legend" d="M 501.8 393.2 L 503.4 393.2 L 503.4 394.8 L 501.8 394.8 L 501.8 393.2 " fill="#000000"/>
<path class="legend" d="M 505.6 393.6 L 508.1 393.6 L 508.1 385.1 L 505.4 385.9 L 505.0 385.0 L 508.5 383.4 L 509.6 383.6 L 509.6 393.6 L 511.8 393.6 L 511.8 394.8 L 505.6 394.8 L 505.6 393.6 " fill="#000000"/>
<path class="legend" d="M 513.1 385.7 Q 513.5 384.6, 514.5 384.0 Q 515.5 383.4, 516.9 383.4 Q 518.6 383.4, 519.6 384.3 Q 520.5 385.2, 520.5 386.9 Q 520.5 388.6, 519.3 390.1 Q 518.1 391.7, 515.5 393.6 L 520.7 393.6 L 520.7 394.8 L 513.1 394.8 L 513.1 393.8 Q 515.2 392.3, 516.5 391.1 Q 517.7 390.0, 518.3 389.0 Q 518.9 388.0, 518.9 387.0 Q 518.9 385.9, 518.4 385.3 Q 517.8 384.7, 516.9 384.7 Q 516.0 384.7, 515.4 385.0 Q 514.8 385.4, 514.3 386.2 L 513.1 385.7 " fill="#000000"/>
<path class="legend" d="M 522.3 387.9 L 529.6 387.9 L 529.6 389.0 L 522.3 389.0 L 522.3 387.9 M 522.3 391.3 L 529.6 391.3 L 529.6 392.5 L 522.3 392.5 L 522.3 391.3 " fill="#000000"/>
<path class="legend" d="M 531.6 389.1 L 537.5 389.1 L 537.5 390.4 L 531.6 390.4 L 531.6 389.1 " fill="#000000"/>
<path class="legend" d="M 543.0 395.0 Q 540.9 395.0, 539.9 393.4 Q 538.9 391.9, 538.9 389.2 Q 538.9 386.4, 539.9 384.9 Q 540.9 383.4, 543.0 383.4 Q 545.1 383.4, 546.1 384.9 Q 547.2 386.4, 547.2 389.2 Q 547.2 391.9, 546.1 393.4 Q 545.1 395.0, 543.0 395.0 M 543.0 393.7 Q 544.3 393.7, 544.9 392.6 Q 545.6 391.4, 545.6 389.2 Q 545.6 386.9, 544.9 385.8 Q 544.3 384.7, 543.0 384.7 Q 541.8 384.7, 541.1 385.8 Q 540.5 386.9, 540.5 389.2 Q 540.5 391.4, 541.1 392.6 Q 541.8 393.7, 543.0 393.7 " fill="#000000"/>
<path class="legend" d="M 548.8 393.2 L 550.4 393.2 L 550.4 394.8 L 548.8 394.8 L 548.8 393.2 " fill="#000000"/>
<path class="legend" d="M 557.4 388.9 Q 558.5 389.2, 559.1 389.9 Q 559.6 390.6, 559.6 391.7 Q 559.6 392.7, 559.1 393.4 Q 558.7 394.2, 557.8 394.6 Q 556.9 395.0, 555.7 395.0 Q 554.5 395.0, 553.6 394.6 Q 552.7 394.2, 552.0 393.3 L 552.9 392.4 Q 553.6 393.1, 554.2 393.4 Q 554.8 393.7, 555.7 393.7 Q 556.8 393.7, 557.4 393.2 Q 558.0 392.6, 558.0 391.7 Q 558.0 390.6, 557.4 390.1 Q 556.7 389.5, 555.3 389.5 L 554.5 389.5 L 554.5 388.4 L 555.2 388.4 Q 556.5 388.4, 557.1 387.8 Q 557.8 387.3, 557.8 386.3 Q 557.8 385.5, 557.2 385.1 Q 556.7 384.7, 555.8 384.7 Q 554.8 384.7, 554.2 385.0 Q 553.6 385.3, 553.2 386.2 L 552.1 385.6 Q 552.5 384.6, 553.5 384.0 Q 554.4 383.4, 555.8 383.4 Q 557.4 383.4, 558.4 384.2 Q 559.4 385.0, 559.4 386.3 Q 559.4 387.2, 558.9 387.8 Q 558.4 388.5, 557.4 388.9 " fill="#000000"/>
<path class="legend" d="M 566.9 388.8 Q 568.0 389.3, 568.5 390.0 Q 569.1 390.6, 569.1 391.7 Q 569.1 392.7, 568.6 393.4 Q 568.1 394.2, 567.3 394.6 Q 566.4 395.0, 565.2 395.0 Q 563.3 395.0, 562.2 394.1 Q 561.1 393.3, 561.1 391.7 Q 561.1 390.8, 561.6 390.1 Q 562.1 389.4, 563.1 388.9 Q 562.4 388.5, 562.0 387.9 Q 561.6 387.2, 561.6 386.3 Q 561.6 385.0, 562.5 384.2 Q 563.5 383.4, 565.1 383.4 Q 566.8 383.4, 567.7 384.2 Q 568.7 385.0, 568.7 386.3 Q 568.7 387.1, 568.3 387.7 Q 567.8 388.3, 566.9 388.8 M 565.1 384.6 Q 564.2 384.6, 563.7 385.0 Q 563.2 385.5, 563.2 386.3 Q 563.2 386.9, 563.5 387.3 Q 563.9 387.7, 564.4 387.9 Q 564.9 388.1, 565.8 388.4 Q 566.5 388.0, 566.8 387.4 Q 567.1 386.9, 567.1 386.3 Q 567.1 385.5, 566.6 385.0 Q 566.1 384.6, 565.1 384.6 M 565.2 393.8 Q 566.3 393.8, 566.9 393.2 Q 567.5 392.7, 567.5 391.7 Q 567.5 391.1, 567.2 390.7 Q 566.9 390.3, 566.4 390.1 Q 565.9 389.9, 565.0 389.6 L 564.2 389.4 Q 563.4 389.8, 563.1 390.4 Q 562.7 391.0, 562.7 391.7 Q 562.7 392.7, 563.4 393.2 Q 564.1 393.8, 565.2 393.8 " fill="#000000"/>
<path class="bond-0 atom-0 atom-1" d="M 631.2,258.7 L 661.8,282.7" style="fill:none;fill-rule:evenodd;stroke:#000000;stroke-width:2.0px;stroke-linecap:butt;stroke-linejoin:miter;stroke-opacity:1"/>
<path class="bond-1 atom-1 atom-2" d="M 661.8,282.7 L 656.3,321.3" style="fill:none;fill-rule:evenodd;stroke:#000000;stroke-width:2.0px;stroke-linecap:butt;stroke-linejoin:miter;stroke-opacity:1"/>
<path class="bond-2 atom-1 atom-3" d="M 661.8,282.7 L 676.8,276.8" style="fill:none;fill-rule:evenodd;stroke:#000000;stroke-width:2.0px;stroke-linecap:butt;stroke-linejoin:miter;stroke-opacity:1"/>
<path class="bond-2 atom-1 atom-3" d="M 676.8,276.8 L 691.7,270.8" style="fill:none;fill-rule:evenodd;stroke:#FF0000;stroke-width:2.0px;stroke-linecap:butt;stroke-linejoin:miter;stroke-opacity:1"/>
<path class="bond-3 atom-3 atom-4" d="M 704.4,273.2 L 716.5,282.8" style="fill:none;fill-rule:evenodd;stroke:#FF0000;stroke-width:2.0px;stroke-linecap:butt;stroke-linejoin:miter;stroke-opacity:1"/>
<path class="bond-3 atom-3 atom-4" d="M 716.5,282.8 L 728.7,292.3" style="fill:none;fill-rule:evenodd;stroke:#000000;stroke-width:2.0px;stroke-linecap:butt;stroke-linejoin:miter;stroke-opacity:1"/>
<path class="bond-4 atom-4 atom-5" d="M 728.7,292.3 L 743.6,286.3" style="fill:none;fill-rule:evenodd;stroke:#000000;stroke-width:2.0px;stroke-linecap:butt;stroke-linejoin:miter;stroke-opacity:1"/>
<path class="bond-4 atom-4 atom-5" d="M 743.6,286.3 L 758.5,280.4" style="fill:none;fill-rule:evenodd;stroke:#FF0000;stroke-width:2.0px;stroke-linecap:butt;stroke-linejoin:miter;stroke-opacity:1"/>
<path class="bond-4 atom-4 atom-5" d="M 729.6,285.6 L 741.4,280.9" style="fill:none;fill-rule:evenodd;stroke:#000000;stroke-width:2.0px;stroke-linecap:butt;stroke-linejoin:miter;stroke-opacity:1"/>
<path class="bond-4 atom-4 atom-5" d="M 741.4,280.9 L 756.3,274.9" style="fill:none;fill-rule:evenodd;stroke:#FF0000;stroke-width:2.0px;stroke-linecap:butt;stroke-linejoin:miter;stroke-opacity:1"/>
<path d="M 728.0,291.8 L 728.7,292.3 L 729.4,292.0" style="fill:none;stroke:#000000;stroke-width:2.0px;stroke-linecap:butt;stroke-linejoin:miter;stroke-opacity:1;"/>
<path class="atom-3" d="M 692.9 268.3 Q 692.9 265.6, 694.3 264.2 Q 695.6 262.7, 698.0 262.7 Q 700.5 262.7, 701.8 264.2 Q 703.1 265.6, 703.1 268.3 Q 703.1 271.0, 701.8 272.5 Q 700.4 274.0, 698.0 274.0 Q 695.6 274.0, 694.3 272.5 Q 692.9 271.0, 692.9 268.3 M 698.0 272.8 Q 699.7 272.8, 700.6 271.6 Q 701.5 270.5, 701.5 268.3 Q 701.5 266.1, 700.6 265.0 Q 699.7 263.9, 698.0 263.9 Q 696.3 263.9, 695.4 265.0 Q 694.5 266.1, 694.5 268.3 Q 694.5 270.5, 695.4 271.6 Q 696.3 272.8, 698.0 272.8 " fill="#FF0000"/>
<path class="atom-5" d="M 758.7 275.1 Q 758.7 272.5, 760.0 271.0 Q 761.3 269.5, 763.7 269.5 Q 766.2 269.5, 767.5 271.0 Q 768.8 272.5, 768.8 275.1 Q 768.8 277.8, 767.5 279.3 Q 766.1 280.9, 763.7 280.9 Q 761.3 280.9, 760.0 279.3 Q 758.7 277.8, 758.7 275.1 M 763.7 279.6 Q 765.4 279.6, 766.3 278.5 Q 767.2 277.3, 767.2 275.1 Q 767.2 273.0, 766.3 271.9 Q 765.4 270.8, 763.7 270.8 Q 762.0 270.8, 761.1 271.9 Q 760.2 273.0, 760.2 275.1 Q 760.2 277.4, 761.1 278.5 Q 762.0 279.6, 763.7 279.6 " fill="#FF0000"/>
<path class="legend" d="M 631.4 389.1 L 637.3 389.1 L 637.3 390.4 L 631.4 390.4 L 631.4 389.1 " fill="#000000"/>
<path class="legend" d="M 638.7 385.7 Q 639.1 384.6, 640.1 384.0 Q 641.1 383.4, 642.5 383.4 Q 644.2 383.4, 645.2 384.3 Q 646.1 385.2, 646.1 386.9 Q 646.1 388.6, 644.9 390.1 Q 643.6 391.7, 641.1 393.6 L 646.3 393.6 L 646.3 394.8 L 638.7 394.8 L 638.7 393.8 Q 640.8 392.3, 642.0 391.1 Q 643.3 390.0, 643.9 389.0 Q 644.5 388.0, 644.5 387.0 Q 644.5 385.9, 644.0 385.3 Q 643.4 384.7, 642.5 384.7 Q 641.6 384.7, 641.0 385.0 Q 640.4 385.4, 639.9 386.2 L 638.7 385.7 " fill="#000000"/>
<path class="legend" d="M 647.9 393.2 L 649.5 393.2 L 649.5 394.8 L 647.9 394.8 L 647.9 393.2 " fill="#000000"/>
<path class="legend" d="M 655.2 395.0 Q 653.1 395.0, 652.1 393.4 Q 651.1 391.9, 651.1 389.2 Q 651.1 386.4, 652.1 384.9 Q 653.1 383.4, 655.2 383.4 Q 657.3 383.4, 658.3 384.9 Q 659.4 386.4, 659.4 389.2 Q 659.4 391.9, 658.3 393.4 Q 657.3 395.0, 655.2 395.0 M 655.2 393.7 Q 656.4 393.7, 657.1 392.6 Q 657.8 391.4, 657.8 389.2 Q 657.8 386.9, 657.1 385.8 Q 656.4 384.7, 655.2 384.7 Q 654.0 384.7, 653.3 385.8 Q 652.7 386.9, 652.7 389.2 Q 652.7 391.4, 653.3 392.6 Q 654.0 393.7, 655.2 393.7 " fill="#000000"/>
<path class="legend" d="M 661.0 385.7 Q 661.4 384.6, 662.4 384.0 Q 663.4 383.4, 664.8 383.4 Q 666.5 383.4, 667.4 384.3 Q 668.4 385.2, 668.4 386.9 Q 668.4 388.6, 667.2 390.1 Q 665.9 391.7, 663.4 393.6 L 668.6 393.6 L 668.6 394.8 L 661.0 394.8 L 661.0 393.8 Q 663.1 392.3, 664.3 391.1 Q 665.6 390.0, 666.2 389.0 Q 666.8 388.0, 666.8 387.0 Q 666.8 385.9, 666.3 385.3 Q 665.7 384.7, 664.8 384.7 Q 663.9 384.7, 663.3 385.0 Q 662.6 385.4, 662.2 386.2 L 661.0 385.7 " fill="#000000"/>
<path class="legend" d="" fill="#000000"/>
<path class="legend" d="M 686.2 394.8 L 684.5 394.8 L 681.1 390.2 L 677.8 394.8 L 676.0 394.8 L 680.2 388.9 L 676.4 383.5 L 678.1 383.5 L 681.2 387.8 L 684.3 383.5 L 686.0 383.5 L 682.1 389.0 L 686.2 394.8 " fill="#000000"/>
<path class="legend" d="" fill="#000000"/>
<path class="legend" d="M 696.9 395.0 Q 694.9 395.0, 693.8 393.4 Q 692.8 391.9, 692.8 389.2 Q 692.8 386.4, 693.8 384.9 Q 694.8 383.4, 696.9 383.4 Q 699.0 383.4, 700.1 384.9 Q 701.1 386.4, 701.1 389.2 Q 701.1 391.9, 700.0 393.4 Q 699.0 395.0, 696.9 395.0 M 696.9 393.7 Q 698.2 393.7, 698.8 392.6 Q 699.5 391.4, 699.5 389.2 Q 699.5 386.9, 698.8 385.8 Q 698.2 384.7, 696.9 384.7 Q 695.7 384.7, 695.0 385.8 Q 694.4 386.9, 694.4 389.2 Q 694.4 391.4, 695.0 392.6 Q 695.7 393.7, 696.9 393.7 " fill="#000000"/>
<path class="legend" d="M 702.7 393.2 L 704.3 393.2 L 704.3 394.8 L 702.7 394.8 L 702.7 393.2 " fill="#000000"/>
<path class="legend" d="M 706.5 393.6 L 709.0 393.6 L 709.0 385.1 L 706.3 385.9 L 705.9 385.0 L 709.4 383.4 L 710.5 383.6 L 710.5 393.6 L 712.7 393.6 L 712.7 394.8 L 706.5 394.8 L 706.5 393.6 " fill="#000000"/>
<path class="legend" d="M 714.6 393.6 L 717.1 393.6 L 717.1 385.1 L 714.3 385.9 L 714.0 385.0 L 717.5 383.4 L 718.6 383.6 L 718.6 393.6 L 720.8 393.6 L 720.8 394.8 L 714.6 394.8 L 714.6 393.6 " fill="#000000"/>
<path class="legend" d="M 722.1 387.9 L 729.4 387.9 L 729.4 389.0 L 722.1 389.0 L 722.1 387.9 M 722.1 391.3 L 729.4 391.3 L 729.4 392.5 L 722.1 392.5 L 722.1 391.3 " fill="#000000"/>
<path class="legend" d="M 731.4 389.1 L 737.3 389.1 L 737.3 390.4 L 731.4 390.4 L 731.4 389.1 " fill="#000000"/>
<path class="legend" d="M 742.8 395.0 Q 740.7 395.0, 739.7 393.4 Q 738.7 391.9, 738.7 389.2 Q 738.7 386.4, 739.7 384.9 Q 740.7 383.4, 742.8 383.4 Q 744.9 383.4, 745.9 384.9 Q 746.9 386.4, 746.9 389.2 Q 746.9 391.9, 745.9 393.4 Q 744.9 395.0, 742.8 395.0 M 742.8 393.7 Q 744.0 393.7, 744.7 392.6 Q 745.3 391.4, 745.3 389.2 Q 745.3 386.9, 744.7 385.8 Q 744.0 384.7, 742.8 384.7 Q 741.6 384.7, 740.9 385.8 Q 740.3 386.9, 740.3 389.2 Q 740.3 391.4, 740.9 392.6 Q 741.6 393.7, 742.8 393.7 " fill="#000000"/>
<path class="legend" d="M 748.6 393.2 L 750.2 393.2 L 750.2 394.8 L 748.6 394.8 L 748.6 393.2 " fill="#000000"/>
<path class="legend" d="M 751.8 385.7 Q 752.2 384.6, 753.2 384.0 Q 754.2 383.4, 755.6 383.4 Q 757.3 383.4, 758.3 384.3 Q 759.2 385.2, 759.2 386.9 Q 759.2 388.6, 758.0 390.1 Q 756.7 391.7, 754.2 393.6 L 759.4 393.6 L 759.4 394.8 L 751.8 394.8 L 751.8 393.8 Q 753.9 392.3, 755.1 391.1 Q 756.4 390.0, 757.0 389.0 Q 757.6 388.0, 757.6 387.0 Q 757.6 385.9, 757.1 385.3 Q 756.5 384.7, 755.6 384.7 Q 754.7 384.7, 754.1 385.0 Q 753.5 385.4, 753.0 386.2 L 751.8 385.7 " fill="#000000"/>
<path class="legend" d="M 766.4 388.9 Q 767.5 389.2, 768.0 389.9 Q 768.6 390.6, 768.6 391.7 Q 768.6 392.7, 768.1 393.4 Q 767.6 394.2, 766.7 394.6 Q 765.8 395.0, 764.7 395.0 Q 763.5 395.0, 762.6 394.6 Q 761.7 394.2, 760.9 393.3 L 761.9 392.4 Q 762.6 393.1, 763.1 393.4 Q 763.7 393.7, 764.7 393.7 Q 765.7 393.7, 766.3 393.2 Q 767.0 392.6, 767.0 391.7 Q 767.0 390.6, 766.3 390.1 Q 765.7 389.5, 764.3 389.5 L 763.5 389.5 L 763.5 388.4 L 764.2 388.4 Q 765.4 388.4, 766.1 387.8 Q 766.7 387.3, 766.7 386.3 Q 766.7 385.5, 766.2 385.1 Q 765.6 384.7, 764.7 384.7 Q 763.8 384.7, 763.2 385.0 Q 762.6 385.3, 762.1 386.2 L 761.0 385.6 Q 761.4 384.6, 762.4 384.0 Q 763.4 383.4, 764.7 383.4 Q 766.4 383.4, 767.3 384.2 Q 768.3 385.0, 768.3 386.3 Q 768.3 387.2, 767.8 387.8 Q 767.3 388.5, 766.4 388.9 " fill="#000000"/>
<path class="bond-0 atom-0 atom-1" d="M 129.1,438.0 L 108.0,470.7" style="fill:none;fill-rule:evenodd;stroke:#000000;stroke-width:2.0px;stroke-linecap:butt;stroke-linejoin:miter;stroke-opacity:1"/>
<path class="bond-1 atom-1 atom-2" d="M 108.0,470.7 L 91.7,470.0" style="fill:none;fill-rule:evenodd;stroke:#000000;stroke-width:2.0px;stroke-linecap:butt;stroke-linejoin:miter;stroke-opacity:1"/>
<path class="bond-1 atom-1 atom-2" d="M 91.7,470.0 L 75.4,469.2" style="fill:none;fill-rule:evenodd;stroke:#FF0000;stroke-width:2.0px;stroke-linecap:butt;stroke-linejoin:miter;stroke-opacity:1"/>
<path class="bond-2 atom-2 atom-3" d="M 64.6,475.9 L 56.3,488.8" style="fill:none;fill-rule:evenodd;stroke:#FF0000;stroke-width:2.0px;stroke-linecap:butt;stroke-linejoin:miter;stroke-opacity:1"/>
<path class="bond-2 atom-2 atom-3" d="M 56.3,488.8 L 48.0,501.6" style="fill:none;fill-rule:evenodd;stroke:#000000;stroke-width:2.0px;stroke-linecap:butt;stroke-linejoin:miter;stroke-opacity:1"/>
<path class="bond-3 atom-3 atom-4" d="M 44.6,501.5 L 52.2,516.1" style="fill:none;fill-rule:evenodd;stroke:#000000;stroke-width:2.0px;stroke-linecap:butt;stroke-linejoin:miter;stroke-opacity:1"/>
<path class="bond-3 atom-3 atom-4" d="M 52.2,516.1 L 59.7,530.7" style="fill:none;fill-rule:evenodd;stroke:#FF0000;stroke-width:2.0px;stroke-linecap:butt;stroke-linejoin:miter;stroke-opacity:1"/>
<path class="bond-3 atom-3 atom-4" d="M 49.8,498.8 L 57.4,513.4" style="fill:none;fill-rule:evenodd;stroke:#000000;stroke-width:2.0px;stroke-linecap:butt;stroke-linejoin:miter;stroke-opacity:1"/>
<path class="bond-3 atom-3 atom-4" d="M 57.4,513.4 L 64.9,528.1" style="fill:none;fill-rule:evenodd;stroke:#FF0000;stroke-width:2.0px;stroke-linecap:butt;stroke-linejoin:miter;stroke-opacity:1"/>
<path class="bond-4 atom-3 atom-5" d="M 48.0,501.6 L 9.1,499.7" style="fill:none;fill-rule:evenodd;stroke:#000000;stroke-width:2.0px;stroke-linecap:butt;stroke-linejoin:miter;stroke-opacity:1"/>
<path class="bond-5 atom-1 atom-6" d="M 108.0,470.7 L 115.2,484.6" style="fill:none;fill-rule:evenodd;stroke:#000000;stroke-width:2.0px;stroke-linecap:butt;stroke-linejoin:miter;stroke-opacity:1"/>
<path class="bond-5 atom-1 atom-6" d="M 115.2,484.6 L 122.3,498.5" style="fill:none;fill-rule:evenodd;stroke:#FF0000;stroke-width:2.0px;stroke-linecap:butt;stroke-linejoin:miter;stroke-opacity:1"/>
<path class="bond-6 atom-6 atom-7" d="M 132.2,505.7 L 148.5,506.5" style="fill:none;fill-rule:evenodd;stroke:#FF0000;stroke-width:2.0px;stroke-linecap:butt;stroke-linejoin:miter;stroke-opacity:1"/>
<path class="bond-6 atom-6 atom-7" d="M 148.5,506.5 L 164.8,507.3" style="fill:none;fill-rule:evenodd;stroke:#000000;stroke-width:2.0px;stroke-linecap:butt;stroke-linejoin:miter;stroke-opacity:1"/>
<path class="bond-7 atom-7 atom-8" d="M 166.3,510.3 L 175.0,496.7" style="fill:none;fill-rule:evenodd;stroke:#000000;stroke-width:2.0px;stroke-linecap:butt;stroke-linejoin:miter;stroke-opacity:1"/>
<path class="bond-7 atom-7 atom-8" d="M 175.0,496.7 L 183.8,483.1" style="fill:none;fill-rule:evenodd;stroke:#FF0000;stroke-width:2.0px;stroke-linecap:butt;stroke-linejoin:miter;stroke-opacity:1"/>
<path class="bond-7 atom-7 atom-8" d="M 161.4,507.1 L 170.1,493.5" style="fill:none;fill-rule:evenodd;stroke:#000000;stroke-width:2.0px;stroke-linecap:butt;stroke-linejoin:miter;stroke-opacity:1"/>
<path class="bond-7 atom-7 atom-8" d="M 170.1,493.5 L 178.9,480.0" style="fill:none;fill-rule:evenodd;stroke:#FF0000;stroke-width:2.0px;stroke-linecap:butt;stroke-linejoin:miter;stroke-opacity:1"/>
<path class="bond-8 atom-7 atom-9" d="M 164.8,507.3 L 182.6,541.9" style="fill:none;fill-rule:evenodd;stroke:#000000;stroke-width:2.0px;stroke-linecap:butt;stroke-linejoin:miter;stroke-opacity:1"/>
<path d="M 48.4,501.0 L 48.0,501.6 L 46.1,501.5" style="fill:none;stroke:#000000;stroke-width:2.0px;stroke-linecap:butt;stroke-linejoin:miter;stroke-opacity:1;"/>
<path d="M 163.9,507.2 L 164.8,507.3 L 165.6,509.0" style="fill:none;stroke:#000000;stroke-width:2.0px;stroke-linecap:butt;stroke-linejoin:miter;stroke-opacity:1;"/>
<path class="atom-2" d="M 64.0 468.9 Q 64.0 466.2, 65.3 464.8 Q 66.7 463.3, 69.1 463.3 Q 71.5 463.3, 72.9 464.8 Q 74.2 466.2, 74.2 468.9 Q 74.2 471.6, 72.8 473.1 Q 71.5 474.6, 69.1 474.6 Q 66.7 474.6, 65.3 473.1 Q 64.0 471.6, 64.0 468.9 M 69.1 473.4 Q 70.8 473.4, 71.7 472.2 Q 72.6 471.1, 72.6 468.9 Q 72.6 466.7, 71.7 465.6 Q 70.8 464.5, 69.1 464.5 Q 67.4 464.5, 66.5 465.6 Q 65.6 466.7, 65.6 468.9 Q 65.6 471.1, 66.5 472.2 Q 67.4 473.4, 69.1 473.4 " fill="#FF0000"/>
<path class="atom-4" d="M 60.8 536.3 Q 60.8 533.6, 62.1 532.2 Q 63.4 530.7, 65.8 530.7 Q 68.3 530.7, 69.6 532.2 Q 70.9 533.6, 70.9 536.3 Q 70.9 539.0, 69.6 540.5 Q 68.2 542.0, 65.8 542.0 Q 63.4 542.0, 62.1 540.5 Q 60.8 539.0, 60.8 536.3 M 65.8 540.8 Q 67.5 540.8, 68.4 539.6 Q 69.3 538.5, 69.3 536.3 Q 69.3 534.1, 68.4 533.0 Q 67.5 531.9, 65.8 531.9 Q 64.1 531.9, 63.2 533.0 Q 62.3 534.1, 62.3 536.3 Q 62.3 538.5, 63.2 539.6 Q 64.1 540.8, 65.8 540.8 " fill="#FF0000"/>
<path class="atom-6" d="M 120.8 505.4 Q 120.8 502.8, 122.1 501.3 Q 123.4 499.8, 125.8 499.8 Q 128.3 499.8, 129.6 501.3 Q 130.9 502.8, 130.9 505.4 Q 130.9 508.1, 129.6 509.6 Q 128.3 511.1, 125.8 511.1 Q 123.4 511.1, 122.1 509.6 Q 120.8 508.1, 120.8 505.4 M 125.8 509.9 Q 127.5 509.9, 128.4 508.8 Q 129.3 507.6, 129.3 505.4 Q 129.3 503.3, 128.4 502.2 Q 127.5 501.1, 125.8 501.1 Q 124.2 501.1, 123.2 502.1 Q 122.3 503.2, 122.3 505.4 Q 122.3 507.7, 123.2 508.8 Q 124.2 509.9, 125.8 509.9 " fill="#FF0000"/>
<path class="atom-8" d="M 180.8 474.5 Q 180.8 471.9, 182.1 470.4 Q 183.4 468.9, 185.8 468.9 Q 188.3 468.9, 189.6 470.4 Q 190.9 471.9, 190.9 474.5 Q 190.9 477.2, 189.6 478.8 Q 188.3 480.3, 185.8 480.3 Q 183.4 480.3, 182.1 478.8 Q 180.8 477.2, 180.8 474.5 M 185.8 479.0 Q 187.5 479.0, 188.4 477.9 Q 189.4 476.8, 189.4 474.5 Q 189.4 472.4, 188.4 471.3 Q 187.5 470.2, 185.8 470.2 Q 184.2 470.2, 183.2 471.3 Q 182.3 472.4, 182.3 474.5 Q 182.3 476.8, 183.2 477.9 Q 184.2 479.0, 185.8 479.0 " fill="#FF0000"/>
<path class="legend" d="M 31.0 589.1 L 36.9 589.1 L 36.9 590.4 L 31.0 590.4 L 31.0 589.1 " fill="#000000"/>
<path class="legend" d="M 45.6 591.0 L 47.0 591.0 L 47.0 592.3 L 45.6 592.3 L 45.6 594.9 L 44.1 594.9 L 44.1 592.3 L 38.2 592.3 L 38.2 591.3 L 43.2 583.5 L 45.6 583.5 L 45.6 591.0 M 40.1 591.0 L 44.1 591.0 L 44.1 584.6 L 40.1 591.0 " fill="#000000"/>
<path class="legend" d="M 48.3 593.3 L 49.9 593.3 L 49.9 594.9 L 48.3 594.9 L 48.3 593.3 " fill="#000000"/>
<path class="legend" d="M 55.3 583.4 Q 57.4 583.4, 58.4 584.8 Q 59.4 586.2, 59.4 588.9 Q 59.4 591.9, 58.1 593.4 Q 56.9 595.0, 54.5 595.0 Q 53.8 595.0, 53.2 594.8 Q 52.6 594.7, 52.0 594.3 L 52.6 593.3 Q 53.4 593.7, 54.5 593.7 Q 56.1 593.7, 56.9 592.7 Q 57.7 591.7, 57.8 589.5 Q 57.2 590.1, 56.5 590.3 Q 55.7 590.6, 55.0 590.6 Q 54.0 590.6, 53.2 590.2 Q 52.4 589.8, 52.0 589.0 Q 51.5 588.2, 51.5 587.2 Q 51.5 586.1, 52.0 585.2 Q 52.5 584.4, 53.4 583.9 Q 54.2 583.4, 55.3 583.4 M 53.1 587.2 Q 53.1 588.2, 53.7 588.8 Q 54.3 589.3, 55.3 589.3 Q 55.9 589.3, 56.6 589.1 Q 57.3 588.8, 57.8 588.3 Q 57.7 586.4, 57.1 585.6 Q 56.5 584.7, 55.3 584.7 Q 54.7 584.7, 54.2 585.0 Q 53.7 585.4, 53.4 585.9 Q 53.1 586.5, 53.1 587.2 " fill="#000000"/>
<path class="legend" d="M 67.0 584.8 L 61.1 584.8 L 61.1 583.5 L 68.6 583.5 L 68.6 584.7 L 64.0 594.9 L 62.5 594.9 L 67.0 584.8 " fill="#000000"/>
<path class="legend" d="" fill="#000000"/>
<path class="legend" d="M 85.8 594.9 L 84.0 594.9 L 80.6 590.2 L 77.3 594.9 L 75.5 594.9 L 79.8 589.0 L 75.9 583.5 L 77.6 583.5 L 80.7 587.8 L 83.8 583.5 L 85.5 583.5 L 81.6 589.1 L 85.8 594.9 " fill="#000000"/>
<path class="legend" d="" fill="#000000"/>
<path class="legend" d="M 92.3 589.1 L 98.2 589.1 L 98.2 590.4 L 92.3 590.4 L 92.3 589.1 " fill="#000000"/>
<path class="legend" d="M 103.7 595.0 Q 101.6 595.0, 100.6 593.5 Q 99.6 591.9, 99.6 589.2 Q 99.6 586.5, 100.6 584.9 Q 101.6 583.4, 103.7 583.4 Q 105.8 583.4, 106.8 584.9 Q 107.8 586.5, 107.8 589.2 Q 107.8 591.9, 106.8 593.5 Q 105.8 595.0, 103.7 595.0 M 103.7 593.7 Q 104.9 593.7, 105.6 592.6 Q 106.2 591.4, 106.2 589.2 Q 106.2 587.0, 105.6 585.8 Q 104.9 584.7, 103.7 584.7 Q 102.5 584.7, 101.8 585.8 Q 101.2 587.0, 101.2 589.2 Q 101.2 591.4, 101.8 592.6 Q 102.5 593.7, 103.7 593.7 " fill="#000000"/>
<path class="legend" d="M 109.5 593.3 L 111.1 593.3 L 111.1 594.9 L 109.5 594.9 L 109.5 593.3 " fill="#000000"/>
<path class="legend" d="M 113.3 593.6 L 115.8 593.6 L 115.8 585.1 L 113.1 586.0 L 112.7 585.0 L 116.2 583.5 L 117.3 583.7 L 117.3 593.6 L 119.5 593.6 L 119.5 594.9 L 113.3 594.9 L 113.3 593.6 " fill="#000000"/>
<path class="legend" d="M 124.9 595.0 Q 122.8 595.0, 121.8 593.5 Q 120.8 591.9, 120.8 589.2 Q 120.8 586.5, 121.8 584.9 Q 122.8 583.4, 124.9 583.4 Q 127.0 583.4, 128.0 584.9 Q 129.1 586.5, 129.1 589.2 Q 129.1 591.9, 128.0 593.5 Q 127.0 595.0, 124.9 595.0 M 124.9 593.7 Q 126.1 593.7, 126.8 592.6 Q 127.5 591.4, 127.5 589.2 Q 127.5 587.0, 126.8 585.8 Q 126.1 584.7, 124.9 584.7 Q 123.7 584.7, 123.0 585.8 Q 122.4 587.0, 122.4 589.2 Q 122.4 591.4, 123.0 592.6 Q 123.7 593.7, 124.9 593.7 " fill="#000000"/>
<path class="legend" d="M 130.7 587.9 L 138.0 587.9 L 138.0 589.1 L 130.7 589.1 L 130.7 587.9 M 130.7 591.3 L 138.0 591.3 L 138.0 592.5 L 130.7 592.5 L 130.7 591.3 " fill="#000000"/>
<path class="legend" d="M 144.2 595.0 Q 142.1 595.0, 141.1 593.5 Q 140.0 591.9, 140.0 589.2 Q 140.0 586.5, 141.1 584.9 Q 142.1 583.4, 144.2 583.4 Q 146.3 583.4, 147.3 584.9 Q 148.3 586.5, 148.3 589.2 Q 148.3 591.9, 147.3 593.5 Q 146.3 595.0, 144.2 595.0 M 144.2 593.7 Q 145.4 593.7, 146.1 592.6 Q 146.7 591.4, 146.7 589.2 Q 146.7 587.0, 146.1 585.8 Q 145.4 584.7, 144.2 584.7 Q 143.0 584.7, 142.3 585.8 Q 141.6 587.0, 141.6 589.2 Q 141.6 591.4, 142.3 592.6 Q 143.0 593.7, 144.2 593.7 " fill="#000000"/>
<path class="legend" d="M 150.0 593.3 L 151.6 593.3 L 151.6 594.9 L 150.0 594.9 L 150.0 593.3 " fill="#000000"/>
<path class="legend" d="M 157.3 587.8 Q 158.3 587.8, 159.1 588.2 Q 159.9 588.6, 160.4 589.4 Q 160.8 590.2, 160.8 591.3 Q 160.8 592.5, 160.3 593.3 Q 159.7 594.1, 158.8 594.6 Q 157.8 595.0, 156.8 595.0 Q 155.7 595.0, 154.8 594.6 Q 153.8 594.2, 153.2 593.5 L 154.1 592.5 Q 154.7 593.1, 155.4 593.4 Q 156.1 593.7, 156.8 593.7 Q 157.8 593.7, 158.5 593.1 Q 159.2 592.5, 159.2 591.3 Q 159.2 590.1, 158.5 589.6 Q 157.8 589.0, 156.7 589.0 Q 155.7 589.0, 154.6 589.4 L 153.8 589.0 L 154.3 583.5 L 160.1 583.5 L 160.0 584.8 L 155.6 584.8 L 155.3 588.2 Q 156.3 587.8, 157.3 587.8 " fill="#000000"/>
<path class="legend" d="M 162.8 593.6 L 165.3 593.6 L 165.3 585.1 L 162.5 586.0 L 162.2 585.0 L 165.7 583.5 L 166.8 583.7 L 166.8 593.6 L 169.0 593.6 L 169.0 594.9 L 162.8 594.9 L 162.8 593.6 " fill="#000000"/>
<path class="bond-0 atom-0 atom-1" d="M 315.8,478.3 L 284.7,501.7" style="fill:none;fill-rule:evenodd;stroke:#000000;stroke-width:2.0px;stroke-linecap:butt;stroke-linejoin:miter;stroke-opacity:1"/>
<path class="bond-1 atom-1 atom-2" d="M 284.7,501.7 L 270.0,495.4" style="fill:none;fill-rule:evenodd;stroke:#000000;stroke-width:2.0px;stroke-linecap:butt;stroke-linejoin:miter;stroke-opacity:1"/>
<path class="bond-1 atom-1 atom-2" d="M 270.0,495.4 L 255.2,489.2" style="fill:none;fill-rule:evenodd;stroke:#FF0000;stroke-width:2.0px;stroke-linecap:butt;stroke-linejoin:miter;stroke-opacity:1"/>
<path class="bond-2 atom-0 atom-3" d="M 315.8,478.3 L 330.6,484.6" style="fill:none;fill-rule:evenodd;stroke:#000000;stroke-width:2.0px;stroke-linecap:butt;stroke-linejoin:miter;stroke-opacity:1"/>
<path class="bond-2 atom-0 atom-3" d="M 330.6,484.6 L 345.3,490.8" style="fill:none;fill-rule:evenodd;stroke:#FF0000;stroke-width:2.0px;stroke-linecap:butt;stroke-linejoin:miter;stroke-opacity:1"/>
<path d="M 314.3,479.5 L 315.8,478.3 L 316.6,478.6" style="fill:none;stroke:#000000;stroke-width:2.0px;stroke-linecap:butt;stroke-linejoin:miter;stroke-opacity:1;"/>
<path d="M 286.3,500.5 L 284.7,501.7 L 284.0,501.4" style="fill:none;stroke:#000000;stroke-width:2.0px;stroke-linecap:butt;stroke-linejoin:miter;stroke-opacity:1;"/>
<path class="atom-2" d="M 232.9 481.0 L 234.4 481.0 L 234.4 485.7 L 240.0 485.7 L 240.0 481.0 L 241.5 481.0 L 241.5 492.0 L 240.0 492.0 L 240.0 486.9 L 234.4 486.9 L 234.4 492.0 L 232.9 492.0 L 232.9 481.0 " fill="#FF0000"/>
<path class="atom-2" d="M 243.8 486.5 Q 243.8 483.8, 245.1 482.4 Q 246.4 480.9, 248.9 480.9 Q 251.3 480.9, 252.6 482.4 Q 253.9 483.8, 253.9 486.5 Q 253.9 489.2, 252.6 490.7 Q 251.3 492.2, 248.9 492.2 Q 246.4 492.2, 245.1 490.7 Q 243.8 489.2, 243.8 486.5 M 248.9 491.0 Q 250.5 491.0, 251.4 489.8 Q 252.4 488.7, 252.4 486.5 Q 252.4 484.3, 251.4 483.2 Q 250.5 482.1, 248.9 482.1 Q 247.2 482.1, 246.3 483.2 Q 245.3 484.3, 245.3 486.5 Q 245.3 488.7, 246.3 489.8 Q 247.2 491.0, 248.9 491.0 " fill="#FF0000"/>
<path class="atom-3" d="M 346.6 493.6 Q 346.6 490.9, 347.9 489.4 Q 349.2 488.0, 351.7 488.0 Q 354.1 488.0, 355.4 489.4 Q 356.8 490.9, 356.8 493.6 Q 356.8 496.3, 355.4 497.8 Q 354.1 499.3, 351.7 499.3 Q 349.3 499.3, 347.9 497.8 Q 346.6 496.3, 346.6 493.6 M 351.7 498.0 Q 353.4 498.0, 354.3 496.9 Q 355.2 495.8, 355.2 493.6 Q 355.2 491.4, 354.3 490.3 Q 353.4 489.2, 351.7 489.2 Q 350.0 489.2, 349.1 490.3 Q 348.2 491.4, 348.2 493.6 Q 348.2 495.8, 349.1 496.9 Q 350.0 498.0, 351.7 498.0 " fill="#FF0000"/>
<path class="atom-3" d="M 358.5 488.1 L 360.0 488.1 L 360.0 492.8 L 365.6 492.8 L 365.6 488.1 L 367.1 488.1 L 367.1 499.1 L 365.6 499.1 L 365.6 494.0 L 360.0 494.0 L 360.0 499.1 L 358.5 499.1 L 358.5 488.1 " fill="#FF0000"/>
<path class="legend" d="M 229.1 589.1 L 235.0 589.1 L 235.0 590.4 L 229.1 590.4 L 229.1 589.1 " fill="#000000"/>
<path class="legend" d="M 240.2 583.4 Q 242.2 583.4, 243.2 584.8 Q 244.2 586.1, 244.2 588.8 Q 244.2 591.8, 242.9 593.4 Q 241.7 595.0, 239.3 595.0 Q 238.6 595.0, 238.0 594.8 Q 237.4 594.6, 236.8 594.3 L 237.4 593.2 Q 238.3 593.7, 239.3 593.7 Q 240.9 593.7, 241.7 592.7 Q 242.5 591.6, 242.6 589.5 Q 242.0 590.0, 241.3 590.3 Q 240.6 590.6, 239.8 590.6 Q 238.8 590.6, 238.0 590.2 Q 237.2 589.7, 236.8 588.9 Q 236.4 588.2, 236.4 587.2 Q 236.4 586.1, 236.8 585.2 Q 237.3 584.3, 238.2 583.9 Q 239.1 583.4, 240.2 583.4 M 238.0 587.1 Q 238.0 588.2, 238.5 588.7 Q 239.1 589.3, 240.1 589.3 Q 240.8 589.3, 241.4 589.0 Q 242.1 588.7, 242.6 588.3 Q 242.5 586.4, 241.9 585.5 Q 241.3 584.7, 240.1 584.7 Q 239.5 584.7, 239.0 585.0 Q 238.5 585.3, 238.2 585.9 Q 238.0 586.5, 238.0 587.1 " fill="#000000"/>
<path class="legend" d="M 245.9 593.2 L 247.5 593.2 L 247.5 594.8 L 245.9 594.8 L 245.9 593.2 " fill="#000000"/>
<path class="legend" d="M 254.6 588.9 Q 255.7 589.2, 256.2 589.9 Q 256.7 590.6, 256.7 591.7 Q 256.7 592.7, 256.3 593.4 Q 255.8 594.2, 254.9 594.6 Q 254.0 595.0, 252.9 595.0 Q 251.7 595.0, 250.7 594.6 Q 249.8 594.2, 249.1 593.3 L 250.0 592.4 Q 250.7 593.1, 251.3 593.4 Q 251.9 593.7, 252.9 593.7 Q 253.9 593.7, 254.5 593.2 Q 255.1 592.6, 255.1 591.7 Q 255.1 590.6, 254.5 590.1 Q 253.8 589.5, 252.5 589.5 L 251.6 589.5 L 251.6 588.4 L 252.4 588.4 Q 253.6 588.4, 254.2 587.8 Q 254.9 587.3, 254.9 586.3 Q 254.9 585.5, 254.4 585.1 Q 253.8 584.7, 252.9 584.7 Q 251.9 584.7, 251.3 585.0 Q 250.8 585.3, 250.3 586.2 L 249.2 585.6 Q 249.6 584.6, 250.6 584.0 Q 251.5 583.4, 252.9 583.4 Q 254.5 583.4, 255.5 584.2 Q 256.5 585.0, 256.5 586.3 Q 256.5 587.2, 256.0 587.8 Q 255.5 588.5, 254.6 588.9 " fill="#000000"/>
<path class="legend" d="M 262.4 595.0 Q 260.3 595.0, 259.3 593.4 Q 258.3 591.9, 258.3 589.2 Q 258.3 586.4, 259.3 584.9 Q 260.3 583.4, 262.4 583.4 Q 264.5 583.4, 265.5 584.9 Q 266.6 586.4, 266.6 589.2 Q 266.6 591.9, 265.5 593.4 Q 264.5 595.0, 262.4 595.0 M 262.4 593.7 Q 263.7 593.7, 264.3 592.6 Q 265.0 591.4, 265.0 589.2 Q 265.0 586.9, 264.3 585.8 Q 263.7 584.7, 262.4 584.7 Q 261.2 584.7, 260.5 585.8 Q 259.9 586.9, 259.9 589.2 Q 259.9 591.4, 260.5 592.6 Q 261.2 593.7, 262.4 593.7 " fill="#000000"/>
<path class="legend" d="" fill="#000000"/>
<path class="legend" d="M 284.3 594.8 L 282.6 594.8 L 279.2 590.2 L 275.9 594.8 L 274.1 594.8 L 278.3 588.9 L 274.4 583.5 L 276.2 583.5 L 279.3 587.8 L 282.3 583.5 L 284.1 583.5 L 280.2 589.0 L 284.3 594.8 " fill="#000000"/>
<path class="legend" d="" fill="#000000"/>
<path class="legend" d="M 295.1 595.0 Q 293.0 595.0, 291.9 593.4 Q 290.9 591.9, 290.9 589.2 Q 290.9 586.4, 291.9 584.9 Q 293.0 583.4, 295.1 583.4 Q 297.1 583.4, 298.2 584.9 Q 299.2 586.4, 299.2 589.2 Q 299.2 591.9, 298.2 593.4 Q 297.1 595.0, 295.1 595.0 M 295.1 593.7 Q 296.3 593.7, 296.9 592.6 Q 297.6 591.4, 297.6 589.2 Q 297.6 586.9, 296.9 585.8 Q 296.3 584.7, 295.1 584.7 Q 293.8 584.7, 293.2 585.8 Q 292.5 586.9, 292.5 589.2 Q 292.5 591.4, 293.2 592.6 Q 293.8 593.7, 295.1 593.7 " fill="#000000"/>
<path class="legend" d="M 300.8 593.2 L 302.4 593.2 L 302.4 594.8 L 300.8 594.8 L 300.8 593.2 " fill="#000000"/>
<path class="legend" d="M 308.2 595.0 Q 306.1 595.0, 305.1 593.4 Q 304.1 591.9, 304.1 589.2 Q 304.1 586.4, 305.1 584.9 Q 306.1 583.4, 308.2 583.4 Q 310.3 583.4, 311.3 584.9 Q 312.3 586.4, 312.3 589.2 Q 312.3 591.9, 311.3 593.4 Q 310.3 595.0, 308.2 595.0 M 308.2 593.7 Q 309.4 593.7, 310.1 592.6 Q 310.7 591.4, 310.7 589.2 Q 310.7 586.9, 310.1 585.8 Q 309.4 584.7, 308.2 584.7 Q 307.0 584.7, 306.3 585.8 Q 305.7 586.9, 305.7 589.2 Q 305.7 591.4, 306.3 592.6 Q 307.0 593.7, 308.2 593.7 " fill="#000000"/>
<path class="legend" d="M 317.8 583.4 Q 319.8 583.4, 320.8 584.8 Q 321.8 586.1, 321.8 588.8 Q 321.8 591.8, 320.6 593.4 Q 319.3 595.0, 316.9 595.0 Q 316.2 595.0, 315.6 594.8 Q 315.0 594.6, 314.4 594.3 L 315.1 593.2 Q 315.9 593.7, 316.9 593.7 Q 318.5 593.7, 319.3 592.7 Q 320.1 591.6, 320.2 589.5 Q 319.6 590.0, 318.9 590.3 Q 318.2 590.6, 317.4 590.6 Q 316.4 590.6, 315.6 590.2 Q 314.8 589.7, 314.4 588.9 Q 314.0 588.2, 314.0 587.2 Q 314.0 586.1, 314.5 585.2 Q 315.0 584.3, 315.8 583.9 Q 316.7 583.4, 317.8 583.4 M 315.6 587.1 Q 315.6 588.2, 316.1 588.7 Q 316.7 589.3, 317.7 589.3 Q 318.4 589.3, 319.1 589.0 Q 319.7 588.7, 320.2 588.3 Q 320.2 586.4, 319.6 585.5 Q 319.0 584.7, 317.8 584.7 Q 317.2 584.7, 316.7 585.0 Q 316.2 585.3, 315.9 585.9 Q 315.6 586.5, 315.6 587.1 " fill="#000000"/>
<path class="legend" d="M 323.5 587.9 L 330.8 587.9 L 330.8 589.0 L 323.5 589.0 L 323.5 587.9 M 323.5 591.3 L 330.8 591.3 L 330.8 592.5 L 323.5 592.5 L 323.5 591.3 " fill="#000000"/>
<path class="legend" d="M 332.9 589.1 L 338.8 589.1 L 338.8 590.4 L 332.9 590.4 L 332.9 589.1 " fill="#000000"/>
<path class="legend" d="M 344.3 595.0 Q 342.2 595.0, 341.2 593.4 Q 340.2 591.9, 340.2 589.2 Q 340.2 586.4, 341.2 584.9 Q 342.2 583.4, 344.3 583.4 Q 346.4 583.4, 347.4 584.9 Q 348.4 586.4, 348.4 589.2 Q 348.4 591.9, 347.4 593.4 Q 346.4 595.0, 344.3 595.0 M 344.3 593.7 Q 345.5 593.7, 346.2 592.6 Q 346.8 591.4, 346.8 589.2 Q 346.8 586.9, 346.2 585.8 Q 345.5 584.7, 344.3 584.7 Q 343.1 584.7, 342.4 585.8 Q 341.8 586.9, 341.8 589.2 Q 341.8 591.4, 342.4 592.6 Q 343.1 593.7, 344.3 593.7 " fill="#000000"/>
<path class="legend" d="M 350.1 593.2 L 351.7 593.2 L 351.7 594.8 L 350.1 594.8 L 350.1 593.2 " fill="#000000"/>
<path class="legend" d="M 359.1 588.8 Q 360.1 589.3, 360.7 590.0 Q 361.3 590.6, 361.3 591.7 Q 361.3 592.7, 360.8 593.4 Q 360.3 594.2, 359.4 594.6 Q 358.5 595.0, 357.4 595.0 Q 355.5 595.0, 354.4 594.1 Q 353.3 593.3, 353.3 591.7 Q 353.3 590.8, 353.8 590.1 Q 354.3 589.4, 355.3 588.9 Q 354.5 588.5, 354.1 587.9 Q 353.7 587.2, 353.7 586.3 Q 353.7 585.0, 354.7 584.2 Q 355.7 583.4, 357.3 583.4 Q 359.0 583.4, 359.9 584.2 Q 360.9 585.0, 360.9 586.3 Q 360.9 587.1, 360.4 587.7 Q 360.0 588.3, 359.1 588.8 M 357.3 584.6 Q 356.4 584.6, 355.8 585.0 Q 355.3 585.5, 355.3 586.3 Q 355.3 586.9, 355.7 587.3 Q 356.0 587.7, 356.5 587.9 Q 357.0 588.1, 358.0 588.4 Q 358.7 588.0, 359.0 587.4 Q 359.3 586.9, 359.3 586.3 Q 359.3 585.5, 358.8 585.0 Q 358.3 584.6, 357.3 584.6 M 357.4 593.8 Q 358.4 593.8, 359.1 593.2 Q 359.7 592.7, 359.7 591.7 Q 359.7 591.1, 359.4 590.7 Q 359.0 590.3, 358.5 590.1 Q 358.0 589.9, 357.1 589.6 L 356.4 589.4 Q 355.6 589.8, 355.3 590.4 Q 354.9 591.0, 354.9 591.7 Q 354.9 592.7, 355.6 593.2 Q 356.3 593.8, 357.4 593.8 " fill="#000000"/>
<path class="legend" d="M 368.7 588.8 Q 369.7 589.3, 370.3 590.0 Q 370.9 590.6, 370.9 591.7 Q 370.9 592.7, 370.4 593.4 Q 369.9 594.2, 369.0 594.6 Q 368.1 595.0, 367.0 595.0 Q 365.1 595.0, 364.0 594.1 Q 362.9 593.3, 362.9 591.7 Q 362.9 590.8, 363.4 590.1 Q 363.9 589.4, 364.9 588.9 Q 364.1 588.5, 363.7 587.9 Q 363.3 587.2, 363.3 586.3 Q 363.3 585.0, 364.3 584.2 Q 365.3 583.4, 366.9 583.4 Q 368.6 583.4, 369.5 584.2 Q 370.5 585.0, 370.5 586.3 Q 370.5 587.1, 370.0 587.7 Q 369.6 588.3, 368.7 588.8 M 366.9 584.6 Q 366.0 584.6, 365.4 585.0 Q 364.9 585.5, 364.9 586.3 Q 364.9 586.9, 365.3 587.3 Q 365.6 587.7, 366.1 587.9 Q 366.6 588.1, 367.6 588.4 Q 368.3 588.0, 368.6 587.4 Q 368.9 586.9, 368.9 586.3 Q 368.9 585.5, 368.4 585.0 Q 367.9 584.6, 366.9 584.6 M 367.0 593.8 Q 368.0 593.8, 368.7 593.2 Q 369.3 592.7, 369.3 591.7 Q 369.3 591.1, 369.0 590.7 Q 368.6 590.3, 368.1 590.1 Q 367.6 589.9, 366.7 589.6 L 366.0 589.4 Q 365.2 589.8, 364.9 590.4 Q 364.5 591.0, 364.5 591.7 Q 364.5 592.7, 365.2 593.2 Q 365.9 593.8, 367.0 593.8 " fill="#000000"/>
<path class="bond-0 atom-0 atom-1" d="M 430.7,495.6 L 464.5,476.1" style="fill:none;fill-rule:evenodd;stroke:#000000;stroke-width:2.0px;stroke-linecap:butt;stroke-linejoin:miter;stroke-opacity:1"/>
<path class="bond-1 atom-1 atom-2" d="M 464.5,476.1 L 498.2,495.6" style="fill:none;fill-rule:evenodd;stroke:#000000;stroke-width:2.0px;stroke-linecap:butt;stroke-linejoin:miter;stroke-opacity:1"/>
<path class="bond-1 atom-1 atom-2" d="M 464.5,482.9 L 495.3,500.7" style="fill:none;fill-rule:evenodd;stroke:#000000;stroke-width:2.0px;stroke-linecap:butt;stroke-linejoin:miter;stroke-opacity:1"/>
<path class="bond-2 atom-2 atom-3" d="M 498.2,495.6 L 531.9,476.1" style="fill:none;fill-rule:evenodd;stroke:#000000;stroke-width:2.0px;stroke-linecap:butt;stroke-linejoin:miter;stroke-opacity:1"/>
<path class="bond-3 atom-3 atom-4" d="M 531.9,476.1 L 545.6,484.0" style="fill:none;fill-rule:evenodd;stroke:#000000;stroke-width:2.0px;stroke-linecap:butt;stroke-linejoin:miter;stroke-opacity:1"/>
<path class="bond-3 atom-3 atom-4" d="M 545.6,484.0 L 559.3,491.9" style="fill:none;fill-rule:evenodd;stroke:#FF0000;stroke-width:2.0px;stroke-linecap:butt;stroke-linejoin:miter;stroke-opacity:1"/>
<path class="bond-3 atom-3 atom-4" d="M 531.9,482.9 L 542.7,489.1" style="fill:none;fill-rule:evenodd;stroke:#000000;stroke-width:2.0px;stroke-linecap:butt;stroke-linejoin:miter;stroke-opacity:1"/>
<path class="bond-3 atom-3 atom-4" d="M 542.7,489.1 L 556.4,497.0" style="fill:none;fill-rule:evenodd;stroke:#FF0000;stroke-width:2.0px;stroke-linecap:butt;stroke-linejoin:miter;stroke-opacity:1"/>
<path d="M 462.8,477.1 L 464.5,476.1 L 466.1,477.1" style="fill:none;stroke:#000000;stroke-width:2.0px;stroke-linecap:butt;stroke-linejoin:miter;stroke-opacity:1;"/>
<path d="M 496.5,494.6 L 498.2,495.6 L 499.9,494.6" style="fill:none;stroke:#000000;stroke-width:2.0px;stroke-linecap:butt;stroke-linejoin:miter;stroke-opacity:1;"/>
<path d="M 530.3,477.1 L 531.9,476.1 L 532.6,476.5" style="fill:none;stroke:#000000;stroke-width:2.0px;stroke-linecap:butt;stroke-linejoin:miter;stroke-opacity:1;"/>
<path class="atom-4" d="M 559.2 498.2 Q 559.2 495.5, 560.5 494.0 Q 561.8 492.6, 564.2 492.6 Q 566.7 492.6, 568.0 494.0 Q 569.3 495.5, 569.3 498.2 Q 569.3 500.8, 568.0 502.4 Q 566.6 503.9, 564.2 503.9 Q 561.8 503.9, 560.5 502.4 Q 559.2 500.9, 559.2 498.2 M 564.2 502.6 Q 565.9 502.6, 566.8 501.5 Q 567.7 500.4, 567.7 498.2 Q 567.7 496.0, 566.8 494.9 Q 565.9 493.8, 564.2 493.8 Q 562.5 493.8, 561.6 494.9 Q 560.7 496.0, 560.7 498.2 Q 560.7 500.4, 561.6 501.5 Q 562.5 502.6, 564.2 502.6 " fill="#FF0000"/>
<path class="legend" d="M 428.7 589.1 L 434.6 589.1 L 434.6 590.4 L 428.7 590.4 L 428.7 589.1 " fill="#000000"/>
<path class="legend" d="M 443.3 591.0 L 444.7 591.0 L 444.7 592.3 L 443.3 592.3 L 443.3 594.9 L 441.8 594.9 L 441.8 592.3 L 436.0 592.3 L 436.0 591.3 L 440.9 583.5 L 443.3 583.5 L 443.3 591.0 M 437.8 591.0 L 441.8 591.0 L 441.8 584.6 L 437.8 591.0 " fill="#000000"/>
<path class="legend" d="M 446.1 593.3 L 447.7 593.3 L 447.7 594.9 L 446.1 594.9 L 446.1 593.3 " fill="#000000"/>
<path class="legend" d="M 449.4 585.7 Q 449.8 584.6, 450.8 584.0 Q 451.8 583.4, 453.1 583.4 Q 454.8 583.4, 455.8 584.3 Q 456.8 585.3, 456.8 586.9 Q 456.8 588.6, 455.5 590.2 Q 454.3 591.7, 451.7 593.6 L 457.0 593.6 L 457.0 594.9 L 449.3 594.9 L 449.3 593.8 Q 451.4 592.3, 452.7 591.2 Q 453.9 590.1, 454.6 589.0 Q 455.2 588.0, 455.2 587.0 Q 455.2 585.9, 454.6 585.3 Q 454.1 584.7, 453.1 584.7 Q 452.2 584.7, 451.6 585.1 Q 451.0 585.4, 450.6 586.2 L 449.4 585.7 " fill="#000000"/>
<path class="legend" d="M 458.5 585.7 Q 459.0 584.6, 460.0 584.0 Q 460.9 583.4, 462.3 583.4 Q 464.0 583.4, 465.0 584.3 Q 466.0 585.3, 466.0 586.9 Q 466.0 588.6, 464.7 590.2 Q 463.5 591.7, 460.9 593.6 L 466.1 593.6 L 466.1 594.9 L 458.5 594.9 L 458.5 593.8 Q 460.6 592.3, 461.9 591.2 Q 463.1 590.1, 463.7 589.0 Q 464.4 588.0, 464.4 587.0 Q 464.4 585.9, 463.8 585.3 Q 463.3 584.7, 462.3 584.7 Q 461.4 584.7, 460.8 585.1 Q 460.2 585.4, 459.8 586.2 L 458.5 585.7 " fill="#000000"/>
<path class="legend" d="" fill="#000000"/>
<path class="legend" d="M 483.8 594.9 L 482.1 594.9 L 478.7 590.2 L 475.4 594.9 L 473.6 594.9 L 477.8 589.0 L 474.0 583.5 L 475.7 583.5 L 478.8 587.8 L 481.9 583.5 L 483.6 583.5 L 479.7 589.1 L 483.8 594.9 " fill="#000000"/>
<path class="legend" d="" fill="#000000"/>
<path class="legend" d="M 494.6 595.0 Q 492.5 595.0, 491.5 593.5 Q 490.4 591.9, 490.4 589.2 Q 490.4 586.5, 491.5 584.9 Q 492.5 583.4, 494.6 583.4 Q 496.7 583.4, 497.7 584.9 Q 498.7 586.5, 498.7 589.2 Q 498.7 591.9, 497.7 593.5 Q 496.7 595.0, 494.6 595.0 M 494.6 593.7 Q 495.8 593.7, 496.5 592.6 Q 497.1 591.4, 497.1 589.2 Q 497.1 587.0, 496.5 585.8 Q 495.8 584.7, 494.6 584.7 Q 493.4 584.7, 492.7 585.8 Q 492.0 587.0, 492.0 589.2 Q 492.0 591.4, 492.7 592.6 Q 493.4 593.7, 494.6 593.7 " fill="#000000"/>
<path class="legend" d="M 500.4 593.3 L 502.0 593.3 L 502.0 594.9 L 500.4 594.9 L 500.4 593.3 " fill="#000000"/>
<path class="legend" d="M 507.8 595.0 Q 505.7 595.0, 504.6 593.5 Q 503.6 591.9, 503.6 589.2 Q 503.6 586.5, 504.6 584.9 Q 505.7 583.4, 507.8 583.4 Q 509.8 583.4, 510.9 584.9 Q 511.9 586.5, 511.9 589.2 Q 511.9 591.9, 510.9 593.5 Q 509.8 595.0, 507.8 595.0 M 507.8 593.7 Q 509.0 593.7, 509.6 592.6 Q 510.3 591.4, 510.3 589.2 Q 510.3 587.0, 509.6 585.8 Q 509.0 584.7, 507.8 584.7 Q 506.5 584.7, 505.9 585.8 Q 505.2 587.0, 505.2 589.2 Q 505.2 591.4, 505.9 592.6 Q 506.5 593.7, 507.8 593.7 " fill="#000000"/>
<path class="legend" d="M 517.3 583.4 Q 519.4 583.4, 520.4 584.8 Q 521.4 586.2, 521.4 588.9 Q 521.4 591.9, 520.1 593.4 Q 518.9 595.0, 516.5 595.0 Q 515.8 595.0, 515.2 594.8 Q 514.6 594.7, 514.0 594.3 L 514.6 593.3 Q 515.4 593.7, 516.4 593.7 Q 518.0 593.7, 518.9 592.7 Q 519.7 591.7, 519.8 589.5 Q 519.2 590.1, 518.5 590.3 Q 517.7 590.6, 517.0 590.6 Q 516.0 590.6, 515.2 590.2 Q 514.4 589.8, 514.0 589.0 Q 513.5 588.2, 513.5 587.2 Q 513.5 586.1, 514.0 585.2 Q 514.5 584.4, 515.4 583.9 Q 516.2 583.4, 517.3 583.4 M 515.1 587.2 Q 515.1 588.2, 515.7 588.8 Q 516.3 589.3, 517.2 589.3 Q 517.9 589.3, 518.6 589.1 Q 519.3 588.8, 519.8 588.3 Q 519.7 586.4, 519.1 585.6 Q 518.5 584.7, 517.3 584.7 Q 516.7 584.7, 516.2 585.0 Q 515.7 585.4, 515.4 585.9 Q 515.1 586.5, 515.1 587.2 " fill="#000000"/>
<path class="legend" d="M 523.1 587.9 L 530.4 587.9 L 530.4 589.1 L 523.1 589.1 L 523.1 587.9 M 523.1 591.3 L 530.4 591.3 L 530.4 592.5 L 523.1 592.5 L 523.1 591.3 " fill="#000000"/>
<path class="legend" d="M 532.5 589.1 L 538.3 589.1 L 538.3 590.4 L 532.5 590.4 L 532.5 589.1 " fill="#000000"/>
<path class="legend" d="M 543.9 595.0 Q 541.8 595.0, 540.8 593.5 Q 539.7 591.9, 539.7 589.2 Q 539.7 586.5, 540.8 584.9 Q 541.8 583.4, 543.9 583.4 Q 546.0 583.4, 547.0 584.9 Q 548.0 586.5, 548.0 589.2 Q 548.0 591.9, 547.0 593.5 Q 546.0 595.0, 543.9 595.0 M 543.9 593.7 Q 545.1 593.7, 545.8 592.6 Q 546.4 591.4, 546.4 589.2 Q 546.4 587.0, 545.8 585.8 Q 545.1 584.7, 543.9 584.7 Q 542.7 584.7, 542.0 585.8 Q 541.3 587.0, 541.3 589.2 Q 541.3 591.4, 542.0 592.6 Q 542.7 593.7, 543.9 593.7 " fill="#000000"/>
<path class="legend" d="M 549.7 593.3 L 551.3 593.3 L 551.3 594.9 L 549.7 594.9 L 549.7 593.3 " fill="#000000"/>
<path class="legend" d="M 560.3 591.0 L 561.6 591.0 L 561.6 592.3 L 560.3 592.3 L 560.3 594.9 L 558.8 594.9 L 558.8 592.3 L 552.9 592.3 L 552.9 591.3 L 557.9 583.5 L 560.3 583.5 L 560.3 591.0 M 554.8 591.0 L 558.8 591.0 L 558.8 584.6 L 554.8 591.0 " fill="#000000"/>
<path class="legend" d="M 567.1 595.0 Q 565.1 595.0, 564.0 593.5 Q 563.0 591.9, 563.0 589.2 Q 563.0 586.5, 564.0 584.9 Q 565.0 583.4, 567.1 583.4 Q 569.2 583.4, 570.3 584.9 Q 571.3 586.5, 571.3 589.2 Q 571.3 591.9, 570.2 593.5 Q 569.2 595.0, 567.1 595.0 M 567.1 593.7 Q 568.4 593.7, 569.0 592.6 Q 569.7 591.4, 569.7 589.2 Q 569.7 587.0, 569.0 585.8 Q 568.4 584.7, 567.1 584.7 Q 565.9 584.7, 565.3 585.8 Q 564.6 587.0, 564.6 589.2 Q 564.6 591.4, 565.3 592.6 Q 565.9 593.7, 567.1 593.7 " fill="#000000"/>
<path class="bond-0 atom-0 atom-1" d="M 689.5,509.5 L 723.2,490.0" style="fill:none;fill-rule:evenodd;stroke:#000000;stroke-width:2.0px;stroke-linecap:butt;stroke-linejoin:miter;stroke-opacity:1"/>
<path class="bond-1 atom-1 atom-2" d="M 723.2,490.0 L 737.8,481.6" style="fill:none;fill-rule:evenodd;stroke:#000000;stroke-width:2.0px;stroke-linecap:butt;stroke-linejoin:miter;stroke-opacity:1"/>
<path class="bond-1 atom-1 atom-2" d="M 737.8,481.6 L 752.4,473.2" style="fill:none;fill-rule:evenodd;stroke:#33CCCC;stroke-width:2.0px;stroke-linecap:butt;stroke-linejoin:miter;stroke-opacity:1"/>
<path class="bond-2 atom-1 atom-3" d="M 723.2,490.0 L 731.0,503.5" style="fill:none;fill-rule:evenodd;stroke:#000000;stroke-width:2.0px;stroke-linecap:butt;stroke-linejoin:miter;stroke-opacity:1"/>
<path class="bond-2 atom-1 atom-3" d="M 731.0,503.5 L 738.8,516.9" style="fill:none;fill-rule:evenodd;stroke:#33CCCC;stroke-width:2.0px;stroke-linecap:butt;stroke-linejoin:miter;stroke-opacity:1"/>
<path class="bond-3 atom-1 atom-4" d="M 723.2,490.0 L 715.4,476.5" style="fill:none;fill-rule:evenodd;stroke:#000000;stroke-width:2.0px;stroke-linecap:butt;stroke-linejoin:miter;stroke-opacity:1"/>
<path class="bond-3 atom-1 atom-4" d="M 715.4,476.5 L 707.7,463.1" style="fill:none;fill-rule:evenodd;stroke:#33CCCC;stroke-width:2.0px;stroke-linecap:butt;stroke-linejoin:miter;stroke-opacity:1"/>
<path class="bond-4 atom-0 atom-5" d="M 689.5,509.5 L 675.8,501.6" style="fill:none;fill-rule:evenodd;stroke:#000000;stroke-width:2.0px;stroke-linecap:butt;stroke-linejoin:miter;stroke-opacity:1"/>
<path class="bond-4 atom-0 atom-5" d="M 675.8,501.6 L 662.1,493.7" style="fill:none;fill-rule:evenodd;stroke:#FF0000;stroke-width:2.0px;stroke-linecap:butt;stroke-linejoin:miter;stroke-opacity:1"/>
<path d="M 691.2,508.5 L 689.5,509.5 L 688.8,509.1" style="fill:none;stroke:#000000;stroke-width:2.0px;stroke-linecap:butt;stroke-linejoin:miter;stroke-opacity:1;"/>
<path class="atom-2" d="M 753.7 465.0 L 760.2 465.0 L 760.2 466.3 L 755.2 466.3 L 755.2 469.6 L 759.7 469.6 L 759.7 470.9 L 755.2 470.9 L 755.2 476.0 L 753.7 476.0 L 753.7 465.0 " fill="#33CCCC"/>
<path class="atom-3" d="M 739.4 518.2 L 746.0 518.2 L 746.0 519.5 L 740.9 519.5 L 740.9 522.8 L 745.4 522.8 L 745.4 524.1 L 740.9 524.1 L 740.9 529.3 L 739.4 529.3 L 739.4 518.2 " fill="#33CCCC"/>
<path class="atom-4" d="M 700.5 450.7 L 707.0 450.7 L 707.0 452.0 L 701.9 452.0 L 701.9 455.4 L 706.5 455.4 L 706.5 456.6 L 701.9 456.6 L 701.9 461.8 L 700.5 461.8 L 700.5 450.7 " fill="#33CCCC"/>
<path class="atom-5" d="M 639.8 484.5 L 641.3 484.5 L 641.3 489.2 L 646.9 489.2 L 646.9 484.5 L 648.4 484.5 L 648.4 495.6 L 646.9 495.6 L 646.9 490.5 L 641.3 490.5 L 641.3 495.6 L 639.8 495.6 L 639.8 484.5 " fill="#FF0000"/>
<path class="atom-5" d="M 650.7 490.0 Q 650.7 487.4, 652.0 485.9 Q 653.3 484.4, 655.7 484.4 Q 658.2 484.4, 659.5 485.9 Q 660.8 487.4, 660.8 490.0 Q 660.8 492.7, 659.5 494.2 Q 658.1 495.8, 655.7 495.8 Q 653.3 495.8, 652.0 494.2 Q 650.7 492.7, 650.7 490.0 M 655.7 494.5 Q 657.4 494.5, 658.3 493.4 Q 659.2 492.2, 659.2 490.0 Q 659.2 487.9, 658.3 486.8 Q 657.4 485.7, 655.7 485.7 Q 654.0 485.7, 653.1 486.8 Q 652.2 487.8, 652.2 490.0 Q 652.2 492.3, 653.1 493.4 Q 654.0 494.5, 655.7 494.5 " fill="#FF0000"/>
<path class="legend" d="M 629.3 589.1 L 635.2 589.1 L 635.2 590.4 L 629.3 590.4 L 629.3 589.1 " fill="#000000"/>
<path class="legend" d="M 643.9 591.0 L 645.3 591.0 L 645.3 592.2 L 643.9 592.2 L 643.9 594.8 L 642.4 594.8 L 642.4 592.2 L 636.6 592.2 L 636.6 591.2 L 641.5 583.5 L 643.9 583.5 L 643.9 591.0 M 638.4 591.0 L 642.4 591.0 L 642.4 584.5 L 638.4 591.0 " fill="#000000"/>
<path class="legend" d="M 646.7 593.2 L 648.3 593.2 L 648.3 594.8 L 646.7 594.8 L 646.7 593.2 " fill="#000000"/>
<path class="legend" d="M 655.3 588.9 Q 656.5 589.2, 657.0 589.9 Q 657.5 590.6, 657.5 591.7 Q 657.5 592.7, 657.0 593.4 Q 656.6 594.2, 655.7 594.6 Q 654.8 595.0, 653.7 595.0 Q 652.4 595.0, 651.5 594.6 Q 650.6 594.2, 649.9 593.3 L 650.8 592.4 Q 651.5 593.1, 652.1 593.4 Q 652.7 593.7, 653.7 593.7 Q 654.7 593.7, 655.3 593.2 Q 655.9 592.6, 655.9 591.7 Q 655.9 590.6, 655.3 590.1 Q 654.6 589.5, 653.2 589.5 L 652.4 589.5 L 652.4 588.4 L 653.1 588.4 Q 654.4 588.4, 655.0 587.8 Q 655.7 587.3, 655.7 586.3 Q 655.7 585.5, 655.1 585.1 Q 654.6 584.7, 653.7 584.7 Q 652.7 584.7, 652.1 585.0 Q 651.6 585.3, 651.1 586.2 L 650.0 585.6 Q 650.4 584.6, 651.4 584.0 Q 652.3 583.4, 653.7 583.4 Q 655.3 583.4, 656.3 584.2 Q 657.3 585.0, 657.3 586.3 Q 657.3 587.2, 656.8 587.8 Q 656.3 588.5, 655.3 588.9 " fill="#000000"/>
<path class="legend" d="M 659.7 593.6 L 662.2 593.6 L 662.2 585.1 L 659.4 585.9 L 659.1 585.0 L 662.5 583.4 L 663.7 583.6 L 663.7 593.6 L 665.9 593.6 L 665.9 594.8 L 659.7 594.8 L 659.7 593.6 " fill="#000000"/>
<path class="legend" d="" fill="#000000"/>
<path class="legend" d="M 683.3 594.8 L 681.5 594.8 L 678.2 590.2 L 674.8 594.8 L 673.1 594.8 L 677.3 588.9 L 673.4 583.5 L 675.2 583.5 L 678.2 587.8 L 681.3 583.5 L 683.1 583.5 L 679.1 589.0 L 683.3 594.8 " fill="#000000"/>
<path class="legend" d="" fill="#000000"/>
<path class="legend" d="M 694.0 595.0 Q 691.9 595.0, 690.9 593.4 Q 689.9 591.9, 689.9 589.2 Q 689.9 586.4, 690.9 584.9 Q 691.9 583.4, 694.0 583.4 Q 696.1 583.4, 697.1 584.9 Q 698.2 586.4, 698.2 589.2 Q 698.2 591.9, 697.1 593.4 Q 696.1 595.0, 694.0 595.0 M 694.0 593.7 Q 695.3 593.7, 695.9 592.6 Q 696.6 591.4, 696.6 589.2 Q 696.6 586.9, 695.9 585.8 Q 695.3 584.7, 694.0 584.7 Q 692.8 584.7, 692.1 585.8 Q 691.5 586.9, 691.5 589.2 Q 691.5 591.4, 692.1 592.6 Q 692.8 593.7, 694.0 593.7 " fill="#000000"/>
<path class="legend" d="M 699.8 593.2 L 701.4 593.2 L 701.4 594.8 L 699.8 594.8 L 699.8 593.2 " fill="#000000"/>
<path class="legend" d="M 707.2 595.0 Q 705.1 595.0, 704.1 593.4 Q 703.0 591.9, 703.0 589.2 Q 703.0 586.4, 704.1 584.9 Q 705.1 583.4, 707.2 583.4 Q 709.3 583.4, 710.3 584.9 Q 711.3 586.4, 711.3 589.2 Q 711.3 591.9, 710.3 593.4 Q 709.3 595.0, 707.2 595.0 M 707.2 593.7 Q 708.4 593.7, 709.1 592.6 Q 709.7 591.4, 709.7 589.2 Q 709.7 586.9, 709.1 585.8 Q 708.4 584.7, 707.2 584.7 Q 706.0 584.7, 705.3 585.8 Q 704.6 586.9, 704.6 589.2 Q 704.6 591.4, 705.3 592.6 Q 706.0 593.7, 707.2 593.7 " fill="#000000"/>
<path class="legend" d="M 716.8 583.4 Q 718.8 583.4, 719.8 584.8 Q 720.8 586.1, 720.8 588.8 Q 720.8 591.8, 719.6 593.4 Q 718.3 595.0, 715.9 595.0 Q 715.2 595.0, 714.6 594.8 Q 714.0 594.6, 713.4 594.3 L 714.0 593.2 Q 714.9 593.7, 715.9 593.7 Q 717.5 593.7, 718.3 592.7 Q 719.1 591.6, 719.2 589.5 Q 718.6 590.0, 717.9 590.3 Q 717.2 590.6, 716.4 590.6 Q 715.4 590.6, 714.6 590.2 Q 713.8 589.7, 713.4 588.9 Q 713.0 588.2, 713.0 587.2 Q 713.0 586.1, 713.4 585.2 Q 713.9 584.3, 714.8 583.9 Q 715.7 583.4, 716.8 583.4 M 714.6 587.1 Q 714.6 588.2, 715.1 588.7 Q 715.7 589.3, 716.7 589.3 Q 717.4 589.3, 718.0 589.0 Q 718.7 588.7, 719.2 588.3 Q 719.1 586.4, 718.5 585.5 Q 718.0 584.7, 716.8 584.7 Q 716.1 584.7, 715.6 585.0 Q 715.1 585.3, 714.9 585.9 Q 714.6 586.5, 714.6 587.1 " fill="#000000"/>
<path class="legend" d="M 722.5 587.9 L 729.8 587.9 L 729.8 589.0 L 722.5 589.0 L 722.5 587.9 M 722.5 591.3 L 729.8 591.3 L 729.8 592.5 L 722.5 592.5 L 722.5 591.3 " fill="#000000"/>
<path class="legend" d="M 731.9 589.1 L 737.8 589.1 L 737.8 590.4 L 731.9 590.4 L 731.9 589.1 " fill="#000000"/>
<path class="legend" d="M 743.3 595.0 Q 741.2 595.0, 740.2 593.4 Q 739.1 591.9, 739.1 589.2 Q 739.1 586.4, 740.2 584.9 Q 741.2 583.4, 743.3 583.4 Q 745.4 583.4, 746.4 584.9 Q 747.4 586.4, 747.4 589.2 Q 747.4 591.9, 746.4 593.4 Q 745.4 595.0, 743.3 595.0 M 743.3 593.7 Q 744.5 593.7, 745.2 592.6 Q 745.8 591.4, 745.8 589.2 Q 745.8 586.9, 745.2 585.8 Q 744.5 584.7, 743.3 584.7 Q 742.1 584.7, 741.4 585.8 Q 740.7 586.9, 740.7 589.2 Q 740.7 591.4, 741.4 592.6 Q 742.1 593.7, 743.3 593.7 " fill="#000000"/>
<path class="legend" d="M 749.1 593.2 L 750.7 593.2 L 750.7 594.8 L 749.1 594.8 L 749.1 593.2 " fill="#000000"/>
<path class="legend" d="M 759.7 591.0 L 761.0 591.0 L 761.0 592.2 L 759.7 592.2 L 759.7 594.8 L 758.2 594.8 L 758.2 592.2 L 752.3 592.2 L 752.3 591.2 L 757.3 583.5 L 759.7 583.5 L 759.7 591.0 M 754.2 591.0 L 758.2 591.0 L 758.2 584.5 L 754.2 591.0 " fill="#000000"/>
<path class="legend" d="M 766.5 595.0 Q 764.5 595.0, 763.4 593.4 Q 762.4 591.9, 762.4 589.2 Q 762.4 586.4, 763.4 584.9 Q 764.4 583.4, 766.5 583.4 Q 768.6 583.4, 769.7 584.9 Q 770.7 586.4, 770.7 589.2 Q 770.7 591.9, 769.6 593.4 Q 768.6 595.0, 766.5 595.0 M 766.5 593.7 Q 767.8 593.7, 768.4 592.6 Q 769.1 591.4, 769.1 589.2 Q 769.1 586.9, 768.4 585.8 Q 767.8 584.7, 766.5 584.7 Q 765.3 584.7, 764.7 585.8 Q 764.0 586.9, 764.0 589.2 Q 764.0 591.4, 764.7 592.6 Q 765.3 593.7, 766.5 593.7 " fill="#000000"/>
</svg>