<svg xmlns="http://www.w3.org/2000/svg" xmlns:rdkit="http://www.rdkit.org/xml" xmlns:xlink="http://www.w3.org/1999/xlink" version="1.1" baseProfile="full" xml:space="preserve" width="800px" height="600px" viewBox="0 0 800 600">
<!-- END OF HEADER -->
<rect style="opacity:1.0;fill:#FFFFFF;stroke:none" width="800.0" height="600.0" x="0.0" y="0.0"> </rect>
<path class="bond-0 atom-0 atom-1" d="M 48.4,80.1 L 82.8,60.2" style="fill:none;fill-rule:evenodd;stroke:#000000;stroke-width:2.0px;stroke-linecap:butt;stroke-linejoin:miter;stroke-opacity:1"/>
<path class="bond-1 atom-1 atom-2" d="M 82.8,60.2 L 117.2,80.1" style="fill:none;fill-rule:evenodd;stroke:#000000;stroke-width:2.0px;stroke-linecap:butt;stroke-linejoin:miter;stroke-opacity:1"/>
<path class="bond-1 atom-1 atom-2" d="M 82.8,67.1 L 111.2,83.5" style="fill:none;fill-rule:evenodd;stroke:#000000;stroke-width:2.0px;stroke-linecap:butt;stroke-linejoin:miter;stroke-opacity:1"/>
<path class="bond-2 atom-2 atom-3" d="M 117.2,80.1 L 151.6,60.2" style="fill:none;fill-rule:evenodd;stroke:#000000;stroke-width:2.0px;stroke-linecap:butt;stroke-linejoin:miter;stroke-opacity:1"/>
<path class="bond-3 atom-2 atom-4" d="M 117.2,80.1 L 117.2,119.8" style="fill:none;fill-rule:evenodd;stroke:#000000;stroke-width:2.0px;stroke-linecap:butt;stroke-linejoin:miter;stroke-opacity:1"/>
<path d="M 81.1,61.2 L 82.8,60.2 L 84.5,61.2" style="fill:none;stroke:#000000;stroke-width:2.0px;stroke-linecap:butt;stroke-linejoin:miter;stroke-opacity:1;"/>
<path class="legend" d="M 40.2 193.6 L 42.7 193.6 L 42.7 185.1 L 39.9 185.9 L 39.6 185.0 L 43.1 183.4 L 44.2 183.6 L 44.2 193.6 L 46.4 193.6 L 46.4 194.8 L 40.2 194.8 L 40.2 193.6 " fill="#000000"/>
<path class="legend" d="M 47.6 193.2 L 49.2 193.2 L 49.2 194.8 L 47.6 194.8 L 47.6 193.2 " fill="#000000"/>
<path class="legend" d="M 56.3 188.9 Q 57.4 189.2, 57.9 189.9 Q 58.5 190.6, 58.5 191.7 Q 58.5 192.7, 58.0 193.4 Q 57.5 194.2, 56.6 194.6 Q 55.7 195.0, 54.6 195.0 Q 53.4 195.0, 52.5 194.6 Q 51.6 194.2, 50.8 193.3 L 51.8 192.4 Q 52.5 193.1, 53.1 193.4 Q 53.6 193.7, 54.6 193.7 Q 55.6 193.7, 56.2 193.2 Q 56.9 192.6, 56.9 191.7 Q 56.9 190.6, 56.2 190.1 Q 55.6 189.5, 54.2 189.5 L 53.4 189.5 L 53.4 188.4 L 54.1 188.4 Q 55.3 188.4, 56.0 187.8 Q 56.6 187.3, 56.6 186.3 Q 56.6 185.5, 56.1 185.1 Q 55.5 184.7, 54.6 184.7 Q 53.7 184.7, 53.1 185.0 Q 52.5 185.3, 52.0 186.2 L 50.9 185.6 Q 51.3 184.6, 52.3 184.0 Q 53.3 183.4, 54.6 183.4 Q 56.3 183.4, 57.2 184.2 Q 58.2 185.0, 58.2 186.3 Q 58.2 187.2, 57.7 187.8 Q 57.2 188.5, 56.3 188.9 " fill="#000000"/>
<path class="legend" d="M 60.6 193.6 L 63.1 193.6 L 63.1 185.1 L 60.3 185.9 L 60.0 185.0 L 63.4 183.4 L 64.6 183.6 L 64.6 193.6 L 66.8 193.6 L 66.8 194.8 L 60.6 194.8 L 60.6 193.6 " fill="#000000"/>
<path class="legend" d="" fill="#000000"/>
<path class="legend" d="M 84.1 194.8 L 82.4 194.8 L 79.0 190.2 L 75.7 194.8 L 73.9 194.8 L 78.1 188.9 L 74.3 183.5 L 76.0 183.5 L 79.1 187.8 L 82.2 183.5 L 83.9 183.5 L 80.0 189.0 L 84.1 194.8 " fill="#000000"/>
<path class="legend" d="" fill="#000000"/>
<path class="legend" d="M 94.8 195.0 Q 92.7 195.0, 91.7 193.4 Q 90.7 191.9, 90.7 189.2 Q 90.7 186.4, 91.7 184.9 Q 92.7 183.4, 94.8 183.4 Q 96.9 183.4, 97.9 184.9 Q 98.9 186.4, 98.9 189.2 Q 98.9 191.9, 97.9 193.4 Q 96.9 195.0, 94.8 195.0 M 94.8 193.7 Q 96.0 193.7, 96.7 192.6 Q 97.3 191.4, 97.3 189.2 Q 97.3 186.9, 96.7 185.8 Q 96.0 184.7, 94.8 184.7 Q 93.6 184.7, 92.9 185.8 Q 92.3 186.9, 92.3 189.2 Q 92.3 191.4, 92.9 192.6 Q 93.6 193.7, 94.8 193.7 " fill="#000000"/>
<path class="legend" d="M 100.6 193.2 L 102.2 193.2 L 102.2 194.8 L 100.6 194.8 L 100.6 193.2 " fill="#000000"/>
<path class="legend" d="M 103.8 185.7 Q 104.2 184.6, 105.2 184.0 Q 106.2 183.4, 107.6 183.4 Q 109.3 183.4, 110.2 184.3 Q 111.2 185.2, 111.2 186.9 Q 111.2 188.6, 109.9 190.1 Q 108.7 191.7, 106.2 193.6 L 111.4 193.6 L 111.4 194.8 L 103.8 194.8 L 103.8 193.8 Q 105.9 192.3, 107.1 191.1 Q 108.4 190.0, 109.0 189.0 Q 109.6 188.0, 109.6 187.0 Q 109.6 185.9, 109.0 185.3 Q 108.5 184.7, 107.6 184.7 Q 106.6 184.7, 106.0 185.0 Q 105.4 185.4, 105.0 186.2 L 103.8 185.7 " fill="#000000"/>
<path class="legend" d="M 118.3 188.9 Q 119.4 189.2, 120.0 189.9 Q 120.5 190.6, 120.5 191.7 Q 120.5 192.7, 120.0 193.4 Q 119.6 194.2, 118.7 194.6 Q 117.8 195.0, 116.6 195.0 Q 115.4 195.0, 114.5 194.6 Q 113.6 194.2, 112.9 193.3 L 113.8 192.4 Q 114.5 193.1, 115.1 193.4 Q 115.7 193.7, 116.6 193.7 Q 117.7 193.7, 118.3 193.2 Q 118.9 192.6, 118.9 191.7 Q 118.9 190.6, 118.3 190.1 Q 117.6 189.5, 116.2 189.5 L 115.4 189.5 L 115.4 188.4 L 116.1 188.4 Q 117.4 188.4, 118.0 187.8 Q 118.7 187.3, 118.7 186.3 Q 118.7 185.5, 118.1 185.1 Q 117.6 184.7, 116.7 184.7 Q 115.7 184.7, 115.1 185.0 Q 114.6 185.3, 114.1 186.2 L 113.0 185.6 Q 113.4 184.6, 114.4 184.0 Q 115.3 183.4, 116.7 183.4 Q 118.3 183.4, 119.3 184.2 Q 120.3 185.0, 120.3 186.3 Q 120.3 187.2, 119.8 187.8 Q 119.3 188.5, 118.3 188.9 " fill="#000000"/>
<path class="legend" d="M 122.0 187.9 L 129.4 187.9 L 129.4 189.0 L 122.0 189.0 L 122.0 187.9 M 122.0 191.3 L 129.4 191.3 L 129.4 192.5 L 122.0 192.5 L 122.0 191.3 " fill="#000000"/>
<path class="legend" d="M 135.5 195.0 Q 133.4 195.0, 132.4 193.4 Q 131.4 191.9, 131.4 189.2 Q 131.4 186.4, 132.4 184.9 Q 133.4 183.4, 135.5 183.4 Q 137.6 183.4, 138.6 184.9 Q 139.7 186.4, 139.7 189.2 Q 139.7 191.9, 138.6 193.4 Q 137.6 195.0, 135.5 195.0 M 135.5 193.7 Q 136.7 193.7, 137.4 192.6 Q 138.1 191.4, 138.1 189.2 Q 138.1 186.9, 137.4 185.8 Q 136.7 184.7, 135.5 184.7 Q 134.3 184.7, 133.6 185.8 Q 133.0 186.9, 133.0 189.2 Q 133.0 191.4, 133.6 192.6 Q 134.3 193.7, 135.5 193.7 " fill="#000000"/>
<path class="legend" d="M 141.3 193.2 L 142.9 193.2 L 142.9 194.8 L 141.3 194.8 L 141.3 193.2 " fill="#000000"/>
<path class="legend" d="M 149.9 188.9 Q 151.0 189.2, 151.5 189.9 Q 152.1 190.6, 152.1 191.7 Q 152.1 192.7, 151.6 193.4 Q 151.1 194.2, 150.2 194.6 Q 149.4 195.0, 148.2 195.0 Q 147.0 195.0, 146.1 194.6 Q 145.2 194.2, 144.5 193.3 L 145.4 192.4 Q 146.1 193.1, 146.7 193.4 Q 147.3 193.7, 148.2 193.7 Q 149.2 193.7, 149.9 193.2 Q 150.5 192.6, 150.5 191.7 Q 150.5 190.6, 149.8 190.1 Q 149.2 189.5, 147.8 189.5 L 147.0 189.5 L 147.0 188.4 L 147.7 188.4 Q 148.9 188.4, 149.6 187.8 Q 150.2 187.3, 150.2 186.3 Q 150.2 185.5, 149.7 185.1 Q 149.2 184.7, 148.2 184.7 Q 147.3 184.7, 146.7 185.0 Q 146.1 185.3, 145.7 186.2 L 144.6 185.6 Q 145.0 184.6, 145.9 184.0 Q 146.9 183.4, 148.2 183.4 Q 149.9 183.4, 150.9 184.2 Q 151.8 185.0, 151.8 186.3 Q 151.8 187.2, 151.3 187.8 Q 150.8 188.5, 149.9 188.9 " fill="#000000"/>
<path class="legend" d="M 154.2 193.6 L 156.7 193.6 L 156.7 185.1 L 154.0 185.9 L 153.6 185.0 L 157.1 183.4 L 158.2 183.6 L 158.2 193.6 L 160.4 193.6 L 160.4 194.8 L 154.2 194.8 L 154.2 193.6 " fill="#000000"/>
<path class="bond-0 atom-0 atom-1" d="M 231.8,102.6 L 268.7,87.8" style="fill:none;fill-rule:evenodd;stroke:#000000;stroke-width:2.0px;stroke-linecap:butt;stroke-linejoin:miter;stroke-opacity:1"/>
<path class="bond-1 atom-1 atom-2" d="M 268.7,87.8 L 300.0,112.4" style="fill:none;fill-rule:evenodd;stroke:#000000;stroke-width:2.0px;stroke-linecap:butt;stroke-linejoin:miter;stroke-opacity:1"/>
<path class="bond-2 atom-2 atom-3" d="M 300.0,112.4 L 336.9,97.6" style="fill:none;fill-rule:evenodd;stroke:#000000;stroke-width:2.0px;stroke-linecap:butt;stroke-linejoin:miter;stroke-opacity:1"/>
<path class="bond-3 atom-3 atom-4" d="M 339.6,99.7 L 345.5,58.7" style="fill:none;fill-rule:evenodd;stroke:#000000;stroke-width:2.0px;stroke-linecap:butt;stroke-linejoin:miter;stroke-opacity:1"/>
<path class="bond-3 atom-3 atom-4" d="M 333.7,98.9 L 339.6,57.8" style="fill:none;fill-rule:evenodd;stroke:#000000;stroke-width:2.0px;stroke-linecap:butt;stroke-linejoin:miter;stroke-opacity:1"/>
<path class="bond-4 atom-3 atom-5" d="M 336.9,97.6 L 368.2,122.2" style="fill:none;fill-rule:evenodd;stroke:#000000;stroke-width:2.0px;stroke-linecap:butt;stroke-linejoin:miter;stroke-opacity:1"/>
<path d="M 266.9,88.6 L 268.7,87.8 L 270.3,89.1" style="fill:none;stroke:#000000;stroke-width:2.0px;stroke-linecap:butt;stroke-linejoin:miter;stroke-opacity:1;"/>
<path d="M 298.4,111.2 L 300.0,112.4 L 301.8,111.7" style="fill:none;stroke:#000000;stroke-width:2.0px;stroke-linecap:butt;stroke-linejoin:miter;stroke-opacity:1;"/>
<path d="M 335.0,98.3 L 336.9,97.6 L 338.5,98.8" style="fill:none;stroke:#000000;stroke-width:2.0px;stroke-linecap:butt;stroke-linejoin:miter;stroke-opacity:1;"/>
<path class="legend" d="M 238.8 193.6 L 241.3 193.6 L 241.3 185.1 L 238.6 186.0 L 238.2 185.0 L 241.7 183.5 L 242.8 183.7 L 242.8 193.6 L 245.1 193.6 L 245.1 194.9 L 238.8 194.9 L 238.8 193.6 " fill="#000000"/>
<path class="legend" d="M 246.3 193.3 L 247.9 193.3 L 247.9 194.9 L 246.3 194.9 L 246.3 193.3 " fill="#000000"/>
<path class="legend" d="M 256.9 191.0 L 258.2 191.0 L 258.2 192.3 L 256.9 192.3 L 256.9 194.9 L 255.4 194.9 L 255.4 192.3 L 249.5 192.3 L 249.5 191.3 L 254.5 183.5 L 256.9 183.5 L 256.9 191.0 M 251.4 191.0 L 255.4 191.0 L 255.4 184.6 L 251.4 191.0 " fill="#000000"/>
<path class="legend" d="M 265.5 184.8 L 259.6 184.8 L 259.6 183.5 L 267.1 183.5 L 267.1 184.7 L 262.6 194.9 L 261.0 194.9 L 265.5 184.8 " fill="#000000"/>
<path class="legend" d="" fill="#000000"/>
<path class="legend" d="M 284.3 194.9 L 282.5 194.9 L 279.2 190.2 L 275.8 194.9 L 274.1 194.9 L 278.3 189.0 L 274.4 183.5 L 276.2 183.5 L 279.2 187.8 L 282.3 183.5 L 284.1 183.5 L 280.1 189.1 L 284.3 194.9 " fill="#000000"/>
<path class="legend" d="" fill="#000000"/>
<path class="legend" d="M 295.0 195.0 Q 292.9 195.0, 291.9 193.5 Q 290.9 191.9, 290.9 189.2 Q 290.9 186.5, 291.9 184.9 Q 292.9 183.4, 295.0 183.4 Q 297.1 183.4, 298.1 184.9 Q 299.1 186.5, 299.1 189.2 Q 299.1 191.9, 298.1 193.5 Q 297.1 195.0, 295.0 195.0 M 295.0 193.7 Q 296.2 193.7, 296.9 192.6 Q 297.5 191.4, 297.5 189.2 Q 297.5 187.0, 296.9 185.8 Q 296.2 184.7, 295.0 184.7 Q 293.8 184.7, 293.1 185.8 Q 292.5 187.0, 292.5 189.2 Q 292.5 191.4, 293.1 192.6 Q 293.8 193.7, 295.0 193.7 " fill="#000000"/>
<path class="legend" d="M 300.8 193.3 L 302.4 193.3 L 302.4 194.9 L 300.8 194.9 L 300.8 193.3 " fill="#000000"/>
<path class="legend" d="M 304.6 193.6 L 307.1 193.6 L 307.1 185.1 L 304.4 186.0 L 304.0 185.0 L 307.5 183.5 L 308.6 183.7 L 308.6 193.6 L 310.8 193.6 L 310.8 194.9 L 304.6 194.9 L 304.6 193.6 " fill="#000000"/>
<path class="legend" d="M 316.5 187.8 Q 317.5 187.8, 318.3 188.2 Q 319.1 188.7, 319.5 189.4 Q 319.9 190.2, 319.9 191.2 Q 319.9 192.3, 319.4 193.2 Q 319.0 194.0, 318.1 194.5 Q 317.2 195.0, 316.1 195.0 Q 314.1 195.0, 313.1 193.6 Q 312.1 192.3, 312.1 189.5 Q 312.1 186.5, 313.3 185.0 Q 314.6 183.4, 317.0 183.4 Q 317.7 183.4, 318.3 183.6 Q 318.9 183.7, 319.5 184.1 L 318.9 185.1 Q 318.0 184.7, 317.0 184.7 Q 315.4 184.7, 314.6 185.7 Q 313.8 186.8, 313.7 188.9 Q 314.3 188.4, 315.0 188.1 Q 315.7 187.8, 316.5 187.8 M 316.1 193.7 Q 316.7 193.7, 317.2 193.4 Q 317.8 193.0, 318.0 192.5 Q 318.3 191.9, 318.3 191.2 Q 318.3 190.2, 317.8 189.7 Q 317.2 189.1, 316.2 189.1 Q 315.5 189.1, 314.8 189.4 Q 314.2 189.6, 313.7 190.1 Q 313.8 192.0, 314.3 192.8 Q 314.9 193.7, 316.1 193.7 " fill="#000000"/>
<path class="legend" d="M 321.4 187.9 L 328.7 187.9 L 328.7 189.1 L 321.4 189.1 L 321.4 187.9 M 321.4 191.3 L 328.7 191.3 L 328.7 192.5 L 321.4 192.5 L 321.4 191.3 " fill="#000000"/>
<path class="legend" d="M 334.9 195.0 Q 332.8 195.0, 331.8 193.5 Q 330.8 191.9, 330.8 189.2 Q 330.8 186.5, 331.8 184.9 Q 332.8 183.4, 334.9 183.4 Q 337.0 183.4, 338.0 184.9 Q 339.0 186.5, 339.0 189.2 Q 339.0 191.9, 338.0 193.5 Q 337.0 195.0, 334.9 195.0 M 334.9 193.7 Q 336.1 193.7, 336.8 192.6 Q 337.4 191.4, 337.4 189.2 Q 337.4 187.0, 336.8 185.8 Q 336.1 184.7, 334.9 184.7 Q 333.7 184.7, 333.0 185.8 Q 332.4 187.0, 332.4 189.2 Q 332.4 191.4, 333.0 192.6 Q 333.7 193.7, 334.9 193.7 " fill="#000000"/>
<path class="legend" d="M 340.7 193.3 L 342.3 193.3 L 342.3 194.9 L 340.7 194.9 L 340.7 193.3 " fill="#000000"/>
<path class="legend" d="M 343.9 185.7 Q 344.3 184.6, 345.3 184.0 Q 346.3 183.4, 347.7 183.4 Q 349.4 183.4, 350.4 184.3 Q 351.3 185.3, 351.3 186.9 Q 351.3 188.6, 350.1 190.2 Q 348.8 191.7, 346.3 193.6 L 351.5 193.6 L 351.5 194.9 L 343.9 194.9 L 343.9 193.8 Q 346.0 192.3, 347.2 191.2 Q 348.5 190.1, 349.1 189.0 Q 349.7 188.0, 349.7 187.0 Q 349.7 185.9, 349.2 185.3 Q 348.6 184.7, 347.7 184.7 Q 346.8 184.7, 346.2 185.1 Q 345.6 185.4, 345.1 186.2 L 343.9 185.7 " fill="#000000"/>
<path class="legend" d="M 360.4 191.0 L 361.8 191.0 L 361.8 192.3 L 360.4 192.3 L 360.4 194.9 L 358.9 194.9 L 358.9 192.3 L 353.1 192.3 L 353.1 191.3 L 358.0 183.5 L 360.4 183.5 L 360.4 191.0 M 354.9 191.0 L 358.9 191.0 L 358.9 184.6 L 354.9 191.0 " fill="#000000"/>
<path class="bond-0 atom-0 atom-1" d="M 472.3,89.9 L 488.9,89.9" style="fill:none;fill-rule:evenodd;stroke:#000000;stroke-width:2.0px;stroke-linecap:butt;stroke-linejoin:miter;stroke-opacity:1"/>
<path class="bond-0 atom-0 atom-1" d="M 488.9,89.9 L 505.5,89.9" style="fill:none;fill-rule:evenodd;stroke:#FF0000;stroke-width:2.0px;stroke-linecap:butt;stroke-linejoin:miter;stroke-opacity:1"/>
<path class="atom-1" d="M 506.8 89.9 Q 506.8 87.2, 508.2 85.7 Q 509.5 84.2, 512.0 84.2 Q 514.5 84.2, 515.8 85.7 Q 517.2 87.2, 517.2 89.9 Q 517.2 92.7, 515.8 94.2 Q 514.5 95.8, 512.0 95.8 Q 509.5 95.8, 508.2 94.2 Q 506.8 92.7, 506.8 89.9 M 512.0 94.5 Q 513.7 94.5, 514.6 93.4 Q 515.6 92.2, 515.6 89.9 Q 515.6 87.7, 514.6 86.6 Q 513.7 85.5, 512.0 85.5 Q 510.3 85.5, 509.4 86.6 Q 508.4 87.7, 508.4 89.9 Q 508.4 92.2, 509.4 93.4 Q 510.3 94.5, 512.0 94.5 " fill="#FF0000"/>
<path class="atom-1" d="M 518.9 84.3 L 520.5 84.3 L 520.5 89.1 L 526.2 89.1 L 526.2 84.3 L 527.7 84.3 L 527.7 95.6 L 526.2 95.6 L 526.2 90.4 L 520.5 90.4 L 520.5 95.6 L 518.9 95.6 L 518.9 84.3 " fill="#FF0000"/>
<path class="legend" d="M 432.2 189.1 L 438.1 189.1 L 438.1 190.4 L 432.2 190.4 L 432.2 189.1 " fill="#000000"/>
<path class="legend" d="M 443.6 187.8 Q 444.6 187.8, 445.4 188.2 Q 446.2 188.6, 446.7 189.4 Q 447.1 190.2, 447.1 191.3 Q 447.1 192.5, 446.6 193.3 Q 446.0 194.1, 445.1 194.6 Q 444.1 195.0, 443.1 195.0 Q 442.1 195.0, 441.1 194.6 Q 440.1 194.2, 439.5 193.5 L 440.4 192.5 Q 441.0 193.1, 441.7 193.4 Q 442.4 193.7, 443.1 193.7 Q 444.1 193.7, 444.8 193.1 Q 445.5 192.5, 445.5 191.3 Q 445.5 190.1, 444.8 189.6 Q 444.1 189.0, 443.0 189.0 Q 442.1 189.0, 440.9 189.4 L 440.1 189.0 L 440.6 183.5 L 446.4 183.5 L 446.3 184.8 L 441.9 184.8 L 441.6 188.2 Q 442.6 187.8, 443.6 187.8 " fill="#000000"/>
<path class="legend" d="M 448.5 193.3 L 450.1 193.3 L 450.1 194.9 L 448.5 194.9 L 448.5 193.3 " fill="#000000"/>
<path class="legend" d="M 452.3 193.6 L 454.8 193.6 L 454.8 185.1 L 452.1 186.0 L 451.7 185.0 L 455.2 183.5 L 456.3 183.7 L 456.3 193.6 L 458.5 193.6 L 458.5 194.9 L 452.3 194.9 L 452.3 193.6 " fill="#000000"/>
<path class="legend" d="M 463.9 195.0 Q 461.8 195.0, 460.8 193.5 Q 459.8 191.9, 459.8 189.2 Q 459.8 186.5, 460.8 184.9 Q 461.8 183.4, 463.9 183.4 Q 466.0 183.4, 467.0 184.9 Q 468.0 186.5, 468.0 189.2 Q 468.0 191.9, 467.0 193.5 Q 466.0 195.0, 463.9 195.0 M 463.9 193.7 Q 465.1 193.7, 465.8 192.6 Q 466.4 191.4, 466.4 189.2 Q 466.4 187.0, 465.8 185.8 Q 465.1 184.7, 463.9 184.7 Q 462.7 184.7, 462.0 185.8 Q 461.4 187.0, 461.4 189.2 Q 461.4 191.4, 462.0 192.6 Q 462.7 193.7, 463.9 193.7 " fill="#000000"/>
<path class="legend" d="" fill="#000000"/>
<path class="legend" d="M 485.8 194.9 L 484.0 194.9 L 480.6 190.2 L 477.3 194.9 L 475.6 194.9 L 479.8 189.0 L 475.9 183.5 L 477.6 183.5 L 480.7 187.8 L 483.8 183.5 L 485.5 183.5 L 481.6 189.1 L 485.8 194.9 " fill="#000000"/>
<path class="legend" d="" fill="#000000"/>
<path class="legend" d="M 496.4 195.0 Q 494.4 195.0, 493.3 193.5 Q 492.3 191.9, 492.3 189.2 Q 492.3 186.5, 493.3 184.9 Q 494.3 183.4, 496.4 183.4 Q 498.5 183.4, 499.6 184.9 Q 500.6 186.5, 500.6 189.2 Q 500.6 191.9, 499.5 193.5 Q 498.5 195.0, 496.4 195.0 M 496.4 193.7 Q 497.7 193.7, 498.3 192.6 Q 499.0 191.4, 499.0 189.2 Q 499.0 187.0, 498.3 185.8 Q 497.7 184.7, 496.4 184.7 Q 495.2 184.7, 494.6 185.8 Q 493.9 187.0, 493.9 189.2 Q 493.9 191.4, 494.6 192.6 Q 495.2 193.7, 496.4 193.7 " fill="#000000"/>
<path class="legend" d="M 502.2 193.3 L 503.8 193.3 L 503.8 194.9 L 502.2 194.9 L 502.2 193.3 " fill="#000000"/>
<path class="legend" d="M 506.0 193.6 L 508.5 193.6 L 508.5 185.1 L 505.8 186.0 L 505.4 185.0 L 508.9 183.5 L 510.0 183.7 L 510.0 193.6 L 512.2 193.6 L 512.2 194.9 L 506.0 194.9 L 506.0 193.6 " fill="#000000"/>
<path class="legend" d="M 514.1 193.6 L 516.6 193.6 L 516.6 185.1 L 513.8 186.0 L 513.5 185.0 L 516.9 183.5 L 518.1 183.7 L 518.1 193.6 L 520.3 193.6 L 520.3 194.9 L 514.1 194.9 L 514.1 193.6 " fill="#000000"/>
<path class="legend" d="M 521.5 187.9 L 528.9 187.9 L 528.9 189.1 L 521.5 189.1 L 521.5 187.9 M 521.5 191.3 L 528.9 191.3 L 528.9 192.5 L 521.5 192.5 L 521.5 191.3 " fill="#000000"/>
<path class="legend" d="M 530.9 189.1 L 536.8 189.1 L 536.8 190.4 L 530.9 190.4 L 530.9 189.1 " fill="#000000"/>
<path class="legend" d="M 542.3 195.0 Q 540.2 195.0, 539.2 193.5 Q 538.1 191.9, 538.1 189.2 Q 538.1 186.5, 539.2 184.9 Q 540.2 183.4, 542.3 183.4 Q 544.4 183.4, 545.4 184.9 Q 546.4 186.5, 546.4 189.2 Q 546.4 191.9, 545.4 193.5 Q 544.4 195.0, 542.3 195.0 M 542.3 193.7 Q 543.5 193.7, 544.2 192.6 Q 544.8 191.4, 544.8 189.2 Q 544.8 187.0, 544.2 185.8 Q 543.5 184.7, 542.3 184.7 Q 541.1 184.7, 540.4 185.8 Q 539.7 187.0, 539.7 189.2 Q 539.7 191.4, 540.4 192.6 Q 541.1 193.7, 542.3 193.7 " fill="#000000"/>
<path class="legend" d="M 548.0 193.3 L 549.6 193.3 L 549.6 194.9 L 548.0 194.9 L 548.0 193.3 " fill="#000000"/>
<path class="legend" d="M 555.4 187.8 Q 556.3 187.8, 557.2 188.2 Q 558.0 188.6, 558.4 189.4 Q 558.9 190.2, 558.9 191.3 Q 558.9 192.5, 558.3 193.3 Q 557.8 194.1, 556.8 194.6 Q 555.9 195.0, 554.9 195.0 Q 553.8 195.0, 552.9 194.6 Q 551.9 194.2, 551.2 193.5 L 552.2 192.5 Q 552.7 193.1, 553.5 193.4 Q 554.2 193.7, 554.9 193.7 Q 555.9 193.7, 556.6 193.1 Q 557.3 192.5, 557.3 191.3 Q 557.3 190.1, 556.6 189.6 Q 555.9 189.0, 554.8 189.0 Q 553.8 189.0, 552.7 189.4 L 551.8 189.0 L 552.4 183.5 L 558.2 183.5 L 558.0 184.8 L 553.7 184.8 L 553.4 188.2 Q 554.4 187.8, 555.4 187.8 " fill="#000000"/>
<path class="legend" d="M 566.2 184.8 L 560.2 184.8 L 560.2 183.5 L 567.8 183.5 L 567.8 184.7 L 563.2 194.9 L 561.7 194.9 L 566.2 184.8 " fill="#000000"/>
<path class="bond-0 atom-0 atom-1" d="M 609.1,53.6 L 648.5,58.8" style="fill:none;fill-rule:evenodd;stroke:#000000;stroke-width:2.0px;stroke-linecap:butt;stroke-linejoin:miter;stroke-opacity:1"/>
<path class="bond-1 atom-1 atom-2" d="M 648.5,58.8 L 654.7,73.6" style="fill:none;fill-rule:evenodd;stroke:#000000;stroke-width:2.0px;stroke-linecap:butt;stroke-linejoin:miter;stroke-opacity:1"/>
<path class="bond-1 atom-1 atom-2" d="M 654.7,73.6 L 660.8,88.5" style="fill:none;fill-rule:evenodd;stroke:#FF0000;stroke-width:2.0px;stroke-linecap:butt;stroke-linejoin:miter;stroke-opacity:1"/>
<path class="bond-2 atom-2 atom-3" d="M 670.2,96.3 L 686.7,98.5" style="fill:none;fill-rule:evenodd;stroke:#FF0000;stroke-width:2.0px;stroke-linecap:butt;stroke-linejoin:miter;stroke-opacity:1"/>
<path class="bond-2 atom-2 atom-3" d="M 686.7,98.5 L 703.2,100.6" style="fill:none;fill-rule:evenodd;stroke:#000000;stroke-width:2.0px;stroke-linecap:butt;stroke-linejoin:miter;stroke-opacity:1"/>
<path class="bond-3 atom-3 atom-4" d="M 703.2,100.6 L 718.4,137.3" style="fill:none;fill-rule:evenodd;stroke:#000000;stroke-width:2.0px;stroke-linecap:butt;stroke-linejoin:miter;stroke-opacity:1"/>
<path class="bond-4 atom-3 atom-5" d="M 703.2,100.6 L 712.5,88.4" style="fill:none;fill-rule:evenodd;stroke:#000000;stroke-width:2.0px;stroke-linecap:butt;stroke-linejoin:miter;stroke-opacity:1"/>
<path class="bond-4 atom-3 atom-5" d="M 712.5,88.4 L 721.8,76.3" style="fill:none;fill-rule:evenodd;stroke:#FF0000;stroke-width:2.0px;stroke-linecap:butt;stroke-linejoin:miter;stroke-opacity:1"/>
<path class="bond-5 atom-5 atom-6" d="M 733.8,69.9 L 750.3,72.1" style="fill:none;fill-rule:evenodd;stroke:#FF0000;stroke-width:2.0px;stroke-linecap:butt;stroke-linejoin:miter;stroke-opacity:1"/>
<path class="bond-5 atom-5 atom-6" d="M 750.3,72.1 L 766.7,74.2" style="fill:none;fill-rule:evenodd;stroke:#000000;stroke-width:2.0px;stroke-linecap:butt;stroke-linejoin:miter;stroke-opacity:1"/>
<path class="bond-6 atom-6 atom-7" d="M 766.7,74.2 L 790.9,42.7" style="fill:none;fill-rule:evenodd;stroke:#000000;stroke-width:2.0px;stroke-linecap:butt;stroke-linejoin:miter;stroke-opacity:1"/>
<path d="M 646.5,58.5 L 648.5,58.8 L 648.8,59.5" style="fill:none;stroke:#000000;stroke-width:2.0px;stroke-linecap:butt;stroke-linejoin:miter;stroke-opacity:1;"/>
<path d="M 765.9,74.1 L 766.7,74.2 L 768.0,72.6" style="fill:none;stroke:#000000;stroke-width:2.0px;stroke-linecap:butt;stroke-linejoin:miter;stroke-opacity:1;"/>
<path class="atom-2" d="M 658.6 95.5 Q 658.6 92.8, 659.9 91.3 Q 661.3 89.8, 663.8 89.8 Q 666.2 89.8, 667.6 91.3 Q 668.9 92.8, 668.9 95.5 Q 668.9 98.2, 667.6 99.8 Q 666.2 101.4, 663.8 101.4 Q 661.3 101.4, 659.9 99.8 Q 658.6 98.3, 658.6 95.5 M 663.8 100.1 Q 665.5 100.1, 666.4 98.9 Q 667.3 97.8, 667.3 95.5 Q 667.3 93.3, 666.4 92.2 Q 665.5 91.1, 663.8 91.1 Q 662.0 91.1, 661.1 92.2 Q 660.2 93.3, 660.2 95.5 Q 660.2 97.8, 661.1 98.9 Q 662.0 100.1, 663.8 100.1 " fill="#FF0000"/>
<path class="atom-5" d="M 722.2 69.1 Q 722.2 66.4, 723.5 64.9 Q 724.8 63.4, 727.3 63.4 Q 729.8 63.4, 731.2 64.9 Q 732.5 66.4, 732.5 69.1 Q 732.5 71.8, 731.1 73.4 Q 729.8 74.9, 727.3 74.9 Q 724.9 74.9, 723.5 73.4 Q 722.2 71.9, 722.2 69.1 M 727.3 73.7 Q 729.0 73.7, 730.0 72.5 Q 730.9 71.4, 730.9 69.1 Q 730.9 66.9, 730.0 65.8 Q 729.0 64.7, 727.3 64.7 Q 725.6 64.7, 724.7 65.8 Q 723.8 66.9, 723.8 69.1 Q 723.8 71.4, 724.7 72.5 Q 725.6 73.7, 727.3 73.7 " fill="#FF0000"/>
<path class="legend" d="M 630.7 189.1 L 636.5 189.1 L 636.5 190.4 L 630.7 190.4 L 630.7 189.1 " fill="#000000"/>
<path class="legend" d="M 643.4 188.9 Q 644.5 189.2, 645.0 189.9 Q 645.5 190.6, 645.5 191.7 Q 645.5 192.7, 645.1 193.4 Q 644.6 194.2, 643.7 194.6 Q 642.8 195.0, 641.7 195.0 Q 640.5 195.0, 639.5 194.6 Q 638.6 194.2, 637.9 193.3 L 638.8 192.4 Q 639.5 193.1, 640.1 193.4 Q 640.7 193.7, 641.7 193.7 Q 642.7 193.7, 643.3 193.2 Q 643.9 192.6, 643.9 191.7 Q 643.9 190.6, 643.3 190.1 Q 642.6 189.5, 641.3 189.5 L 640.4 189.5 L 640.4 188.4 L 641.2 188.4 Q 642.4 188.4, 643.0 187.8 Q 643.7 187.3, 643.7 186.3 Q 643.7 185.5, 643.2 185.1 Q 642.6 184.7, 641.7 184.7 Q 640.7 184.7, 640.1 185.0 Q 639.6 185.3, 639.1 186.2 L 638.0 185.6 Q 638.4 184.6, 639.4 184.0 Q 640.3 183.4, 641.7 183.4 Q 643.3 183.4, 644.3 184.2 Q 645.3 185.0, 645.3 186.3 Q 645.3 187.2, 644.8 187.8 Q 644.3 188.5, 643.4 188.9 " fill="#000000"/>
<path class="legend" d="M 647.1 193.2 L 648.7 193.2 L 648.7 194.8 L 647.1 194.8 L 647.1 193.2 " fill="#000000"/>
<path class="legend" d="M 650.3 185.7 Q 650.7 184.6, 651.7 184.0 Q 652.7 183.4, 654.1 183.4 Q 655.8 183.4, 656.8 184.3 Q 657.7 185.2, 657.7 186.9 Q 657.7 188.6, 656.5 190.1 Q 655.2 191.7, 652.7 193.6 L 657.9 193.6 L 657.9 194.8 L 650.3 194.8 L 650.3 193.8 Q 652.4 192.3, 653.6 191.1 Q 654.9 190.0, 655.5 189.0 Q 656.1 188.0, 656.1 187.0 Q 656.1 185.9, 655.6 185.3 Q 655.0 184.7, 654.1 184.7 Q 653.2 184.7, 652.6 185.0 Q 652.0 185.4, 651.5 186.2 L 650.3 185.7 " fill="#000000"/>
<path class="legend" d="M 665.2 188.8 Q 666.3 189.3, 666.9 190.0 Q 667.5 190.6, 667.5 191.7 Q 667.5 192.7, 667.0 193.4 Q 666.5 194.2, 665.6 194.6 Q 664.7 195.0, 663.5 195.0 Q 661.6 195.0, 660.5 194.1 Q 659.5 193.3, 659.5 191.7 Q 659.5 190.8, 659.9 190.1 Q 660.4 189.4, 661.4 188.9 Q 660.7 188.5, 660.3 187.9 Q 659.9 187.2, 659.9 186.3 Q 659.9 185.0, 660.8 184.2 Q 661.8 183.4, 663.5 183.4 Q 665.1 183.4, 666.1 184.2 Q 667.0 185.0, 667.0 186.3 Q 667.0 187.1, 666.6 187.7 Q 666.1 188.3, 665.2 188.8 M 663.5 184.6 Q 662.5 184.6, 662.0 185.0 Q 661.5 185.5, 661.5 186.3 Q 661.5 186.9, 661.8 187.3 Q 662.2 187.7, 662.7 187.9 Q 663.2 188.1, 664.2 188.4 Q 664.8 188.0, 665.1 187.4 Q 665.4 186.9, 665.4 186.3 Q 665.4 185.5, 664.9 185.0 Q 664.4 184.6, 663.5 184.6 M 663.5 193.8 Q 664.6 193.8, 665.2 193.2 Q 665.9 192.7, 665.9 191.7 Q 665.9 191.1, 665.5 190.7 Q 665.2 190.3, 664.7 190.1 Q 664.2 189.9, 663.3 189.6 L 662.6 189.4 Q 661.8 189.8, 661.4 190.4 Q 661.1 191.0, 661.1 191.7 Q 661.1 192.7, 661.7 193.2 Q 662.4 193.8, 663.5 193.8 " fill="#000000"/>
<path class="legend" d="" fill="#000000"/>
<path class="legend" d="M 685.2 194.8 L 683.4 194.8 L 680.0 190.2 L 676.7 194.8 L 675.0 194.8 L 679.2 188.9 L 675.3 183.5 L 677.0 183.5 L 680.1 187.8 L 683.2 183.5 L 684.9 183.5 L 681.0 189.0 L 685.2 194.8 " fill="#000000"/>
<path class="legend" d="" fill="#000000"/>
<path class="legend" d="M 695.9 195.0 Q 693.8 195.0, 692.7 193.4 Q 691.7 191.9, 691.7 189.2 Q 691.7 186.4, 692.7 184.9 Q 693.8 183.4, 695.9 183.4 Q 698.0 183.4, 699.0 184.9 Q 700.0 186.4, 700.0 189.2 Q 700.0 191.9, 699.0 193.4 Q 697.9 195.0, 695.9 195.0 M 695.9 193.7 Q 697.1 193.7, 697.7 192.6 Q 698.4 191.4, 698.4 189.2 Q 698.4 186.9, 697.7 185.8 Q 697.1 184.7, 695.9 184.7 Q 694.6 184.7, 694.0 185.8 Q 693.3 186.9, 693.3 189.2 Q 693.3 191.4, 694.0 192.6 Q 694.6 193.7, 695.9 193.7 " fill="#000000"/>
<path class="legend" d="M 701.6 193.2 L 703.2 193.2 L 703.2 194.8 L 701.6 194.8 L 701.6 193.2 " fill="#000000"/>
<path class="legend" d="M 705.5 193.6 L 707.9 193.6 L 707.9 185.1 L 705.2 185.9 L 704.8 185.0 L 708.3 183.4 L 709.5 183.6 L 709.5 193.6 L 711.7 193.6 L 711.7 194.8 L 705.5 194.8 L 705.5 193.6 " fill="#000000"/>
<path class="legend" d="M 717.1 195.0 Q 715.0 195.0, 713.9 193.4 Q 712.9 191.9, 712.9 189.2 Q 712.9 186.4, 713.9 184.9 Q 715.0 183.4, 717.1 183.4 Q 719.2 183.4, 720.2 184.9 Q 721.2 186.4, 721.2 189.2 Q 721.2 191.9, 720.2 193.4 Q 719.1 195.0, 717.1 195.0 M 717.1 193.7 Q 718.3 193.7, 719.0 192.6 Q 719.6 191.4, 719.6 189.2 Q 719.6 186.9, 719.0 185.8 Q 718.3 184.7, 717.1 184.7 Q 715.9 184.7, 715.2 185.8 Q 714.5 186.9, 714.5 189.2 Q 714.5 191.4, 715.2 192.6 Q 715.9 193.7, 717.1 193.7 " fill="#000000"/>
<path class="legend" d="M 722.8 187.9 L 730.2 187.9 L 730.2 189.0 L 722.8 189.0 L 722.8 187.9 M 722.8 191.3 L 730.2 191.3 L 730.2 192.5 L 722.8 192.5 L 722.8 191.3 " fill="#000000"/>
<path class="legend" d="M 732.2 189.1 L 738.1 189.1 L 738.1 190.4 L 732.2 190.4 L 732.2 189.1 " fill="#000000"/>
<path class="legend" d="M 743.6 195.0 Q 741.5 195.0, 740.5 193.4 Q 739.4 191.9, 739.4 189.2 Q 739.4 186.4, 740.5 184.9 Q 741.5 183.4, 743.6 183.4 Q 745.7 183.4, 746.7 184.9 Q 747.7 186.4, 747.7 189.2 Q 747.7 191.9, 746.7 193.4 Q 745.7 195.0, 743.6 195.0 M 743.6 193.7 Q 744.8 193.7, 745.5 192.6 Q 746.1 191.4, 746.1 189.2 Q 746.1 186.9, 745.5 185.8 Q 744.8 184.7, 743.6 184.7 Q 742.4 184.7, 741.7 185.8 Q 741.0 186.9, 741.0 189.2 Q 741.0 191.4, 741.7 192.6 Q 742.4 193.7, 743.6 193.7 " fill="#000000"/>
<path class="legend" d="M 749.4 193.2 L 751.0 193.2 L 751.0 194.8 L 749.4 194.8 L 749.4 193.2 " fill="#000000"/>
<path class="legend" d="M 758.0 188.9 Q 759.1 189.2, 759.6 189.9 Q 760.2 190.6, 760.2 191.7 Q 760.2 192.7, 759.7 193.4 Q 759.2 194.2, 758.3 194.6 Q 757.5 195.0, 756.3 195.0 Q 755.1 195.0, 754.2 194.6 Q 753.3 194.2, 752.6 193.3 L 753.5 192.4 Q 754.2 193.1, 754.8 193.4 Q 755.4 193.7, 756.3 193.7 Q 757.3 193.7, 758.0 193.2 Q 758.6 192.6, 758.6 191.7 Q 758.6 190.6, 757.9 190.1 Q 757.3 189.5, 755.9 189.5 L 755.1 189.5 L 755.1 188.4 L 755.8 188.4 Q 757.0 188.4, 757.7 187.8 Q 758.3 187.3, 758.3 186.3 Q 758.3 185.5, 757.8 185.1 Q 757.3 184.7, 756.3 184.7 Q 755.4 184.7, 754.8 185.0 Q 754.2 185.3, 753.8 186.2 L 752.7 185.6 Q 753.1 184.6, 754.0 184.0 Q 755.0 183.4, 756.3 183.4 Q 758.0 183.4, 759.0 184.2 Q 759.9 185.0, 759.9 186.3 Q 759.9 187.2, 759.5 187.8 Q 759.0 188.5, 758.0 188.9 " fill="#000000"/>
<path class="legend" d="M 767.2 188.9 Q 768.3 189.2, 768.8 189.9 Q 769.3 190.6, 769.3 191.7 Q 769.3 192.7, 768.8 193.4 Q 768.4 194.2, 767.5 194.6 Q 766.6 195.0, 765.5 195.0 Q 764.2 195.0, 763.3 194.6 Q 762.4 194.2, 761.7 193.3 L 762.6 192.4 Q 763.3 193.1, 763.9 193.4 Q 764.5 193.7, 765.5 193.7 Q 766.5 193.7, 767.1 193.2 Q 767.7 192.6, 767.7 191.7 Q 767.7 190.6, 767.1 190.1 Q 766.4 189.5, 765.0 189.5 L 764.2 189.5 L 764.2 188.4 L 764.9 188.4 Q 766.2 188.4, 766.8 187.8 Q 767.5 187.3, 767.5 186.3 Q 767.5 185.5, 766.9 185.1 Q 766.4 184.7, 765.5 184.7 Q 764.5 184.7, 763.9 185.0 Q 763.4 185.3, 762.9 186.2 L 761.8 185.6 Q 762.2 184.6, 763.2 184.0 Q 764.1 183.4, 765.5 183.4 Q 767.1 183.4, 768.1 184.2 Q 769.1 185.0, 769.1 186.3 Q 769.1 187.2, 768.6 187.8 Q 768.1 188.5, 767.2 188.9 " fill="#000000"/>
<path class="bond-0 atom-0 atom-1" d="M 81.9,289.9 L 121.7,289.9" style="fill:none;fill-rule:evenodd;stroke:#000000;stroke-width:2.0px;stroke-linecap:butt;stroke-linejoin:miter;stroke-opacity:1"/>
<path class="bond-0 atom-0 atom-1" d="M 85.4,284.0 L 118.2,284.0" style="fill:none;fill-rule:evenodd;stroke:#000000;stroke-width:2.0px;stroke-linecap:butt;stroke-linejoin:miter;stroke-opacity:1"/>
<path class="bond-1 atom-1 atom-2" d="M 121.7,289.9 L 129.7,303.8" style="fill:none;fill-rule:evenodd;stroke:#000000;stroke-width:2.0px;stroke-linecap:butt;stroke-linejoin:miter;stroke-opacity:1"/>
<path class="bond-1 atom-1 atom-2" d="M 129.7,303.8 L 137.7,317.7" style="fill:none;fill-rule:evenodd;stroke:#00CC00;stroke-width:2.0px;stroke-linecap:butt;stroke-linejoin:miter;stroke-opacity:1"/>
<path class="bond-2 atom-1 atom-3" d="M 121.7,289.9 L 129.5,276.5" style="fill:none;fill-rule:evenodd;stroke:#000000;stroke-width:2.0px;stroke-linecap:butt;stroke-linejoin:miter;stroke-opacity:1"/>
<path class="bond-2 atom-1 atom-3" d="M 129.5,276.5 L 137.2,263.0" style="fill:none;fill-rule:evenodd;stroke:#00CC00;stroke-width:2.0px;stroke-linecap:butt;stroke-linejoin:miter;stroke-opacity:1"/>
<path class="bond-3 atom-0 atom-4" d="M 81.9,289.9 L 73.0,274.5" style="fill:none;fill-rule:evenodd;stroke:#000000;stroke-width:2.0px;stroke-linecap:butt;stroke-linejoin:miter;stroke-opacity:1"/>
<path class="bond-3 atom-0 atom-4" d="M 73.0,274.5 L 64.1,259.0" style="fill:none;fill-rule:evenodd;stroke:#00CC00;stroke-width:2.0px;stroke-linecap:butt;stroke-linejoin:miter;stroke-opacity:1"/>
<path class="bond-4 atom-0 atom-5" d="M 81.9,289.9 L 73.0,305.4" style="fill:none;fill-rule:evenodd;stroke:#000000;stroke-width:2.0px;stroke-linecap:butt;stroke-linejoin:miter;stroke-opacity:1"/>
<path class="bond-4 atom-0 atom-5" d="M 73.0,305.4 L 64.1,320.8" style="fill:none;fill-rule:evenodd;stroke:#00CC00;stroke-width:2.0px;stroke-linecap:butt;stroke-linejoin:miter;stroke-opacity:1"/>
<path class="atom-2" d="M 137.2 324.7 Q 137.2 321.9, 138.5 320.5 Q 139.8 319.0, 142.3 319.0 Q 144.7 319.0, 145.9 320.6 L 144.8 321.5 Q 143.9 320.3, 142.3 320.3 Q 140.6 320.3, 139.7 321.4 Q 138.8 322.6, 138.8 324.7 Q 138.8 327.0, 139.8 328.1 Q 140.7 329.3, 142.5 329.3 Q 143.7 329.3, 145.2 328.5 L 145.6 329.7 Q 145.1 330.1, 144.2 330.3 Q 143.3 330.5, 142.3 330.5 Q 139.8 330.5, 138.5 329.0 Q 137.2 327.5, 137.2 324.7 " fill="#00CC00"/>
<path class="atom-2" d="M 147.0 318.3 L 148.5 318.3 L 148.5 330.4 L 147.0 330.4 L 147.0 318.3 " fill="#00CC00"/>
<path class="atom-3" d="M 137.2 255.9 Q 137.2 253.1, 138.5 251.6 Q 139.8 250.2, 142.3 250.2 Q 144.7 250.2, 145.9 251.8 L 144.8 252.7 Q 143.9 251.5, 142.3 251.5 Q 140.6 251.5, 139.7 252.6 Q 138.8 253.7, 138.8 255.9 Q 138.8 258.1, 139.8 259.3 Q 140.7 260.4, 142.5 260.4 Q 143.7 260.4, 145.2 259.7 L 145.6 260.9 Q 145.1 261.2, 144.2 261.5 Q 143.3 261.7, 142.3 261.7 Q 139.8 261.7, 138.5 260.2 Q 137.2 258.7, 137.2 255.9 " fill="#00CC00"/>
<path class="atom-3" d="M 147.0 249.5 L 148.5 249.5 L 148.5 261.5 L 147.0 261.5 L 147.0 249.5 " fill="#00CC00"/>
<path class="atom-4" d="M 51.5 255.9 Q 51.5 253.1, 52.8 251.6 Q 54.1 250.2, 56.6 250.2 Q 58.9 250.2, 60.2 251.8 L 59.1 252.7 Q 58.2 251.5, 56.6 251.5 Q 54.9 251.5, 54.0 252.6 Q 53.1 253.7, 53.1 255.9 Q 53.1 258.1, 54.0 259.3 Q 55.0 260.4, 56.8 260.4 Q 58.0 260.4, 59.5 259.7 L 59.9 260.9 Q 59.3 261.2, 58.4 261.5 Q 57.6 261.7, 56.6 261.7 Q 54.1 261.7, 52.8 260.2 Q 51.5 258.7, 51.5 255.9 " fill="#00CC00"/>
<path class="atom-4" d="M 61.3 249.5 L 62.8 249.5 L 62.8 261.5 L 61.3 261.5 L 61.3 249.5 " fill="#00CC00"/>
<path class="atom-5" d="M 51.5 324.7 Q 51.5 321.9, 52.8 320.5 Q 54.1 319.0, 56.6 319.0 Q 58.9 319.0, 60.2 320.6 L 59.1 321.5 Q 58.2 320.3, 56.6 320.3 Q 54.9 320.3, 54.0 321.4 Q 53.1 322.6, 53.1 324.7 Q 53.1 327.0, 54.0 328.1 Q 55.0 329.3, 56.8 329.3 Q 58.0 329.3, 59.5 328.5 L 59.9 329.7 Q 59.3 330.1, 58.4 330.3 Q 57.6 330.5, 56.6 330.5 Q 54.1 330.5, 52.8 329.0 Q 51.5 327.5, 51.5 324.7 " fill="#00CC00"/>
<path class="atom-5" d="M 61.3 318.3 L 62.8 318.3 L 62.8 330.4 L 61.3 330.4 L 61.3 318.3 " fill="#00CC00"/>
<path class="legend" d="M 41.3 395.0 Q 39.2 395.0, 38.2 393.5 Q 37.2 391.9, 37.2 389.2 Q 37.2 386.5, 38.2 384.9 Q 39.2 383.4, 41.3 383.4 Q 43.4 383.4, 44.4 384.9 Q 45.5 386.5, 45.5 389.2 Q 45.5 391.9, 44.4 393.5 Q 43.4 395.0, 41.3 395.0 M 41.3 393.7 Q 42.5 393.7, 43.2 392.6 Q 43.9 391.4, 43.9 389.2 Q 43.9 387.0, 43.2 385.8 Q 42.5 384.7, 41.3 384.7 Q 40.1 384.7, 39.4 385.8 Q 38.8 387.0, 38.8 389.2 Q 38.8 391.4, 39.4 392.6 Q 40.1 393.7, 41.3 393.7 " fill="#000000"/>
<path class="legend" d="M 47.1 393.3 L 48.7 393.3 L 48.7 394.9 L 47.1 394.9 L 47.1 393.3 " fill="#000000"/>
<path class="legend" d="M 50.9 393.6 L 53.4 393.6 L 53.4 385.1 L 50.7 386.0 L 50.3 385.0 L 53.8 383.5 L 54.9 383.7 L 54.9 393.6 L 57.1 393.6 L 57.1 394.9 L 50.9 394.9 L 50.9 393.6 " fill="#000000"/>
<path class="legend" d="M 62.5 395.0 Q 60.5 395.0, 59.4 393.5 Q 58.4 391.9, 58.4 389.2 Q 58.4 386.5, 59.4 384.9 Q 60.4 383.4, 62.5 383.4 Q 64.6 383.4, 65.7 384.9 Q 66.7 386.5, 66.7 389.2 Q 66.7 391.9, 65.6 393.5 Q 64.6 395.0, 62.5 395.0 M 62.5 393.7 Q 63.8 393.7, 64.4 392.6 Q 65.1 391.4, 65.1 389.2 Q 65.1 387.0, 64.4 385.8 Q 63.8 384.7, 62.5 384.7 Q 61.3 384.7, 60.7 385.8 Q 60.0 387.0, 60.0 389.2 Q 60.0 391.4, 60.7 392.6 Q 61.3 393.7, 62.5 393.7 " fill="#000000"/>
<path class="legend" d="" fill="#000000"/>
<path class="legend" d="M 84.4 394.9 L 82.7 394.9 L 79.3 390.2 L 76.0 394.9 L 74.2 394.9 L 78.4 389.0 L 74.5 383.5 L 76.3 383.5 L 79.4 387.8 L 82.4 383.5 L 84.2 383.5 L 80.3 389.1 L 84.4 394.9 " fill="#000000"/>
<path class="legend" d="" fill="#000000"/>
<path class="legend" d="M 95.1 395.0 Q 93.1 395.0, 92.0 393.5 Q 91.0 391.9, 91.0 389.2 Q 91.0 386.5, 92.0 384.9 Q 93.0 383.4, 95.1 383.4 Q 97.2 383.4, 98.3 384.9 Q 99.3 386.5, 99.3 389.2 Q 99.3 391.9, 98.2 393.5 Q 97.2 395.0, 95.1 395.0 M 95.1 393.7 Q 96.4 393.7, 97.0 392.6 Q 97.7 391.4, 97.7 389.2 Q 97.7 387.0, 97.0 385.8 Q 96.4 384.7, 95.1 384.7 Q 93.9 384.7, 93.3 385.8 Q 92.6 387.0, 92.6 389.2 Q 92.6 391.4, 93.3 392.6 Q 93.9 393.7, 95.1 393.7 " fill="#000000"/>
<path class="legend" d="M 100.9 393.3 L 102.5 393.3 L 102.5 394.9 L 100.9 394.9 L 100.9 393.3 " fill="#000000"/>
<path class="legend" d="M 108.3 395.0 Q 106.2 395.0, 105.2 393.5 Q 104.1 391.9, 104.1 389.2 Q 104.1 386.5, 105.2 384.9 Q 106.2 383.4, 108.3 383.4 Q 110.4 383.4, 111.4 384.9 Q 112.4 386.5, 112.4 389.2 Q 112.4 391.9, 111.4 393.5 Q 110.4 395.0, 108.3 395.0 M 108.3 393.7 Q 109.5 393.7, 110.2 392.6 Q 110.8 391.4, 110.8 389.2 Q 110.8 387.0, 110.2 385.8 Q 109.5 384.7, 108.3 384.7 Q 107.1 384.7, 106.4 385.8 Q 105.7 387.0, 105.7 389.2 Q 105.7 391.4, 106.4 392.6 Q 107.1 393.7, 108.3 393.7 " fill="#000000"/>
<path class="legend" d="M 117.9 383.4 Q 119.9 383.4, 120.9 384.8 Q 121.9 386.2, 121.9 388.9 Q 121.9 391.9, 120.6 393.4 Q 119.4 395.0, 117.0 395.0 Q 116.3 395.0, 115.7 394.8 Q 115.1 394.7, 114.5 394.3 L 115.1 393.3 Q 116.0 393.7, 117.0 393.7 Q 118.6 393.7, 119.4 392.7 Q 120.2 391.7, 120.3 389.5 Q 119.7 390.1, 119.0 390.3 Q 118.3 390.6, 117.5 390.6 Q 116.5 390.6, 115.7 390.2 Q 114.9 389.8, 114.5 389.0 Q 114.1 388.2, 114.1 387.2 Q 114.1 386.1, 114.5 385.2 Q 115.0 384.4, 115.9 383.9 Q 116.8 383.4, 117.9 383.4 M 115.7 387.2 Q 115.7 388.2, 116.2 388.8 Q 116.8 389.3, 117.8 389.3 Q 118.5 389.3, 119.1 389.1 Q 119.8 388.8, 120.3 388.3 Q 120.2 386.4, 119.6 385.6 Q 119.0 384.7, 117.8 384.7 Q 117.2 384.7, 116.7 385.0 Q 116.2 385.4, 115.9 385.9 Q 115.7 386.5, 115.7 387.2 " fill="#000000"/>
<path class="legend" d="M 123.6 387.9 L 130.9 387.9 L 130.9 389.1 L 123.6 389.1 L 123.6 387.9 M 123.6 391.3 L 130.9 391.3 L 130.9 392.5 L 123.6 392.5 L 123.6 391.3 " fill="#000000"/>
<path class="legend" d="M 137.1 395.0 Q 135.0 395.0, 134.0 393.5 Q 132.9 391.9, 132.9 389.2 Q 132.9 386.5, 134.0 384.9 Q 135.0 383.4, 137.1 383.4 Q 139.2 383.4, 140.2 384.9 Q 141.2 386.5, 141.2 389.2 Q 141.2 391.9, 140.2 393.5 Q 139.2 395.0, 137.1 395.0 M 137.1 393.7 Q 138.3 393.7, 139.0 392.6 Q 139.6 391.4, 139.6 389.2 Q 139.6 387.0, 139.0 385.8 Q 138.3 384.7, 137.1 384.7 Q 135.9 384.7, 135.2 385.8 Q 134.5 387.0, 134.5 389.2 Q 134.5 391.4, 135.2 392.6 Q 135.9 393.7, 137.1 393.7 " fill="#000000"/>
<path class="legend" d="M 142.9 393.3 L 144.5 393.3 L 144.5 394.9 L 142.9 394.9 L 142.9 393.3 " fill="#000000"/>
<path class="legend" d="M 150.2 395.0 Q 148.2 395.0, 147.1 393.5 Q 146.1 391.9, 146.1 389.2 Q 146.1 386.5, 147.1 384.9 Q 148.1 383.4, 150.2 383.4 Q 152.3 383.4, 153.4 384.9 Q 154.4 386.5, 154.4 389.2 Q 154.4 391.9, 153.3 393.5 Q 152.3 395.0, 150.2 395.0 M 150.2 393.7 Q 151.5 393.7, 152.1 392.6 Q 152.8 391.4, 152.8 389.2 Q 152.8 387.0, 152.1 385.8 Q 151.5 384.7, 150.2 384.7 Q 149.0 384.7, 148.3 385.8 Q 147.7 387.0, 147.7 389.2 Q 147.7 391.4, 148.3 392.6 Q 149.0 393.7, 150.2 393.7 " fill="#000000"/>
<path class="legend" d="M 156.6 393.6 L 159.1 393.6 L 159.1 385.1 L 156.4 386.0 L 156.0 385.0 L 159.5 383.5 L 160.6 383.7 L 160.6 393.6 L 162.8 393.6 L 162.8 394.9 L 156.6 394.9 L 156.6 393.6 " fill="#000000"/>
<path class="bond-0 atom-0 atom-1" d="M 235.0,309.9 L 235.0,270.1" style="fill:none;fill-rule:evenodd;stroke:#000000;stroke-width:2.0px;stroke-linecap:butt;stroke-linejoin:miter;stroke-opacity:1"/>
<path class="bond-0 atom-0 atom-1" d="M 241.0,306.4 L 241.0,273.6" style="fill:none;fill-rule:evenodd;stroke:#000000;stroke-width:2.0px;stroke-linecap:butt;stroke-linejoin:miter;stroke-opacity:1"/>
<path class="bond-1 atom-1 atom-2" d="M 235.0,270.1 L 269.4,250.3" style="fill:none;fill-rule:evenodd;stroke:#000000;stroke-width:2.0px;stroke-linecap:butt;stroke-linejoin:miter;stroke-opacity:1"/>
<path class="bond-2 atom-2 atom-3" d="M 269.4,250.3 L 303.8,270.1" style="fill:none;fill-rule:evenodd;stroke:#000000;stroke-width:2.0px;stroke-linecap:butt;stroke-linejoin:miter;stroke-opacity:1"/>
<path class="bond-2 atom-2 atom-3" d="M 269.4,257.1 L 297.9,273.6" style="fill:none;fill-rule:evenodd;stroke:#000000;stroke-width:2.0px;stroke-linecap:butt;stroke-linejoin:miter;stroke-opacity:1"/>
<path class="bond-3 atom-3 atom-4" d="M 303.8,270.1 L 303.8,309.9" style="fill:none;fill-rule:evenodd;stroke:#000000;stroke-width:2.0px;stroke-linecap:butt;stroke-linejoin:miter;stroke-opacity:1"/>
<path class="bond-4 atom-4 atom-5" d="M 303.8,309.9 L 269.4,329.7" style="fill:none;fill-rule:evenodd;stroke:#000000;stroke-width:2.0px;stroke-linecap:butt;stroke-linejoin:miter;stroke-opacity:1"/>
<path class="bond-4 atom-4 atom-5" d="M 297.9,306.4 L 269.4,322.9" style="fill:none;fill-rule:evenodd;stroke:#000000;stroke-width:2.0px;stroke-linecap:butt;stroke-linejoin:miter;stroke-opacity:1"/>
<path class="bond-5 atom-4 atom-6" d="M 303.8,309.9 L 341.6,322.2" style="fill:none;fill-rule:evenodd;stroke:#000000;stroke-width:2.0px;stroke-linecap:butt;stroke-linejoin:miter;stroke-opacity:1"/>
<path class="bond-6 atom-6 atom-7" d="M 341.6,322.2 L 365.0,290.0" style="fill:none;fill-rule:evenodd;stroke:#000000;stroke-width:2.0px;stroke-linecap:butt;stroke-linejoin:miter;stroke-opacity:1"/>
<path class="bond-7 atom-7 atom-8" d="M 365.0,290.0 L 341.6,257.8" style="fill:none;fill-rule:evenodd;stroke:#000000;stroke-width:2.0px;stroke-linecap:butt;stroke-linejoin:miter;stroke-opacity:1"/>
<path class="bond-8 atom-5 atom-0" d="M 269.4,329.7 L 235.0,309.9" style="fill:none;fill-rule:evenodd;stroke:#000000;stroke-width:2.0px;stroke-linecap:butt;stroke-linejoin:miter;stroke-opacity:1"/>
<path class="bond-9 atom-8 atom-3" d="M 341.6,257.8 L 303.8,270.1" style="fill:none;fill-rule:evenodd;stroke:#000000;stroke-width:2.0px;stroke-linecap:butt;stroke-linejoin:miter;stroke-opacity:1"/>
<path d="M 235.0,307.9 L 235.0,309.9 L 236.7,310.9" style="fill:none;stroke:#000000;stroke-width:2.0px;stroke-linecap:butt;stroke-linejoin:miter;stroke-opacity:1;"/>
<path d="M 235.0,272.1 L 235.0,270.1 L 236.7,269.1" style="fill:none;stroke:#000000;stroke-width:2.0px;stroke-linecap:butt;stroke-linejoin:miter;stroke-opacity:1;"/>
<path d="M 267.7,251.2 L 269.4,250.3 L 271.1,251.2" style="fill:none;stroke:#000000;stroke-width:2.0px;stroke-linecap:butt;stroke-linejoin:miter;stroke-opacity:1;"/>
<path d="M 271.1,328.8 L 269.4,329.7 L 267.7,328.8" style="fill:none;stroke:#000000;stroke-width:2.0px;stroke-linecap:butt;stroke-linejoin:miter;stroke-opacity:1;"/>
<path d="M 339.8,321.5 L 341.6,322.2 L 342.8,320.5" style="fill:none;stroke:#000000;stroke-width:2.0px;stroke-linecap:butt;stroke-linejoin:miter;stroke-opacity:1;"/>
<path d="M 363.8,291.6 L 365.0,290.0 L 363.8,288.4" style="fill:none;stroke:#000000;stroke-width:2.0px;stroke-linecap:butt;stroke-linejoin:miter;stroke-opacity:1;"/>
<path d="M 342.8,259.5 L 341.6,257.8 L 339.8,258.5" style="fill:none;stroke:#000000;stroke-width:2.0px;stroke-linecap:butt;stroke-linejoin:miter;stroke-opacity:1;"/>
<path class="legend" d="M 230.6 389.1 L 236.5 389.1 L 236.5 390.4 L 230.6 390.4 L 230.6 389.1 " fill="#000000"/>
<path class="legend" d="M 238.5 393.6 L 241.0 393.6 L 241.0 385.1 L 238.2 385.9 L 237.9 385.0 L 241.3 383.4 L 242.5 383.6 L 242.5 393.6 L 244.7 393.6 L 244.7 394.8 L 238.5 394.8 L 238.5 393.6 " fill="#000000"/>
<path class="legend" d="M 246.0 393.2 L 247.6 393.2 L 247.6 394.8 L 246.0 394.8 L 246.0 393.2 " fill="#000000"/>
<path class="legend" d="M 256.5 391.0 L 257.9 391.0 L 257.9 392.2 L 256.5 392.2 L 256.5 394.8 L 255.0 394.8 L 255.0 392.2 L 249.2 392.2 L 249.2 391.2 L 254.1 383.5 L 256.5 383.5 L 256.5 391.0 M 251.0 391.0 L 255.0 391.0 L 255.0 384.5 L 251.0 391.0 " fill="#000000"/>
<path class="legend" d="M 263.7 387.8 Q 264.7 387.8, 265.5 388.2 Q 266.3 388.6, 266.7 389.4 Q 267.1 390.2, 267.1 391.2 Q 267.1 392.3, 266.6 393.2 Q 266.2 394.0, 265.3 394.5 Q 264.4 395.0, 263.3 395.0 Q 261.3 395.0, 260.3 393.6 Q 259.3 392.2, 259.3 389.5 Q 259.3 386.5, 260.5 385.0 Q 261.8 383.4, 264.2 383.4 Q 264.9 383.4, 265.5 383.5 Q 266.1 383.7, 266.7 384.0 L 266.1 385.1 Q 265.2 384.7, 264.2 384.7 Q 262.6 384.7, 261.8 385.7 Q 261.0 386.7, 260.9 388.9 Q 261.5 388.3, 262.2 388.1 Q 262.9 387.8, 263.7 387.8 M 263.3 393.7 Q 263.9 393.7, 264.4 393.3 Q 265.0 393.0, 265.2 392.5 Q 265.5 391.9, 265.5 391.2 Q 265.5 390.2, 265.0 389.6 Q 264.4 389.0, 263.4 389.0 Q 262.7 389.0, 262.0 389.3 Q 261.4 389.6, 260.9 390.1 Q 261.0 392.0, 261.5 392.8 Q 262.1 393.7, 263.3 393.7 " fill="#000000"/>
<path class="legend" d="" fill="#000000"/>
<path class="legend" d="M 284.7 394.8 L 283.0 394.8 L 279.6 390.2 L 276.2 394.8 L 274.5 394.8 L 278.7 388.9 L 274.8 383.5 L 276.6 383.5 L 279.7 387.8 L 282.7 383.5 L 284.5 383.5 L 280.6 389.0 L 284.7 394.8 " fill="#000000"/>
<path class="legend" d="" fill="#000000"/>
<path class="legend" d="M 295.4 395.0 Q 293.3 395.0, 292.3 393.4 Q 291.3 391.9, 291.3 389.2 Q 291.3 386.4, 292.3 384.9 Q 293.3 383.4, 295.4 383.4 Q 297.5 383.4, 298.5 384.9 Q 299.6 386.4, 299.6 389.2 Q 299.6 391.9, 298.5 393.4 Q 297.5 395.0, 295.4 395.0 M 295.4 393.7 Q 296.7 393.7, 297.3 392.6 Q 298.0 391.4, 298.0 389.2 Q 298.0 386.9, 297.3 385.8 Q 296.7 384.7, 295.4 384.7 Q 294.2 384.7, 293.5 385.8 Q 292.9 386.9, 292.9 389.2 Q 292.9 391.4, 293.5 392.6 Q 294.2 393.7, 295.4 393.7 " fill="#000000"/>
<path class="legend" d="M 301.2 393.2 L 302.8 393.2 L 302.8 394.8 L 301.2 394.8 L 301.2 393.2 " fill="#000000"/>
<path class="legend" d="M 308.6 395.0 Q 306.5 395.0, 305.4 393.4 Q 304.4 391.9, 304.4 389.2 Q 304.4 386.4, 305.4 384.9 Q 306.5 383.4, 308.6 383.4 Q 310.6 383.4, 311.7 384.9 Q 312.7 386.4, 312.7 389.2 Q 312.7 391.9, 311.7 393.4 Q 310.6 395.0, 308.6 395.0 M 308.6 393.7 Q 309.8 393.7, 310.4 392.6 Q 311.1 391.4, 311.1 389.2 Q 311.1 386.9, 310.4 385.8 Q 309.8 384.7, 308.6 384.7 Q 307.3 384.7, 306.7 385.8 Q 306.0 386.9, 306.0 389.2 Q 306.0 391.4, 306.7 392.6 Q 307.3 393.7, 308.6 393.7 " fill="#000000"/>
<path class="legend" d="M 320.1 388.8 Q 321.1 389.3, 321.7 390.0 Q 322.3 390.6, 322.3 391.7 Q 322.3 392.7, 321.8 393.4 Q 321.3 394.2, 320.4 394.6 Q 319.5 395.0, 318.4 395.0 Q 316.5 395.0, 315.4 394.1 Q 314.3 393.3, 314.3 391.7 Q 314.3 390.8, 314.8 390.1 Q 315.3 389.4, 316.3 388.9 Q 315.5 388.5, 315.1 387.9 Q 314.7 387.2, 314.7 386.3 Q 314.7 385.0, 315.7 384.2 Q 316.7 383.4, 318.3 383.4 Q 320.0 383.4, 320.9 384.2 Q 321.9 385.0, 321.9 386.3 Q 321.9 387.1, 321.4 387.7 Q 321.0 388.3, 320.1 388.8 M 318.3 384.6 Q 317.4 384.6, 316.8 385.0 Q 316.3 385.5, 316.3 386.3 Q 316.3 386.9, 316.7 387.3 Q 317.0 387.7, 317.5 387.9 Q 318.0 388.1, 319.0 388.4 Q 319.7 388.0, 320.0 387.4 Q 320.3 386.9, 320.3 386.3 Q 320.3 385.5, 319.8 385.0 Q 319.3 384.6, 318.3 384.6 M 318.4 393.8 Q 319.4 393.8, 320.1 393.2 Q 320.7 392.7, 320.7 391.7 Q 320.7 391.1, 320.4 390.7 Q 320.0 390.3, 319.5 390.1 Q 319.0 389.9, 318.1 389.6 L 317.4 389.4 Q 316.6 389.8, 316.3 390.4 Q 315.9 391.0, 315.9 391.7 Q 315.9 392.7, 316.6 393.2 Q 317.3 393.8, 318.4 393.8 " fill="#000000"/>
<path class="legend" d="M 323.9 387.9 L 331.2 387.9 L 331.2 389.0 L 323.9 389.0 L 323.9 387.9 M 323.9 391.3 L 331.2 391.3 L 331.2 392.5 L 323.9 392.5 L 323.9 391.3 " fill="#000000"/>
<path class="legend" d="M 333.3 389.1 L 339.1 389.1 L 339.1 390.4 L 333.3 390.4 L 333.3 389.1 " fill="#000000"/>
<path class="legend" d="M 344.7 395.0 Q 342.6 395.0, 341.6 393.4 Q 340.5 391.9, 340.5 389.2 Q 340.5 386.4, 341.6 384.9 Q 342.6 383.4, 344.7 383.4 Q 346.8 383.4, 347.8 384.9 Q 348.8 386.4, 348.8 389.2 Q 348.8 391.9, 347.8 393.4 Q 346.8 395.0, 344.7 395.0 M 344.7 393.7 Q 345.9 393.7, 346.6 392.6 Q 347.2 391.4, 347.2 389.2 Q 347.2 386.9, 346.6 385.8 Q 345.9 384.7, 344.7 384.7 Q 343.5 384.7, 342.8 385.8 Q 342.1 386.9, 342.1 389.2 Q 342.1 391.4, 342.8 392.6 Q 343.5 393.7, 344.7 393.7 " fill="#000000"/>
<path class="legend" d="M 350.4 393.2 L 352.0 393.2 L 352.0 394.8 L 350.4 394.8 L 350.4 393.2 " fill="#000000"/>
<path class="legend" d="M 354.3 393.6 L 356.8 393.6 L 356.8 385.1 L 354.0 385.9 L 353.7 385.0 L 357.1 383.4 L 358.3 383.6 L 358.3 393.6 L 360.5 393.6 L 360.5 394.8 L 354.3 394.8 L 354.3 393.6 " fill="#000000"/>
<path class="legend" d="M 361.8 385.7 Q 362.2 384.6, 363.2 384.0 Q 364.2 383.4, 365.6 383.4 Q 367.3 383.4, 368.2 384.3 Q 369.2 385.2, 369.2 386.9 Q 369.2 388.6, 367.9 390.1 Q 366.7 391.7, 364.1 393.6 L 369.4 393.6 L 369.4 394.8 L 361.7 394.8 L 361.7 393.8 Q 363.9 392.3, 365.1 391.1 Q 366.4 390.0, 367.0 389.0 Q 367.6 388.0, 367.6 387.0 Q 367.6 385.9, 367.0 385.3 Q 366.5 384.7, 365.6 384.7 Q 364.6 384.7, 364.0 385.0 Q 363.4 385.4, 363.0 386.2 L 361.8 385.7 " fill="#000000"/>
<path class="bond-0 atom-0 atom-1" d="M 485.4,287.2 L 513.9,287.2" style="fill:none;fill-rule:evenodd;stroke:#0000FF;stroke-width:2.0px;stroke-linecap:butt;stroke-linejoin:miter;stroke-opacity:1"/>
<path class="atom-0" d="M 458.1 281.6 L 459.6 281.6 L 459.6 286.3 L 465.3 286.3 L 465.3 281.6 L 466.9 281.6 L 466.9 292.8 L 465.3 292.8 L 465.3 287.6 L 459.6 287.6 L 459.6 292.8 L 458.1 292.8 L 458.1 281.6 " fill="#0000FF"/>
<path class="atom-0" d="M 469.1 292.4 Q 469.3 291.7, 470.0 291.3 Q 470.6 290.9, 471.5 290.9 Q 472.7 290.9, 473.3 291.5 Q 473.9 292.1, 473.9 293.2 Q 473.9 294.3, 473.1 295.4 Q 472.3 296.4, 470.6 297.6 L 474.1 297.6 L 474.1 298.4 L 469.0 298.4 L 469.0 297.7 Q 470.4 296.8, 471.2 296.0 Q 472.1 295.3, 472.5 294.6 Q 472.9 294.0, 472.9 293.3 Q 472.9 292.6, 472.5 292.2 Q 472.2 291.8, 471.5 291.8 Q 470.9 291.8, 470.5 292.0 Q 470.1 292.3, 469.9 292.8 L 469.1 292.4 " fill="#0000FF"/>
<path class="atom-0" d="M 477.3 281.6 L 481.0 287.5 Q 481.3 288.1, 481.9 289.2 Q 482.5 290.2, 482.6 290.3 L 482.6 281.6 L 484.0 281.6 L 484.0 292.8 L 482.5 292.8 L 478.5 286.3 Q 478.1 285.5, 477.6 284.7 Q 477.1 283.8, 477.0 283.5 L 477.0 292.8 L 475.5 292.8 L 475.5 281.6 L 477.3 281.6 " fill="#0000FF"/>
<path class="atom-1" d="M 517.0 281.6 L 520.7 287.5 Q 521.1 288.1, 521.7 289.2 Q 522.3 290.2, 522.3 290.3 L 522.3 281.6 L 523.8 281.6 L 523.8 292.8 L 522.3 292.8 L 518.3 286.3 Q 517.8 285.5, 517.3 284.7 Q 516.9 283.8, 516.7 283.5 L 516.7 292.8 L 515.3 292.8 L 515.3 281.6 L 517.0 281.6 " fill="#0000FF"/>
<path class="atom-1" d="M 525.9 281.6 L 527.5 281.6 L 527.5 286.3 L 533.2 286.3 L 533.2 281.6 L 534.8 281.6 L 534.8 292.8 L 533.2 292.8 L 533.2 287.6 L 527.5 287.6 L 527.5 292.8 L 525.9 292.8 L 525.9 281.6 " fill="#0000FF"/>
<path class="atom-1" d="M 537.0 292.4 Q 537.2 291.7, 537.9 291.3 Q 538.5 290.9, 539.4 290.9 Q 540.6 290.9, 541.2 291.5 Q 541.8 292.1, 541.8 293.2 Q 541.8 294.3, 541.0 295.4 Q 540.2 296.4, 538.5 297.6 L 541.9 297.6 L 541.9 298.4 L 536.9 298.4 L 536.9 297.7 Q 538.3 296.8, 539.1 296.0 Q 540.0 295.3, 540.4 294.6 Q 540.8 294.0, 540.8 293.3 Q 540.8 292.6, 540.4 292.2 Q 540.1 291.8, 539.4 291.8 Q 538.8 291.8, 538.4 292.0 Q 538.0 292.3, 537.8 292.8 L 537.0 292.4 " fill="#0000FF"/>
<path class="legend" d="M 429.3 389.1 L 435.2 389.1 L 435.2 390.4 L 429.3 390.4 L 429.3 389.1 " fill="#000000"/>
<path class="legend" d="M 440.4 383.4 Q 442.4 383.4, 443.4 384.8 Q 444.5 386.1, 444.5 388.8 Q 444.5 391.8, 443.2 393.4 Q 441.9 395.0, 439.5 395.0 Q 438.8 395.0, 438.2 394.8 Q 437.6 394.6, 437.0 394.3 L 437.7 393.2 Q 438.5 393.7, 439.5 393.7 Q 441.1 393.7, 441.9 392.7 Q 442.7 391.6, 442.8 389.5 Q 442.3 390.0, 441.5 390.3 Q 440.8 390.6, 440.0 390.6 Q 439.0 390.6, 438.2 390.2 Q 437.5 389.7, 437.0 388.9 Q 436.6 388.2, 436.6 387.2 Q 436.6 386.1, 437.1 385.2 Q 437.6 384.3, 438.4 383.9 Q 439.3 383.4, 440.4 383.4 M 438.2 387.1 Q 438.2 388.2, 438.8 388.7 Q 439.3 389.3, 440.3 389.3 Q 441.0 389.3, 441.7 389.0 Q 442.4 388.7, 442.8 388.3 Q 442.8 386.4, 442.2 385.5 Q 441.6 384.7, 440.4 384.7 Q 439.8 384.7, 439.3 385.0 Q 438.8 385.3, 438.5 385.9 Q 438.2 386.5, 438.2 387.1 " fill="#000000"/>
<path class="legend" d="M 446.1 393.2 L 447.7 393.2 L 447.7 394.8 L 446.1 394.8 L 446.1 393.2 " fill="#000000"/>
<path class="legend" d="M 454.8 388.9 Q 455.9 389.2, 456.4 389.9 Q 457.0 390.6, 457.0 391.7 Q 457.0 392.7, 456.5 393.4 Q 456.0 394.2, 455.1 394.6 Q 454.3 395.0, 453.1 395.0 Q 451.9 395.0, 451.0 394.6 Q 450.1 394.2, 449.4 393.3 L 450.3 392.4 Q 451.0 393.1, 451.6 393.4 Q 452.2 393.7, 453.1 393.7 Q 454.1 393.7, 454.8 393.2 Q 455.4 392.6, 455.4 391.7 Q 455.4 390.6, 454.7 390.1 Q 454.1 389.5, 452.7 389.5 L 451.9 389.5 L 451.9 388.4 L 452.6 388.4 Q 453.8 388.4, 454.5 387.8 Q 455.1 387.3, 455.1 386.3 Q 455.1 385.5, 454.6 385.1 Q 454.1 384.7, 453.1 384.7 Q 452.2 384.7, 451.6 385.0 Q 451.0 385.3, 450.6 386.2 L 449.5 385.6 Q 449.9 384.6, 450.8 384.0 Q 451.8 383.4, 453.1 383.4 Q 454.8 383.4, 455.8 384.2 Q 456.7 385.0, 456.7 386.3 Q 456.7 387.2, 456.3 387.8 Q 455.8 388.5, 454.8 388.9 " fill="#000000"/>
<path class="legend" d="M 462.7 395.0 Q 460.6 395.0, 459.5 393.4 Q 458.5 391.9, 458.5 389.2 Q 458.5 386.4, 459.5 384.9 Q 460.6 383.4, 462.7 383.4 Q 464.8 383.4, 465.8 384.9 Q 466.8 386.4, 466.8 389.2 Q 466.8 391.9, 465.8 393.4 Q 464.7 395.0, 462.7 395.0 M 462.7 393.7 Q 463.9 393.7, 464.6 392.6 Q 465.2 391.4, 465.2 389.2 Q 465.2 386.9, 464.6 385.8 Q 463.9 384.7, 462.7 384.7 Q 461.5 384.7, 460.8 385.8 Q 460.1 386.9, 460.1 389.2 Q 460.1 391.4, 460.8 392.6 Q 461.5 393.7, 462.7 393.7 " fill="#000000"/>
<path class="legend" d="" fill="#000000"/>
<path class="legend" d="M 484.6 394.8 L 482.8 394.8 L 479.5 390.2 L 476.1 394.8 L 474.4 394.8 L 478.6 388.9 L 474.7 383.5 L 476.5 383.5 L 479.5 387.8 L 482.6 383.5 L 484.3 383.5 L 480.4 389.0 L 484.6 394.8 " fill="#000000"/>
<path class="legend" d="" fill="#000000"/>
<path class="legend" d="M 495.3 395.0 Q 493.2 395.0, 492.2 393.4 Q 491.2 391.9, 491.2 389.2 Q 491.2 386.4, 492.2 384.9 Q 493.2 383.4, 495.3 383.4 Q 497.4 383.4, 498.4 384.9 Q 499.5 386.4, 499.5 389.2 Q 499.5 391.9, 498.4 393.4 Q 497.4 395.0, 495.3 395.0 M 495.3 393.7 Q 496.5 393.7, 497.2 392.6 Q 497.9 391.4, 497.9 389.2 Q 497.9 386.9, 497.2 385.8 Q 496.5 384.7, 495.3 384.7 Q 494.1 384.7, 493.4 385.8 Q 492.8 386.9, 492.8 389.2 Q 492.8 391.4, 493.4 392.6 Q 494.1 393.7, 495.3 393.7 " fill="#000000"/>
<path class="legend" d="M 501.1 393.2 L 502.7 393.2 L 502.7 394.8 L 501.1 394.8 L 501.1 393.2 " fill="#000000"/>
<path class="legend" d="M 508.5 395.0 Q 506.4 395.0, 505.3 393.4 Q 504.3 391.9, 504.3 389.2 Q 504.3 386.4, 505.3 384.9 Q 506.4 383.4, 508.5 383.4 Q 510.6 383.4, 511.6 384.9 Q 512.6 386.4, 512.6 389.2 Q 512.6 391.9, 511.6 393.4 Q 510.5 395.0, 508.5 395.0 M 508.5 393.7 Q 509.7 393.7, 510.4 392.6 Q 511.0 391.4, 511.0 389.2 Q 511.0 386.9, 510.4 385.8 Q 509.7 384.7, 508.5 384.7 Q 507.2 384.7, 506.6 385.8 Q 505.9 386.9, 505.9 389.2 Q 505.9 391.4, 506.6 392.6 Q 507.2 393.7, 508.5 393.7 " fill="#000000"/>
<path class="legend" d="M 520.2 384.8 L 514.2 384.8 L 514.2 383.5 L 521.8 383.5 L 521.8 384.6 L 517.2 394.8 L 515.6 394.8 L 520.2 384.8 " fill="#000000"/>
<path class="legend" d="M 522.8 387.9 L 530.1 387.9 L 530.1 389.0 L 522.8 389.0 L 522.8 387.9 M 522.8 391.3 L 530.1 391.3 L 530.1 392.5 L 522.8 392.5 L 522.8 391.3 " fill="#000000"/>
<path class="legend" d="M 532.2 389.1 L 538.1 389.1 L 538.1 390.4 L 532.2 390.4 L 532.2 389.1 " fill="#000000"/>
<path class="legend" d="M 543.6 395.0 Q 541.5 395.0, 540.5 393.4 Q 539.5 391.9, 539.5 389.2 Q 539.5 386.4, 540.5 384.9 Q 541.5 383.4, 543.6 383.4 Q 545.7 383.4, 546.7 384.9 Q 547.7 386.4, 547.7 389.2 Q 547.7 391.9, 546.7 393.4 Q 545.7 395.0, 543.6 395.0 M 543.6 393.7 Q 544.8 393.7, 545.5 392.6 Q 546.1 391.4, 546.1 389.2 Q 546.1 386.9, 545.5 385.8 Q 544.8 384.7, 543.6 384.7 Q 542.4 384.7, 541.7 385.8 Q 541.1 386.9, 541.1 389.2 Q 541.1 391.4, 541.7 392.6 Q 542.4 393.7, 543.6 393.7 " fill="#000000"/>
<path class="legend" d="M 549.4 393.2 L 551.0 393.2 L 551.0 394.8 L 549.4 394.8 L 549.4 393.2 " fill="#000000"/>
<path class="legend" d="M 557.0 387.8 Q 558.0 387.8, 558.8 388.2 Q 559.6 388.6, 560.0 389.4 Q 560.5 390.2, 560.5 391.2 Q 560.5 392.3, 560.0 393.2 Q 559.5 394.0, 558.6 394.5 Q 557.8 395.0, 556.7 395.0 Q 554.6 395.0, 553.6 393.6 Q 552.6 392.2, 552.6 389.5 Q 552.6 386.5, 553.9 385.0 Q 555.1 383.4, 557.5 383.4 Q 558.2 383.4, 558.8 383.5 Q 559.4 383.7, 560.0 384.0 L 559.4 385.1 Q 558.6 384.7, 557.6 384.7 Q 556.0 384.7, 555.1 385.7 Q 554.3 386.7, 554.2 388.9 Q 554.8 388.3, 555.5 388.1 Q 556.3 387.8, 557.0 387.8 M 556.7 393.7 Q 557.3 393.7, 557.8 393.3 Q 558.3 393.0, 558.6 392.5 Q 558.9 391.9, 558.9 391.2 Q 558.9 390.2, 558.3 389.6 Q 557.8 389.0, 556.8 389.0 Q 556.1 389.0, 555.4 389.3 Q 554.7 389.6, 554.2 390.1 Q 554.3 392.0, 554.9 392.8 Q 555.5 393.7, 556.7 393.7 " fill="#000000"/>
<path class="legend" d="M 569.3 391.0 L 570.7 391.0 L 570.7 392.2 L 569.3 392.2 L 569.3 394.8 L 567.8 394.8 L 567.8 392.2 L 561.9 392.2 L 561.9 391.2 L 566.9 383.5 L 569.3 383.5 L 569.3 391.0 M 563.8 391.0 L 567.8 391.0 L 567.8 384.5 L 563.8 391.0 " fill="#000000"/>
<path class="bond-0 atom-0 atom-1" d="M 660.3,255.6 L 680.1,290.0" style="fill:none;fill-rule:evenodd;stroke:#000000;stroke-width:2.0px;stroke-linecap:butt;stroke-linejoin:miter;stroke-opacity:1"/>
<path class="bond-1 atom-1 atom-2" d="M 678.4,287.0 L 657.7,322.9" style="fill:none;fill-rule:evenodd;stroke:#000000;stroke-width:2.0px;stroke-linecap:butt;stroke-linejoin:miter;stroke-opacity:1"/>
<path class="bond-1 atom-1 atom-2" d="M 683.6,290.0 L 662.8,325.9" style="fill:none;fill-rule:evenodd;stroke:#000000;stroke-width:2.0px;stroke-linecap:butt;stroke-linejoin:miter;stroke-opacity:1"/>
<path class="bond-2 atom-1 atom-3" d="M 680.1,290.0 L 719.9,290.0" style="fill:none;fill-rule:evenodd;stroke:#000000;stroke-width:2.0px;stroke-linecap:butt;stroke-linejoin:miter;stroke-opacity:1"/>
<path class="bond-3 atom-3 atom-4" d="M 721.6,293.0 L 742.3,257.1" style="fill:none;fill-rule:evenodd;stroke:#000000;stroke-width:2.0px;stroke-linecap:butt;stroke-linejoin:miter;stroke-opacity:1"/>
<path class="bond-3 atom-3 atom-4" d="M 716.4,290.0 L 737.2,254.1" style="fill:none;fill-rule:evenodd;stroke:#000000;stroke-width:2.0px;stroke-linecap:butt;stroke-linejoin:miter;stroke-opacity:1"/>
<path class="bond-4 atom-3 atom-5" d="M 719.9,290.0 L 739.7,324.4" style="fill:none;fill-rule:evenodd;stroke:#000000;stroke-width:2.0px;stroke-linecap:butt;stroke-linejoin:miter;stroke-opacity:1"/>
<path d="M 679.1,288.3 L 680.1,290.0 L 682.1,290.0" style="fill:none;stroke:#000000;stroke-width:2.0px;stroke-linecap:butt;stroke-linejoin:miter;stroke-opacity:1;"/>
<path d="M 717.9,290.0 L 719.9,290.0 L 720.9,291.7" style="fill:none;stroke:#000000;stroke-width:2.0px;stroke-linecap:butt;stroke-linejoin:miter;stroke-opacity:1;"/>
<path class="legend" d="M 633.0 395.0 Q 631.0 395.0, 629.9 393.4 Q 628.9 391.9, 628.9 389.2 Q 628.9 386.4, 629.9 384.9 Q 630.9 383.4, 633.0 383.4 Q 635.1 383.4, 636.2 384.9 Q 637.2 386.4, 637.2 389.2 Q 637.2 391.9, 636.1 393.4 Q 635.1 395.0, 633.0 395.0 M 633.0 393.7 Q 634.3 393.7, 634.9 392.6 Q 635.6 391.4, 635.6 389.2 Q 635.6 386.9, 634.9 385.8 Q 634.3 384.7, 633.0 384.7 Q 631.8 384.7, 631.1 385.8 Q 630.5 386.9, 630.5 389.2 Q 630.5 391.4, 631.1 392.6 Q 631.8 393.7, 633.0 393.7 " fill="#000000"/>
<path class="legend" d="M 638.8 393.2 L 640.4 393.2 L 640.4 394.8 L 638.8 394.8 L 638.8 393.2 " fill="#000000"/>
<path class="legend" d="M 649.4 391.0 L 650.8 391.0 L 650.8 392.2 L 649.4 392.2 L 649.4 394.8 L 647.9 394.8 L 647.9 392.2 L 642.1 392.2 L 642.1 391.2 L 647.0 383.5 L 649.4 383.5 L 649.4 391.0 M 643.9 391.0 L 647.9 391.0 L 647.9 384.5 L 643.9 391.0 " fill="#000000"/>
<path class="legend" d="M 656.3 395.0 Q 654.2 395.0, 653.2 393.4 Q 652.2 391.9, 652.2 389.2 Q 652.2 386.4, 653.2 384.9 Q 654.2 383.4, 656.3 383.4 Q 658.4 383.4, 659.4 384.9 Q 660.4 386.4, 660.4 389.2 Q 660.4 391.9, 659.4 393.4 Q 658.4 395.0, 656.3 395.0 M 656.3 393.7 Q 657.5 393.7, 658.2 392.6 Q 658.8 391.4, 658.8 389.2 Q 658.8 386.9, 658.2 385.8 Q 657.5 384.7, 656.3 384.7 Q 655.1 384.7, 654.4 385.8 Q 653.8 386.9, 653.8 389.2 Q 653.8 391.4, 654.4 392.6 Q 655.1 393.7, 656.3 393.7 " fill="#000000"/>
<path class="legend" d="" fill="#000000"/>
<path class="legend" d="M 678.2 394.8 L 676.5 394.8 L 673.1 390.2 L 669.8 394.8 L 668.0 394.8 L 672.2 388.9 L 668.3 383.5 L 670.1 383.5 L 673.2 387.8 L 676.2 383.5 L 678.0 383.5 L 674.1 389.0 L 678.2 394.8 " fill="#000000"/>
<path class="legend" d="" fill="#000000"/>
<path class="legend" d="M 684.8 389.1 L 690.7 389.1 L 690.7 390.4 L 684.8 390.4 L 684.8 389.1 " fill="#000000"/>
<path class="legend" d="M 696.2 395.0 Q 694.1 395.0, 693.1 393.4 Q 692.1 391.9, 692.1 389.2 Q 692.1 386.4, 693.1 384.9 Q 694.1 383.4, 696.2 383.4 Q 698.3 383.4, 699.3 384.9 Q 700.4 386.4, 700.4 389.2 Q 700.4 391.9, 699.3 393.4 Q 698.3 395.0, 696.2 395.0 M 696.2 393.7 Q 697.5 393.7, 698.1 392.6 Q 698.8 391.4, 698.8 389.2 Q 698.8 386.9, 698.1 385.8 Q 697.5 384.7, 696.2 384.7 Q 695.0 384.7, 694.3 385.8 Q 693.7 386.9, 693.7 389.2 Q 693.7 391.4, 694.3 392.6 Q 695.0 393.7, 696.2 393.7 " fill="#000000"/>
<path class="legend" d="M 702.0 393.2 L 703.6 393.2 L 703.6 394.8 L 702.0 394.8 L 702.0 393.2 " fill="#000000"/>
<path class="legend" d="M 709.4 395.0 Q 707.3 395.0, 706.3 393.4 Q 705.2 391.9, 705.2 389.2 Q 705.2 386.4, 706.3 384.9 Q 707.3 383.4, 709.4 383.4 Q 711.5 383.4, 712.5 384.9 Q 713.5 386.4, 713.5 389.2 Q 713.5 391.9, 712.5 393.4 Q 711.5 395.0, 709.4 395.0 M 709.4 393.7 Q 710.6 393.7, 711.3 392.6 Q 711.9 391.4, 711.9 389.2 Q 711.9 386.9, 711.3 385.8 Q 710.6 384.7, 709.4 384.7 Q 708.2 384.7, 707.5 385.8 Q 706.8 386.9, 706.8 389.2 Q 706.8 391.4, 707.5 392.6 Q 708.2 393.7, 709.4 393.7 " fill="#000000"/>
<path class="legend" d="M 721.1 384.8 L 715.2 384.8 L 715.2 383.5 L 722.7 383.5 L 722.7 384.6 L 718.1 394.8 L 716.6 394.8 L 721.1 384.8 " fill="#000000"/>
<path class="legend" d="M 723.8 387.9 L 731.1 387.9 L 731.1 389.0 L 723.8 389.0 L 723.8 387.9 M 723.8 391.3 L 731.1 391.3 L 731.1 392.5 L 723.8 392.5 L 723.8 391.3 " fill="#000000"/>
<path class="legend" d="M 733.1 389.1 L 739.0 389.1 L 739.0 390.4 L 733.1 390.4 L 733.1 389.1 " fill="#000000"/>
<path class="legend" d="M 744.6 395.0 Q 742.5 395.0, 741.4 393.4 Q 740.4 391.9, 740.4 389.2 Q 740.4 386.4, 741.4 384.9 Q 742.5 383.4, 744.6 383.4 Q 746.6 383.4, 747.7 384.9 Q 748.7 386.4, 748.7 389.2 Q 748.7 391.9, 747.7 393.4 Q 746.6 395.0, 744.6 395.0 M 744.6 393.7 Q 745.8 393.7, 746.4 392.6 Q 747.1 391.4, 747.1 389.2 Q 747.1 386.9, 746.4 385.8 Q 745.8 384.7, 744.6 384.7 Q 743.3 384.7, 742.7 385.8 Q 742.0 386.9, 742.0 389.2 Q 742.0 391.4, 742.7 392.6 Q 743.3 393.7, 744.6 393.7 " fill="#000000"/>
<path class="legend" d="M 750.3 393.2 L 751.9 393.2 L 751.9 394.8 L 750.3 394.8 L 750.3 393.2 " fill="#000000"/>
<path class="legend" d="M 757.7 395.0 Q 755.6 395.0, 754.6 393.4 Q 753.6 391.9, 753.6 389.2 Q 753.6 386.4, 754.6 384.9 Q 755.6 383.4, 757.7 383.4 Q 759.8 383.4, 760.8 384.9 Q 761.9 386.4, 761.9 389.2 Q 761.9 391.9, 760.8 393.4 Q 759.8 395.0, 757.7 395.0 M 757.7 393.7 Q 758.9 393.7, 759.6 392.6 Q 760.3 391.4, 760.3 389.2 Q 760.3 386.9, 759.6 385.8 Q 758.9 384.7, 757.7 384.7 Q 756.5 384.7, 755.8 385.8 Q 755.2 386.9, 755.2 389.2 Q 755.2 391.4, 755.8 392.6 Q 756.5 393.7, 757.7 393.7 " fill="#000000"/>
<path class="legend" d="M 768.9 388.9 Q 770.0 389.2, 770.6 389.9 Q 771.1 390.6, 771.1 391.7 Q 771.1 392.7, 770.6 393.4 Q 770.2 394.2, 769.3 394.6 Q 768.4 395.0, 767.2 395.0 Q 766.0 395.0, 765.1 394.6 Q 764.2 394.2, 763.5 393.3 L 764.4 392.4 Q 765.1 393.1, 765.7 393.4 Q 766.3 393.7, 767.2 393.7 Q 768.3 393.7, 768.9 393.2 Q 769.5 392.6, 769.5 391.7 Q 769.5 390.6, 768.9 390.1 Q 768.2 389.5, 766.8 389.5 L 766.0 389.5 L 766.0 388.4 L 766.7 388.4 Q 768.0 388.4, 768.6 387.8 Q 769.3 387.3, 769.3 386.3 Q 769.3 385.5, 768.7 385.1 Q 768.2 384.7, 767.3 384.7 Q 766.3 384.7, 765.7 385.0 Q 765.1 385.3, 764.7 386.2 L 763.6 385.6 Q 764.0 384.6, 765.0 384.0 Q 765.9 383.4, 767.3 383.4 Q 768.9 383.4, 769.9 384.2 Q 770.9 385.0, 770.9 386.3 Q 770.9 387.2, 770.4 387.8 Q 769.9 388.5, 768.9 388.9 " fill="#000000"/>
<path class="atom-0" d="M 87.7 481.6 L 89.2 481.6 L 89.2 486.3 L 95.0 486.3 L 95.0 481.6 L 96.5 481.6 L 96.5 492.8 L 95.0 492.8 L 95.0 487.6 L 89.2 487.6 L 89.2 492.8 L 87.7 492.8 L 87.7 481.6 " fill="#CCCC00"/>
<path class="atom-0" d="M 98.7 492.4 Q 98.9 491.7, 99.6 491.3 Q 100.2 490.9, 101.2 490.9 Q 102.3 490.9, 102.9 491.5 Q 103.5 492.1, 103.5 493.2 Q 103.5 494.3, 102.7 495.4 Q 101.9 496.4, 100.2 497.6 L 103.7 497.6 L 103.7 498.4 L 98.7 498.4 L 98.7 497.7 Q 100.0 496.8, 100.9 496.0 Q 101.7 495.3, 102.1 494.6 Q 102.5 494.0, 102.5 493.3 Q 102.5 492.6, 102.1 492.2 Q 101.8 491.8, 101.2 491.8 Q 100.6 491.8, 100.2 492.0 Q 99.8 492.3, 99.5 492.8 L 98.7 492.4 " fill="#CCCC00"/>
<path class="atom-0" d="M 105.5 491.1 Q 105.6 491.1, 106.2 491.3 Q 106.7 491.6, 107.3 491.7 Q 107.8 491.8, 108.4 491.8 Q 109.5 491.8, 110.1 491.3 Q 110.7 490.8, 110.7 489.9 Q 110.7 489.3, 110.4 488.9 Q 110.1 488.5, 109.6 488.3 Q 109.1 488.1, 108.4 487.9 Q 107.3 487.6, 106.7 487.3 Q 106.2 487.0, 105.7 486.4 Q 105.3 485.8, 105.3 484.8 Q 105.3 483.3, 106.3 482.5 Q 107.2 481.6, 109.1 481.6 Q 110.4 481.6, 111.9 482.2 L 111.6 483.4 Q 110.2 482.9, 109.2 482.9 Q 108.1 482.9, 107.5 483.3 Q 106.9 483.8, 106.9 484.6 Q 106.9 485.2, 107.2 485.5 Q 107.5 485.9, 108.0 486.1 Q 108.4 486.3, 109.2 486.5 Q 110.2 486.9, 110.8 487.2 Q 111.4 487.5, 111.8 488.2 Q 112.3 488.8, 112.3 489.9 Q 112.3 491.4, 111.2 492.3 Q 110.2 493.1, 108.5 493.1 Q 107.5 493.1, 106.7 492.9 Q 106.0 492.7, 105.1 492.3 L 105.5 491.1 " fill="#CCCC00"/>
<path class="legend" d="M 29.3 589.1 L 35.2 589.1 L 35.2 590.4 L 29.3 590.4 L 29.3 589.1 " fill="#000000"/>
<path class="legend" d="M 40.7 595.0 Q 38.6 595.0, 37.6 593.5 Q 36.6 591.9, 36.6 589.2 Q 36.6 586.5, 37.6 584.9 Q 38.6 583.4, 40.7 583.4 Q 42.8 583.4, 43.8 584.9 Q 44.8 586.5, 44.8 589.2 Q 44.8 591.9, 43.8 593.5 Q 42.8 595.0, 40.7 595.0 M 40.7 593.7 Q 41.9 593.7, 42.6 592.6 Q 43.2 591.4, 43.2 589.2 Q 43.2 587.0, 42.6 585.8 Q 41.9 584.7, 40.7 584.7 Q 39.5 584.7, 38.8 585.8 Q 38.2 587.0, 38.2 589.2 Q 38.2 591.4, 38.8 592.6 Q 39.5 593.7, 40.7 593.7 " fill="#000000"/>
<path class="legend" d="M 46.5 593.3 L 48.1 593.3 L 48.1 594.9 L 46.5 594.9 L 46.5 593.3 " fill="#000000"/>
<path class="legend" d="M 55.6 584.8 L 49.7 584.8 L 49.7 583.5 L 57.2 583.5 L 57.2 584.7 L 52.6 594.9 L 51.1 594.9 L 55.6 584.8 " fill="#000000"/>
<path class="legend" d="M 62.4 595.0 Q 60.3 595.0, 59.3 593.5 Q 58.3 591.9, 58.3 589.2 Q 58.3 586.5, 59.3 584.9 Q 60.3 583.4, 62.4 583.4 Q 64.5 583.4, 65.5 584.9 Q 66.6 586.5, 66.6 589.2 Q 66.6 591.9, 65.5 593.5 Q 64.5 595.0, 62.4 595.0 M 62.4 593.7 Q 63.7 593.7, 64.3 592.6 Q 65.0 591.4, 65.0 589.2 Q 65.0 587.0, 64.3 585.8 Q 63.7 584.7, 62.4 584.7 Q 61.2 584.7, 60.5 585.8 Q 59.9 587.0, 59.9 589.2 Q 59.9 591.4, 60.5 592.6 Q 61.2 593.7, 62.4 593.7 " fill="#000000"/>
<path class="legend" d="" fill="#000000"/>
<path class="legend" d="M 84.3 594.9 L 82.6 594.9 L 79.2 590.2 L 75.9 594.9 L 74.1 594.9 L 78.3 589.0 L 74.5 583.5 L 76.2 583.5 L 79.3 587.8 L 82.4 583.5 L 84.1 583.5 L 80.2 589.1 L 84.3 594.9 " fill="#000000"/>
<path class="legend" d="" fill="#000000"/>
<path class="legend" d="M 95.1 595.0 Q 93.0 595.0, 91.9 593.5 Q 90.9 591.9, 90.9 589.2 Q 90.9 586.5, 91.9 584.9 Q 93.0 583.4, 95.1 583.4 Q 97.2 583.4, 98.2 584.9 Q 99.2 586.5, 99.2 589.2 Q 99.2 591.9, 98.2 593.5 Q 97.1 595.0, 95.1 595.0 M 95.1 593.7 Q 96.3 593.7, 97.0 592.6 Q 97.6 591.4, 97.6 589.2 Q 97.6 587.0, 97.0 585.8 Q 96.3 584.7, 95.1 584.7 Q 93.9 584.7, 93.2 585.8 Q 92.5 587.0, 92.5 589.2 Q 92.5 591.4, 93.2 592.6 Q 93.9 593.7, 95.1 593.7 " fill="#000000"/>
<path class="legend" d="M 100.8 593.3 L 102.4 593.3 L 102.4 594.9 L 100.8 594.9 L 100.8 593.3 " fill="#000000"/>
<path class="legend" d="M 108.2 595.0 Q 106.1 595.0, 105.1 593.5 Q 104.1 591.9, 104.1 589.2 Q 104.1 586.5, 105.1 584.9 Q 106.1 583.4, 108.2 583.4 Q 110.3 583.4, 111.3 584.9 Q 112.4 586.5, 112.4 589.2 Q 112.4 591.9, 111.3 593.5 Q 110.3 595.0, 108.2 595.0 M 108.2 593.7 Q 109.5 593.7, 110.1 592.6 Q 110.8 591.4, 110.8 589.2 Q 110.8 587.0, 110.1 585.8 Q 109.5 584.7, 108.2 584.7 Q 107.0 584.7, 106.3 585.8 Q 105.7 587.0, 105.7 589.2 Q 105.7 591.4, 106.3 592.6 Q 107.0 593.7, 108.2 593.7 " fill="#000000"/>
<path class="legend" d="M 118.4 587.8 Q 119.4 587.8, 120.2 588.2 Q 121.0 588.7, 121.4 589.4 Q 121.9 590.2, 121.9 591.2 Q 121.9 592.3, 121.4 593.2 Q 120.9 594.0, 120.0 594.5 Q 119.2 595.0, 118.0 595.0 Q 116.0 595.0, 115.0 593.6 Q 114.0 592.3, 114.0 589.5 Q 114.0 586.5, 115.2 585.0 Q 116.5 583.4, 118.9 583.4 Q 119.6 583.4, 120.2 583.6 Q 120.8 583.7, 121.4 584.1 L 120.8 585.1 Q 120.0 584.7, 118.9 584.7 Q 117.3 584.7, 116.5 585.7 Q 115.7 586.8, 115.6 588.9 Q 116.2 588.4, 116.9 588.1 Q 117.6 587.8, 118.4 587.8 M 118.1 593.7 Q 118.7 593.7, 119.2 593.4 Q 119.7 593.0, 120.0 592.5 Q 120.3 591.9, 120.3 591.2 Q 120.3 590.2, 119.7 589.7 Q 119.1 589.1, 118.1 589.1 Q 117.5 589.1, 116.8 589.4 Q 116.1 589.6, 115.6 590.1 Q 115.7 592.0, 116.3 592.8 Q 116.9 593.7, 118.1 593.7 " fill="#000000"/>
<path class="legend" d="M 123.3 587.9 L 130.7 587.9 L 130.7 589.1 L 123.3 589.1 L 123.3 587.9 M 123.3 591.3 L 130.7 591.3 L 130.7 592.5 L 123.3 592.5 L 123.3 591.3 " fill="#000000"/>
<path class="legend" d="M 132.7 589.1 L 138.6 589.1 L 138.6 590.4 L 132.7 590.4 L 132.7 589.1 " fill="#000000"/>
<path class="legend" d="M 144.1 595.0 Q 142.0 595.0, 141.0 593.5 Q 140.0 591.9, 140.0 589.2 Q 140.0 586.5, 141.0 584.9 Q 142.0 583.4, 144.1 583.4 Q 146.2 583.4, 147.2 584.9 Q 148.3 586.5, 148.3 589.2 Q 148.3 591.9, 147.2 593.5 Q 146.2 595.0, 144.1 595.0 M 144.1 593.7 Q 145.4 593.7, 146.0 592.6 Q 146.7 591.4, 146.7 589.2 Q 146.7 587.0, 146.0 585.8 Q 145.4 584.7, 144.1 584.7 Q 142.9 584.7, 142.2 585.8 Q 141.6 587.0, 141.6 589.2 Q 141.6 591.4, 142.2 592.6 Q 142.9 593.7, 144.1 593.7 " fill="#000000"/>
<path class="legend" d="M 149.9 593.3 L 151.5 593.3 L 151.5 594.9 L 149.9 594.9 L 149.9 593.3 " fill="#000000"/>
<path class="legend" d="M 157.3 595.0 Q 155.2 595.0, 154.2 593.5 Q 153.1 591.9, 153.1 589.2 Q 153.1 586.5, 154.2 584.9 Q 155.2 583.4, 157.3 583.4 Q 159.4 583.4, 160.4 584.9 Q 161.4 586.5, 161.4 589.2 Q 161.4 591.9, 160.4 593.5 Q 159.4 595.0, 157.3 595.0 M 157.3 593.7 Q 158.5 593.7, 159.2 592.6 Q 159.8 591.4, 159.8 589.2 Q 159.8 587.0, 159.2 585.8 Q 158.5 584.7, 157.3 584.7 Q 156.1 584.7, 155.4 585.8 Q 154.7 587.0, 154.7 589.2 Q 154.7 591.4, 155.4 592.6 Q 156.1 593.7, 157.3 593.7 " fill="#000000"/>
<path class="legend" d="M 167.2 587.8 Q 168.2 587.8, 169.0 588.2 Q 169.8 588.6, 170.3 589.4 Q 170.7 590.2, 170.7 591.3 Q 170.7 592.5, 170.1 593.3 Q 169.6 594.1, 168.7 594.6 Q 167.7 595.0, 166.7 595.0 Q 165.6 595.0, 164.7 594.6 Q 163.7 594.2, 163.1 593.5 L 164.0 592.5 Q 164.5 593.1, 165.3 593.4 Q 166.0 593.7, 166.7 593.7 Q 167.7 593.7, 168.4 593.1 Q 169.1 592.5, 169.1 591.3 Q 169.1 590.1, 168.4 589.6 Q 167.7 589.0, 166.6 589.0 Q 165.6 589.0, 164.5 589.4 L 163.6 589.0 L 164.2 583.5 L 170.0 583.5 L 169.9 584.8 L 165.5 584.8 L 165.2 588.2 Q 166.2 587.8, 167.2 587.8 " fill="#000000"/>
<path class="atom-0" d="M 286.5 487.2 Q 286.5 484.4, 287.8 483.0 Q 289.2 481.5, 291.6 481.5 Q 294.0 481.5, 295.2 483.1 L 294.2 484.0 Q 293.3 482.8, 291.6 482.8 Q 289.9 482.8, 289.0 483.9 Q 288.2 485.1, 288.2 487.2 Q 288.2 489.5, 289.1 490.6 Q 290.0 491.7, 291.8 491.7 Q 293.1 491.7, 294.5 491.0 L 295.0 492.2 Q 294.4 492.6, 293.5 492.8 Q 292.6 493.0, 291.6 493.0 Q 289.2 493.0, 287.8 491.5 Q 286.5 490.0, 286.5 487.2 " fill="#000000"/>
<path class="atom-0" d="M 296.7 481.6 L 298.2 481.6 L 298.2 486.4 L 304.0 486.4 L 304.0 481.6 L 305.5 481.6 L 305.5 492.9 L 304.0 492.9 L 304.0 487.7 L 298.2 487.7 L 298.2 492.9 L 296.7 492.9 L 296.7 481.6 " fill="#000000"/>
<path class="atom-0" d="M 312.6 496.0 L 313.5 496.0 L 313.5 496.8 L 312.6 496.8 L 312.6 498.5 L 311.6 498.5 L 311.6 496.8 L 307.8 496.8 L 307.8 496.1 L 311.0 491.1 L 312.6 491.1 L 312.6 496.0 M 309.0 496.0 L 311.6 496.0 L 311.6 491.7 L 309.0 496.0 " fill="#000000"/>
<path class="legend" d="M 237.3 585.7 Q 237.7 584.6, 238.7 584.0 Q 239.7 583.4, 241.0 583.4 Q 242.8 583.4, 243.7 584.3 Q 244.7 585.3, 244.7 586.9 Q 244.7 588.6, 243.4 590.2 Q 242.2 591.7, 239.6 593.6 L 244.9 593.6 L 244.9 594.9 L 237.2 594.9 L 237.2 593.8 Q 239.3 592.3, 240.6 591.2 Q 241.9 590.1, 242.5 589.0 Q 243.1 588.0, 243.1 587.0 Q 243.1 585.9, 242.5 585.3 Q 242.0 584.7, 241.0 584.7 Q 240.1 584.7, 239.5 585.1 Q 238.9 585.4, 238.5 586.2 L 237.3 585.7 " fill="#000000"/>
<path class="legend" d="M 246.4 593.3 L 248.0 593.3 L 248.0 594.9 L 246.4 594.9 L 246.4 593.3 " fill="#000000"/>
<path class="legend" d="M 253.8 595.0 Q 251.7 595.0, 250.7 593.5 Q 249.6 591.9, 249.6 589.2 Q 249.6 586.5, 250.7 584.9 Q 251.7 583.4, 253.8 583.4 Q 255.9 583.4, 256.9 584.9 Q 257.9 586.5, 257.9 589.2 Q 257.9 591.9, 256.9 593.5 Q 255.9 595.0, 253.8 595.0 M 253.8 593.7 Q 255.0 593.7, 255.7 592.6 Q 256.3 591.4, 256.3 589.2 Q 256.3 587.0, 255.7 585.8 Q 255.0 584.7, 253.8 584.7 Q 252.6 584.7, 251.9 585.8 Q 251.2 587.0, 251.2 589.2 Q 251.2 591.4, 251.9 592.6 Q 252.6 593.7, 253.8 593.7 " fill="#000000"/>
<path class="legend" d="M 263.7 595.0 Q 261.6 595.0, 260.6 593.5 Q 259.6 591.9, 259.6 589.2 Q 259.6 586.5, 260.6 584.9 Q 261.6 583.4, 263.7 583.4 Q 265.8 583.4, 266.8 584.9 Q 267.8 586.5, 267.8 589.2 Q 267.8 591.9, 266.8 593.5 Q 265.8 595.0, 263.7 595.0 M 263.7 593.7 Q 264.9 593.7, 265.6 592.6 Q 266.2 591.4, 266.2 589.2 Q 266.2 587.0, 265.6 585.8 Q 264.9 584.7, 263.7 584.7 Q 262.5 584.7, 261.8 585.8 Q 261.2 587.0, 261.2 589.2 Q 261.2 591.4, 261.8 592.6 Q 262.5 593.7, 263.7 593.7 " fill="#000000"/>
<path class="legend" d="" fill="#000000"/>
<path class="legend" d="M 285.6 594.9 L 283.8 594.9 L 280.5 590.2 L 277.1 594.9 L 275.4 594.9 L 279.6 589.0 L 275.7 583.5 L 277.5 583.5 L 280.5 587.8 L 283.6 583.5 L 285.4 583.5 L 281.4 589.1 L 285.6 594.9 " fill="#000000"/>
<path class="legend" d="" fill="#000000"/>
<path class="legend" d="M 296.3 595.0 Q 294.2 595.0, 293.2 593.5 Q 292.2 591.9, 292.2 589.2 Q 292.2 586.5, 293.2 584.9 Q 294.2 583.4, 296.3 583.4 Q 298.4 583.4, 299.4 584.9 Q 300.4 586.5, 300.4 589.2 Q 300.4 591.9, 299.4 593.5 Q 298.4 595.0, 296.3 595.0 M 296.3 593.7 Q 297.5 593.7, 298.2 592.6 Q 298.8 591.4, 298.8 589.2 Q 298.8 587.0, 298.2 585.8 Q 297.5 584.7, 296.3 584.7 Q 295.1 584.7, 294.4 585.8 Q 293.8 587.0, 293.8 589.2 Q 293.8 591.4, 294.4 592.6 Q 295.1 593.7, 296.3 593.7 " fill="#000000"/>
<path class="legend" d="M 302.1 593.3 L 303.7 593.3 L 303.7 594.9 L 302.1 594.9 L 302.1 593.3 " fill="#000000"/>
<path class="legend" d="M 309.4 595.0 Q 307.4 595.0, 306.3 593.5 Q 305.3 591.9, 305.3 589.2 Q 305.3 586.5, 306.3 584.9 Q 307.3 583.4, 309.4 583.4 Q 311.5 583.4, 312.6 584.9 Q 313.6 586.5, 313.6 589.2 Q 313.6 591.9, 312.5 593.5 Q 311.5 595.0, 309.4 595.0 M 309.4 593.7 Q 310.7 593.7, 311.3 592.6 Q 312.0 591.4, 312.0 589.2 Q 312.0 587.0, 311.3 585.8 Q 310.7 584.7, 309.4 584.7 Q 308.2 584.7, 307.6 585.8 Q 306.9 587.0, 306.9 589.2 Q 306.9 591.4, 307.6 592.6 Q 308.2 593.7, 309.4 593.7 " fill="#000000"/>
<path class="legend" d="M 319.6 587.8 Q 320.6 587.8, 321.4 588.2 Q 322.2 588.7, 322.6 589.4 Q 323.1 590.2, 323.1 591.2 Q 323.1 592.3, 322.6 593.2 Q 322.1 594.0, 321.2 594.5 Q 320.4 595.0, 319.3 595.0 Q 317.2 595.0, 316.2 593.6 Q 315.2 592.3, 315.2 589.5 Q 315.2 586.5, 316.5 585.0 Q 317.7 583.4, 320.1 583.4 Q 320.8 583.4, 321.4 583.6 Q 322.0 583.7, 322.6 584.1 L 322.0 585.1 Q 321.2 584.7, 320.2 584.7 Q 318.6 584.7, 317.7 585.7 Q 316.9 586.8, 316.8 588.9 Q 317.4 588.4, 318.1 588.1 Q 318.9 587.8, 319.6 587.8 M 319.3 593.7 Q 319.9 593.7, 320.4 593.4 Q 320.9 593.0, 321.2 592.5 Q 321.5 591.9, 321.5 591.2 Q 321.5 590.2, 320.9 589.7 Q 320.3 589.1, 319.4 589.1 Q 318.7 589.1, 318.0 589.4 Q 317.3 589.6, 316.8 590.1 Q 316.9 592.0, 317.5 592.8 Q 318.1 593.7, 319.3 593.7 " fill="#000000"/>
<path class="legend" d="M 324.5 587.9 L 331.9 587.9 L 331.9 589.1 L 324.5 589.1 L 324.5 587.9 M 324.5 591.3 L 331.9 591.3 L 331.9 592.5 L 324.5 592.5 L 324.5 591.3 " fill="#000000"/>
<path class="legend" d="M 338.0 595.0 Q 336.0 595.0, 334.9 593.5 Q 333.9 591.9, 333.9 589.2 Q 333.9 586.5, 334.9 584.9 Q 336.0 583.4, 338.0 583.4 Q 340.1 583.4, 341.2 584.9 Q 342.2 586.5, 342.2 589.2 Q 342.2 591.9, 341.2 593.5 Q 340.1 595.0, 338.0 595.0 M 338.0 593.7 Q 339.3 593.7, 339.9 592.6 Q 340.6 591.4, 340.6 589.2 Q 340.6 587.0, 339.9 585.8 Q 339.3 584.7, 338.0 584.7 Q 336.8 584.7, 336.2 585.8 Q 335.5 587.0, 335.5 589.2 Q 335.5 591.4, 336.2 592.6 Q 336.8 593.7, 338.0 593.7 " fill="#000000"/>
<path class="legend" d="M 343.8 593.3 L 345.4 593.3 L 345.4 594.9 L 343.8 594.9 L 343.8 593.3 " fill="#000000"/>
<path class="legend" d="M 347.7 593.6 L 350.1 593.6 L 350.1 585.1 L 347.4 586.0 L 347.0 585.0 L 350.5 583.5 L 351.7 583.7 L 351.7 593.6 L 353.9 593.6 L 353.9 594.9 L 347.7 594.9 L 347.7 593.6 " fill="#000000"/>
<path class="legend" d="M 355.2 585.7 Q 355.6 584.6, 356.6 584.0 Q 357.6 583.4, 358.9 583.4 Q 360.7 583.4, 361.6 584.3 Q 362.6 585.3, 362.6 586.9 Q 362.6 588.6, 361.3 590.2 Q 360.1 591.7, 357.5 593.6 L 362.8 593.6 L 362.8 594.9 L 355.1 594.9 L 355.1 593.8 Q 357.2 592.3, 358.5 591.2 Q 359.8 590.1, 360.4 589.0 Q 361.0 588.0, 361.0 587.0 Q 361.0 585.9, 360.4 585.3 Q 359.9 584.7, 358.9 584.7 Q 358.0 584.7, 357.4 585.1 Q 356.8 585.4, 356.4 586.2 L 355.2 585.7 " fill="#000000"/>
<path class="atom-0" d="M 488.4 481.5 L 492.1 487.5 Q 492.5 488.1, 493.1 489.1 Q 493.7 490.2, 493.7 490.2 L 493.7 481.5 L 495.2 481.5 L 495.2 492.8 L 493.7 492.8 L 489.7 486.2 Q 489.2 485.5, 488.7 484.6 Q 488.3 483.7, 488.1 483.5 L 488.1 492.8 L 486.7 492.8 L 486.7 481.5 L 488.4 481.5 " fill="#0000FF"/>
<path class="atom-0" d="M 497.4 481.5 L 498.9 481.5 L 498.9 486.3 L 504.6 486.3 L 504.6 481.5 L 506.2 481.5 L 506.2 492.8 L 504.6 492.8 L 504.6 487.6 L 498.9 487.6 L 498.9 492.8 L 497.4 492.8 L 497.4 481.5 " fill="#0000FF"/>
<path class="atom-0" d="M 511.9 494.5 Q 512.6 494.7, 513.0 495.2 Q 513.3 495.6, 513.3 496.4 Q 513.3 497.0, 513.0 497.5 Q 512.7 498.0, 512.1 498.2 Q 511.6 498.5, 510.8 498.5 Q 510.0 498.5, 509.4 498.2 Q 508.8 497.9, 508.3 497.4 L 508.9 496.8 Q 509.4 497.3, 509.8 497.5 Q 510.2 497.7, 510.8 497.7 Q 511.5 497.7, 511.9 497.3 Q 512.3 496.9, 512.3 496.3 Q 512.3 495.6, 511.9 495.3 Q 511.4 494.9, 510.5 494.9 L 510.0 494.9 L 510.0 494.2 L 510.5 494.2 Q 511.3 494.1, 511.7 493.8 Q 512.1 493.4, 512.1 492.8 Q 512.1 492.3, 511.8 492.0 Q 511.4 491.7, 510.8 491.7 Q 510.2 491.7, 509.8 491.9 Q 509.4 492.2, 509.1 492.7 L 508.4 492.3 Q 508.7 491.7, 509.3 491.3 Q 509.9 490.9, 510.8 490.9 Q 511.9 490.9, 512.5 491.4 Q 513.2 491.9, 513.2 492.8 Q 513.2 493.4, 512.9 493.8 Q 512.5 494.2, 511.9 494.5 " fill="#0000FF"/>
<path class="legend" d="M 429.4 589.1 L 435.2 589.1 L 435.2 590.4 L 429.4 590.4 L 429.4 589.1 " fill="#000000"/>
<path class="legend" d="M 444.0 591.0 L 445.4 591.0 L 445.4 592.3 L 444.0 592.3 L 444.0 594.9 L 442.5 594.9 L 442.5 592.3 L 436.6 592.3 L 436.6 591.3 L 441.6 583.5 L 444.0 583.5 L 444.0 591.0 M 438.5 591.0 L 442.5 591.0 L 442.5 584.6 L 438.5 591.0 " fill="#000000"/>
<path class="legend" d="M 446.7 593.3 L 448.3 593.3 L 448.3 594.9 L 446.7 594.9 L 446.7 593.3 " fill="#000000"/>
<path class="legend" d="M 450.0 585.7 Q 450.4 584.6, 451.4 584.0 Q 452.4 583.4, 453.8 583.4 Q 455.5 583.4, 456.4 584.3 Q 457.4 585.3, 457.4 586.9 Q 457.4 588.6, 456.2 590.2 Q 454.9 591.7, 452.4 593.6 L 457.6 593.6 L 457.6 594.9 L 450.0 594.9 L 450.0 593.8 Q 452.1 592.3, 453.3 591.2 Q 454.6 590.1, 455.2 589.0 Q 455.8 588.0, 455.8 587.0 Q 455.8 585.9, 455.3 585.3 Q 454.7 584.7, 453.8 584.7 Q 452.9 584.7, 452.3 585.1 Q 451.6 585.4, 451.2 586.2 L 450.0 585.7 " fill="#000000"/>
<path class="legend" d="M 463.0 583.4 Q 465.0 583.4, 466.0 584.8 Q 467.0 586.2, 467.0 588.9 Q 467.0 591.9, 465.7 593.4 Q 464.5 595.0, 462.1 595.0 Q 461.4 595.0, 460.8 594.8 Q 460.2 594.7, 459.6 594.3 L 460.2 593.3 Q 461.1 593.7, 462.1 593.7 Q 463.7 593.7, 464.5 592.7 Q 465.3 591.7, 465.4 589.5 Q 464.8 590.1, 464.1 590.3 Q 463.4 590.6, 462.6 590.6 Q 461.6 590.6, 460.8 590.2 Q 460.0 589.8, 459.6 589.0 Q 459.1 588.2, 459.1 587.2 Q 459.1 586.1, 459.6 585.2 Q 460.1 584.4, 461.0 583.9 Q 461.9 583.4, 463.0 583.4 M 460.7 587.2 Q 460.7 588.2, 461.3 588.8 Q 461.9 589.3, 462.9 589.3 Q 463.5 589.3, 464.2 589.1 Q 464.9 588.8, 465.4 588.3 Q 465.3 586.4, 464.7 585.6 Q 464.1 584.7, 462.9 584.7 Q 462.3 584.7, 461.8 585.0 Q 461.3 585.4, 461.0 585.9 Q 460.7 586.5, 460.7 587.2 " fill="#000000"/>
<path class="legend" d="" fill="#000000"/>
<path class="legend" d="M 484.8 594.9 L 483.1 594.9 L 479.7 590.2 L 476.4 594.9 L 474.6 594.9 L 478.8 589.0 L 474.9 583.5 L 476.7 583.5 L 479.8 587.8 L 482.8 583.5 L 484.6 583.5 L 480.7 589.1 L 484.8 594.9 " fill="#000000"/>
<path class="legend" d="" fill="#000000"/>
<path class="legend" d="M 495.5 595.0 Q 493.5 595.0, 492.4 593.5 Q 491.4 591.9, 491.4 589.2 Q 491.4 586.5, 492.4 584.9 Q 493.4 583.4, 495.5 583.4 Q 497.6 583.4, 498.7 584.9 Q 499.7 586.5, 499.7 589.2 Q 499.7 591.9, 498.6 593.5 Q 497.6 595.0, 495.5 595.0 M 495.5 593.7 Q 496.8 593.7, 497.4 592.6 Q 498.1 591.4, 498.1 589.2 Q 498.1 587.0, 497.4 585.8 Q 496.8 584.7, 495.5 584.7 Q 494.3 584.7, 493.7 585.8 Q 493.0 587.0, 493.0 589.2 Q 493.0 591.4, 493.7 592.6 Q 494.3 593.7, 495.5 593.7 " fill="#000000"/>
<path class="legend" d="M 501.3 593.3 L 502.9 593.3 L 502.9 594.9 L 501.3 594.9 L 501.3 593.3 " fill="#000000"/>
<path class="legend" d="M 508.7 595.0 Q 506.6 595.0, 505.6 593.5 Q 504.5 591.9, 504.5 589.2 Q 504.5 586.5, 505.6 584.9 Q 506.6 583.4, 508.7 583.4 Q 510.8 583.4, 511.8 584.9 Q 512.8 586.5, 512.8 589.2 Q 512.8 591.9, 511.8 593.5 Q 510.8 595.0, 508.7 595.0 M 508.7 593.7 Q 509.9 593.7, 510.6 592.6 Q 511.2 591.4, 511.2 589.2 Q 511.2 587.0, 510.6 585.8 Q 509.9 584.7, 508.7 584.7 Q 507.5 584.7, 506.8 585.8 Q 506.1 587.0, 506.1 589.2 Q 506.1 591.4, 506.8 592.6 Q 507.5 593.7, 508.7 593.7 " fill="#000000"/>
<path class="legend" d="M 518.9 587.8 Q 519.9 587.8, 520.7 588.2 Q 521.5 588.7, 521.9 589.4 Q 522.3 590.2, 522.3 591.2 Q 522.3 592.3, 521.8 593.2 Q 521.3 594.0, 520.5 594.5 Q 519.6 595.0, 518.5 595.0 Q 516.5 595.0, 515.5 593.6 Q 514.5 592.3, 514.5 589.5 Q 514.5 586.5, 515.7 585.0 Q 517.0 583.4, 519.4 583.4 Q 520.1 583.4, 520.7 583.6 Q 521.3 583.7, 521.9 584.1 L 521.3 585.1 Q 520.4 584.7, 519.4 584.7 Q 517.8 584.7, 517.0 585.7 Q 516.2 586.8, 516.1 588.9 Q 516.7 588.4, 517.4 588.1 Q 518.1 587.8, 518.9 587.8 M 518.5 593.7 Q 519.1 593.7, 519.6 593.4 Q 520.1 593.0, 520.4 592.5 Q 520.7 591.9, 520.7 591.2 Q 520.7 590.2, 520.2 589.7 Q 519.6 589.1, 518.6 589.1 Q 517.9 589.1, 517.2 589.4 Q 516.6 589.6, 516.1 590.1 Q 516.1 592.0, 516.7 592.8 Q 517.3 593.7, 518.5 593.7 " fill="#000000"/>
<path class="legend" d="M 523.8 587.9 L 531.1 587.9 L 531.1 589.1 L 523.8 589.1 L 523.8 587.9 M 523.8 591.3 L 531.1 591.3 L 531.1 592.5 L 523.8 592.5 L 523.8 591.3 " fill="#000000"/>
<path class="legend" d="M 533.2 589.1 L 539.0 589.1 L 539.0 590.4 L 533.2 590.4 L 533.2 589.1 " fill="#000000"/>
<path class="legend" d="M 544.6 595.0 Q 542.5 595.0, 541.5 593.5 Q 540.4 591.9, 540.4 589.2 Q 540.4 586.5, 541.5 584.9 Q 542.5 583.4, 544.6 583.4 Q 546.7 583.4, 547.7 584.9 Q 548.7 586.5, 548.7 589.2 Q 548.7 591.9, 547.7 593.5 Q 546.7 595.0, 544.6 595.0 M 544.6 593.7 Q 545.8 593.7, 546.5 592.6 Q 547.1 591.4, 547.1 589.2 Q 547.1 587.0, 546.5 585.8 Q 545.8 584.7, 544.6 584.7 Q 543.4 584.7, 542.7 585.8 Q 542.0 587.0, 542.0 589.2 Q 542.0 591.4, 542.7 592.6 Q 543.4 593.7, 544.6 593.7 " fill="#000000"/>
<path class="legend" d="M 550.4 593.3 L 552.0 593.3 L 552.0 594.9 L 550.4 594.9 L 550.4 593.3 " fill="#000000"/>
<path class="legend" d="M 553.6 585.7 Q 554.0 584.6, 555.0 584.0 Q 556.0 583.4, 557.4 583.4 Q 559.1 583.4, 560.1 584.3 Q 561.0 585.3, 561.0 586.9 Q 561.0 588.6, 559.8 590.2 Q 558.5 591.7, 556.0 593.6 L 561.2 593.6 L 561.2 594.9 L 553.6 594.9 L 553.6 593.8 Q 555.7 592.3, 556.9 591.2 Q 558.2 590.1, 558.8 589.0 Q 559.4 588.0, 559.4 587.0 Q 559.4 585.9, 558.9 585.3 Q 558.3 584.7, 557.4 584.7 Q 556.5 584.7, 555.9 585.1 Q 555.3 585.4, 554.8 586.2 L 553.6 585.7 " fill="#000000"/>
<path class="legend" d="M 567.2 587.8 Q 568.2 587.8, 569.0 588.2 Q 569.8 588.7, 570.2 589.4 Q 570.6 590.2, 570.6 591.2 Q 570.6 592.3, 570.1 593.2 Q 569.7 594.0, 568.8 594.5 Q 567.9 595.0, 566.8 595.0 Q 564.8 595.0, 563.8 593.6 Q 562.8 592.3, 562.8 589.5 Q 562.8 586.5, 564.0 585.0 Q 565.3 583.4, 567.7 583.4 Q 568.4 583.4, 569.0 583.6 Q 569.6 583.7, 570.2 584.1 L 569.6 585.1 Q 568.7 584.7, 567.7 584.7 Q 566.1 584.7, 565.3 585.7 Q 564.5 586.8, 564.4 588.9 Q 565.0 588.4, 565.7 588.1 Q 566.4 587.8, 567.2 587.8 M 566.8 593.7 Q 567.4 593.7, 567.9 593.4 Q 568.5 593.0, 568.7 592.5 Q 569.0 591.9, 569.0 591.2 Q 569.0 590.2, 568.5 589.7 Q 567.9 589.1, 566.9 589.1 Q 566.2 589.1, 565.5 589.4 Q 564.9 589.6, 564.4 590.1 Q 564.5 592.0, 565.0 592.8 Q 565.6 593.7, 566.8 593.7 " fill="#000000"/>
<path class="bond-0 atom-0 atom-1" d="M 665.6,497.4 L 700.0,477.5" style="fill:none;fill-rule:evenodd;stroke:#000000;stroke-width:2.0px;stroke-linecap:butt;stroke-linejoin:miter;stroke-opacity:1"/>
<path class="bond-1 atom-1 atom-2" d="M 700.0,477.5 L 734.4,497.4" style="fill:none;fill-rule:evenodd;stroke:#000000;stroke-width:2.0px;stroke-linecap:butt;stroke-linejoin:miter;stroke-opacity:1"/>
<path class="bond-1 atom-1 atom-2" d="M 700.0,484.4 L 731.4,502.5" style="fill:none;fill-rule:evenodd;stroke:#000000;stroke-width:2.0px;stroke-linecap:butt;stroke-linejoin:miter;stroke-opacity:1"/>
<path d="M 698.3,478.5 L 700.0,477.5 L 701.7,478.5" style="fill:none;stroke:#000000;stroke-width:2.0px;stroke-linecap:butt;stroke-linejoin:miter;stroke-opacity:1;"/>
<path class="legend" d="M 631.1 593.6 L 633.6 593.6 L 633.6 585.1 L 630.8 585.9 L 630.5 585.0 L 633.9 583.4 L 635.1 583.6 L 635.1 593.6 L 637.3 593.6 L 637.3 594.8 L 631.1 594.8 L 631.1 593.6 " fill="#000000"/>
<path class="legend" d="M 638.5 593.2 L 640.1 593.2 L 640.1 594.8 L 638.5 594.8 L 638.5 593.2 " fill="#000000"/>
<path class="legend" d="M 647.2 588.9 Q 648.3 589.2, 648.8 589.9 Q 649.4 590.6, 649.4 591.7 Q 649.4 592.7, 648.9 593.4 Q 648.4 594.2, 647.5 594.6 Q 646.7 595.0, 645.5 595.0 Q 644.3 595.0, 643.4 594.6 Q 642.5 594.2, 641.8 593.3 L 642.7 592.4 Q 643.4 593.1, 644.0 593.4 Q 644.6 593.7, 645.5 593.7 Q 646.5 593.7, 647.2 593.2 Q 647.8 592.6, 647.8 591.7 Q 647.8 590.6, 647.1 590.1 Q 646.5 589.5, 645.1 589.5 L 644.3 589.5 L 644.3 588.4 L 645.0 588.4 Q 646.2 588.4, 646.9 587.8 Q 647.5 587.3, 647.5 586.3 Q 647.5 585.5, 647.0 585.1 Q 646.4 584.7, 645.5 584.7 Q 644.6 584.7, 644.0 585.0 Q 643.4 585.3, 643.0 586.2 L 641.9 585.6 Q 642.3 584.6, 643.2 584.0 Q 644.2 583.4, 645.5 583.4 Q 647.2 583.4, 648.2 584.2 Q 649.1 585.0, 649.1 586.3 Q 649.1 587.2, 648.6 587.8 Q 648.1 588.5, 647.2 588.9 " fill="#000000"/>
<path class="legend" d="M 650.9 585.7 Q 651.3 584.6, 652.3 584.0 Q 653.3 583.4, 654.7 583.4 Q 656.4 583.4, 657.4 584.3 Q 658.3 585.2, 658.3 586.9 Q 658.3 588.6, 657.1 590.1 Q 655.9 591.7, 653.3 593.6 L 658.5 593.6 L 658.5 594.8 L 650.9 594.8 L 650.9 593.8 Q 653.0 592.3, 654.3 591.1 Q 655.5 590.0, 656.1 589.0 Q 656.7 588.0, 656.7 587.0 Q 656.7 585.9, 656.2 585.3 Q 655.7 584.7, 654.7 584.7 Q 653.8 584.7, 653.2 585.0 Q 652.6 585.4, 652.1 586.2 L 650.9 585.7 " fill="#000000"/>
<path class="legend" d="" fill="#000000"/>
<path class="legend" d="M 676.2 594.8 L 674.4 594.8 L 671.1 590.2 L 667.7 594.8 L 666.0 594.8 L 670.2 588.9 L 666.3 583.5 L 668.1 583.5 L 671.1 587.8 L 674.2 583.5 L 676.0 583.5 L 672.0 589.0 L 676.2 594.8 " fill="#000000"/>
<path class="legend" d="" fill="#000000"/>
<path class="legend" d="M 682.8 589.1 L 688.6 589.1 L 688.6 590.4 L 682.8 590.4 L 682.8 589.1 " fill="#000000"/>
<path class="legend" d="M 694.2 595.0 Q 692.1 595.0, 691.0 593.4 Q 690.0 591.9, 690.0 589.2 Q 690.0 586.4, 691.0 584.9 Q 692.1 583.4, 694.2 583.4 Q 696.3 583.4, 697.3 584.9 Q 698.3 586.4, 698.3 589.2 Q 698.3 591.9, 697.3 593.4 Q 696.2 595.0, 694.2 595.0 M 694.2 593.7 Q 695.4 593.7, 696.0 592.6 Q 696.7 591.4, 696.7 589.2 Q 696.7 586.9, 696.0 585.8 Q 695.4 584.7, 694.2 584.7 Q 692.9 584.7, 692.3 585.8 Q 691.6 586.9, 691.6 589.2 Q 691.6 591.4, 692.3 592.6 Q 692.9 593.7, 694.2 593.7 " fill="#000000"/>
<path class="legend" d="M 699.9 593.2 L 701.5 593.2 L 701.5 594.8 L 699.9 594.8 L 699.9 593.2 " fill="#000000"/>
<path class="legend" d="M 707.3 595.0 Q 705.2 595.0, 704.2 593.4 Q 703.1 591.9, 703.1 589.2 Q 703.1 586.4, 704.2 584.9 Q 705.2 583.4, 707.3 583.4 Q 709.4 583.4, 710.4 584.9 Q 711.4 586.4, 711.4 589.2 Q 711.4 591.9, 710.4 593.4 Q 709.4 595.0, 707.3 595.0 M 707.3 593.7 Q 708.5 593.7, 709.2 592.6 Q 709.8 591.4, 709.8 589.2 Q 709.8 586.9, 709.2 585.8 Q 708.5 584.7, 707.3 584.7 Q 706.1 584.7, 705.4 585.8 Q 704.7 586.9, 704.7 589.2 Q 704.7 591.4, 705.4 592.6 Q 706.1 593.7, 707.3 593.7 " fill="#000000"/>
<path class="legend" d="M 717.5 587.8 Q 718.5 587.8, 719.3 588.2 Q 720.0 588.6, 720.5 589.4 Q 720.9 590.2, 720.9 591.2 Q 720.9 592.3, 720.4 593.2 Q 719.9 594.0, 719.1 594.5 Q 718.2 595.0, 717.1 595.0 Q 715.1 595.0, 714.1 593.6 Q 713.1 592.2, 713.1 589.5 Q 713.1 586.5, 714.3 585.0 Q 715.6 583.4, 718.0 583.4 Q 718.7 583.4, 719.3 583.5 Q 719.9 583.7, 720.5 584.0 L 719.8 585.1 Q 719.0 584.7, 718.0 584.7 Q 716.4 584.7, 715.6 585.7 Q 714.8 586.7, 714.7 588.9 Q 715.2 588.3, 716.0 588.1 Q 716.7 587.8, 717.5 587.8 M 717.1 593.7 Q 717.7 593.7, 718.2 593.3 Q 718.7 593.0, 719.0 592.5 Q 719.3 591.9, 719.3 591.2 Q 719.3 590.2, 718.7 589.6 Q 718.2 589.0, 717.2 589.0 Q 716.5 589.0, 715.8 589.3 Q 715.1 589.6, 714.7 590.1 Q 714.7 592.0, 715.3 592.8 Q 715.9 593.7, 717.1 593.7 " fill="#000000"/>
<path class="legend" d="M 722.4 587.9 L 729.7 587.9 L 729.7 589.0 L 722.4 589.0 L 722.4 587.9 M 722.4 591.3 L 729.7 591.3 L 729.7 592.5 L 722.4 592.5 L 722.4 591.3 " fill="#000000"/>
<path class="legend" d="M 731.7 589.1 L 737.6 589.1 L 737.6 590.4 L 731.7 590.4 L 731.7 589.1 " fill="#000000"/>
<path class="legend" d="M 743.1 595.0 Q 741.1 595.0, 740.0 593.4 Q 739.0 591.9, 739.0 589.2 Q 739.0 586.4, 740.0 584.9 Q 741.0 583.4, 743.1 583.4 Q 745.2 583.4, 746.3 584.9 Q 747.3 586.4, 747.3 589.2 Q 747.3 591.9, 746.2 593.4 Q 745.2 595.0, 743.1 595.0 M 743.1 593.7 Q 744.4 593.7, 745.0 592.6 Q 745.7 591.4, 745.7 589.2 Q 745.7 586.9, 745.0 585.8 Q 744.4 584.7, 743.1 584.7 Q 741.9 584.7, 741.2 585.8 Q 740.6 586.9, 740.6 589.2 Q 740.6 591.4, 741.2 592.6 Q 741.9 593.7, 743.1 593.7 " fill="#000000"/>
<path class="legend" d="M 748.9 593.2 L 750.5 593.2 L 750.5 594.8 L 748.9 594.8 L 748.9 593.2 " fill="#000000"/>
<path class="legend" d="M 756.3 595.0 Q 754.2 595.0, 753.1 593.4 Q 752.1 591.9, 752.1 589.2 Q 752.1 586.4, 753.1 584.9 Q 754.2 583.4, 756.3 583.4 Q 758.4 583.4, 759.4 584.9 Q 760.4 586.4, 760.4 589.2 Q 760.4 591.9, 759.4 593.4 Q 758.3 595.0, 756.3 595.0 M 756.3 593.7 Q 757.5 593.7, 758.2 592.6 Q 758.8 591.4, 758.8 589.2 Q 758.8 586.9, 758.2 585.8 Q 757.5 584.7, 756.3 584.7 Q 755.0 584.7, 754.4 585.8 Q 753.7 586.9, 753.7 589.2 Q 753.7 591.4, 754.4 592.6 Q 755.0 593.7, 756.3 593.7 " fill="#000000"/>
<path class="legend" d="M 768.0 584.8 L 762.0 584.8 L 762.0 583.5 L 769.5 583.5 L 769.5 584.6 L 765.0 594.8 L 763.4 594.8 L 768.0 584.8 " fill="#000000"/>
</svg>