<svg xmlns="http://www.w3.org/2000/svg" xmlns:rdkit="http://www.rdkit.org/xml" xmlns:xlink="http://www.w3.org/1999/xlink" version="1.1" baseProfile="full" xml:space="preserve" width="800px" height="600px" viewBox="0 0 800 600">
<!-- END OF HEADER -->
<rect style="opacity:1.0;fill:#FFFFFF;stroke:none" width="800.0" height="600.0" x="0.0" y="0.0"> </rect>
<path class="bond-0 atom-0 atom-1" d="M 23.0,79.3 L 37.8,70.7" style="fill:none;fill-rule:evenodd;stroke:#000000;stroke-width:2.0px;stroke-linecap:butt;stroke-linejoin:miter;stroke-opacity:1"/>
<path class="bond-0 atom-0 atom-1" d="M 37.8,70.7 L 52.7,62.1" style="fill:none;fill-rule:evenodd;stroke:#FF0000;stroke-width:2.0px;stroke-linecap:butt;stroke-linejoin:miter;stroke-opacity:1"/>
<path class="bond-1 atom-1 atom-2" d="M 66.5,62.1 L 81.4,70.7" style="fill:none;fill-rule:evenodd;stroke:#FF0000;stroke-width:2.0px;stroke-linecap:butt;stroke-linejoin:miter;stroke-opacity:1"/>
<path class="bond-1 atom-1 atom-2" d="M 81.4,70.7 L 96.3,79.3" style="fill:none;fill-rule:evenodd;stroke:#000000;stroke-width:2.0px;stroke-linecap:butt;stroke-linejoin:miter;stroke-opacity:1"/>
<path class="bond-2 atom-2 atom-3" d="M 93.1,77.5 L 93.1,95.8" style="fill:none;fill-rule:evenodd;stroke:#000000;stroke-width:2.0px;stroke-linecap:butt;stroke-linejoin:miter;stroke-opacity:1"/>
<path class="bond-2 atom-2 atom-3" d="M 93.1,95.8 L 93.1,114.2" style="fill:none;fill-rule:evenodd;stroke:#FF0000;stroke-width:2.0px;stroke-linecap:butt;stroke-linejoin:miter;stroke-opacity:1"/>
<path class="bond-2 atom-2 atom-3" d="M 99.5,77.5 L 99.5,95.8" style="fill:none;fill-rule:evenodd;stroke:#000000;stroke-width:2.0px;stroke-linecap:butt;stroke-linejoin:miter;stroke-opacity:1"/>
<path class="bond-2 atom-2 atom-3" d="M 99.5,95.8 L 99.5,114.2" style="fill:none;fill-rule:evenodd;stroke:#FF0000;stroke-width:2.0px;stroke-linecap:butt;stroke-linejoin:miter;stroke-opacity:1"/>
<path class="bond-3 atom-2 atom-4" d="M 96.3,79.3 L 133.0,58.2" style="fill:none;fill-rule:evenodd;stroke:#000000;stroke-width:2.0px;stroke-linecap:butt;stroke-linejoin:miter;stroke-opacity:1"/>
<path class="bond-4 atom-4 atom-5" d="M 133.0,58.2 L 148.3,67.0" style="fill:none;fill-rule:evenodd;stroke:#000000;stroke-width:2.0px;stroke-linecap:butt;stroke-linejoin:miter;stroke-opacity:1"/>
<path class="bond-4 atom-4 atom-5" d="M 148.3,67.0 L 163.6,75.8" style="fill:none;fill-rule:evenodd;stroke:#00CC00;stroke-width:2.0px;stroke-linecap:butt;stroke-linejoin:miter;stroke-opacity:1"/>
<path d="M 95.6,78.9 L 96.3,79.3 L 98.1,78.3" style="fill:none;stroke:#000000;stroke-width:2.0px;stroke-linecap:butt;stroke-linejoin:miter;stroke-opacity:1;"/>
<path d="M 131.1,59.2 L 133.0,58.2 L 133.7,58.6" style="fill:none;stroke:#000000;stroke-width:2.0px;stroke-linecap:butt;stroke-linejoin:miter;stroke-opacity:1;"/>
<path class="atom-1" d="M 54.1 58.2 Q 54.1 55.3, 55.6 53.7 Q 57.0 52.1, 59.6 52.1 Q 62.3 52.1, 63.7 53.7 Q 65.1 55.3, 65.1 58.2 Q 65.1 61.1, 63.7 62.8 Q 62.3 64.4, 59.6 64.4 Q 57.0 64.4, 55.6 62.8 Q 54.1 61.1, 54.1 58.2 M 59.6 63.0 Q 61.5 63.0, 62.4 61.8 Q 63.4 60.6, 63.4 58.2 Q 63.4 55.8, 62.4 54.6 Q 61.5 53.4, 59.6 53.4 Q 57.8 53.4, 56.8 54.6 Q 55.8 55.8, 55.8 58.2 Q 55.8 60.6, 56.8 61.8 Q 57.8 63.0, 59.6 63.0 " fill="#FF0000"/>
<path class="atom-3" d="M 90.8 121.7 Q 90.8 118.8, 92.2 117.2 Q 93.6 115.6, 96.3 115.6 Q 99.0 115.6, 100.4 117.2 Q 101.8 118.8, 101.8 121.7 Q 101.8 124.6, 100.4 126.3 Q 98.9 127.9, 96.3 127.9 Q 93.7 127.9, 92.2 126.3 Q 90.8 124.6, 90.8 121.7 M 96.3 126.6 Q 98.1 126.6, 99.1 125.3 Q 100.1 124.1, 100.1 121.7 Q 100.1 119.3, 99.1 118.2 Q 98.1 117.0, 96.3 117.0 Q 94.5 117.0, 93.5 118.1 Q 92.5 119.3, 92.5 121.7 Q 92.5 124.1, 93.5 125.3 Q 94.5 126.6, 96.3 126.6 " fill="#FF0000"/>
<path class="atom-5" d="M 165.0 79.7 Q 165.0 76.8, 166.4 75.2 Q 167.8 73.6, 170.5 73.6 Q 172.9 73.6, 174.3 75.4 L 173.1 76.3 Q 172.2 75.0, 170.5 75.0 Q 168.7 75.0, 167.7 76.2 Q 166.7 77.4, 166.7 79.7 Q 166.7 82.1, 167.7 83.3 Q 168.7 84.5, 170.7 84.5 Q 172.0 84.5, 173.5 83.8 L 174.0 85.0 Q 173.4 85.4, 172.4 85.7 Q 171.5 85.9, 170.4 85.9 Q 167.8 85.9, 166.4 84.3 Q 165.0 82.7, 165.0 79.7 " fill="#00CC00"/>
<path class="atom-5" d="M 175.5 72.9 L 177.0 72.9 L 177.0 85.7 L 175.5 85.7 L 175.5 72.9 " fill="#00CC00"/>
<path class="legend" d="M 29.5 189.1 L 35.3 189.1 L 35.3 190.4 L 29.5 190.4 L 29.5 189.1 " fill="#000000"/>
<path class="legend" d="M 44.1 191.0 L 45.5 191.0 L 45.5 192.3 L 44.1 192.3 L 44.1 194.9 L 42.6 194.9 L 42.6 192.3 L 36.7 192.3 L 36.7 191.3 L 41.7 183.5 L 44.1 183.5 L 44.1 191.0 M 38.6 191.0 L 42.6 191.0 L 42.6 184.6 L 38.6 191.0 " fill="#000000"/>
<path class="legend" d="M 46.8 193.3 L 48.4 193.3 L 48.4 194.9 L 46.8 194.9 L 46.8 193.3 " fill="#000000"/>
<path class="legend" d="M 54.2 195.0 Q 52.1 195.0, 51.1 193.5 Q 50.1 191.9, 50.1 189.2 Q 50.1 186.5, 51.1 184.9 Q 52.1 183.4, 54.2 183.4 Q 56.3 183.4, 57.3 184.9 Q 58.4 186.5, 58.4 189.2 Q 58.4 191.9, 57.3 193.5 Q 56.3 195.0, 54.2 195.0 M 54.2 193.7 Q 55.4 193.7, 56.1 192.6 Q 56.8 191.4, 56.8 189.2 Q 56.8 187.0, 56.1 185.8 Q 55.4 184.7, 54.2 184.7 Q 53.0 184.7, 52.3 185.8 Q 51.7 187.0, 51.7 189.2 Q 51.7 191.4, 52.3 192.6 Q 53.0 193.7, 54.2 193.7 " fill="#000000"/>
<path class="legend" d="M 64.1 195.0 Q 62.1 195.0, 61.0 193.5 Q 60.0 191.9, 60.0 189.2 Q 60.0 186.5, 61.0 184.9 Q 62.0 183.4, 64.1 183.4 Q 66.2 183.4, 67.3 184.9 Q 68.3 186.5, 68.3 189.2 Q 68.3 191.9, 67.2 193.5 Q 66.2 195.0, 64.1 195.0 M 64.1 193.7 Q 65.4 193.7, 66.0 192.6 Q 66.7 191.4, 66.7 189.2 Q 66.7 187.0, 66.0 185.8 Q 65.4 184.7, 64.1 184.7 Q 62.9 184.7, 62.3 185.8 Q 61.6 187.0, 61.6 189.2 Q 61.6 191.4, 62.3 192.6 Q 62.9 193.7, 64.1 193.7 " fill="#000000"/>
<path class="legend" d="" fill="#000000"/>
<path class="legend" d="M 86.1 194.9 L 84.3 194.9 L 80.9 190.2 L 77.6 194.9 L 75.8 194.9 L 80.1 189.0 L 76.2 183.5 L 77.9 183.5 L 81.0 187.8 L 84.1 183.5 L 85.8 183.5 L 81.9 189.1 L 86.1 194.9 " fill="#000000"/>
<path class="legend" d="" fill="#000000"/>
<path class="legend" d="M 96.8 195.0 Q 94.7 195.0, 93.7 193.5 Q 92.6 191.9, 92.6 189.2 Q 92.6 186.5, 93.7 184.9 Q 94.7 183.4, 96.8 183.4 Q 98.9 183.4, 99.9 184.9 Q 100.9 186.5, 100.9 189.2 Q 100.9 191.9, 99.9 193.5 Q 98.9 195.0, 96.8 195.0 M 96.8 193.7 Q 98.0 193.7, 98.7 192.6 Q 99.3 191.4, 99.3 189.2 Q 99.3 187.0, 98.7 185.8 Q 98.0 184.7, 96.8 184.7 Q 95.6 184.7, 94.9 185.8 Q 94.2 187.0, 94.2 189.2 Q 94.2 191.4, 94.9 192.6 Q 95.6 193.7, 96.8 193.7 " fill="#000000"/>
<path class="legend" d="M 102.6 193.3 L 104.2 193.3 L 104.2 194.9 L 102.6 194.9 L 102.6 193.3 " fill="#000000"/>
<path class="legend" d="M 106.4 193.6 L 108.9 193.6 L 108.9 185.1 L 106.2 186.0 L 105.8 185.0 L 109.3 183.5 L 110.4 183.7 L 110.4 193.6 L 112.6 193.6 L 112.6 194.9 L 106.4 194.9 L 106.4 193.6 " fill="#000000"/>
<path class="legend" d="M 117.7 183.4 Q 119.7 183.4, 120.7 184.8 Q 121.7 186.2, 121.7 188.9 Q 121.7 191.9, 120.5 193.4 Q 119.2 195.0, 116.8 195.0 Q 116.1 195.0, 115.5 194.8 Q 114.9 194.7, 114.3 194.3 L 115.0 193.3 Q 115.8 193.7, 116.8 193.7 Q 118.4 193.7, 119.2 192.7 Q 120.0 191.7, 120.1 189.5 Q 119.6 190.1, 118.8 190.3 Q 118.1 190.6, 117.3 190.6 Q 116.3 190.6, 115.5 190.2 Q 114.8 189.8, 114.3 189.0 Q 113.9 188.2, 113.9 187.2 Q 113.9 186.1, 114.4 185.2 Q 114.9 184.4, 115.7 183.9 Q 116.6 183.4, 117.7 183.4 M 115.5 187.2 Q 115.5 188.2, 116.0 188.8 Q 116.6 189.3, 117.6 189.3 Q 118.3 189.3, 119.0 189.1 Q 119.6 188.8, 120.1 188.3 Q 120.1 186.4, 119.5 185.6 Q 118.9 184.7, 117.7 184.7 Q 117.1 184.7, 116.6 185.0 Q 116.1 185.4, 115.8 185.9 Q 115.5 186.5, 115.5 187.2 " fill="#000000"/>
<path class="legend" d="M 123.4 187.9 L 130.8 187.9 L 130.8 189.1 L 123.4 189.1 L 123.4 187.9 M 123.4 191.3 L 130.8 191.3 L 130.8 192.5 L 123.4 192.5 L 123.4 191.3 " fill="#000000"/>
<path class="legend" d="M 132.8 189.1 L 138.7 189.1 L 138.7 190.4 L 132.8 190.4 L 132.8 189.1 " fill="#000000"/>
<path class="legend" d="M 144.2 195.0 Q 142.1 195.0, 141.1 193.5 Q 140.1 191.9, 140.1 189.2 Q 140.1 186.5, 141.1 184.9 Q 142.1 183.4, 144.2 183.4 Q 146.3 183.4, 147.3 184.9 Q 148.4 186.5, 148.4 189.2 Q 148.4 191.9, 147.3 193.5 Q 146.3 195.0, 144.2 195.0 M 144.2 193.7 Q 145.4 193.7, 146.1 192.6 Q 146.8 191.4, 146.8 189.2 Q 146.8 187.0, 146.1 185.8 Q 145.4 184.7, 144.2 184.7 Q 143.0 184.7, 142.3 185.8 Q 141.7 187.0, 141.7 189.2 Q 141.7 191.4, 142.3 192.6 Q 143.0 193.7, 144.2 193.7 " fill="#000000"/>
<path class="legend" d="M 150.0 193.3 L 151.6 193.3 L 151.6 194.9 L 150.0 194.9 L 150.0 193.3 " fill="#000000"/>
<path class="legend" d="M 159.2 184.8 L 153.2 184.8 L 153.2 183.5 L 160.7 183.5 L 160.7 184.7 L 156.2 194.9 L 154.6 194.9 L 159.2 184.8 " fill="#000000"/>
<path class="legend" d="M 169.2 191.0 L 170.5 191.0 L 170.5 192.3 L 169.2 192.3 L 169.2 194.9 L 167.7 194.9 L 167.7 192.3 L 161.8 192.3 L 161.8 191.3 L 166.8 183.5 L 169.2 183.5 L 169.2 191.0 M 163.7 191.0 L 167.7 191.0 L 167.7 184.6 L 163.7 191.0 " fill="#000000"/>
<path class="bond-0 atom-0 atom-1" d="M 276.1,86.7 L 293.8,86.7" style="fill:none;fill-rule:evenodd;stroke:#000000;stroke-width:2.0px;stroke-linecap:butt;stroke-linejoin:miter;stroke-opacity:1"/>
<path class="bond-0 atom-0 atom-1" d="M 293.8,86.7 L 311.5,86.7" style="fill:none;fill-rule:evenodd;stroke:#FF0000;stroke-width:2.0px;stroke-linecap:butt;stroke-linejoin:miter;stroke-opacity:1"/>
<path class="bond-0 atom-0 atom-1" d="M 276.1,93.1 L 293.8,93.1" style="fill:none;fill-rule:evenodd;stroke:#000000;stroke-width:2.0px;stroke-linecap:butt;stroke-linejoin:miter;stroke-opacity:1"/>
<path class="bond-0 atom-0 atom-1" d="M 293.8,93.1 L 311.5,93.1" style="fill:none;fill-rule:evenodd;stroke:#FF0000;stroke-width:2.0px;stroke-linecap:butt;stroke-linejoin:miter;stroke-opacity:1"/>
<path class="atom-1" d="M 312.9 89.9 Q 312.9 87.1, 314.3 85.5 Q 315.8 83.8, 318.4 83.8 Q 321.1 83.8, 322.5 85.5 Q 323.9 87.1, 323.9 89.9 Q 323.9 92.9, 322.5 94.5 Q 321.0 96.2, 318.4 96.2 Q 315.8 96.2, 314.3 94.5 Q 312.9 92.9, 312.9 89.9 M 318.4 94.8 Q 320.2 94.8, 321.2 93.6 Q 322.2 92.3, 322.2 89.9 Q 322.2 87.6, 321.2 86.4 Q 320.2 85.2, 318.4 85.2 Q 316.6 85.2, 315.6 86.4 Q 314.6 87.6, 314.6 89.9 Q 314.6 92.4, 315.6 93.6 Q 316.6 94.8, 318.4 94.8 " fill="#FF0000"/>
<path class="legend" d="M 231.2 189.1 L 237.1 189.1 L 237.1 190.4 L 231.2 190.4 L 231.2 189.1 " fill="#000000"/>
<path class="legend" d="M 238.5 185.7 Q 238.9 184.6, 239.9 184.0 Q 240.9 183.4, 242.3 183.4 Q 244.0 183.4, 245.0 184.3 Q 245.9 185.2, 245.9 186.9 Q 245.9 188.6, 244.7 190.1 Q 243.5 191.7, 240.9 193.6 L 246.1 193.6 L 246.1 194.8 L 238.5 194.8 L 238.5 193.8 Q 240.6 192.3, 241.9 191.1 Q 243.1 190.0, 243.7 189.0 Q 244.3 188.0, 244.3 187.0 Q 244.3 185.9, 243.8 185.3 Q 243.2 184.7, 242.3 184.7 Q 241.4 184.7, 240.8 185.0 Q 240.2 185.4, 239.7 186.2 L 238.5 185.7 " fill="#000000"/>
<path class="legend" d="M 247.7 193.2 L 249.3 193.2 L 249.3 194.8 L 247.7 194.8 L 247.7 193.2 " fill="#000000"/>
<path class="legend" d="M 256.8 184.8 L 250.9 184.8 L 250.9 183.5 L 258.4 183.5 L 258.4 184.6 L 253.8 194.8 L 252.3 194.8 L 256.8 184.8 " fill="#000000"/>
<path class="legend" d="M 263.6 187.8 Q 264.6 187.8, 265.4 188.2 Q 266.2 188.6, 266.7 189.4 Q 267.1 190.2, 267.1 191.3 Q 267.1 192.4, 266.5 193.3 Q 266.0 194.1, 265.1 194.5 Q 264.1 195.0, 263.1 195.0 Q 262.0 195.0, 261.1 194.6 Q 260.1 194.2, 259.5 193.5 L 260.4 192.5 Q 260.9 193.0, 261.7 193.4 Q 262.4 193.7, 263.1 193.7 Q 264.1 193.7, 264.8 193.0 Q 265.5 192.4, 265.5 191.3 Q 265.5 190.1, 264.8 189.5 Q 264.1 189.0, 263.0 189.0 Q 262.0 189.0, 260.9 189.4 L 260.0 189.0 L 260.6 183.5 L 266.4 183.5 L 266.3 184.8 L 261.9 184.8 L 261.6 188.2 Q 262.6 187.8, 263.6 187.8 " fill="#000000"/>
<path class="legend" d="" fill="#000000"/>
<path class="legend" d="M 284.6 194.8 L 282.8 194.8 L 279.5 190.2 L 276.1 194.8 L 274.4 194.8 L 278.6 188.9 L 274.7 183.5 L 276.5 183.5 L 279.5 187.8 L 282.6 183.5 L 284.3 183.5 L 280.4 189.0 L 284.6 194.8 " fill="#000000"/>
<path class="legend" d="" fill="#000000"/>
<path class="legend" d="M 295.3 195.0 Q 293.2 195.0, 292.2 193.4 Q 291.1 191.9, 291.1 189.2 Q 291.1 186.4, 292.2 184.9 Q 293.2 183.4, 295.3 183.4 Q 297.4 183.4, 298.4 184.9 Q 299.4 186.4, 299.4 189.2 Q 299.4 191.9, 298.4 193.4 Q 297.4 195.0, 295.3 195.0 M 295.3 193.7 Q 296.5 193.7, 297.2 192.6 Q 297.8 191.4, 297.8 189.2 Q 297.8 186.9, 297.2 185.8 Q 296.5 184.7, 295.3 184.7 Q 294.1 184.7, 293.4 185.8 Q 292.7 186.9, 292.7 189.2 Q 292.7 191.4, 293.4 192.6 Q 294.1 193.7, 295.3 193.7 " fill="#000000"/>
<path class="legend" d="M 301.1 193.2 L 302.7 193.2 L 302.7 194.8 L 301.1 194.8 L 301.1 193.2 " fill="#000000"/>
<path class="legend" d="M 304.9 193.6 L 307.4 193.6 L 307.4 185.1 L 304.6 185.9 L 304.3 185.0 L 307.7 183.4 L 308.9 183.6 L 308.9 193.6 L 311.1 193.6 L 311.1 194.8 L 304.9 194.8 L 304.9 193.6 " fill="#000000"/>
<path class="legend" d="M 318.3 184.8 L 312.4 184.8 L 312.4 183.5 L 319.9 183.5 L 319.9 184.6 L 315.3 194.8 L 313.8 194.8 L 318.3 184.8 " fill="#000000"/>
<path class="legend" d="M 320.9 187.9 L 328.3 187.9 L 328.3 189.0 L 320.9 189.0 L 320.9 187.9 M 320.9 191.3 L 328.3 191.3 L 328.3 192.5 L 320.9 192.5 L 320.9 191.3 " fill="#000000"/>
<path class="legend" d="M 330.3 189.1 L 336.2 189.1 L 336.2 190.4 L 330.3 190.4 L 330.3 189.1 " fill="#000000"/>
<path class="legend" d="M 341.7 195.0 Q 339.6 195.0, 338.6 193.4 Q 337.5 191.9, 337.5 189.2 Q 337.5 186.4, 338.6 184.9 Q 339.6 183.4, 341.7 183.4 Q 343.8 183.4, 344.8 184.9 Q 345.8 186.4, 345.8 189.2 Q 345.8 191.9, 344.8 193.4 Q 343.8 195.0, 341.7 195.0 M 341.7 193.7 Q 342.9 193.7, 343.6 192.6 Q 344.2 191.4, 344.2 189.2 Q 344.2 186.9, 343.6 185.8 Q 342.9 184.7, 341.7 184.7 Q 340.5 184.7, 339.8 185.8 Q 339.1 186.9, 339.1 189.2 Q 339.1 191.4, 339.8 192.6 Q 340.5 193.7, 341.7 193.7 " fill="#000000"/>
<path class="legend" d="M 347.5 193.2 L 349.1 193.2 L 349.1 194.8 L 347.5 194.8 L 347.5 193.2 " fill="#000000"/>
<path class="legend" d="M 358.0 191.0 L 359.4 191.0 L 359.4 192.2 L 358.0 192.2 L 358.0 194.8 L 356.5 194.8 L 356.5 192.2 L 350.7 192.2 L 350.7 191.2 L 355.6 183.5 L 358.0 183.5 L 358.0 191.0 M 352.5 191.0 L 356.5 191.0 L 356.5 184.5 L 352.5 191.0 " fill="#000000"/>
<path class="legend" d="M 366.5 188.8 Q 367.6 189.3, 368.2 190.0 Q 368.8 190.6, 368.8 191.7 Q 368.8 192.7, 368.3 193.4 Q 367.8 194.2, 366.9 194.6 Q 366.0 195.0, 364.8 195.0 Q 362.9 195.0, 361.8 194.1 Q 360.8 193.3, 360.8 191.7 Q 360.8 190.8, 361.2 190.1 Q 361.7 189.4, 362.7 188.9 Q 362.0 188.5, 361.6 187.9 Q 361.2 187.2, 361.2 186.3 Q 361.2 185.0, 362.1 184.2 Q 363.1 183.4, 364.8 183.4 Q 366.4 183.4, 367.4 184.2 Q 368.3 185.0, 368.3 186.3 Q 368.3 187.1, 367.9 187.7 Q 367.4 188.3, 366.5 188.8 M 364.8 184.6 Q 363.8 184.6, 363.3 185.0 Q 362.8 185.5, 362.8 186.3 Q 362.8 186.9, 363.1 187.3 Q 363.5 187.7, 364.0 187.9 Q 364.5 188.1, 365.5 188.4 Q 366.2 188.0, 366.4 187.4 Q 366.7 186.9, 366.7 186.3 Q 366.7 185.5, 366.2 185.0 Q 365.7 184.6, 364.8 184.6 M 364.8 193.8 Q 365.9 193.8, 366.5 193.2 Q 367.2 192.7, 367.2 191.7 Q 367.2 191.1, 366.8 190.7 Q 366.5 190.3, 366.0 190.1 Q 365.5 189.9, 364.6 189.6 L 363.9 189.4 Q 363.1 189.8, 362.7 190.4 Q 362.4 191.0, 362.4 191.7 Q 362.4 192.7, 363.0 193.2 Q 363.7 193.8, 364.8 193.8 " fill="#000000"/>
<path class="bond-0 atom-0 atom-1" d="M 427.4,106.3 L 466.7,90.5" style="fill:none;fill-rule:evenodd;stroke:#000000;stroke-width:2.0px;stroke-linecap:butt;stroke-linejoin:miter;stroke-opacity:1"/>
<path class="bond-1 atom-1 atom-2" d="M 466.7,90.5 L 500.0,116.7" style="fill:none;fill-rule:evenodd;stroke:#000000;stroke-width:2.0px;stroke-linecap:butt;stroke-linejoin:miter;stroke-opacity:1"/>
<path class="bond-2 atom-2 atom-3" d="M 500.0,116.7 L 539.3,100.9" style="fill:none;fill-rule:evenodd;stroke:#000000;stroke-width:2.0px;stroke-linecap:butt;stroke-linejoin:miter;stroke-opacity:1"/>
<path class="bond-3 atom-3 atom-4" d="M 542.2,103.2 L 544.8,85.1" style="fill:none;fill-rule:evenodd;stroke:#000000;stroke-width:2.0px;stroke-linecap:butt;stroke-linejoin:miter;stroke-opacity:1"/>
<path class="bond-3 atom-3 atom-4" d="M 544.8,85.1 L 547.3,67.1" style="fill:none;fill-rule:evenodd;stroke:#FF0000;stroke-width:2.0px;stroke-linecap:butt;stroke-linejoin:miter;stroke-opacity:1"/>
<path class="bond-3 atom-3 atom-4" d="M 535.9,102.3 L 538.5,84.2" style="fill:none;fill-rule:evenodd;stroke:#000000;stroke-width:2.0px;stroke-linecap:butt;stroke-linejoin:miter;stroke-opacity:1"/>
<path class="bond-3 atom-3 atom-4" d="M 538.5,84.2 L 541.1,66.2" style="fill:none;fill-rule:evenodd;stroke:#FF0000;stroke-width:2.0px;stroke-linecap:butt;stroke-linejoin:miter;stroke-opacity:1"/>
<path class="bond-4 atom-3 atom-5" d="M 539.3,100.9 L 572.6,127.1" style="fill:none;fill-rule:evenodd;stroke:#000000;stroke-width:2.0px;stroke-linecap:butt;stroke-linejoin:miter;stroke-opacity:1"/>
<path d="M 464.7,91.3 L 466.7,90.5 L 468.4,91.8" style="fill:none;stroke:#000000;stroke-width:2.0px;stroke-linecap:butt;stroke-linejoin:miter;stroke-opacity:1;"/>
<path d="M 498.3,115.4 L 500.0,116.7 L 502.0,115.9" style="fill:none;stroke:#000000;stroke-width:2.0px;stroke-linecap:butt;stroke-linejoin:miter;stroke-opacity:1;"/>
<path d="M 537.3,101.7 L 539.3,100.9 L 541.0,102.2" style="fill:none;stroke:#000000;stroke-width:2.0px;stroke-linecap:butt;stroke-linejoin:miter;stroke-opacity:1;"/>
<path class="atom-4" d="M 539.8 59.0 Q 539.8 56.2, 541.2 54.5 Q 542.6 52.9, 545.3 52.9 Q 548.0 52.9, 549.4 54.5 Q 550.8 56.2, 550.8 59.0 Q 550.8 61.9, 549.4 63.6 Q 547.9 65.2, 545.3 65.2 Q 542.7 65.2, 541.2 63.6 Q 539.8 62.0, 539.8 59.0 M 545.3 63.9 Q 547.1 63.9, 548.1 62.7 Q 549.1 61.4, 549.1 59.0 Q 549.1 56.7, 548.1 55.5 Q 547.1 54.3, 545.3 54.3 Q 543.5 54.3, 542.5 55.5 Q 541.5 56.7, 541.5 59.0 Q 541.5 61.5, 542.5 62.7 Q 543.5 63.9, 545.3 63.9 " fill="#FF0000"/>
<path class="legend" d="M 430.9 189.1 L 436.8 189.1 L 436.8 190.4 L 430.9 190.4 L 430.9 189.1 " fill="#000000"/>
<path class="legend" d="M 443.6 188.9 Q 444.7 189.2, 445.2 189.9 Q 445.8 190.6, 445.8 191.7 Q 445.8 192.7, 445.3 193.4 Q 444.8 194.2, 443.9 194.6 Q 443.1 195.0, 441.9 195.0 Q 440.7 195.0, 439.8 194.6 Q 438.9 194.2, 438.2 193.3 L 439.1 192.4 Q 439.8 193.1, 440.4 193.4 Q 441.0 193.7, 441.9 193.7 Q 442.9 193.7, 443.6 193.2 Q 444.2 192.6, 444.2 191.7 Q 444.2 190.6, 443.5 190.1 Q 442.9 189.5, 441.5 189.5 L 440.7 189.5 L 440.7 188.4 L 441.4 188.4 Q 442.6 188.4, 443.3 187.8 Q 443.9 187.3, 443.9 186.3 Q 443.9 185.5, 443.4 185.1 Q 442.9 184.7, 441.9 184.7 Q 441.0 184.7, 440.4 185.0 Q 439.8 185.3, 439.4 186.2 L 438.3 185.6 Q 438.7 184.6, 439.6 184.0 Q 440.6 183.4, 441.9 183.4 Q 443.6 183.4, 444.6 184.2 Q 445.5 185.0, 445.5 186.3 Q 445.5 187.2, 445.1 187.8 Q 444.6 188.5, 443.6 188.9 " fill="#000000"/>
<path class="legend" d="M 447.3 193.2 L 448.9 193.2 L 448.9 194.8 L 447.3 194.8 L 447.3 193.2 " fill="#000000"/>
<path class="legend" d="M 454.6 187.8 Q 455.6 187.8, 456.4 188.2 Q 457.3 188.6, 457.7 189.4 Q 458.2 190.2, 458.2 191.3 Q 458.2 192.4, 457.6 193.3 Q 457.1 194.1, 456.1 194.5 Q 455.2 195.0, 454.1 195.0 Q 453.1 195.0, 452.1 194.6 Q 451.2 194.2, 450.5 193.5 L 451.5 192.5 Q 452.0 193.0, 452.7 193.4 Q 453.5 193.7, 454.2 193.7 Q 455.2 193.7, 455.9 193.0 Q 456.6 192.4, 456.6 191.3 Q 456.6 190.1, 455.9 189.5 Q 455.2 189.0, 454.1 189.0 Q 453.1 189.0, 452.0 189.4 L 451.1 189.0 L 451.7 183.5 L 457.5 183.5 L 457.3 184.8 L 453.0 184.8 L 452.6 188.2 Q 453.6 187.8, 454.6 187.8 " fill="#000000"/>
<path class="legend" d="M 459.6 185.7 Q 460.0 184.6, 461.0 184.0 Q 462.0 183.4, 463.3 183.4 Q 465.1 183.4, 466.0 184.3 Q 467.0 185.2, 467.0 186.9 Q 467.0 188.6, 465.7 190.1 Q 464.5 191.7, 461.9 193.6 L 467.2 193.6 L 467.2 194.8 L 459.5 194.8 L 459.5 193.8 Q 461.7 192.3, 462.9 191.1 Q 464.2 190.0, 464.8 189.0 Q 465.4 188.0, 465.4 187.0 Q 465.4 185.9, 464.8 185.3 Q 464.3 184.7, 463.3 184.7 Q 462.4 184.7, 461.8 185.0 Q 461.2 185.4, 460.8 186.2 L 459.6 185.7 " fill="#000000"/>
<path class="legend" d="" fill="#000000"/>
<path class="legend" d="M 484.8 194.8 L 483.1 194.8 L 479.7 190.2 L 476.4 194.8 L 474.6 194.8 L 478.8 188.9 L 474.9 183.5 L 476.7 183.5 L 479.8 187.8 L 482.8 183.5 L 484.6 183.5 L 480.7 189.0 L 484.8 194.8 " fill="#000000"/>
<path class="legend" d="" fill="#000000"/>
<path class="legend" d="M 495.5 195.0 Q 493.5 195.0, 492.4 193.4 Q 491.4 191.9, 491.4 189.2 Q 491.4 186.4, 492.4 184.9 Q 493.4 183.4, 495.5 183.4 Q 497.6 183.4, 498.7 184.9 Q 499.7 186.4, 499.7 189.2 Q 499.7 191.9, 498.6 193.4 Q 497.6 195.0, 495.5 195.0 M 495.5 193.7 Q 496.8 193.7, 497.4 192.6 Q 498.1 191.4, 498.1 189.2 Q 498.1 186.9, 497.4 185.8 Q 496.8 184.7, 495.5 184.7 Q 494.3 184.7, 493.6 185.8 Q 493.0 186.9, 493.0 189.2 Q 493.0 191.4, 493.6 192.6 Q 494.3 193.7, 495.5 193.7 " fill="#000000"/>
<path class="legend" d="M 501.3 193.2 L 502.9 193.2 L 502.9 194.8 L 501.3 194.8 L 501.3 193.2 " fill="#000000"/>
<path class="legend" d="M 505.1 193.6 L 507.6 193.6 L 507.6 185.1 L 504.9 185.9 L 504.5 185.0 L 508.0 183.4 L 509.1 183.6 L 509.1 193.6 L 511.3 193.6 L 511.3 194.8 L 505.1 194.8 L 505.1 193.6 " fill="#000000"/>
<path class="legend" d="M 518.0 188.9 Q 519.1 189.2, 519.7 189.9 Q 520.2 190.6, 520.2 191.7 Q 520.2 192.7, 519.7 193.4 Q 519.3 194.2, 518.4 194.6 Q 517.5 195.0, 516.3 195.0 Q 515.1 195.0, 514.2 194.6 Q 513.3 194.2, 512.6 193.3 L 513.5 192.4 Q 514.2 193.1, 514.8 193.4 Q 515.4 193.7, 516.3 193.7 Q 517.4 193.7, 518.0 193.2 Q 518.6 192.6, 518.6 191.7 Q 518.6 190.6, 518.0 190.1 Q 517.3 189.5, 515.9 189.5 L 515.1 189.5 L 515.1 188.4 L 515.8 188.4 Q 517.1 188.4, 517.7 187.8 Q 518.4 187.3, 518.4 186.3 Q 518.4 185.5, 517.8 185.1 Q 517.3 184.7, 516.4 184.7 Q 515.4 184.7, 514.8 185.0 Q 514.2 185.3, 513.8 186.2 L 512.7 185.6 Q 513.1 184.6, 514.1 184.0 Q 515.0 183.4, 516.4 183.4 Q 518.0 183.4, 519.0 184.2 Q 520.0 185.0, 520.0 186.3 Q 520.0 187.2, 519.5 187.8 Q 519.0 188.5, 518.0 188.9 " fill="#000000"/>
<path class="legend" d="M 521.7 187.9 L 529.1 187.9 L 529.1 189.0 L 521.7 189.0 L 521.7 187.9 M 521.7 191.3 L 529.1 191.3 L 529.1 192.5 L 521.7 192.5 L 521.7 191.3 " fill="#000000"/>
<path class="legend" d="M 531.1 189.1 L 537.0 189.1 L 537.0 190.4 L 531.1 190.4 L 531.1 189.1 " fill="#000000"/>
<path class="legend" d="M 542.5 195.0 Q 540.4 195.0, 539.4 193.4 Q 538.4 191.9, 538.4 189.2 Q 538.4 186.4, 539.4 184.9 Q 540.4 183.4, 542.5 183.4 Q 544.6 183.4, 545.6 184.9 Q 546.6 186.4, 546.6 189.2 Q 546.6 191.9, 545.6 193.4 Q 544.6 195.0, 542.5 195.0 M 542.5 193.7 Q 543.7 193.7, 544.4 192.6 Q 545.0 191.4, 545.0 189.2 Q 545.0 186.9, 544.4 185.8 Q 543.7 184.7, 542.5 184.7 Q 541.3 184.7, 540.6 185.8 Q 540.0 186.9, 540.0 189.2 Q 540.0 191.4, 540.6 192.6 Q 541.3 193.7, 542.5 193.7 " fill="#000000"/>
<path class="legend" d="M 548.3 193.2 L 549.9 193.2 L 549.9 194.8 L 548.3 194.8 L 548.3 193.2 " fill="#000000"/>
<path class="legend" d="M 558.8 191.0 L 560.2 191.0 L 560.2 192.2 L 558.8 192.2 L 558.8 194.8 L 557.3 194.8 L 557.3 192.2 L 551.5 192.2 L 551.5 191.2 L 556.4 183.5 L 558.8 183.5 L 558.8 191.0 M 553.3 191.0 L 557.3 191.0 L 557.3 184.5 L 553.3 191.0 " fill="#000000"/>
<path class="legend" d="M 567.5 184.8 L 561.6 184.8 L 561.6 183.5 L 569.1 183.5 L 569.1 184.6 L 564.5 194.8 L 563.0 194.8 L 567.5 184.8 " fill="#000000"/>
<path class="bond-0 atom-0 atom-1" d="M 657.7,90.0 L 700.0,90.0" style="fill:none;fill-rule:evenodd;stroke:#000000;stroke-width:2.0px;stroke-linecap:butt;stroke-linejoin:miter;stroke-opacity:1"/>
<path class="bond-1 atom-1 atom-2" d="M 700.0,90.0 L 742.3,90.0" style="fill:none;fill-rule:evenodd;stroke:#000000;stroke-width:2.0px;stroke-linecap:butt;stroke-linejoin:miter;stroke-opacity:1"/>
<path class="bond-1 atom-1 atom-2" d="M 700.0,83.6 L 742.3,83.6" style="fill:none;fill-rule:evenodd;stroke:#000000;stroke-width:2.0px;stroke-linecap:butt;stroke-linejoin:miter;stroke-opacity:1"/>
<path class="bond-1 atom-1 atom-2" d="M 700.0,96.4 L 742.3,96.4" style="fill:none;fill-rule:evenodd;stroke:#000000;stroke-width:2.0px;stroke-linecap:butt;stroke-linejoin:miter;stroke-opacity:1"/>
<path d="M 697.9,90.0 L 700.0,90.0 L 702.1,90.0" style="fill:none;stroke:#000000;stroke-width:2.0px;stroke-linecap:butt;stroke-linejoin:miter;stroke-opacity:1;"/>
<path class="legend" d="M 628.0 189.1 L 633.8 189.1 L 633.8 190.4 L 628.0 190.4 L 628.0 189.1 " fill="#000000"/>
<path class="legend" d="M 639.4 195.0 Q 637.3 195.0, 636.3 193.4 Q 635.2 191.9, 635.2 189.2 Q 635.2 186.4, 636.3 184.9 Q 637.3 183.4, 639.4 183.4 Q 641.5 183.4, 642.5 184.9 Q 643.5 186.4, 643.5 189.2 Q 643.5 191.9, 642.5 193.4 Q 641.5 195.0, 639.4 195.0 M 639.4 193.7 Q 640.6 193.7, 641.3 192.6 Q 641.9 191.4, 641.9 189.2 Q 641.9 186.9, 641.3 185.8 Q 640.6 184.7, 639.4 184.7 Q 638.2 184.7, 637.5 185.8 Q 636.8 186.9, 636.8 189.2 Q 636.8 191.4, 637.5 192.6 Q 638.2 193.7, 639.4 193.7 " fill="#000000"/>
<path class="legend" d="M 645.2 193.2 L 646.8 193.2 L 646.8 194.8 L 645.2 194.8 L 645.2 193.2 " fill="#000000"/>
<path class="legend" d="M 655.8 191.0 L 657.1 191.0 L 657.1 192.2 L 655.8 192.2 L 655.8 194.8 L 654.3 194.8 L 654.3 192.2 L 648.4 192.2 L 648.4 191.2 L 653.4 183.5 L 655.8 183.5 L 655.8 191.0 M 650.3 191.0 L 654.3 191.0 L 654.3 184.5 L 650.3 191.0 " fill="#000000"/>
<path class="legend" d="M 664.3 188.8 Q 665.3 189.3, 665.9 190.0 Q 666.5 190.6, 666.5 191.7 Q 666.5 192.7, 666.0 193.4 Q 665.5 194.2, 664.6 194.6 Q 663.8 195.0, 662.6 195.0 Q 660.7 195.0, 659.6 194.1 Q 658.5 193.3, 658.5 191.7 Q 658.5 190.8, 659.0 190.1 Q 659.5 189.4, 660.5 188.9 Q 659.7 188.5, 659.3 187.9 Q 658.9 187.2, 658.9 186.3 Q 658.9 185.0, 659.9 184.2 Q 660.9 183.4, 662.5 183.4 Q 664.2 183.4, 665.1 184.2 Q 666.1 185.0, 666.1 186.3 Q 666.1 187.1, 665.6 187.7 Q 665.2 188.3, 664.3 188.8 M 662.5 184.6 Q 661.6 184.6, 661.1 185.0 Q 660.5 185.5, 660.5 186.3 Q 660.5 186.9, 660.9 187.3 Q 661.2 187.7, 661.7 187.9 Q 662.3 188.1, 663.2 188.4 Q 663.9 188.0, 664.2 187.4 Q 664.5 186.9, 664.5 186.3 Q 664.5 185.5, 664.0 185.0 Q 663.5 184.6, 662.5 184.6 M 662.6 193.8 Q 663.6 193.8, 664.3 193.2 Q 664.9 192.7, 664.9 191.7 Q 664.9 191.1, 664.6 190.7 Q 664.3 190.3, 663.7 190.1 Q 663.2 189.9, 662.3 189.6 L 661.6 189.4 Q 660.8 189.8, 660.5 190.4 Q 660.1 191.0, 660.1 191.7 Q 660.1 192.7, 660.8 193.2 Q 661.5 193.8, 662.6 193.8 " fill="#000000"/>
<path class="legend" d="" fill="#000000"/>
<path class="legend" d="M 684.3 194.8 L 682.5 194.8 L 679.2 190.2 L 675.8 194.8 L 674.1 194.8 L 678.3 188.9 L 674.4 183.5 L 676.2 183.5 L 679.2 187.8 L 682.3 183.5 L 684.0 183.5 L 680.1 189.0 L 684.3 194.8 " fill="#000000"/>
<path class="legend" d="" fill="#000000"/>
<path class="legend" d="M 695.0 195.0 Q 693.0 195.0, 691.9 193.4 Q 690.9 191.9, 690.9 189.2 Q 690.9 186.4, 691.9 184.9 Q 692.9 183.4, 695.0 183.4 Q 697.1 183.4, 698.2 184.9 Q 699.2 186.4, 699.2 189.2 Q 699.2 191.9, 698.1 193.4 Q 697.1 195.0, 695.0 195.0 M 695.0 193.7 Q 696.3 193.7, 696.9 192.6 Q 697.6 191.4, 697.6 189.2 Q 697.6 186.9, 696.9 185.8 Q 696.3 184.7, 695.0 184.7 Q 693.8 184.7, 693.1 185.8 Q 692.5 186.9, 692.5 189.2 Q 692.5 191.4, 693.1 192.6 Q 693.8 193.7, 695.0 193.7 " fill="#000000"/>
<path class="legend" d="M 700.8 193.2 L 702.4 193.2 L 702.4 194.8 L 700.8 194.8 L 700.8 193.2 " fill="#000000"/>
<path class="legend" d="M 708.2 195.0 Q 706.1 195.0, 705.1 193.4 Q 704.1 191.9, 704.1 189.2 Q 704.1 186.4, 705.1 184.9 Q 706.1 183.4, 708.2 183.4 Q 710.3 183.4, 711.3 184.9 Q 712.4 186.4, 712.4 189.2 Q 712.4 191.9, 711.3 193.4 Q 710.3 195.0, 708.2 195.0 M 708.2 193.7 Q 709.4 193.7, 710.1 192.6 Q 710.8 191.4, 710.8 189.2 Q 710.8 186.9, 710.1 185.8 Q 709.4 184.7, 708.2 184.7 Q 707.0 184.7, 706.3 185.8 Q 705.7 186.9, 705.7 189.2 Q 705.7 191.4, 706.3 192.6 Q 707.0 193.7, 708.2 193.7 " fill="#000000"/>
<path class="legend" d="M 717.8 183.4 Q 719.8 183.4, 720.8 184.8 Q 721.9 186.1, 721.9 188.8 Q 721.9 191.8, 720.6 193.4 Q 719.3 195.0, 716.9 195.0 Q 716.2 195.0, 715.6 194.8 Q 715.0 194.6, 714.4 194.3 L 715.1 193.2 Q 715.9 193.7, 716.9 193.7 Q 718.5 193.7, 719.3 192.7 Q 720.1 191.6, 720.2 189.5 Q 719.7 190.0, 718.9 190.3 Q 718.2 190.6, 717.4 190.6 Q 716.4 190.6, 715.6 190.2 Q 714.9 189.7, 714.4 188.9 Q 714.0 188.2, 714.0 187.2 Q 714.0 186.1, 714.5 185.2 Q 715.0 184.3, 715.8 183.9 Q 716.7 183.4, 717.8 183.4 M 715.6 187.1 Q 715.6 188.2, 716.2 188.7 Q 716.7 189.3, 717.7 189.3 Q 718.4 189.3, 719.1 189.0 Q 719.8 188.7, 720.2 188.3 Q 720.2 186.4, 719.6 185.5 Q 719.0 184.7, 717.8 184.7 Q 717.2 184.7, 716.7 185.0 Q 716.2 185.3, 715.9 185.9 Q 715.6 186.5, 715.6 187.1 " fill="#000000"/>
<path class="legend" d="M 723.5 187.9 L 730.9 187.9 L 730.9 189.0 L 723.5 189.0 L 723.5 187.9 M 723.5 191.3 L 730.9 191.3 L 730.9 192.5 L 723.5 192.5 L 723.5 191.3 " fill="#000000"/>
<path class="legend" d="M 732.9 189.1 L 738.8 189.1 L 738.8 190.4 L 732.9 190.4 L 732.9 189.1 " fill="#000000"/>
<path class="legend" d="M 744.4 195.0 Q 742.3 195.0, 741.2 193.4 Q 740.2 191.9, 740.2 189.2 Q 740.2 186.4, 741.2 184.9 Q 742.3 183.4, 744.4 183.4 Q 746.5 183.4, 747.5 184.9 Q 748.5 186.4, 748.5 189.2 Q 748.5 191.9, 747.5 193.4 Q 746.4 195.0, 744.4 195.0 M 744.4 193.7 Q 745.6 193.7, 746.2 192.6 Q 746.9 191.4, 746.9 189.2 Q 746.9 186.9, 746.2 185.8 Q 745.6 184.7, 744.4 184.7 Q 743.1 184.7, 742.5 185.8 Q 741.8 186.9, 741.8 189.2 Q 741.8 191.4, 742.5 192.6 Q 743.1 193.7, 744.4 193.7 " fill="#000000"/>
<path class="legend" d="M 750.1 193.2 L 751.7 193.2 L 751.7 194.8 L 750.1 194.8 L 750.1 193.2 " fill="#000000"/>
<path class="legend" d="M 757.5 195.0 Q 755.5 195.0, 754.4 193.4 Q 753.4 191.9, 753.4 189.2 Q 753.4 186.4, 754.4 184.9 Q 755.4 183.4, 757.5 183.4 Q 759.6 183.4, 760.7 184.9 Q 761.7 186.4, 761.7 189.2 Q 761.7 191.9, 760.6 193.4 Q 759.6 195.0, 757.5 195.0 M 757.5 193.7 Q 758.8 193.7, 759.4 192.6 Q 760.1 191.4, 760.1 189.2 Q 760.1 186.9, 759.4 185.8 Q 758.8 184.7, 757.5 184.7 Q 756.3 184.7, 755.6 185.8 Q 755.0 186.9, 755.0 189.2 Q 755.0 191.4, 755.6 192.6 Q 756.3 193.7, 757.5 193.7 " fill="#000000"/>
<path class="legend" d="M 770.7 191.0 L 772.0 191.0 L 772.0 192.2 L 770.7 192.2 L 770.7 194.8 L 769.2 194.8 L 769.2 192.2 L 763.3 192.2 L 763.3 191.2 L 768.3 183.5 L 770.7 183.5 L 770.7 191.0 M 765.2 191.0 L 769.2 191.0 L 769.2 184.5 L 765.2 191.0 " fill="#000000"/>
<path class="bond-0 atom-0 atom-1" d="M 55.4,290.0 L 97.7,290.0" style="fill:none;fill-rule:evenodd;stroke:#000000;stroke-width:2.0px;stroke-linecap:butt;stroke-linejoin:miter;stroke-opacity:1"/>
<path class="bond-1 atom-1 atom-2" d="M 97.7,290.0 L 115.9,290.0" style="fill:none;fill-rule:evenodd;stroke:#000000;stroke-width:2.0px;stroke-linecap:butt;stroke-linejoin:miter;stroke-opacity:1"/>
<path class="bond-1 atom-1 atom-2" d="M 115.9,290.0 L 134.1,290.0" style="fill:none;fill-rule:evenodd;stroke:#0000FF;stroke-width:2.0px;stroke-linecap:butt;stroke-linejoin:miter;stroke-opacity:1"/>
<path class="bond-1 atom-1 atom-2" d="M 97.7,283.6 L 115.9,283.6" style="fill:none;fill-rule:evenodd;stroke:#000000;stroke-width:2.0px;stroke-linecap:butt;stroke-linejoin:miter;stroke-opacity:1"/>
<path class="bond-1 atom-1 atom-2" d="M 115.9,283.6 L 134.1,283.6" style="fill:none;fill-rule:evenodd;stroke:#0000FF;stroke-width:2.0px;stroke-linecap:butt;stroke-linejoin:miter;stroke-opacity:1"/>
<path class="bond-1 atom-1 atom-2" d="M 97.7,296.4 L 115.9,296.4" style="fill:none;fill-rule:evenodd;stroke:#000000;stroke-width:2.0px;stroke-linecap:butt;stroke-linejoin:miter;stroke-opacity:1"/>
<path class="bond-1 atom-1 atom-2" d="M 115.9,296.4 L 134.1,296.4" style="fill:none;fill-rule:evenodd;stroke:#0000FF;stroke-width:2.0px;stroke-linecap:butt;stroke-linejoin:miter;stroke-opacity:1"/>
<path d="M 95.6,290.0 L 97.7,290.0 L 98.6,290.0" style="fill:none;stroke:#000000;stroke-width:2.0px;stroke-linecap:butt;stroke-linejoin:miter;stroke-opacity:1;"/>
<path class="atom-2" d="M 137.4 284.0 L 141.3 290.4 Q 141.7 291.0, 142.4 292.1 Q 143.0 293.3, 143.0 293.3 L 143.0 284.0 L 144.6 284.0 L 144.6 296.0 L 143.0 296.0 L 138.8 289.1 Q 138.3 288.2, 137.7 287.3 Q 137.2 286.4, 137.1 286.1 L 137.1 296.0 L 135.5 296.0 L 135.5 284.0 L 137.4 284.0 " fill="#0000FF"/>
<path class="legend" d="M 29.7 389.1 L 35.5 389.1 L 35.5 390.4 L 29.7 390.4 L 29.7 389.1 " fill="#000000"/>
<path class="legend" d="M 42.4 388.9 Q 43.5 389.2, 44.0 389.9 Q 44.6 390.6, 44.6 391.7 Q 44.6 392.7, 44.1 393.4 Q 43.6 394.2, 42.7 394.6 Q 41.8 395.0, 40.7 395.0 Q 39.5 395.0, 38.6 394.6 Q 37.7 394.2, 36.9 393.3 L 37.8 392.4 Q 38.6 393.1, 39.1 393.4 Q 39.7 393.7, 40.7 393.7 Q 41.7 393.7, 42.3 393.2 Q 43.0 392.6, 43.0 391.7 Q 43.0 390.6, 42.3 390.1 Q 41.7 389.5, 40.3 389.5 L 39.4 389.5 L 39.4 388.4 L 40.2 388.4 Q 41.4 388.4, 42.1 387.8 Q 42.7 387.3, 42.7 386.3 Q 42.7 385.5, 42.2 385.1 Q 41.6 384.7, 40.7 384.7 Q 39.8 384.7, 39.2 385.0 Q 38.6 385.3, 38.1 386.2 L 37.0 385.6 Q 37.4 384.6, 38.4 384.0 Q 39.4 383.4, 40.7 383.4 Q 42.4 383.4, 43.3 384.2 Q 44.3 385.0, 44.3 386.3 Q 44.3 387.2, 43.8 387.8 Q 43.3 388.5, 42.4 388.9 " fill="#000000"/>
<path class="legend" d="M 46.1 393.2 L 47.7 393.2 L 47.7 394.8 L 46.1 394.8 L 46.1 393.2 " fill="#000000"/>
<path class="legend" d="M 55.1 388.8 Q 56.1 389.3, 56.7 390.0 Q 57.3 390.6, 57.3 391.7 Q 57.3 392.7, 56.8 393.4 Q 56.3 394.2, 55.4 394.6 Q 54.5 395.0, 53.4 395.0 Q 51.5 395.0, 50.4 394.1 Q 49.3 393.3, 49.3 391.7 Q 49.3 390.8, 49.8 390.1 Q 50.3 389.4, 51.3 388.9 Q 50.5 388.5, 50.1 387.9 Q 49.7 387.2, 49.7 386.3 Q 49.7 385.0, 50.7 384.2 Q 51.7 383.4, 53.3 383.4 Q 55.0 383.4, 55.9 384.2 Q 56.9 385.0, 56.9 386.3 Q 56.9 387.1, 56.4 387.7 Q 56.0 388.3, 55.1 388.8 M 53.3 384.6 Q 52.4 384.6, 51.8 385.0 Q 51.3 385.5, 51.3 386.3 Q 51.3 386.9, 51.7 387.3 Q 52.0 387.7, 52.5 387.9 Q 53.0 388.1, 54.0 388.4 Q 54.7 388.0, 55.0 387.4 Q 55.3 386.9, 55.3 386.3 Q 55.3 385.5, 54.8 385.0 Q 54.3 384.6, 53.3 384.6 M 53.4 393.8 Q 54.4 393.8, 55.1 393.2 Q 55.7 392.7, 55.7 391.7 Q 55.7 391.1, 55.4 390.7 Q 55.0 390.3, 54.5 390.1 Q 54.0 389.9, 53.1 389.6 L 52.4 389.4 Q 51.6 389.8, 51.3 390.4 Q 50.9 391.0, 50.9 391.7 Q 50.9 392.7, 51.6 393.2 Q 52.3 393.8, 53.4 393.8 " fill="#000000"/>
<path class="legend" d="M 64.7 388.8 Q 65.7 389.3, 66.3 390.0 Q 66.9 390.6, 66.9 391.7 Q 66.9 392.7, 66.4 393.4 Q 65.9 394.2, 65.0 394.6 Q 64.1 395.0, 63.0 395.0 Q 61.1 395.0, 60.0 394.1 Q 58.9 393.3, 58.9 391.7 Q 58.9 390.8, 59.4 390.1 Q 59.9 389.4, 60.9 388.9 Q 60.1 388.5, 59.7 387.9 Q 59.3 387.2, 59.3 386.3 Q 59.3 385.0, 60.3 384.2 Q 61.3 383.4, 62.9 383.4 Q 64.6 383.4, 65.5 384.2 Q 66.5 385.0, 66.5 386.3 Q 66.5 387.1, 66.0 387.7 Q 65.6 388.3, 64.7 388.8 M 62.9 384.6 Q 62.0 384.6, 61.4 385.0 Q 60.9 385.5, 60.9 386.3 Q 60.9 386.9, 61.3 387.3 Q 61.6 387.7, 62.1 387.9 Q 62.6 388.1, 63.6 388.4 Q 64.3 388.0, 64.6 387.4 Q 64.9 386.9, 64.9 386.3 Q 64.9 385.5, 64.4 385.0 Q 63.8 384.6, 62.9 384.6 M 63.0 393.8 Q 64.0 393.8, 64.7 393.2 Q 65.3 392.7, 65.3 391.7 Q 65.3 391.1, 65.0 390.7 Q 64.6 390.3, 64.1 390.1 Q 63.6 389.9, 62.7 389.6 L 62.0 389.4 Q 61.2 389.8, 60.9 390.4 Q 60.5 391.0, 60.5 391.7 Q 60.5 392.7, 61.2 393.2 Q 61.8 393.8, 63.0 393.8 " fill="#000000"/>
<path class="legend" d="" fill="#000000"/>
<path class="legend" d="M 84.6 394.8 L 82.9 394.8 L 79.5 390.2 L 76.2 394.8 L 74.4 394.8 L 78.6 388.9 L 74.7 383.5 L 76.5 383.5 L 79.6 387.8 L 82.6 383.5 L 84.4 383.5 L 80.5 389.0 L 84.6 394.8 " fill="#000000"/>
<path class="legend" d="" fill="#000000"/>
<path class="legend" d="M 95.3 395.0 Q 93.3 395.0, 92.2 393.4 Q 91.2 391.9, 91.2 389.2 Q 91.2 386.4, 92.2 384.9 Q 93.2 383.4, 95.3 383.4 Q 97.4 383.4, 98.5 384.9 Q 99.5 386.4, 99.5 389.2 Q 99.5 391.9, 98.4 393.4 Q 97.4 395.0, 95.3 395.0 M 95.3 393.7 Q 96.6 393.7, 97.2 392.6 Q 97.9 391.4, 97.9 389.2 Q 97.9 386.9, 97.2 385.8 Q 96.6 384.7, 95.3 384.7 Q 94.1 384.7, 93.5 385.8 Q 92.8 386.9, 92.8 389.2 Q 92.8 391.4, 93.5 392.6 Q 94.1 393.7, 95.3 393.7 " fill="#000000"/>
<path class="legend" d="M 101.1 393.2 L 102.7 393.2 L 102.7 394.8 L 101.1 394.8 L 101.1 393.2 " fill="#000000"/>
<path class="legend" d="M 108.5 395.0 Q 106.4 395.0, 105.4 393.4 Q 104.3 391.9, 104.3 389.2 Q 104.3 386.4, 105.4 384.9 Q 106.4 383.4, 108.5 383.4 Q 110.6 383.4, 111.6 384.9 Q 112.6 386.4, 112.6 389.2 Q 112.6 391.9, 111.6 393.4 Q 110.6 395.0, 108.5 395.0 M 108.5 393.7 Q 109.7 393.7, 110.4 392.6 Q 111.0 391.4, 111.0 389.2 Q 111.0 386.9, 110.4 385.8 Q 109.7 384.7, 108.5 384.7 Q 107.3 384.7, 106.6 385.8 Q 105.9 386.9, 105.9 389.2 Q 105.9 391.4, 106.6 392.6 Q 107.3 393.7, 108.5 393.7 " fill="#000000"/>
<path class="legend" d="M 118.1 383.4 Q 120.1 383.4, 121.1 384.8 Q 122.1 386.1, 122.1 388.8 Q 122.1 391.8, 120.8 393.4 Q 119.6 395.0, 117.2 395.0 Q 116.5 395.0, 115.9 394.8 Q 115.3 394.6, 114.7 394.3 L 115.3 393.2 Q 116.2 393.7, 117.2 393.7 Q 118.8 393.7, 119.6 392.7 Q 120.4 391.6, 120.5 389.5 Q 119.9 390.0, 119.2 390.3 Q 118.5 390.6, 117.7 390.6 Q 116.7 390.6, 115.9 390.2 Q 115.1 389.7, 114.7 388.9 Q 114.3 388.2, 114.3 387.2 Q 114.3 386.1, 114.7 385.2 Q 115.2 384.3, 116.1 383.9 Q 117.0 383.4, 118.1 383.4 M 115.9 387.1 Q 115.9 388.2, 116.4 388.7 Q 117.0 389.3, 118.0 389.3 Q 118.7 389.3, 119.3 389.0 Q 120.0 388.7, 120.5 388.3 Q 120.4 386.4, 119.8 385.5 Q 119.2 384.7, 118.0 384.7 Q 117.4 384.7, 116.9 385.0 Q 116.4 385.3, 116.1 385.9 Q 115.9 386.5, 115.9 387.1 " fill="#000000"/>
<path class="legend" d="M 123.8 387.9 L 131.1 387.9 L 131.1 389.0 L 123.8 389.0 L 123.8 387.9 M 123.8 391.3 L 131.1 391.3 L 131.1 392.5 L 123.8 392.5 L 123.8 391.3 " fill="#000000"/>
<path class="legend" d="M 133.2 389.1 L 139.0 389.1 L 139.0 390.4 L 133.2 390.4 L 133.2 389.1 " fill="#000000"/>
<path class="legend" d="M 144.6 395.0 Q 142.5 395.0, 141.4 393.4 Q 140.4 391.9, 140.4 389.2 Q 140.4 386.4, 141.4 384.9 Q 142.5 383.4, 144.6 383.4 Q 146.7 383.4, 147.7 384.9 Q 148.7 386.4, 148.7 389.2 Q 148.7 391.9, 147.7 393.4 Q 146.6 395.0, 144.6 395.0 M 144.6 393.7 Q 145.8 393.7, 146.4 392.6 Q 147.1 391.4, 147.1 389.2 Q 147.1 386.9, 146.4 385.8 Q 145.8 384.7, 144.6 384.7 Q 143.3 384.7, 142.7 385.8 Q 142.0 386.9, 142.0 389.2 Q 142.0 391.4, 142.7 392.6 Q 143.3 393.7, 144.6 393.7 " fill="#000000"/>
<path class="legend" d="M 150.3 393.2 L 151.9 393.2 L 151.9 394.8 L 150.3 394.8 L 150.3 393.2 " fill="#000000"/>
<path class="legend" d="M 159.0 388.9 Q 160.1 389.2, 160.6 389.9 Q 161.2 390.6, 161.2 391.7 Q 161.2 392.7, 160.7 393.4 Q 160.2 394.2, 159.3 394.6 Q 158.5 395.0, 157.3 395.0 Q 156.1 395.0, 155.2 394.6 Q 154.3 394.2, 153.6 393.3 L 154.5 392.4 Q 155.2 393.1, 155.8 393.4 Q 156.4 393.7, 157.3 393.7 Q 158.3 393.7, 159.0 393.2 Q 159.6 392.6, 159.6 391.7 Q 159.6 390.6, 158.9 390.1 Q 158.3 389.5, 156.9 389.5 L 156.1 389.5 L 156.1 388.4 L 156.8 388.4 Q 158.0 388.4, 158.7 387.8 Q 159.3 387.3, 159.3 386.3 Q 159.3 385.5, 158.8 385.1 Q 158.2 384.7, 157.3 384.7 Q 156.4 384.7, 155.8 385.0 Q 155.2 385.3, 154.8 386.2 L 153.7 385.6 Q 154.1 384.6, 155.0 384.0 Q 156.0 383.4, 157.3 383.4 Q 159.0 383.4, 160.0 384.2 Q 160.9 385.0, 160.9 386.3 Q 160.9 387.2, 160.4 387.8 Q 159.9 388.5, 159.0 388.9 " fill="#000000"/>
<path class="legend" d="M 168.1 388.9 Q 169.3 389.2, 169.8 389.9 Q 170.3 390.6, 170.3 391.7 Q 170.3 392.7, 169.8 393.4 Q 169.4 394.2, 168.5 394.6 Q 167.6 395.0, 166.5 395.0 Q 165.2 395.0, 164.3 394.6 Q 163.4 394.2, 162.7 393.3 L 163.6 392.4 Q 164.3 393.1, 164.9 393.4 Q 165.5 393.7, 166.5 393.7 Q 167.5 393.7, 168.1 393.2 Q 168.7 392.6, 168.7 391.7 Q 168.7 390.6, 168.1 390.1 Q 167.4 389.5, 166.0 389.5 L 165.2 389.5 L 165.2 388.4 L 165.9 388.4 Q 167.2 388.4, 167.8 387.8 Q 168.5 387.3, 168.5 386.3 Q 168.5 385.5, 167.9 385.1 Q 167.4 384.7, 166.5 384.7 Q 165.5 384.7, 164.9 385.0 Q 164.4 385.3, 163.9 386.2 L 162.8 385.6 Q 163.2 384.6, 164.2 384.0 Q 165.1 383.4, 166.5 383.4 Q 168.1 383.4, 169.1 384.2 Q 170.1 385.0, 170.1 386.3 Q 170.1 387.2, 169.6 387.8 Q 169.1 388.5, 168.1 388.9 " fill="#000000"/>
<path class="bond-0 atom-0 atom-1" d="M 230.8,311.2 L 230.8,268.8" style="fill:none;fill-rule:evenodd;stroke:#000000;stroke-width:2.0px;stroke-linecap:butt;stroke-linejoin:miter;stroke-opacity:1"/>
<path class="bond-0 atom-0 atom-1" d="M 237.1,307.5 L 237.1,272.5" style="fill:none;fill-rule:evenodd;stroke:#000000;stroke-width:2.0px;stroke-linecap:butt;stroke-linejoin:miter;stroke-opacity:1"/>
<path class="bond-1 atom-1 atom-2" d="M 230.8,268.8 L 267.4,247.7" style="fill:none;fill-rule:evenodd;stroke:#000000;stroke-width:2.0px;stroke-linecap:butt;stroke-linejoin:miter;stroke-opacity:1"/>
<path class="bond-2 atom-2 atom-3" d="M 267.4,247.7 L 304.1,268.8" style="fill:none;fill-rule:evenodd;stroke:#000000;stroke-width:2.0px;stroke-linecap:butt;stroke-linejoin:miter;stroke-opacity:1"/>
<path class="bond-2 atom-2 atom-3" d="M 267.4,255.0 L 297.7,272.5" style="fill:none;fill-rule:evenodd;stroke:#000000;stroke-width:2.0px;stroke-linecap:butt;stroke-linejoin:miter;stroke-opacity:1"/>
<path class="bond-3 atom-3 atom-4" d="M 304.1,268.8 L 304.1,311.2" style="fill:none;fill-rule:evenodd;stroke:#000000;stroke-width:2.0px;stroke-linecap:butt;stroke-linejoin:miter;stroke-opacity:1"/>
<path class="bond-4 atom-4 atom-5" d="M 304.1,311.2 L 267.4,332.3" style="fill:none;fill-rule:evenodd;stroke:#000000;stroke-width:2.0px;stroke-linecap:butt;stroke-linejoin:miter;stroke-opacity:1"/>
<path class="bond-4 atom-4 atom-5" d="M 297.7,307.5 L 267.4,325.0" style="fill:none;fill-rule:evenodd;stroke:#000000;stroke-width:2.0px;stroke-linecap:butt;stroke-linejoin:miter;stroke-opacity:1"/>
<path class="bond-5 atom-4 atom-6" d="M 304.1,311.2 L 344.4,324.3" style="fill:none;fill-rule:evenodd;stroke:#000000;stroke-width:2.0px;stroke-linecap:butt;stroke-linejoin:miter;stroke-opacity:1"/>
<path class="bond-6 atom-6 atom-7" d="M 344.4,324.3 L 369.2,290.0" style="fill:none;fill-rule:evenodd;stroke:#000000;stroke-width:2.0px;stroke-linecap:butt;stroke-linejoin:miter;stroke-opacity:1"/>
<path class="bond-7 atom-7 atom-8" d="M 369.2,290.0 L 344.4,255.7" style="fill:none;fill-rule:evenodd;stroke:#000000;stroke-width:2.0px;stroke-linecap:butt;stroke-linejoin:miter;stroke-opacity:1"/>
<path class="bond-8 atom-5 atom-0" d="M 267.4,332.3 L 230.8,311.2" style="fill:none;fill-rule:evenodd;stroke:#000000;stroke-width:2.0px;stroke-linecap:butt;stroke-linejoin:miter;stroke-opacity:1"/>
<path class="bond-9 atom-8 atom-3" d="M 344.4,255.7 L 304.1,268.8" style="fill:none;fill-rule:evenodd;stroke:#000000;stroke-width:2.0px;stroke-linecap:butt;stroke-linejoin:miter;stroke-opacity:1"/>
<path d="M 230.8,309.1 L 230.8,311.2 L 232.6,312.2" style="fill:none;stroke:#000000;stroke-width:2.0px;stroke-linecap:butt;stroke-linejoin:miter;stroke-opacity:1;"/>
<path d="M 230.8,270.9 L 230.8,268.8 L 232.6,267.8" style="fill:none;stroke:#000000;stroke-width:2.0px;stroke-linecap:butt;stroke-linejoin:miter;stroke-opacity:1;"/>
<path d="M 265.6,248.7 L 267.4,247.7 L 269.3,248.7" style="fill:none;stroke:#000000;stroke-width:2.0px;stroke-linecap:butt;stroke-linejoin:miter;stroke-opacity:1;"/>
<path d="M 269.3,331.3 L 267.4,332.3 L 265.6,331.3" style="fill:none;stroke:#000000;stroke-width:2.0px;stroke-linecap:butt;stroke-linejoin:miter;stroke-opacity:1;"/>
<path d="M 342.3,323.6 L 344.4,324.3 L 345.6,322.5" style="fill:none;stroke:#000000;stroke-width:2.0px;stroke-linecap:butt;stroke-linejoin:miter;stroke-opacity:1;"/>
<path d="M 368.0,291.7 L 369.2,290.0 L 368.0,288.3" style="fill:none;stroke:#000000;stroke-width:2.0px;stroke-linecap:butt;stroke-linejoin:miter;stroke-opacity:1;"/>
<path d="M 345.6,257.5 L 344.4,255.7 L 342.3,256.4" style="fill:none;stroke:#000000;stroke-width:2.0px;stroke-linecap:butt;stroke-linejoin:miter;stroke-opacity:1;"/>
<path class="legend" d="M 230.6 389.1 L 236.5 389.1 L 236.5 390.4 L 230.6 390.4 L 230.6 389.1 " fill="#000000"/>
<path class="legend" d="M 238.5 393.6 L 241.0 393.6 L 241.0 385.1 L 238.2 385.9 L 237.9 385.0 L 241.3 383.4 L 242.5 383.6 L 242.5 393.6 L 244.7 393.6 L 244.7 394.8 L 238.5 394.8 L 238.5 393.6 " fill="#000000"/>
<path class="legend" d="M 246.0 393.2 L 247.6 393.2 L 247.6 394.8 L 246.0 394.8 L 246.0 393.2 " fill="#000000"/>
<path class="legend" d="M 256.5 391.0 L 257.9 391.0 L 257.9 392.2 L 256.5 392.2 L 256.5 394.8 L 255.0 394.8 L 255.0 392.2 L 249.2 392.2 L 249.2 391.2 L 254.1 383.5 L 256.5 383.5 L 256.5 391.0 M 251.0 391.0 L 255.0 391.0 L 255.0 384.5 L 251.0 391.0 " fill="#000000"/>
<path class="legend" d="M 263.7 387.8 Q 264.7 387.8, 265.5 388.2 Q 266.3 388.6, 266.7 389.4 Q 267.1 390.2, 267.1 391.2 Q 267.1 392.3, 266.6 393.2 Q 266.2 394.0, 265.3 394.5 Q 264.4 395.0, 263.3 395.0 Q 261.3 395.0, 260.3 393.6 Q 259.3 392.2, 259.3 389.5 Q 259.3 386.5, 260.5 385.0 Q 261.8 383.4, 264.2 383.4 Q 264.9 383.4, 265.5 383.5 Q 266.1 383.7, 266.7 384.0 L 266.1 385.1 Q 265.2 384.7, 264.2 384.7 Q 262.6 384.7, 261.8 385.7 Q 261.0 386.7, 260.9 388.9 Q 261.5 388.3, 262.2 388.1 Q 262.9 387.8, 263.7 387.8 M 263.3 393.7 Q 263.9 393.7, 264.4 393.3 Q 265.0 393.0, 265.2 392.5 Q 265.5 391.9, 265.5 391.2 Q 265.5 390.2, 265.0 389.6 Q 264.4 389.0, 263.4 389.0 Q 262.7 389.0, 262.0 389.3 Q 261.4 389.6, 260.9 390.1 Q 261.0 392.0, 261.5 392.8 Q 262.1 393.7, 263.3 393.7 " fill="#000000"/>
<path class="legend" d="" fill="#000000"/>
<path class="legend" d="M 284.7 394.8 L 283.0 394.8 L 279.6 390.2 L 276.2 394.8 L 274.5 394.8 L 278.7 388.9 L 274.8 383.5 L 276.6 383.5 L 279.7 387.8 L 282.7 383.5 L 284.5 383.5 L 280.6 389.0 L 284.7 394.8 " fill="#000000"/>
<path class="legend" d="" fill="#000000"/>
<path class="legend" d="M 295.4 395.0 Q 293.3 395.0, 292.3 393.4 Q 291.3 391.9, 291.3 389.2 Q 291.3 386.4, 292.3 384.9 Q 293.3 383.4, 295.4 383.4 Q 297.5 383.4, 298.5 384.9 Q 299.6 386.4, 299.6 389.2 Q 299.6 391.9, 298.5 393.4 Q 297.5 395.0, 295.4 395.0 M 295.4 393.7 Q 296.7 393.7, 297.3 392.6 Q 298.0 391.4, 298.0 389.2 Q 298.0 386.9, 297.3 385.8 Q 296.7 384.7, 295.4 384.7 Q 294.2 384.7, 293.5 385.8 Q 292.9 386.9, 292.9 389.2 Q 292.9 391.4, 293.5 392.6 Q 294.2 393.7, 295.4 393.7 " fill="#000000"/>
<path class="legend" d="M 301.2 393.2 L 302.8 393.2 L 302.8 394.8 L 301.2 394.8 L 301.2 393.2 " fill="#000000"/>
<path class="legend" d="M 308.6 395.0 Q 306.5 395.0, 305.4 393.4 Q 304.4 391.9, 304.4 389.2 Q 304.4 386.4, 305.4 384.9 Q 306.5 383.4, 308.6 383.4 Q 310.6 383.4, 311.7 384.9 Q 312.7 386.4, 312.7 389.2 Q 312.7 391.9, 311.7 393.4 Q 310.6 395.0, 308.6 395.0 M 308.6 393.7 Q 309.8 393.7, 310.4 392.6 Q 311.1 391.4, 311.1 389.2 Q 311.1 386.9, 310.4 385.8 Q 309.8 384.7, 308.6 384.7 Q 307.3 384.7, 306.7 385.8 Q 306.0 386.9, 306.0 389.2 Q 306.0 391.4, 306.7 392.6 Q 307.3 393.7, 308.6 393.7 " fill="#000000"/>
<path class="legend" d="M 320.1 388.8 Q 321.1 389.3, 321.7 390.0 Q 322.3 390.6, 322.3 391.7 Q 322.3 392.7, 321.8 393.4 Q 321.3 394.2, 320.4 394.6 Q 319.5 395.0, 318.4 395.0 Q 316.5 395.0, 315.4 394.1 Q 314.3 393.3, 314.3 391.7 Q 314.3 390.8, 314.8 390.1 Q 315.3 389.4, 316.3 388.9 Q 315.5 388.5, 315.1 387.9 Q 314.7 387.2, 314.7 386.3 Q 314.7 385.0, 315.7 384.2 Q 316.7 383.4, 318.3 383.4 Q 320.0 383.4, 320.9 384.2 Q 321.9 385.0, 321.9 386.3 Q 321.9 387.1, 321.4 387.7 Q 321.0 388.3, 320.1 388.8 M 318.3 384.6 Q 317.4 384.6, 316.8 385.0 Q 316.3 385.5, 316.3 386.3 Q 316.3 386.9, 316.7 387.3 Q 317.0 387.7, 317.5 387.9 Q 318.0 388.1, 319.0 388.4 Q 319.7 388.0, 320.0 387.4 Q 320.3 386.9, 320.3 386.3 Q 320.3 385.5, 319.8 385.0 Q 319.3 384.6, 318.3 384.6 M 318.4 393.8 Q 319.4 393.8, 320.1 393.2 Q 320.7 392.7, 320.7 391.7 Q 320.7 391.1, 320.4 390.7 Q 320.0 390.3, 319.5 390.1 Q 319.0 389.9, 318.1 389.6 L 317.4 389.4 Q 316.6 389.8, 316.3 390.4 Q 315.9 391.0, 315.9 391.7 Q 315.9 392.7, 316.6 393.2 Q 317.3 393.8, 318.4 393.8 " fill="#000000"/>
<path class="legend" d="M 323.9 387.9 L 331.2 387.9 L 331.2 389.0 L 323.9 389.0 L 323.9 387.9 M 323.9 391.3 L 331.2 391.3 L 331.2 392.5 L 323.9 392.5 L 323.9 391.3 " fill="#000000"/>
<path class="legend" d="M 333.3 389.1 L 339.1 389.1 L 339.1 390.4 L 333.3 390.4 L 333.3 389.1 " fill="#000000"/>
<path class="legend" d="M 344.7 395.0 Q 342.6 395.0, 341.6 393.4 Q 340.5 391.9, 340.5 389.2 Q 340.5 386.4, 341.6 384.9 Q 342.6 383.4, 344.7 383.4 Q 346.8 383.4, 347.8 384.9 Q 348.8 386.4, 348.8 389.2 Q 348.8 391.9, 347.8 393.4 Q 346.8 395.0, 344.7 395.0 M 344.7 393.7 Q 345.9 393.7, 346.6 392.6 Q 347.2 391.4, 347.2 389.2 Q 347.2 386.9, 346.6 385.8 Q 345.9 384.7, 344.7 384.7 Q 343.5 384.7, 342.8 385.8 Q 342.1 386.9, 342.1 389.2 Q 342.1 391.4, 342.8 392.6 Q 343.5 393.7, 344.7 393.7 " fill="#000000"/>
<path class="legend" d="M 350.4 393.2 L 352.0 393.2 L 352.0 394.8 L 350.4 394.8 L 350.4 393.2 " fill="#000000"/>
<path class="legend" d="M 354.3 393.6 L 356.8 393.6 L 356.8 385.1 L 354.0 385.9 L 353.7 385.0 L 357.1 383.4 L 358.3 383.6 L 358.3 393.6 L 360.5 393.6 L 360.5 394.8 L 354.3 394.8 L 354.3 393.6 " fill="#000000"/>
<path class="legend" d="M 361.8 385.7 Q 362.2 384.6, 363.2 384.0 Q 364.2 383.4, 365.6 383.4 Q 367.3 383.4, 368.2 384.3 Q 369.2 385.2, 369.2 386.9 Q 369.2 388.6, 367.9 390.1 Q 366.7 391.7, 364.1 393.6 L 369.4 393.6 L 369.4 394.8 L 361.7 394.8 L 361.7 393.8 Q 363.9 392.3, 365.1 391.1 Q 366.4 390.0, 367.0 389.0 Q 367.6 388.0, 367.6 387.0 Q 367.6 385.9, 367.0 385.3 Q 366.5 384.7, 365.6 384.7 Q 364.6 384.7, 364.0 385.0 Q 363.4 385.4, 363.0 386.2 L 361.8 385.7 " fill="#000000"/>
<path class="bond-0 atom-0 atom-1" d="M 426.7,255.1 L 463.3,276.3" style="fill:none;fill-rule:evenodd;stroke:#000000;stroke-width:2.0px;stroke-linecap:butt;stroke-linejoin:miter;stroke-opacity:1"/>
<path class="bond-1 atom-1 atom-2" d="M 463.3,276.3 L 463.3,318.6" style="fill:none;fill-rule:evenodd;stroke:#000000;stroke-width:2.0px;stroke-linecap:butt;stroke-linejoin:miter;stroke-opacity:1"/>
<path class="bond-2 atom-1 atom-3" d="M 463.3,276.3 L 500.0,255.1" style="fill:none;fill-rule:evenodd;stroke:#000000;stroke-width:2.0px;stroke-linecap:butt;stroke-linejoin:miter;stroke-opacity:1"/>
<path class="bond-3 atom-3 atom-4" d="M 500.0,255.1 L 536.7,276.3" style="fill:none;fill-rule:evenodd;stroke:#000000;stroke-width:2.0px;stroke-linecap:butt;stroke-linejoin:miter;stroke-opacity:1"/>
<path class="bond-4 atom-4 atom-5" d="M 533.5,274.5 L 533.5,292.8" style="fill:none;fill-rule:evenodd;stroke:#000000;stroke-width:2.0px;stroke-linecap:butt;stroke-linejoin:miter;stroke-opacity:1"/>
<path class="bond-4 atom-4 atom-5" d="M 533.5,292.8 L 533.5,311.2" style="fill:none;fill-rule:evenodd;stroke:#FF0000;stroke-width:2.0px;stroke-linecap:butt;stroke-linejoin:miter;stroke-opacity:1"/>
<path class="bond-4 atom-4 atom-5" d="M 539.8,274.5 L 539.8,292.8" style="fill:none;fill-rule:evenodd;stroke:#000000;stroke-width:2.0px;stroke-linecap:butt;stroke-linejoin:miter;stroke-opacity:1"/>
<path class="bond-4 atom-4 atom-5" d="M 539.8,292.8 L 539.8,311.2" style="fill:none;fill-rule:evenodd;stroke:#FF0000;stroke-width:2.0px;stroke-linecap:butt;stroke-linejoin:miter;stroke-opacity:1"/>
<path class="bond-5 atom-4 atom-6" d="M 536.7,276.3 L 573.3,255.1" style="fill:none;fill-rule:evenodd;stroke:#000000;stroke-width:2.0px;stroke-linecap:butt;stroke-linejoin:miter;stroke-opacity:1"/>
<path d="M 498.2,256.2 L 500.0,255.1 L 501.8,256.2" style="fill:none;stroke:#000000;stroke-width:2.0px;stroke-linecap:butt;stroke-linejoin:miter;stroke-opacity:1;"/>
<path d="M 534.8,275.2 L 536.7,276.3 L 538.5,275.2" style="fill:none;stroke:#000000;stroke-width:2.0px;stroke-linecap:butt;stroke-linejoin:miter;stroke-opacity:1;"/>
<path class="atom-5" d="M 531.2 318.7 Q 531.2 315.8, 532.6 314.2 Q 534.0 312.6, 536.7 312.6 Q 539.3 312.6, 540.7 314.2 Q 542.2 315.8, 542.2 318.7 Q 542.2 321.6, 540.7 323.2 Q 539.3 324.9, 536.7 324.9 Q 534.0 324.9, 532.6 323.2 Q 531.2 321.6, 531.2 318.7 M 536.7 323.5 Q 538.5 323.5, 539.5 322.3 Q 540.5 321.1, 540.5 318.7 Q 540.5 316.3, 539.5 315.1 Q 538.5 313.9, 536.7 313.9 Q 534.8 313.9, 533.8 315.1 Q 532.9 316.3, 532.9 318.7 Q 532.9 321.1, 533.8 322.3 Q 534.8 323.5, 536.7 323.5 " fill="#FF0000"/>
<path class="legend" d="M 430.3 389.1 L 436.2 389.1 L 436.2 390.4 L 430.3 390.4 L 430.3 389.1 " fill="#000000"/>
<path class="legend" d="M 443.0 388.9 Q 444.1 389.2, 444.6 389.9 Q 445.2 390.6, 445.2 391.7 Q 445.2 392.7, 444.7 393.4 Q 444.2 394.2, 443.3 394.6 Q 442.4 395.0, 441.3 395.0 Q 440.1 395.0, 439.2 394.6 Q 438.3 394.2, 437.5 393.3 L 438.4 392.4 Q 439.2 393.1, 439.7 393.4 Q 440.3 393.7, 441.3 393.7 Q 442.3 393.7, 442.9 393.2 Q 443.6 392.6, 443.6 391.7 Q 443.6 390.6, 442.9 390.1 Q 442.3 389.5, 440.9 389.5 L 440.0 389.5 L 440.0 388.4 L 440.8 388.4 Q 442.0 388.4, 442.7 387.8 Q 443.3 387.3, 443.3 386.3 Q 443.3 385.5, 442.8 385.1 Q 442.2 384.7, 441.3 384.7 Q 440.4 384.7, 439.8 385.0 Q 439.2 385.3, 438.7 386.2 L 437.6 385.6 Q 438.0 384.6, 439.0 384.0 Q 440.0 383.4, 441.3 383.4 Q 443.0 383.4, 443.9 384.2 Q 444.9 385.0, 444.9 386.3 Q 444.9 387.2, 444.4 387.8 Q 443.9 388.5, 443.0 388.9 " fill="#000000"/>
<path class="legend" d="M 446.7 393.2 L 448.3 393.2 L 448.3 394.8 L 446.7 394.8 L 446.7 393.2 " fill="#000000"/>
<path class="legend" d="M 454.0 395.0 Q 452.0 395.0, 450.9 393.4 Q 449.9 391.9, 449.9 389.2 Q 449.9 386.4, 450.9 384.9 Q 452.0 383.4, 454.0 383.4 Q 456.1 383.4, 457.2 384.9 Q 458.2 386.4, 458.2 389.2 Q 458.2 391.9, 457.2 393.4 Q 456.1 395.0, 454.0 395.0 M 454.0 393.7 Q 455.3 393.7, 455.9 392.6 Q 456.6 391.4, 456.6 389.2 Q 456.6 386.9, 455.9 385.8 Q 455.3 384.7, 454.0 384.7 Q 452.8 384.7, 452.2 385.8 Q 451.5 386.9, 451.5 389.2 Q 451.5 391.4, 452.2 392.6 Q 452.8 393.7, 454.0 393.7 " fill="#000000"/>
<path class="legend" d="M 463.9 387.8 Q 464.9 387.8, 465.7 388.2 Q 466.6 388.6, 467.0 389.4 Q 467.5 390.2, 467.5 391.3 Q 467.5 392.4, 466.9 393.3 Q 466.3 394.1, 465.4 394.5 Q 464.5 395.0, 463.4 395.0 Q 462.4 395.0, 461.4 394.6 Q 460.5 394.2, 459.8 393.5 L 460.8 392.5 Q 461.3 393.0, 462.0 393.4 Q 462.7 393.7, 463.5 393.7 Q 464.5 393.7, 465.2 393.0 Q 465.9 392.4, 465.9 391.3 Q 465.9 390.1, 465.2 389.5 Q 464.5 389.0, 463.4 389.0 Q 462.4 389.0, 461.3 389.4 L 460.4 389.0 L 461.0 383.5 L 466.8 383.5 L 466.6 384.8 L 462.3 384.8 L 461.9 388.2 Q 462.9 387.8, 463.9 387.8 " fill="#000000"/>
<path class="legend" d="" fill="#000000"/>
<path class="legend" d="M 485.0 394.8 L 483.2 394.8 L 479.8 390.2 L 476.5 394.8 L 474.8 394.8 L 479.0 388.9 L 475.1 383.5 L 476.8 383.5 L 479.9 387.8 L 483.0 383.5 L 484.7 383.5 L 480.8 389.0 L 485.0 394.8 " fill="#000000"/>
<path class="legend" d="" fill="#000000"/>
<path class="legend" d="M 491.5 389.1 L 497.4 389.1 L 497.4 390.4 L 491.5 390.4 L 491.5 389.1 " fill="#000000"/>
<path class="legend" d="M 502.9 395.0 Q 500.8 395.0, 499.8 393.4 Q 498.8 391.9, 498.8 389.2 Q 498.8 386.4, 499.8 384.9 Q 500.8 383.4, 502.9 383.4 Q 505.0 383.4, 506.0 384.9 Q 507.1 386.4, 507.1 389.2 Q 507.1 391.9, 506.0 393.4 Q 505.0 395.0, 502.9 395.0 M 502.9 393.7 Q 504.2 393.7, 504.8 392.6 Q 505.5 391.4, 505.5 389.2 Q 505.5 386.9, 504.8 385.8 Q 504.2 384.7, 502.9 384.7 Q 501.7 384.7, 501.0 385.8 Q 500.4 386.9, 500.4 389.2 Q 500.4 391.4, 501.0 392.6 Q 501.7 393.7, 502.9 393.7 " fill="#000000"/>
<path class="legend" d="M 508.7 393.2 L 510.3 393.2 L 510.3 394.8 L 508.7 394.8 L 508.7 393.2 " fill="#000000"/>
<path class="legend" d="M 516.1 395.0 Q 514.0 395.0, 512.9 393.4 Q 511.9 391.9, 511.9 389.2 Q 511.9 386.4, 512.9 384.9 Q 514.0 383.4, 516.1 383.4 Q 518.2 383.4, 519.2 384.9 Q 520.2 386.4, 520.2 389.2 Q 520.2 391.9, 519.2 393.4 Q 518.1 395.0, 516.1 395.0 M 516.1 393.7 Q 517.3 393.7, 518.0 392.6 Q 518.6 391.4, 518.6 389.2 Q 518.6 386.9, 518.0 385.8 Q 517.3 384.7, 516.1 384.7 Q 514.9 384.7, 514.2 385.8 Q 513.5 386.9, 513.5 389.2 Q 513.5 391.4, 514.2 392.6 Q 514.9 393.7, 516.1 393.7 " fill="#000000"/>
<path class="legend" d="M 527.8 384.8 L 521.8 384.8 L 521.8 383.5 L 529.4 383.5 L 529.4 384.6 L 524.8 394.8 L 523.2 394.8 L 527.8 384.8 " fill="#000000"/>
<path class="legend" d="M 530.4 387.9 L 537.7 387.9 L 537.7 389.0 L 530.4 389.0 L 530.4 387.9 M 530.4 391.3 L 537.7 391.3 L 537.7 392.5 L 530.4 392.5 L 530.4 391.3 " fill="#000000"/>
<path class="legend" d="M 543.9 395.0 Q 541.8 395.0, 540.8 393.4 Q 539.8 391.9, 539.8 389.2 Q 539.8 386.4, 540.8 384.9 Q 541.8 383.4, 543.9 383.4 Q 546.0 383.4, 547.0 384.9 Q 548.1 386.4, 548.1 389.2 Q 548.1 391.9, 547.0 393.4 Q 546.0 395.0, 543.9 395.0 M 543.9 393.7 Q 545.2 393.7, 545.8 392.6 Q 546.5 391.4, 546.5 389.2 Q 546.5 386.9, 545.8 385.8 Q 545.2 384.7, 543.9 384.7 Q 542.7 384.7, 542.0 385.8 Q 541.4 386.9, 541.4 389.2 Q 541.4 391.4, 542.0 392.6 Q 542.7 393.7, 543.9 393.7 " fill="#000000"/>
<path class="legend" d="M 549.7 393.2 L 551.3 393.2 L 551.3 394.8 L 549.7 394.8 L 549.7 393.2 " fill="#000000"/>
<path class="legend" d="M 552.9 385.7 Q 553.4 384.6, 554.4 384.0 Q 555.3 383.4, 556.7 383.4 Q 558.4 383.4, 559.4 384.3 Q 560.4 385.2, 560.4 386.9 Q 560.4 388.6, 559.1 390.1 Q 557.9 391.7, 555.3 393.6 L 560.5 393.6 L 560.5 394.8 L 552.9 394.8 L 552.9 393.8 Q 555.0 392.3, 556.3 391.1 Q 557.5 390.0, 558.1 389.0 Q 558.8 388.0, 558.8 387.0 Q 558.8 385.9, 558.2 385.3 Q 557.7 384.7, 556.7 384.7 Q 555.8 384.7, 555.2 385.0 Q 554.6 385.4, 554.2 386.2 L 552.9 385.7 " fill="#000000"/>
<path class="legend" d="M 562.1 385.7 Q 562.5 384.6, 563.5 384.0 Q 564.5 383.4, 565.9 383.4 Q 567.6 383.4, 568.6 384.3 Q 569.5 385.2, 569.5 386.9 Q 569.5 388.6, 568.3 390.1 Q 567.0 391.7, 564.5 393.6 L 569.7 393.6 L 569.7 394.8 L 562.1 394.8 L 562.1 393.8 Q 564.2 392.3, 565.4 391.1 Q 566.7 390.0, 567.3 389.0 Q 567.9 388.0, 567.9 387.0 Q 567.9 385.9, 567.4 385.3 Q 566.8 384.7, 565.9 384.7 Q 565.0 384.7, 564.4 385.0 Q 563.8 385.4, 563.3 386.2 L 562.1 385.7 " fill="#000000"/>
<path class="atom-0" d="M 686.9 281.0 L 688.5 281.0 L 688.5 286.1 L 694.7 286.1 L 694.7 281.0 L 696.3 281.0 L 696.3 293.0 L 694.7 293.0 L 694.7 287.5 L 688.5 287.5 L 688.5 293.0 L 686.9 293.0 L 686.9 281.0 " fill="#CCCC00"/>
<path class="atom-0" d="M 698.6 292.6 Q 698.9 291.8, 699.6 291.4 Q 700.3 291.0, 701.2 291.0 Q 702.4 291.0, 703.1 291.6 Q 703.8 292.3, 703.8 293.4 Q 703.8 294.6, 702.9 295.7 Q 702.0 296.8, 700.2 298.1 L 703.9 298.1 L 703.9 299.0 L 698.6 299.0 L 698.6 298.2 Q 700.0 297.2, 700.9 296.4 Q 701.8 295.6, 702.2 294.9 Q 702.6 294.2, 702.6 293.5 Q 702.6 292.7, 702.3 292.3 Q 701.9 291.9, 701.2 291.9 Q 700.6 291.9, 700.2 292.1 Q 699.7 292.4, 699.4 293.0 L 698.6 292.6 " fill="#CCCC00"/>
<path class="atom-0" d="M 705.9 291.1 Q 706.0 291.2, 706.6 291.4 Q 707.1 291.7, 707.7 291.8 Q 708.4 291.9, 709.0 291.9 Q 710.1 291.9, 710.8 291.4 Q 711.4 290.8, 711.4 289.9 Q 711.4 289.2, 711.1 288.8 Q 710.8 288.4, 710.2 288.2 Q 709.7 288.0, 708.9 287.7 Q 707.8 287.4, 707.2 287.1 Q 706.6 286.8, 706.1 286.1 Q 705.7 285.5, 705.7 284.4 Q 705.7 282.9, 706.7 282.0 Q 707.7 281.0, 709.7 281.0 Q 711.1 281.0, 712.7 281.7 L 712.3 283.0 Q 710.9 282.4, 709.8 282.4 Q 708.6 282.4, 708.0 282.9 Q 707.3 283.4, 707.4 284.2 Q 707.4 284.9, 707.7 285.2 Q 708.0 285.6, 708.5 285.9 Q 709.0 286.1, 709.8 286.3 Q 710.9 286.7, 711.5 287.0 Q 712.2 287.3, 712.6 288.0 Q 713.1 288.7, 713.1 289.9 Q 713.1 291.5, 712.0 292.4 Q 710.9 293.3, 709.0 293.3 Q 708.0 293.3, 707.2 293.1 Q 706.4 292.9, 705.4 292.5 L 705.9 291.1 " fill="#CCCC00"/>
<path class="legend" d="M 629.7 389.1 L 635.5 389.1 L 635.5 390.4 L 629.7 390.4 L 629.7 389.1 " fill="#000000"/>
<path class="legend" d="M 641.1 395.0 Q 639.0 395.0, 638.0 393.5 Q 636.9 391.9, 636.9 389.2 Q 636.9 386.5, 638.0 384.9 Q 639.0 383.4, 641.1 383.4 Q 643.2 383.4, 644.2 384.9 Q 645.2 386.5, 645.2 389.2 Q 645.2 391.9, 644.2 393.5 Q 643.2 395.0, 641.1 395.0 M 641.1 393.7 Q 642.3 393.7, 643.0 392.6 Q 643.6 391.4, 643.6 389.2 Q 643.6 387.0, 643.0 385.8 Q 642.3 384.7, 641.1 384.7 Q 639.9 384.7, 639.2 385.8 Q 638.5 387.0, 638.5 389.2 Q 638.5 391.4, 639.2 392.6 Q 639.9 393.7, 641.1 393.7 " fill="#000000"/>
<path class="legend" d="M 646.9 393.3 L 648.5 393.3 L 648.5 394.9 L 646.9 394.9 L 646.9 393.3 " fill="#000000"/>
<path class="legend" d="M 656.0 384.8 L 650.1 384.8 L 650.1 383.5 L 657.6 383.5 L 657.6 384.7 L 653.0 394.9 L 651.5 394.9 L 656.0 384.8 " fill="#000000"/>
<path class="legend" d="M 662.8 395.0 Q 660.7 395.0, 659.7 393.5 Q 658.7 391.9, 658.7 389.2 Q 658.7 386.5, 659.7 384.9 Q 660.7 383.4, 662.8 383.4 Q 664.9 383.4, 665.9 384.9 Q 667.0 386.5, 667.0 389.2 Q 667.0 391.9, 665.9 393.5 Q 664.9 395.0, 662.8 395.0 M 662.8 393.7 Q 664.0 393.7, 664.7 392.6 Q 665.4 391.4, 665.4 389.2 Q 665.4 387.0, 664.7 385.8 Q 664.0 384.7, 662.8 384.7 Q 661.6 384.7, 660.9 385.8 Q 660.3 387.0, 660.3 389.2 Q 660.3 391.4, 660.9 392.6 Q 661.6 393.7, 662.8 393.7 " fill="#000000"/>
<path class="legend" d="" fill="#000000"/>
<path class="legend" d="M 684.7 394.9 L 683.0 394.9 L 679.6 390.2 L 676.3 394.9 L 674.5 394.9 L 678.7 389.0 L 674.8 383.5 L 676.6 383.5 L 679.7 387.8 L 682.7 383.5 L 684.5 383.5 L 680.6 389.1 L 684.7 394.9 " fill="#000000"/>
<path class="legend" d="" fill="#000000"/>
<path class="legend" d="M 695.4 395.0 Q 693.4 395.0, 692.3 393.5 Q 691.3 391.9, 691.3 389.2 Q 691.3 386.5, 692.3 384.9 Q 693.3 383.4, 695.4 383.4 Q 697.5 383.4, 698.6 384.9 Q 699.6 386.5, 699.6 389.2 Q 699.6 391.9, 698.5 393.5 Q 697.5 395.0, 695.4 395.0 M 695.4 393.7 Q 696.7 393.7, 697.3 392.6 Q 698.0 391.4, 698.0 389.2 Q 698.0 387.0, 697.3 385.8 Q 696.7 384.7, 695.4 384.7 Q 694.2 384.7, 693.6 385.8 Q 692.9 387.0, 692.9 389.2 Q 692.9 391.4, 693.6 392.6 Q 694.2 393.7, 695.4 393.7 " fill="#000000"/>
<path class="legend" d="M 701.2 393.3 L 702.8 393.3 L 702.8 394.9 L 701.2 394.9 L 701.2 393.3 " fill="#000000"/>
<path class="legend" d="M 708.6 395.0 Q 706.5 395.0, 705.5 393.5 Q 704.5 391.9, 704.5 389.2 Q 704.5 386.5, 705.5 384.9 Q 706.5 383.4, 708.6 383.4 Q 710.7 383.4, 711.7 384.9 Q 712.7 386.5, 712.7 389.2 Q 712.7 391.9, 711.7 393.5 Q 710.7 395.0, 708.6 395.0 M 708.6 393.7 Q 709.8 393.7, 710.5 392.6 Q 711.1 391.4, 711.1 389.2 Q 711.1 387.0, 710.5 385.8 Q 709.8 384.7, 708.6 384.7 Q 707.4 384.7, 706.7 385.8 Q 706.1 387.0, 706.1 389.2 Q 706.1 391.4, 706.7 392.6 Q 707.4 393.7, 708.6 393.7 " fill="#000000"/>
<path class="legend" d="M 720.3 384.8 L 714.4 384.8 L 714.4 383.5 L 721.9 383.5 L 721.9 384.7 L 717.3 394.9 L 715.8 394.9 L 720.3 384.8 " fill="#000000"/>
<path class="legend" d="M 722.9 387.9 L 730.3 387.9 L 730.3 389.1 L 722.9 389.1 L 722.9 387.9 M 722.9 391.3 L 730.3 391.3 L 730.3 392.5 L 722.9 392.5 L 722.9 391.3 " fill="#000000"/>
<path class="legend" d="M 732.3 389.1 L 738.2 389.1 L 738.2 390.4 L 732.3 390.4 L 732.3 389.1 " fill="#000000"/>
<path class="legend" d="M 743.7 395.0 Q 741.7 395.0, 740.6 393.5 Q 739.6 391.9, 739.6 389.2 Q 739.6 386.5, 740.6 384.9 Q 741.6 383.4, 743.7 383.4 Q 745.8 383.4, 746.9 384.9 Q 747.9 386.5, 747.9 389.2 Q 747.9 391.9, 746.8 393.5 Q 745.8 395.0, 743.7 395.0 M 743.7 393.7 Q 745.0 393.7, 745.6 392.6 Q 746.3 391.4, 746.3 389.2 Q 746.3 387.0, 745.6 385.8 Q 745.0 384.7, 743.7 384.7 Q 742.5 384.7, 741.8 385.8 Q 741.2 387.0, 741.2 389.2 Q 741.2 391.4, 741.8 392.6 Q 742.5 393.7, 743.7 393.7 " fill="#000000"/>
<path class="legend" d="M 749.5 393.3 L 751.1 393.3 L 751.1 394.9 L 749.5 394.9 L 749.5 393.3 " fill="#000000"/>
<path class="legend" d="M 756.9 395.0 Q 754.8 395.0, 753.8 393.5 Q 752.7 391.9, 752.7 389.2 Q 752.7 386.5, 753.8 384.9 Q 754.8 383.4, 756.9 383.4 Q 759.0 383.4, 760.0 384.9 Q 761.0 386.5, 761.0 389.2 Q 761.0 391.9, 760.0 393.5 Q 759.0 395.0, 756.9 395.0 M 756.9 393.7 Q 758.1 393.7, 758.8 392.6 Q 759.4 391.4, 759.4 389.2 Q 759.4 387.0, 758.8 385.8 Q 758.1 384.7, 756.9 384.7 Q 755.7 384.7, 755.0 385.8 Q 754.3 387.0, 754.3 389.2 Q 754.3 391.4, 755.0 392.6 Q 755.7 393.7, 756.9 393.7 " fill="#000000"/>
<path class="legend" d="M 766.8 387.8 Q 767.8 387.8, 768.6 388.2 Q 769.4 388.6, 769.9 389.4 Q 770.3 390.2, 770.3 391.3 Q 770.3 392.5, 769.7 393.3 Q 769.2 394.1, 768.3 394.6 Q 767.3 395.0, 766.3 395.0 Q 765.2 395.0, 764.3 394.6 Q 763.3 394.2, 762.7 393.5 L 763.6 392.5 Q 764.1 393.1, 764.9 393.4 Q 765.6 393.7, 766.3 393.7 Q 767.3 393.7, 768.0 393.1 Q 768.7 392.5, 768.7 391.3 Q 768.7 390.1, 768.0 389.6 Q 767.3 389.0, 766.2 389.0 Q 765.2 389.0, 764.1 389.4 L 763.3 389.0 L 763.8 383.5 L 769.6 383.5 L 769.5 384.8 L 765.1 384.8 L 764.8 388.2 Q 765.8 387.8, 766.8 387.8 " fill="#000000"/>
<path class="atom-0" d="M 87.7 481.0 L 91.6 487.3 Q 92.0 487.9, 92.6 489.1 Q 93.3 490.2, 93.3 490.3 L 93.3 481.0 L 94.9 481.0 L 94.9 492.9 L 93.2 492.9 L 89.0 486.0 Q 88.5 485.2, 88.0 484.3 Q 87.5 483.3, 87.4 483.0 L 87.4 492.9 L 85.8 492.9 L 85.8 481.0 L 87.7 481.0 " fill="#0000FF"/>
<path class="atom-0" d="M 97.2 481.0 L 98.8 481.0 L 98.8 486.0 L 104.9 486.0 L 104.9 481.0 L 106.6 481.0 L 106.6 492.9 L 104.9 492.9 L 104.9 487.4 L 98.8 487.4 L 98.8 492.9 L 97.2 492.9 L 97.2 481.0 " fill="#0000FF"/>
<path class="atom-0" d="M 112.7 494.8 Q 113.5 495.0, 113.8 495.5 Q 114.2 496.0, 114.2 496.8 Q 114.2 497.4, 113.9 498.0 Q 113.5 498.5, 112.9 498.8 Q 112.3 499.0, 111.5 499.0 Q 110.7 499.0, 110.0 498.8 Q 109.4 498.5, 108.9 497.9 L 109.5 497.2 Q 110.0 497.7, 110.4 498.0 Q 110.8 498.2, 111.5 498.2 Q 112.2 498.2, 112.7 497.8 Q 113.1 497.4, 113.1 496.8 Q 113.1 496.0, 112.6 495.6 Q 112.2 495.2, 111.2 495.2 L 110.6 495.2 L 110.6 494.4 L 111.1 494.4 Q 112.0 494.4, 112.5 494.0 Q 112.9 493.7, 112.9 493.0 Q 112.9 492.4, 112.5 492.1 Q 112.2 491.8, 111.5 491.8 Q 110.9 491.8, 110.4 492.1 Q 110.0 492.3, 109.7 492.9 L 109.0 492.5 Q 109.2 491.8, 109.9 491.4 Q 110.6 490.9, 111.5 490.9 Q 112.7 490.9, 113.4 491.5 Q 114.0 492.0, 114.0 493.0 Q 114.0 493.6, 113.7 494.1 Q 113.3 494.5, 112.7 494.8 " fill="#0000FF"/>
<path class="legend" d="M 29.6 589.1 L 35.4 589.1 L 35.4 590.4 L 29.6 590.4 L 29.6 589.1 " fill="#000000"/>
<path class="legend" d="M 44.2 591.0 L 45.5 591.0 L 45.5 592.3 L 44.2 592.3 L 44.2 594.9 L 42.7 594.9 L 42.7 592.3 L 36.8 592.3 L 36.8 591.3 L 41.8 583.5 L 44.2 583.5 L 44.2 591.0 M 38.7 591.0 L 42.7 591.0 L 42.7 584.6 L 38.7 591.0 " fill="#000000"/>
<path class="legend" d="M 46.9 593.3 L 48.5 593.3 L 48.5 594.9 L 46.9 594.9 L 46.9 593.3 " fill="#000000"/>
<path class="legend" d="M 50.2 585.7 Q 50.6 584.6, 51.6 584.0 Q 52.6 583.4, 54.0 583.4 Q 55.7 583.4, 56.6 584.3 Q 57.6 585.3, 57.6 586.9 Q 57.6 588.6, 56.3 590.2 Q 55.1 591.7, 52.5 593.6 L 57.8 593.6 L 57.8 594.9 L 50.1 594.9 L 50.1 593.8 Q 52.3 592.3, 53.5 591.2 Q 54.8 590.1, 55.4 589.0 Q 56.0 588.0, 56.0 587.0 Q 56.0 585.9, 55.4 585.3 Q 54.9 584.7, 54.0 584.7 Q 53.0 584.7, 52.4 585.1 Q 51.8 585.4, 51.4 586.2 L 50.2 585.7 " fill="#000000"/>
<path class="legend" d="M 63.1 583.4 Q 65.1 583.4, 66.2 584.8 Q 67.2 586.2, 67.2 588.9 Q 67.2 591.9, 65.9 593.4 Q 64.7 595.0, 62.3 595.0 Q 61.5 595.0, 60.9 594.8 Q 60.3 594.7, 59.8 594.3 L 60.4 593.3 Q 61.2 593.7, 62.2 593.7 Q 63.8 593.7, 64.7 592.7 Q 65.5 591.7, 65.6 589.5 Q 65.0 590.1, 64.3 590.3 Q 63.5 590.6, 62.7 590.6 Q 61.8 590.6, 61.0 590.2 Q 60.2 589.8, 59.8 589.0 Q 59.3 588.2, 59.3 587.2 Q 59.3 586.1, 59.8 585.2 Q 60.3 584.4, 61.2 583.9 Q 62.0 583.4, 63.1 583.4 M 60.9 587.2 Q 60.9 588.2, 61.5 588.8 Q 62.0 589.3, 63.0 589.3 Q 63.7 589.3, 64.4 589.1 Q 65.1 588.8, 65.6 588.3 Q 65.5 586.4, 64.9 585.6 Q 64.3 584.7, 63.1 584.7 Q 62.5 584.7, 62.0 585.0 Q 61.5 585.4, 61.2 585.9 Q 60.9 586.5, 60.9 587.2 " fill="#000000"/>
<path class="legend" d="" fill="#000000"/>
<path class="legend" d="M 85.0 594.9 L 83.2 594.9 L 79.9 590.2 L 76.5 594.9 L 74.8 594.9 L 79.0 589.0 L 75.1 583.5 L 76.9 583.5 L 79.9 587.8 L 83.0 583.5 L 84.7 583.5 L 80.8 589.1 L 85.0 594.9 " fill="#000000"/>
<path class="legend" d="" fill="#000000"/>
<path class="legend" d="M 95.7 595.0 Q 93.6 595.0, 92.6 593.5 Q 91.6 591.9, 91.6 589.2 Q 91.6 586.5, 92.6 584.9 Q 93.6 583.4, 95.7 583.4 Q 97.8 583.4, 98.8 584.9 Q 99.9 586.5, 99.9 589.2 Q 99.9 591.9, 98.8 593.5 Q 97.8 595.0, 95.7 595.0 M 95.7 593.7 Q 96.9 593.7, 97.6 592.6 Q 98.3 591.4, 98.3 589.2 Q 98.3 587.0, 97.6 585.8 Q 96.9 584.7, 95.7 584.7 Q 94.5 584.7, 93.8 585.8 Q 93.2 587.0, 93.2 589.2 Q 93.2 591.4, 93.8 592.6 Q 94.5 593.7, 95.7 593.7 " fill="#000000"/>
<path class="legend" d="M 101.5 593.3 L 103.1 593.3 L 103.1 594.9 L 101.5 594.9 L 101.5 593.3 " fill="#000000"/>
<path class="legend" d="M 108.9 595.0 Q 106.8 595.0, 105.7 593.5 Q 104.7 591.9, 104.7 589.2 Q 104.7 586.5, 105.7 584.9 Q 106.8 583.4, 108.9 583.4 Q 111.0 583.4, 112.0 584.9 Q 113.0 586.5, 113.0 589.2 Q 113.0 591.9, 112.0 593.5 Q 110.9 595.0, 108.9 595.0 M 108.9 593.7 Q 110.1 593.7, 110.7 592.6 Q 111.4 591.4, 111.4 589.2 Q 111.4 587.0, 110.7 585.8 Q 110.1 584.7, 108.9 584.7 Q 107.6 584.7, 107.0 585.8 Q 106.3 587.0, 106.3 589.2 Q 106.3 591.4, 107.0 592.6 Q 107.6 593.7, 108.9 593.7 " fill="#000000"/>
<path class="legend" d="M 119.1 587.8 Q 120.1 587.8, 120.8 588.2 Q 121.6 588.7, 122.1 589.4 Q 122.5 590.2, 122.5 591.2 Q 122.5 592.3, 122.0 593.2 Q 121.5 594.0, 120.6 594.5 Q 119.8 595.0, 118.7 595.0 Q 116.7 595.0, 115.6 593.6 Q 114.6 592.3, 114.6 589.5 Q 114.6 586.5, 115.9 585.0 Q 117.1 583.4, 119.6 583.4 Q 120.3 583.4, 120.9 583.6 Q 121.5 583.7, 122.0 584.1 L 121.4 585.1 Q 120.6 584.7, 119.6 584.7 Q 118.0 584.7, 117.2 585.7 Q 116.3 586.8, 116.2 588.9 Q 116.8 588.4, 117.5 588.1 Q 118.3 587.8, 119.1 587.8 M 118.7 593.7 Q 119.3 593.7, 119.8 593.4 Q 120.3 593.0, 120.6 592.5 Q 120.9 591.9, 120.9 591.2 Q 120.9 590.2, 120.3 589.7 Q 119.8 589.1, 118.8 589.1 Q 118.1 589.1, 117.4 589.4 Q 116.7 589.6, 116.2 590.1 Q 116.3 592.0, 116.9 592.8 Q 117.5 593.7, 118.7 593.7 " fill="#000000"/>
<path class="legend" d="M 124.0 587.9 L 131.3 587.9 L 131.3 589.1 L 124.0 589.1 L 124.0 587.9 M 124.0 591.3 L 131.3 591.3 L 131.3 592.5 L 124.0 592.5 L 124.0 591.3 " fill="#000000"/>
<path class="legend" d="M 133.3 589.1 L 139.2 589.1 L 139.2 590.4 L 133.3 590.4 L 133.3 589.1 " fill="#000000"/>
<path class="legend" d="M 144.7 595.0 Q 142.7 595.0, 141.6 593.5 Q 140.6 591.9, 140.6 589.2 Q 140.6 586.5, 141.6 584.9 Q 142.6 583.4, 144.7 583.4 Q 146.8 583.4, 147.9 584.9 Q 148.9 586.5, 148.9 589.2 Q 148.9 591.9, 147.8 593.5 Q 146.8 595.0, 144.7 595.0 M 144.7 593.7 Q 146.0 593.7, 146.6 592.6 Q 147.3 591.4, 147.3 589.2 Q 147.3 587.0, 146.6 585.8 Q 146.0 584.7, 144.7 584.7 Q 143.5 584.7, 142.8 585.8 Q 142.2 587.0, 142.2 589.2 Q 142.2 591.4, 142.8 592.6 Q 143.5 593.7, 144.7 593.7 " fill="#000000"/>
<path class="legend" d="M 150.5 593.3 L 152.1 593.3 L 152.1 594.9 L 150.5 594.9 L 150.5 593.3 " fill="#000000"/>
<path class="legend" d="M 153.8 585.7 Q 154.2 584.6, 155.2 584.0 Q 156.2 583.4, 157.5 583.4 Q 159.3 583.4, 160.2 584.3 Q 161.2 585.3, 161.2 586.9 Q 161.2 588.6, 159.9 590.2 Q 158.7 591.7, 156.1 593.6 L 161.4 593.6 L 161.4 594.9 L 153.7 594.9 L 153.7 593.8 Q 155.9 592.3, 157.1 591.2 Q 158.4 590.1, 159.0 589.0 Q 159.6 588.0, 159.6 587.0 Q 159.6 585.9, 159.0 585.3 Q 158.5 584.7, 157.5 584.7 Q 156.6 584.7, 156.0 585.1 Q 155.4 585.4, 155.0 586.2 L 153.8 585.7 " fill="#000000"/>
<path class="legend" d="M 168.9 584.8 L 162.9 584.8 L 162.9 583.5 L 170.4 583.5 L 170.4 584.7 L 165.9 594.9 L 164.3 594.9 L 168.9 584.8 " fill="#000000"/>
<path class="atom-0" d="M 285.7 487.1 Q 285.7 484.1, 287.0 482.5 Q 288.4 480.9, 291.1 480.9 Q 293.6 480.9, 294.9 482.7 L 293.8 483.6 Q 292.8 482.3, 291.1 482.3 Q 289.3 482.3, 288.3 483.5 Q 287.4 484.7, 287.4 487.1 Q 287.4 489.4, 288.4 490.6 Q 289.4 491.9, 291.3 491.9 Q 292.6 491.9, 294.2 491.1 L 294.6 492.3 Q 294.0 492.7, 293.1 493.0 Q 292.1 493.2, 291.1 493.2 Q 288.4 493.2, 287.0 491.6 Q 285.7 490.0, 285.7 487.1 " fill="#000000"/>
<path class="atom-0" d="M 296.5 481.1 L 298.1 481.1 L 298.1 486.2 L 304.3 486.2 L 304.3 481.1 L 305.9 481.1 L 305.9 493.1 L 304.3 493.1 L 304.3 487.5 L 298.1 487.5 L 298.1 493.1 L 296.5 493.1 L 296.5 481.1 " fill="#000000"/>
<path class="atom-0" d="M 313.4 496.3 L 314.3 496.3 L 314.3 497.2 L 313.4 497.2 L 313.4 499.1 L 312.3 499.1 L 312.3 497.2 L 308.3 497.2 L 308.3 496.5 L 311.7 491.1 L 313.4 491.1 L 313.4 496.3 M 309.6 496.3 L 312.3 496.3 L 312.3 491.9 L 309.6 496.3 " fill="#000000"/>
<path class="legend" d="M 237.3 585.7 Q 237.7 584.6, 238.7 584.0 Q 239.7 583.4, 241.0 583.4 Q 242.8 583.4, 243.7 584.3 Q 244.7 585.3, 244.7 586.9 Q 244.7 588.6, 243.4 590.2 Q 242.2 591.7, 239.6 593.6 L 244.9 593.6 L 244.9 594.9 L 237.2 594.9 L 237.2 593.8 Q 239.3 592.3, 240.6 591.2 Q 241.9 590.1, 242.5 589.0 Q 243.1 588.0, 243.1 587.0 Q 243.1 585.9, 242.5 585.3 Q 242.0 584.7, 241.0 584.7 Q 240.1 584.7, 239.5 585.1 Q 238.9 585.4, 238.5 586.2 L 237.3 585.7 " fill="#000000"/>
<path class="legend" d="M 246.4 593.3 L 248.0 593.3 L 248.0 594.9 L 246.4 594.9 L 246.4 593.3 " fill="#000000"/>
<path class="legend" d="M 253.8 595.0 Q 251.7 595.0, 250.7 593.5 Q 249.6 591.9, 249.6 589.2 Q 249.6 586.5, 250.7 584.9 Q 251.7 583.4, 253.8 583.4 Q 255.9 583.4, 256.9 584.9 Q 257.9 586.5, 257.9 589.2 Q 257.9 591.9, 256.9 593.5 Q 255.9 595.0, 253.8 595.0 M 253.8 593.7 Q 255.0 593.7, 255.7 592.6 Q 256.3 591.4, 256.3 589.2 Q 256.3 587.0, 255.7 585.8 Q 255.0 584.7, 253.8 584.7 Q 252.6 584.7, 251.9 585.8 Q 251.2 587.0, 251.2 589.2 Q 251.2 591.4, 251.9 592.6 Q 252.6 593.7, 253.8 593.7 " fill="#000000"/>
<path class="legend" d="M 263.7 595.0 Q 261.6 595.0, 260.6 593.5 Q 259.6 591.9, 259.6 589.2 Q 259.6 586.5, 260.6 584.9 Q 261.6 583.4, 263.7 583.4 Q 265.8 583.4, 266.8 584.9 Q 267.8 586.5, 267.8 589.2 Q 267.8 591.9, 266.8 593.5 Q 265.8 595.0, 263.7 595.0 M 263.7 593.7 Q 264.9 593.7, 265.6 592.6 Q 266.2 591.4, 266.2 589.2 Q 266.2 587.0, 265.6 585.8 Q 264.9 584.7, 263.7 584.7 Q 262.5 584.7, 261.8 585.8 Q 261.2 587.0, 261.2 589.2 Q 261.2 591.4, 261.8 592.6 Q 262.5 593.7, 263.7 593.7 " fill="#000000"/>
<path class="legend" d="" fill="#000000"/>
<path class="legend" d="M 285.6 594.9 L 283.8 594.9 L 280.5 590.2 L 277.1 594.9 L 275.4 594.9 L 279.6 589.0 L 275.7 583.5 L 277.5 583.5 L 280.5 587.8 L 283.6 583.5 L 285.4 583.5 L 281.4 589.1 L 285.6 594.9 " fill="#000000"/>
<path class="legend" d="" fill="#000000"/>
<path class="legend" d="M 296.3 595.0 Q 294.2 595.0, 293.2 593.5 Q 292.2 591.9, 292.2 589.2 Q 292.2 586.5, 293.2 584.9 Q 294.2 583.4, 296.3 583.4 Q 298.4 583.4, 299.4 584.9 Q 300.4 586.5, 300.4 589.2 Q 300.4 591.9, 299.4 593.5 Q 298.4 595.0, 296.3 595.0 M 296.3 593.7 Q 297.5 593.7, 298.2 592.6 Q 298.8 591.4, 298.8 589.2 Q 298.8 587.0, 298.2 585.8 Q 297.5 584.7, 296.3 584.7 Q 295.1 584.7, 294.4 585.8 Q 293.8 587.0, 293.8 589.2 Q 293.8 591.4, 294.4 592.6 Q 295.1 593.7, 296.3 593.7 " fill="#000000"/>
<path class="legend" d="M 302.1 593.3 L 303.7 593.3 L 303.7 594.9 L 302.1 594.9 L 302.1 593.3 " fill="#000000"/>
<path class="legend" d="M 309.4 595.0 Q 307.4 595.0, 306.3 593.5 Q 305.3 591.9, 305.3 589.2 Q 305.3 586.5, 306.3 584.9 Q 307.3 583.4, 309.4 583.4 Q 311.5 583.4, 312.6 584.9 Q 313.6 586.5, 313.6 589.2 Q 313.6 591.9, 312.5 593.5 Q 311.5 595.0, 309.4 595.0 M 309.4 593.7 Q 310.7 593.7, 311.3 592.6 Q 312.0 591.4, 312.0 589.2 Q 312.0 587.0, 311.3 585.8 Q 310.7 584.7, 309.4 584.7 Q 308.2 584.7, 307.6 585.8 Q 306.9 587.0, 306.9 589.2 Q 306.9 591.4, 307.6 592.6 Q 308.2 593.7, 309.4 593.7 " fill="#000000"/>
<path class="legend" d="M 319.6 587.8 Q 320.6 587.8, 321.4 588.2 Q 322.2 588.7, 322.6 589.4 Q 323.1 590.2, 323.1 591.2 Q 323.1 592.3, 322.6 593.2 Q 322.1 594.0, 321.2 594.5 Q 320.4 595.0, 319.3 595.0 Q 317.2 595.0, 316.2 593.6 Q 315.2 592.3, 315.2 589.5 Q 315.2 586.5, 316.5 585.0 Q 317.7 583.4, 320.1 583.4 Q 320.8 583.4, 321.4 583.6 Q 322.0 583.7, 322.6 584.1 L 322.0 585.1 Q 321.2 584.7, 320.2 584.7 Q 318.6 584.7, 317.7 585.7 Q 316.9 586.8, 316.8 588.9 Q 317.4 588.4, 318.1 588.1 Q 318.9 587.8, 319.6 587.8 M 319.3 593.7 Q 319.9 593.7, 320.4 593.4 Q 320.9 593.0, 321.2 592.5 Q 321.5 591.9, 321.5 591.2 Q 321.5 590.2, 320.9 589.7 Q 320.3 589.1, 319.4 589.1 Q 318.7 589.1, 318.0 589.4 Q 317.3 589.6, 316.8 590.1 Q 316.9 592.0, 317.5 592.8 Q 318.1 593.7, 319.3 593.7 " fill="#000000"/>
<path class="legend" d="M 324.5 587.9 L 331.9 587.9 L 331.9 589.1 L 324.5 589.1 L 324.5 587.9 M 324.5 591.3 L 331.9 591.3 L 331.9 592.5 L 324.5 592.5 L 324.5 591.3 " fill="#000000"/>
<path class="legend" d="M 338.0 595.0 Q 336.0 595.0, 334.9 593.5 Q 333.9 591.9, 333.9 589.2 Q 333.9 586.5, 334.9 584.9 Q 336.0 583.4, 338.0 583.4 Q 340.1 583.4, 341.2 584.9 Q 342.2 586.5, 342.2 589.2 Q 342.2 591.9, 341.2 593.5 Q 340.1 595.0, 338.0 595.0 M 338.0 593.7 Q 339.3 593.7, 339.9 592.6 Q 340.6 591.4, 340.6 589.2 Q 340.6 587.0, 339.9 585.8 Q 339.3 584.7, 338.0 584.7 Q 336.8 584.7, 336.2 585.8 Q 335.5 587.0, 335.5 589.2 Q 335.5 591.4, 336.2 592.6 Q 336.8 593.7, 338.0 593.7 " fill="#000000"/>
<path class="legend" d="M 343.8 593.3 L 345.4 593.3 L 345.4 594.9 L 343.8 594.9 L 343.8 593.3 " fill="#000000"/>
<path class="legend" d="M 347.7 593.6 L 350.1 593.6 L 350.1 585.1 L 347.4 586.0 L 347.0 585.0 L 350.5 583.5 L 351.7 583.7 L 351.7 593.6 L 353.9 593.6 L 353.9 594.9 L 347.7 594.9 L 347.7 593.6 " fill="#000000"/>
<path class="legend" d="M 355.2 585.7 Q 355.6 584.6, 356.6 584.0 Q 357.6 583.4, 358.9 583.4 Q 360.7 583.4, 361.6 584.3 Q 362.6 585.3, 362.6 586.9 Q 362.6 588.6, 361.3 590.2 Q 360.1 591.7, 357.5 593.6 L 362.8 593.6 L 362.8 594.9 L 355.1 594.9 L 355.1 593.8 Q 357.2 592.3, 358.5 591.2 Q 359.8 590.1, 360.4 589.0 Q 361.0 588.0, 361.0 587.0 Q 361.0 585.9, 360.4 585.3 Q 359.9 584.7, 358.9 584.7 Q 358.0 584.7, 357.4 585.1 Q 356.8 585.4, 356.4 586.2 L 355.2 585.7 " fill="#000000"/>
<path class="bond-0 atom-0 atom-1" d="M 484.4,487.0 L 514.9,487.0" style="fill:none;fill-rule:evenodd;stroke:#0000FF;stroke-width:2.0px;stroke-linecap:butt;stroke-linejoin:miter;stroke-opacity:1"/>
<path class="atom-0" d="M 455.3 481.0 L 456.9 481.0 L 456.9 486.1 L 463.1 486.1 L 463.1 481.0 L 464.7 481.0 L 464.7 493.0 L 463.1 493.0 L 463.1 487.5 L 456.9 487.5 L 456.9 493.0 L 455.3 493.0 L 455.3 481.0 " fill="#0000FF"/>
<path class="atom-0" d="M 467.0 492.6 Q 467.3 491.8, 468.0 491.4 Q 468.7 491.0, 469.7 491.0 Q 470.9 491.0, 471.6 491.6 Q 472.2 492.3, 472.2 493.4 Q 472.2 494.6, 471.4 495.7 Q 470.5 496.8, 468.7 498.1 L 472.4 498.1 L 472.4 499.0 L 467.0 499.0 L 467.0 498.2 Q 468.5 497.2, 469.4 496.4 Q 470.3 495.6, 470.7 494.9 Q 471.1 494.2, 471.1 493.5 Q 471.1 492.7, 470.7 492.3 Q 470.3 491.9, 469.7 491.9 Q 469.1 491.9, 468.6 492.1 Q 468.2 492.4, 467.9 493.0 L 467.0 492.6 " fill="#0000FF"/>
<path class="atom-0" d="M 475.8 481.0 L 479.7 487.4 Q 480.1 488.0, 480.8 489.1 Q 481.4 490.3, 481.4 490.3 L 481.4 481.0 L 483.0 481.0 L 483.0 493.0 L 481.4 493.0 L 477.2 486.1 Q 476.7 485.2, 476.1 484.3 Q 475.6 483.4, 475.5 483.1 L 475.5 493.0 L 473.9 493.0 L 473.9 481.0 L 475.8 481.0 " fill="#0000FF"/>
<path class="atom-1" d="M 518.2 481.0 L 522.1 487.4 Q 522.5 488.0, 523.1 489.1 Q 523.7 490.3, 523.8 490.3 L 523.8 481.0 L 525.3 481.0 L 525.3 493.0 L 523.7 493.0 L 519.5 486.1 Q 519.0 485.2, 518.5 484.3 Q 518.0 483.4, 517.8 483.1 L 517.8 493.0 L 516.3 493.0 L 516.3 481.0 L 518.2 481.0 " fill="#0000FF"/>
<path class="atom-1" d="M 527.6 481.0 L 529.3 481.0 L 529.3 486.1 L 535.4 486.1 L 535.4 481.0 L 537.0 481.0 L 537.0 493.0 L 535.4 493.0 L 535.4 487.5 L 529.3 487.5 L 529.3 493.0 L 527.6 493.0 L 527.6 481.0 " fill="#0000FF"/>
<path class="atom-1" d="M 539.4 492.6 Q 539.7 491.8, 540.4 491.4 Q 541.0 491.0, 542.0 491.0 Q 543.2 491.0, 543.9 491.6 Q 544.5 492.3, 544.5 493.4 Q 544.5 494.6, 543.7 495.7 Q 542.8 496.8, 541.0 498.1 L 544.7 498.1 L 544.7 499.0 L 539.3 499.0 L 539.3 498.2 Q 540.8 497.2, 541.7 496.4 Q 542.6 495.6, 543.0 494.9 Q 543.4 494.2, 543.4 493.5 Q 543.4 492.7, 543.0 492.3 Q 542.7 491.9, 542.0 491.9 Q 541.4 491.9, 540.9 492.1 Q 540.5 492.4, 540.2 493.0 L 539.4 492.6 " fill="#0000FF"/>
<path class="legend" d="M 429.8 589.1 L 435.6 589.1 L 435.6 590.4 L 429.8 590.4 L 429.8 589.1 " fill="#000000"/>
<path class="legend" d="M 440.8 583.4 Q 442.8 583.4, 443.9 584.8 Q 444.9 586.1, 444.9 588.8 Q 444.9 591.8, 443.6 593.4 Q 442.4 595.0, 439.9 595.0 Q 439.2 595.0, 438.6 594.8 Q 438.0 594.6, 437.5 594.3 L 438.1 593.2 Q 438.9 593.7, 439.9 593.7 Q 441.5 593.7, 442.3 592.7 Q 443.2 591.6, 443.3 589.5 Q 442.7 590.0, 441.9 590.3 Q 441.2 590.6, 440.4 590.6 Q 439.5 590.6, 438.7 590.2 Q 437.9 589.7, 437.5 588.9 Q 437.0 588.2, 437.0 587.2 Q 437.0 586.1, 437.5 585.2 Q 438.0 584.3, 438.9 583.9 Q 439.7 583.4, 440.8 583.4 M 438.6 587.1 Q 438.6 588.2, 439.2 588.7 Q 439.7 589.3, 440.7 589.3 Q 441.4 589.3, 442.1 589.0 Q 442.8 588.7, 443.3 588.3 Q 443.2 586.4, 442.6 585.5 Q 442.0 584.7, 440.8 584.7 Q 440.2 584.7, 439.7 585.0 Q 439.2 585.3, 438.9 585.9 Q 438.6 586.5, 438.6 587.1 " fill="#000000"/>
<path class="legend" d="M 446.6 593.2 L 448.2 593.2 L 448.2 594.8 L 446.6 594.8 L 446.6 593.2 " fill="#000000"/>
<path class="legend" d="M 455.2 588.9 Q 456.3 589.2, 456.9 589.9 Q 457.4 590.6, 457.4 591.7 Q 457.4 592.7, 456.9 593.4 Q 456.4 594.2, 455.6 594.6 Q 454.7 595.0, 453.5 595.0 Q 452.3 595.0, 451.4 594.6 Q 450.5 594.2, 449.8 593.3 L 450.7 592.4 Q 451.4 593.1, 452.0 593.4 Q 452.6 593.7, 453.5 593.7 Q 454.5 593.7, 455.2 593.2 Q 455.8 592.6, 455.8 591.7 Q 455.8 590.6, 455.1 590.1 Q 454.5 589.5, 453.1 589.5 L 452.3 589.5 L 452.3 588.4 L 453.0 588.4 Q 454.2 588.4, 454.9 587.8 Q 455.6 587.3, 455.6 586.3 Q 455.6 585.5, 455.0 585.1 Q 454.5 584.7, 453.5 584.7 Q 452.6 584.7, 452.0 585.0 Q 451.4 585.3, 451.0 586.2 L 449.9 585.6 Q 450.3 584.6, 451.2 584.0 Q 452.2 583.4, 453.5 583.4 Q 455.2 583.4, 456.2 584.2 Q 457.2 585.0, 457.2 586.3 Q 457.2 587.2, 456.7 587.8 Q 456.2 588.5, 455.2 588.9 " fill="#000000"/>
<path class="legend" d="M 463.1 595.0 Q 461.0 595.0, 460.0 593.4 Q 458.9 591.9, 458.9 589.2 Q 458.9 586.4, 460.0 584.9 Q 461.0 583.4, 463.1 583.4 Q 465.2 583.4, 466.2 584.9 Q 467.2 586.4, 467.2 589.2 Q 467.2 591.9, 466.2 593.4 Q 465.2 595.0, 463.1 595.0 M 463.1 593.7 Q 464.3 593.7, 465.0 592.6 Q 465.6 591.4, 465.6 589.2 Q 465.6 586.9, 465.0 585.8 Q 464.3 584.7, 463.1 584.7 Q 461.9 584.7, 461.2 585.8 Q 460.5 586.9, 460.5 589.2 Q 460.5 591.4, 461.2 592.6 Q 461.9 593.7, 463.1 593.7 " fill="#000000"/>
<path class="legend" d="" fill="#000000"/>
<path class="legend" d="M 485.0 594.8 L 483.2 594.8 L 479.9 590.2 L 476.5 594.8 L 474.8 594.8 L 479.0 588.9 L 475.1 583.5 L 476.8 583.5 L 479.9 587.8 L 483.0 583.5 L 484.7 583.5 L 480.8 589.0 L 485.0 594.8 " fill="#000000"/>
<path class="legend" d="" fill="#000000"/>
<path class="legend" d="M 495.7 595.0 Q 493.6 595.0, 492.6 593.4 Q 491.5 591.9, 491.5 589.2 Q 491.5 586.4, 492.6 584.9 Q 493.6 583.4, 495.7 583.4 Q 497.8 583.4, 498.8 584.9 Q 499.8 586.4, 499.8 589.2 Q 499.8 591.9, 498.8 593.4 Q 497.8 595.0, 495.7 595.0 M 495.7 593.7 Q 496.9 593.7, 497.6 592.6 Q 498.2 591.4, 498.2 589.2 Q 498.2 586.9, 497.6 585.8 Q 496.9 584.7, 495.7 584.7 Q 494.5 584.7, 493.8 585.8 Q 493.1 586.9, 493.1 589.2 Q 493.1 591.4, 493.8 592.6 Q 494.5 593.7, 495.7 593.7 " fill="#000000"/>
<path class="legend" d="M 501.5 593.2 L 503.1 593.2 L 503.1 594.8 L 501.5 594.8 L 501.5 593.2 " fill="#000000"/>
<path class="legend" d="M 508.8 595.0 Q 506.8 595.0, 505.7 593.4 Q 504.7 591.9, 504.7 589.2 Q 504.7 586.4, 505.7 584.9 Q 506.7 583.4, 508.8 583.4 Q 510.9 583.4, 512.0 584.9 Q 513.0 586.4, 513.0 589.2 Q 513.0 591.9, 511.9 593.4 Q 510.9 595.0, 508.8 595.0 M 508.8 593.7 Q 510.1 593.7, 510.7 592.6 Q 511.4 591.4, 511.4 589.2 Q 511.4 586.9, 510.7 585.8 Q 510.1 584.7, 508.8 584.7 Q 507.6 584.7, 506.9 585.8 Q 506.3 586.9, 506.3 589.2 Q 506.3 591.4, 506.9 592.6 Q 507.6 593.7, 508.8 593.7 " fill="#000000"/>
<path class="legend" d="M 519.0 587.8 Q 520.0 587.8, 520.8 588.2 Q 521.6 588.6, 522.0 589.4 Q 522.5 590.2, 522.5 591.2 Q 522.5 592.3, 522.0 593.2 Q 521.5 594.0, 520.6 594.5 Q 519.8 595.0, 518.6 595.0 Q 516.6 595.0, 515.6 593.6 Q 514.6 592.2, 514.6 589.5 Q 514.6 586.5, 515.9 585.0 Q 517.1 583.4, 519.5 583.4 Q 520.2 583.4, 520.8 583.5 Q 521.4 583.7, 522.0 584.0 L 521.4 585.1 Q 520.6 584.7, 519.5 584.7 Q 517.9 584.7, 517.1 585.7 Q 516.3 586.7, 516.2 588.9 Q 516.8 588.3, 517.5 588.1 Q 518.2 587.8, 519.0 587.8 M 518.7 593.7 Q 519.3 593.7, 519.8 593.3 Q 520.3 593.0, 520.6 592.5 Q 520.9 591.9, 520.9 591.2 Q 520.9 590.2, 520.3 589.6 Q 519.7 589.0, 518.7 589.0 Q 518.1 589.0, 517.4 589.3 Q 516.7 589.6, 516.2 590.1 Q 516.3 592.0, 516.9 592.8 Q 517.5 593.7, 518.7 593.7 " fill="#000000"/>
<path class="legend" d="M 523.9 587.9 L 531.3 587.9 L 531.3 589.0 L 523.9 589.0 L 523.9 587.9 M 523.9 591.3 L 531.3 591.3 L 531.3 592.5 L 523.9 592.5 L 523.9 591.3 " fill="#000000"/>
<path class="legend" d="M 533.3 589.1 L 539.2 589.1 L 539.2 590.4 L 533.3 590.4 L 533.3 589.1 " fill="#000000"/>
<path class="legend" d="M 544.7 595.0 Q 542.6 595.0, 541.6 593.4 Q 540.6 591.9, 540.6 589.2 Q 540.6 586.4, 541.6 584.9 Q 542.6 583.4, 544.7 583.4 Q 546.8 583.4, 547.8 584.9 Q 548.8 586.4, 548.8 589.2 Q 548.8 591.9, 547.8 593.4 Q 546.8 595.0, 544.7 595.0 M 544.7 593.7 Q 545.9 593.7, 546.6 592.6 Q 547.2 591.4, 547.2 589.2 Q 547.2 586.9, 546.6 585.8 Q 545.9 584.7, 544.7 584.7 Q 543.5 584.7, 542.8 585.8 Q 542.2 586.9, 542.2 589.2 Q 542.2 591.4, 542.8 592.6 Q 543.5 593.7, 544.7 593.7 " fill="#000000"/>
<path class="legend" d="M 550.5 593.2 L 552.1 593.2 L 552.1 594.8 L 550.5 594.8 L 550.5 593.2 " fill="#000000"/>
<path class="legend" d="M 557.8 587.8 Q 558.8 587.8, 559.6 588.2 Q 560.4 588.6, 560.9 589.4 Q 561.4 590.2, 561.4 591.3 Q 561.4 592.4, 560.8 593.3 Q 560.2 594.1, 559.3 594.5 Q 558.4 595.0, 557.3 595.0 Q 556.3 595.0, 555.3 594.6 Q 554.4 594.2, 553.7 593.5 L 554.7 592.5 Q 555.2 593.0, 555.9 593.4 Q 556.6 593.7, 557.4 593.7 Q 558.4 593.7, 559.1 593.0 Q 559.8 592.4, 559.8 591.3 Q 559.8 590.1, 559.1 589.5 Q 558.4 589.0, 557.3 589.0 Q 556.3 589.0, 555.2 589.4 L 554.3 589.0 L 554.8 583.5 L 560.7 583.5 L 560.5 584.8 L 556.1 584.8 L 555.8 588.2 Q 556.8 587.8, 557.8 587.8 " fill="#000000"/>
<path class="legend" d="M 568.7 584.8 L 562.7 584.8 L 562.7 583.5 L 570.2 583.5 L 570.2 584.6 L 565.7 594.8 L 564.1 594.8 L 568.7 584.8 " fill="#000000"/>
<path class="bond-0 atom-0 atom-1" d="M 790.9,494.1 L 755.5,517.4" style="fill:none;fill-rule:evenodd;stroke:#000000;stroke-width:2.0px;stroke-linecap:butt;stroke-linejoin:miter;stroke-opacity:1"/>
<path class="bond-1 atom-1 atom-2" d="M 755.5,517.4 L 717.7,498.3" style="fill:none;fill-rule:evenodd;stroke:#000000;stroke-width:2.0px;stroke-linecap:butt;stroke-linejoin:miter;stroke-opacity:1"/>
<path class="bond-2 atom-2 atom-3" d="M 717.7,498.3 L 682.3,521.6" style="fill:none;fill-rule:evenodd;stroke:#000000;stroke-width:2.0px;stroke-linecap:butt;stroke-linejoin:miter;stroke-opacity:1"/>
<path class="bond-3 atom-3 atom-4" d="M 682.3,521.6 L 644.5,502.5" style="fill:none;fill-rule:evenodd;stroke:#000000;stroke-width:2.0px;stroke-linecap:butt;stroke-linejoin:miter;stroke-opacity:1"/>
<path class="bond-4 atom-4 atom-5" d="M 647.8,504.2 L 646.7,486.0" style="fill:none;fill-rule:evenodd;stroke:#000000;stroke-width:2.0px;stroke-linecap:butt;stroke-linejoin:miter;stroke-opacity:1"/>
<path class="bond-4 atom-4 atom-5" d="M 646.7,486.0 L 645.7,467.7" style="fill:none;fill-rule:evenodd;stroke:#FF0000;stroke-width:2.0px;stroke-linecap:butt;stroke-linejoin:miter;stroke-opacity:1"/>
<path class="bond-4 atom-4 atom-5" d="M 641.4,504.6 L 640.4,486.3" style="fill:none;fill-rule:evenodd;stroke:#000000;stroke-width:2.0px;stroke-linecap:butt;stroke-linejoin:miter;stroke-opacity:1"/>
<path class="bond-4 atom-4 atom-5" d="M 640.4,486.3 L 639.3,468.1" style="fill:none;fill-rule:evenodd;stroke:#FF0000;stroke-width:2.0px;stroke-linecap:butt;stroke-linejoin:miter;stroke-opacity:1"/>
<path class="bond-5 atom-4 atom-6" d="M 644.5,502.5 L 609.1,525.8" style="fill:none;fill-rule:evenodd;stroke:#000000;stroke-width:2.0px;stroke-linecap:butt;stroke-linejoin:miter;stroke-opacity:1"/>
<path d="M 757.3,516.2 L 755.5,517.4 L 753.6,516.4" style="fill:none;stroke:#000000;stroke-width:2.0px;stroke-linecap:butt;stroke-linejoin:miter;stroke-opacity:1;"/>
<path d="M 719.6,499.3 L 717.7,498.3 L 715.9,499.5" style="fill:none;stroke:#000000;stroke-width:2.0px;stroke-linecap:butt;stroke-linejoin:miter;stroke-opacity:1;"/>
<path d="M 684.1,520.4 L 682.3,521.6 L 680.4,520.6" style="fill:none;stroke:#000000;stroke-width:2.0px;stroke-linecap:butt;stroke-linejoin:miter;stroke-opacity:1;"/>
<path d="M 646.4,503.5 L 644.5,502.5 L 642.7,503.7" style="fill:none;stroke:#000000;stroke-width:2.0px;stroke-linecap:butt;stroke-linejoin:miter;stroke-opacity:1;"/>
<path class="atom-5" d="M 636.5 460.3 Q 636.5 457.4, 638.0 455.8 Q 639.4 454.2, 642.0 454.2 Q 644.7 454.2, 646.1 455.8 Q 647.6 457.4, 647.6 460.3 Q 647.6 463.2, 646.1 464.9 Q 644.7 466.5, 642.0 466.5 Q 639.4 466.5, 638.0 464.9 Q 636.5 463.2, 636.5 460.3 M 642.0 465.2 Q 643.9 465.2, 644.9 464.0 Q 645.9 462.7, 645.9 460.3 Q 645.9 458.0, 644.9 456.8 Q 643.9 455.6, 642.0 455.6 Q 640.2 455.6, 639.2 456.8 Q 638.2 457.9, 638.2 460.3 Q 638.2 462.7, 639.2 464.0 Q 640.2 465.2, 642.0 465.2 " fill="#FF0000"/>
<path class="legend" d="M 629.6 589.1 L 635.5 589.1 L 635.5 590.4 L 629.6 590.4 L 629.6 589.1 " fill="#000000"/>
<path class="legend" d="M 642.3 588.9 Q 643.4 589.2, 644.0 589.9 Q 644.5 590.6, 644.5 591.7 Q 644.5 592.7, 644.0 593.4 Q 643.5 594.2, 642.7 594.6 Q 641.8 595.0, 640.6 595.0 Q 639.4 595.0, 638.5 594.6 Q 637.6 594.2, 636.9 593.3 L 637.8 592.4 Q 638.5 593.1, 639.1 593.4 Q 639.7 593.7, 640.6 593.7 Q 641.7 593.7, 642.3 593.2 Q 642.9 592.6, 642.9 591.7 Q 642.9 590.6, 642.2 590.1 Q 641.6 589.5, 640.2 589.5 L 639.4 589.5 L 639.4 588.4 L 640.1 588.4 Q 641.3 588.4, 642.0 587.8 Q 642.7 587.3, 642.7 586.3 Q 642.7 585.5, 642.1 585.1 Q 641.6 584.7, 640.6 584.7 Q 639.7 584.7, 639.1 585.0 Q 638.5 585.3, 638.1 586.2 L 637.0 585.6 Q 637.4 584.6, 638.3 584.0 Q 639.3 583.4, 640.6 583.4 Q 642.3 583.4, 643.3 584.2 Q 644.3 585.0, 644.3 586.3 Q 644.3 587.2, 643.8 587.8 Q 643.3 588.5, 642.3 588.9 " fill="#000000"/>
<path class="legend" d="M 646.0 593.2 L 647.6 593.2 L 647.6 594.8 L 646.0 594.8 L 646.0 593.2 " fill="#000000"/>
<path class="legend" d="M 649.3 585.7 Q 649.7 584.6, 650.7 584.0 Q 651.7 583.4, 653.1 583.4 Q 654.8 583.4, 655.7 584.3 Q 656.7 585.2, 656.7 586.9 Q 656.7 588.6, 655.5 590.1 Q 654.2 591.7, 651.7 593.6 L 656.9 593.6 L 656.9 594.8 L 649.3 594.8 L 649.3 593.8 Q 651.4 592.3, 652.6 591.1 Q 653.9 590.0, 654.5 589.0 Q 655.1 588.0, 655.1 587.0 Q 655.1 585.9, 654.6 585.3 Q 654.0 584.7, 653.1 584.7 Q 652.2 584.7, 651.5 585.0 Q 650.9 585.4, 650.5 586.2 L 649.3 585.7 " fill="#000000"/>
<path class="legend" d="M 664.2 588.8 Q 665.3 589.3, 665.8 590.0 Q 666.4 590.6, 666.4 591.7 Q 666.4 592.7, 665.9 593.4 Q 665.4 594.2, 664.6 594.6 Q 663.7 595.0, 662.5 595.0 Q 660.6 595.0, 659.5 594.1 Q 658.4 593.3, 658.4 591.7 Q 658.4 590.8, 658.9 590.1 Q 659.4 589.4, 660.4 588.9 Q 659.7 588.5, 659.3 587.9 Q 658.9 587.2, 658.9 586.3 Q 658.9 585.0, 659.8 584.2 Q 660.8 583.4, 662.4 583.4 Q 664.1 583.4, 665.0 584.2 Q 666.0 585.0, 666.0 586.3 Q 666.0 587.1, 665.6 587.7 Q 665.1 588.3, 664.2 588.8 M 662.4 584.6 Q 661.5 584.6, 661.0 585.0 Q 660.5 585.5, 660.5 586.3 Q 660.5 586.9, 660.8 587.3 Q 661.2 587.7, 661.7 587.9 Q 662.2 588.1, 663.1 588.4 Q 663.8 588.0, 664.1 587.4 Q 664.4 586.9, 664.4 586.3 Q 664.4 585.5, 663.9 585.0 Q 663.4 584.6, 662.4 584.6 M 662.5 593.8 Q 663.6 593.8, 664.2 593.2 Q 664.8 592.7, 664.8 591.7 Q 664.8 591.1, 664.5 590.7 Q 664.2 590.3, 663.7 590.1 Q 663.2 589.9, 662.3 589.6 L 661.5 589.4 Q 660.7 589.8, 660.4 590.4 Q 660.0 591.0, 660.0 591.7 Q 660.0 592.7, 660.7 593.2 Q 661.4 593.8, 662.5 593.8 " fill="#000000"/>
<path class="legend" d="" fill="#000000"/>
<path class="legend" d="M 684.2 594.8 L 682.4 594.8 L 679.0 590.2 L 675.7 594.8 L 674.0 594.8 L 678.2 588.9 L 674.3 583.5 L 676.0 583.5 L 679.1 587.8 L 682.2 583.5 L 683.9 583.5 L 680.0 589.0 L 684.2 594.8 " fill="#000000"/>
<path class="legend" d="" fill="#000000"/>
<path class="legend" d="M 694.9 595.0 Q 692.8 595.0, 691.8 593.4 Q 690.7 591.9, 690.7 589.2 Q 690.7 586.4, 691.8 584.9 Q 692.8 583.4, 694.9 583.4 Q 697.0 583.4, 698.0 584.9 Q 699.0 586.4, 699.0 589.2 Q 699.0 591.9, 698.0 593.4 Q 697.0 595.0, 694.9 595.0 M 694.9 593.7 Q 696.1 593.7, 696.8 592.6 Q 697.4 591.4, 697.4 589.2 Q 697.4 586.9, 696.8 585.8 Q 696.1 584.7, 694.9 584.7 Q 693.7 584.7, 693.0 585.8 Q 692.3 586.9, 692.3 589.2 Q 692.3 591.4, 693.0 592.6 Q 693.7 593.7, 694.9 593.7 " fill="#000000"/>
<path class="legend" d="M 700.7 593.2 L 702.3 593.2 L 702.3 594.8 L 700.7 594.8 L 700.7 593.2 " fill="#000000"/>
<path class="legend" d="M 708.0 595.0 Q 706.0 595.0, 704.9 593.4 Q 703.9 591.9, 703.9 589.2 Q 703.9 586.4, 704.9 584.9 Q 705.9 583.4, 708.0 583.4 Q 710.1 583.4, 711.2 584.9 Q 712.2 586.4, 712.2 589.2 Q 712.2 591.9, 711.1 593.4 Q 710.1 595.0, 708.0 595.0 M 708.0 593.7 Q 709.3 593.7, 709.9 592.6 Q 710.6 591.4, 710.6 589.2 Q 710.6 586.9, 709.9 585.8 Q 709.3 584.7, 708.0 584.7 Q 706.8 584.7, 706.1 585.8 Q 705.5 586.9, 705.5 589.2 Q 705.5 591.4, 706.1 592.6 Q 706.8 593.7, 708.0 593.7 " fill="#000000"/>
<path class="legend" d="M 718.2 587.8 Q 719.2 587.8, 720.0 588.2 Q 720.8 588.6, 721.2 589.4 Q 721.7 590.2, 721.7 591.2 Q 721.7 592.3, 721.2 593.2 Q 720.7 594.0, 719.8 594.5 Q 719.0 595.0, 717.9 595.0 Q 715.8 595.0, 714.8 593.6 Q 713.8 592.2, 713.8 589.5 Q 713.8 586.5, 715.1 585.0 Q 716.3 583.4, 718.7 583.4 Q 719.4 583.4, 720.0 583.5 Q 720.6 583.7, 721.2 584.0 L 720.6 585.1 Q 719.8 584.7, 718.7 584.7 Q 717.1 584.7, 716.3 585.7 Q 715.5 586.7, 715.4 588.9 Q 716.0 588.3, 716.7 588.1 Q 717.5 587.8, 718.2 587.8 M 717.9 593.7 Q 718.5 593.7, 719.0 593.3 Q 719.5 593.0, 719.8 592.5 Q 720.1 591.9, 720.1 591.2 Q 720.1 590.2, 719.5 589.6 Q 718.9 589.0, 717.9 589.0 Q 717.3 589.0, 716.6 589.3 Q 715.9 589.6, 715.4 590.1 Q 715.5 592.0, 716.1 592.8 Q 716.7 593.7, 717.9 593.7 " fill="#000000"/>
<path class="legend" d="M 723.1 587.9 L 730.5 587.9 L 730.5 589.0 L 723.1 589.0 L 723.1 587.9 M 723.1 591.3 L 730.5 591.3 L 730.5 592.5 L 723.1 592.5 L 723.1 591.3 " fill="#000000"/>
<path class="legend" d="M 732.5 589.1 L 738.4 589.1 L 738.4 590.4 L 732.5 590.4 L 732.5 589.1 " fill="#000000"/>
<path class="legend" d="M 743.9 595.0 Q 741.8 595.0, 740.8 593.4 Q 739.8 591.9, 739.8 589.2 Q 739.8 586.4, 740.8 584.9 Q 741.8 583.4, 743.9 583.4 Q 746.0 583.4, 747.0 584.9 Q 748.1 586.4, 748.1 589.2 Q 748.1 591.9, 747.0 593.4 Q 746.0 595.0, 743.9 595.0 M 743.9 593.7 Q 745.1 593.7, 745.8 592.6 Q 746.5 591.4, 746.5 589.2 Q 746.5 586.9, 745.8 585.8 Q 745.1 584.7, 743.9 584.7 Q 742.7 584.7, 742.0 585.8 Q 741.4 586.9, 741.4 589.2 Q 741.4 591.4, 742.0 592.6 Q 742.7 593.7, 743.9 593.7 " fill="#000000"/>
<path class="legend" d="M 749.7 593.2 L 751.3 593.2 L 751.3 594.8 L 749.7 594.8 L 749.7 593.2 " fill="#000000"/>
<path class="legend" d="M 752.9 585.7 Q 753.4 584.6, 754.3 584.0 Q 755.3 583.4, 756.7 583.4 Q 758.4 583.4, 759.4 584.3 Q 760.3 585.2, 760.3 586.9 Q 760.3 588.6, 759.1 590.1 Q 757.9 591.7, 755.3 593.6 L 760.5 593.6 L 760.5 594.8 L 752.9 594.8 L 752.9 593.8 Q 755.0 592.3, 756.3 591.1 Q 757.5 590.0, 758.1 589.0 Q 758.7 588.0, 758.7 587.0 Q 758.7 585.9, 758.2 585.3 Q 757.7 584.7, 756.7 584.7 Q 755.8 584.7, 755.2 585.0 Q 754.6 585.4, 754.2 586.2 L 752.9 585.7 " fill="#000000"/>
<path class="legend" d="M 766.2 595.0 Q 764.2 595.0, 763.1 593.4 Q 762.1 591.9, 762.1 589.2 Q 762.1 586.4, 763.1 584.9 Q 764.1 583.4, 766.2 583.4 Q 768.3 583.4, 769.4 584.9 Q 770.4 586.4, 770.4 589.2 Q 770.4 591.9, 769.3 593.4 Q 768.3 595.0, 766.2 595.0 M 766.2 593.7 Q 767.5 593.7, 768.1 592.6 Q 768.8 591.4, 768.8 589.2 Q 768.8 586.9, 768.1 585.8 Q 767.5 584.7, 766.2 584.7 Q 765.0 584.7, 764.3 585.8 Q 763.7 586.9, 763.7 589.2 Q 763.7 591.4, 764.3 592.6 Q 765.0 593.7, 766.2 593.7 " fill="#000000"/>
</svg>